<?xml version="1.0" encoding="utf-8"?>
<!-- Generator: Adobe Illustrator 10.0, SVG Export Plug-In . SVG Version: 3.0.0 Build 76)  -->
<!DOCTYPE svg PUBLIC "-//W3C//DTD SVG 1.0//EN"    "http://www.w3.org/TR/2001/REC-SVG-20010904/DTD/svg10.dtd" [
	<!ENTITY ns_flows "http://ns.adobe.com/Flows/1.0/">
	<!ENTITY ns_extend "http://ns.adobe.com/Extensibility/1.0/">
	<!ENTITY ns_ai "http://ns.adobe.com/AdobeIllustrator/10.0/">
	<!ENTITY ns_svg "http://www.w3.org/2000/svg">
	<!ENTITY ns_xlink "http://www.w3.org/1999/xlink">
]>
<svg  xmlns:x="&ns_extend;" xmlns:i="&ns_ai;" xmlns:graph="&ns_graphs;"
	 xmlns="&ns_svg;" xmlns:xlink="&ns_xlink;" xmlns:a="http://ns.adobe.com/AdobeSVGViewerExtensions/3.0/" width="226" height="198"
	 viewBox="-0.302 -0.198 226 198" overflow="visible" enable-background="new -0.302 -0.198 226 198" xml:space="preserve">
	<g id="Layer_1_2_">
		<path fill="none" stroke="#000000" stroke-width="2" d="M206,99.5c0,49.153-43.428,89-97,89c-53.572,0-97-39.847-97-89
			s43.428-89,97-89C162.572,10.5,206,50.347,206,99.5z"/>
		<g>
			<path fill="#FFFFFF" d="M190.109,143.897v1.687l0.007,0.971c0,0.605,0.007,1.049,0.021,1.329c0.664,0.05,1.375,0.076,2.134,0.076
				c0.509,0,0.937-0.022,1.282-0.068c0.223-0.027,0.459-0.086,0.709-0.178c0.113-0.401,0.229-0.902,0.348-1.504h0.453
				c-0.124,0.995-0.186,1.659-0.186,1.99l0.014,0.307c-0.523,0.042-1.038,0.063-1.542,0.063l-1.072-0.019
				c-1.183-0.029-2.052-0.044-2.607-0.044c-0.533,0-1.24,0.016-2.123,0.047v-0.438h0.212c0.397,0,0.647-0.039,0.75-0.116
				c0.103-0.077,0.171-0.259,0.205-0.546c0.034-0.287,0.052-0.92,0.052-1.899v-3.75c0-0.615-0.015-1.118-0.045-1.51
				c-0.029-0.392-0.062-0.625-0.096-0.7s-0.083-0.133-0.147-0.174s-0.261-0.077-0.59-0.109l-0.528-0.055v-0.438h0.737l0.724,0.023
				c0.405,0.016,0.713,0.023,0.922,0.023l2.622-0.039l1.243-0.008c0.423-0.004,0.851,0.011,1.284,0.047
				c-0.17,0.537-0.264,1.234-0.281,2.094h-0.453c0-0.5-0.025-0.915-0.075-1.247c-0.538-0.2-1.199-0.3-1.982-0.3
				c-0.625,0-1.278,0.027-1.962,0.082c0.004,0.429,0,0.858-0.014,1.287l-0.014,1.054v1.39c0.453,0.031,0.853,0.047,1.201,0.047
				c1.088,0,1.705-0.038,1.849-0.113c0.144-0.076,0.216-0.311,0.216-0.705v-0.447h0.453c-0.032,0.69-0.048,1.241-0.048,1.652
				c0,0.434,0.016,0.946,0.048,1.535h-0.453v-0.396c0-0.437-0.086-0.704-0.257-0.802s-0.776-0.146-1.814-0.146
				C190.919,143.851,190.521,143.866,190.109,143.897z"/>
		</g>
		<path fill="#FFFFFF" d="M117,10.5c0,5.799-4.925,10.5-11,10.5s-11-4.701-11-10.5S99.925,0,106,0S117,4.701,117,10.5z"/>
		<path fill="none" d="M203,143.5c0,5.799-4.925,10.5-11,10.5s-11-4.701-11-10.5s4.925-10.5,11-10.5S203,137.701,203,143.5z"/>
		<path fill="none" d="M207,57.5c0,5.799-4.925,10.5-11,10.5s-11-4.701-11-10.5S189.925,47,196,47S207,51.701,207,57.5z"/>
		<path fill="#FFFFFF" d="M175,24.5c0,8.008-7.387,14.5-16.5,14.5c-9.113,0-16.5-6.492-16.5-14.5S149.387,10,158.5,10
			C167.613,10,175,16.492,175,24.5z"/>
		<g>
			<path d="M107.72,15.284c-0.324,0.156-1.092,0.348-2.064,0.348c-2.796,0-4.236-1.752-4.236-4.068c0-2.76,1.968-4.284,4.416-4.284
				c0.948,0,1.668,0.192,1.992,0.36l-0.384,1.44c-0.36-0.156-0.876-0.3-1.536-0.3c-1.44,0-2.568,0.876-2.568,2.688
				c0,1.62,0.96,2.64,2.58,2.64c0.564,0,1.164-0.108,1.536-0.264L107.72,15.284z"/>
		</g>
		<g>
			<path d="M151.72,28.784c-0.324,0.156-1.092,0.348-2.064,0.348c-2.796,0-4.236-1.752-4.236-4.068c0-2.76,1.968-4.284,4.416-4.284
				c0.948,0,1.668,0.192,1.992,0.36l-0.384,1.44c-0.36-0.156-0.876-0.3-1.536-0.3c-1.44,0-2.568,0.876-2.568,2.688
				c0,1.62,0.96,2.64,2.58,2.64c0.564,0,1.164-0.108,1.536-0.264L151.72,28.784z"/>
			<path d="M159.604,29.48l2.568-8.7h1.212l-2.568,8.7H159.604z"/>
			<path d="M166.6,21.032c0.672-0.12,1.548-0.18,2.46-0.18c1.548,0,2.556,0.252,3.324,0.84c0.84,0.624,1.368,1.632,1.368,3.072
				c0,1.548-0.564,2.616-1.332,3.276c-0.852,0.708-2.16,1.044-3.744,1.044c-0.948,0-1.632-0.06-2.076-0.12V21.032z M168.423,27.62
				c0.156,0.036,0.42,0.036,0.636,0.036c1.668,0.012,2.76-0.9,2.76-2.832c0-1.74-0.984-2.568-2.568-2.568
				c-0.396,0-0.672,0.036-0.828,0.072V27.62z"/>
		</g>
		<g>
			<path d="M154.032,13.756V9.844h0.696v3.672l2.352-0.768V9.244h0.696v3.288l0.936-0.312v2.496l-0.936,0.312v3.552l0.936-0.288
				v2.472l-0.936,0.312v3.912h-0.696v-3.696l-2.352,0.768v3.552h-0.696V22.3L153,22.636V20.14l1.032-0.336v-3.576L153,16.564v-2.472
				L154.032,13.756z M154.728,16.012v3.576l2.352-0.768v-3.576L154.728,16.012z"/>
		</g>
		<g>
			<path d="M176.624,18.252c0,0.216,0,1.536,0,1.536c0.912-0.816,1.416-0.984,2.424-1.008c1.2-0.024,1.968,1.176,1.992,2.136
				c0.024,0.504-0.12,1.032-0.312,1.44c-0.216,0.528-0.792,0.936-1.176,1.32C179.12,24.108,176,26.244,176,26.292V12.108h0.624
				C176.624,12.108,176.648,15.084,176.624,18.252z M176.888,20.628c-0.312,0.6-0.264,1.632-0.264,2.376v2.064
				c0,0.024,0.864-0.72,1.344-1.176c0.432-0.408,0.768-0.864,0.936-1.584c0.192-0.72,0.12-1.488-0.336-1.992
				C178.256,19.956,177.392,19.668,176.888,20.628z"/>
		</g>
		<path fill="#FFFFFF" d="M214,99.25c0,8.146-4.925,14.75-11,14.75s-11-6.604-11-14.75c0-8.146,4.925-14.75,11-14.75
			S214,91.104,214,99.25z"/>
		<g>
			<path d="M190.792,100.032c0.672-0.12,1.548-0.18,2.46-0.18c1.548,0,2.556,0.252,3.324,0.84c0.84,0.624,1.368,1.632,1.368,3.072
				c0,1.548-0.564,2.616-1.332,3.276c-0.852,0.708-2.16,1.044-3.744,1.044c-0.948,0-1.632-0.06-2.076-0.12V100.032z M192.616,106.62
				c0.156,0.036,0.42,0.036,0.636,0.036c1.668,0.012,2.76-0.9,2.76-2.832c0-1.74-0.984-2.568-2.568-2.568
				c-0.396,0-0.672,0.036-0.828,0.072V106.62z"/>
			<path d="M205.816,108.48l2.568-8.7h1.212l-2.568,8.7H205.816z"/>
			<path d="M217.624,104.58h-2.976v1.92h3.324v1.5h-5.148v-8.088h4.98v1.5h-3.156v1.68h2.976V104.58z"/>
		</g>
		<g>
			<path d="M200.032,93.756v-3.912h0.696v3.672l2.352-0.768v-3.504h0.696v3.288l0.936-0.312v2.496l-0.936,0.312v3.552l0.936-0.288
				v2.472l-0.936,0.312v3.912h-0.696v-3.696l-2.352,0.768v3.552h-0.696V102.3L199,102.636v-2.496l1.032-0.336v-3.576L199,96.564
				v-2.472L200.032,93.756z M200.728,96.012v3.576l2.352-0.768v-3.576L200.728,96.012z"/>
		</g>
		<g>
			<path d="M221.624,97.252c0,0.216,0,1.536,0,1.536c0.912-0.816,1.416-0.984,2.424-1.008c1.2-0.024,1.968,1.176,1.992,2.136
				c0.024,0.504-0.12,1.032-0.312,1.44c-0.216,0.528-0.792,0.936-1.176,1.32c-0.432,0.432-3.552,2.568-3.552,2.616V91.108h0.624
				C221.624,91.108,221.648,94.084,221.624,97.252z M221.888,99.628c-0.312,0.6-0.264,1.632-0.264,2.376v2.064
				c0,0.024,0.864-0.72,1.344-1.176c0.432-0.408,0.768-0.864,0.936-1.584c0.192-0.72,0.12-1.488-0.336-1.992
				C223.256,98.956,222.392,98.668,221.888,99.628z"/>
		</g>
		<path fill="#FFFFFF" d="M204,56.5c0,5.799-4.925,10.5-11,10.5s-11-4.701-11-10.5S186.925,46,193,46S204,50.701,204,56.5z"/>
		<g>
			<path d="M188.792,53.532c0.672-0.12,1.548-0.18,2.46-0.18c1.548,0,2.556,0.252,3.324,0.84c0.84,0.624,1.368,1.632,1.368,3.072
				c0,1.548-0.564,2.616-1.332,3.276c-0.852,0.708-2.16,1.044-3.744,1.044c-0.948,0-1.632-0.06-2.076-0.12V53.532z M190.616,60.12
				c0.156,0.036,0.42,0.036,0.636,0.036c1.668,0.012,2.76-0.9,2.76-2.832c0-1.74-0.984-2.568-2.568-2.568
				c-0.396,0-0.672,0.036-0.828,0.072V60.12z"/>
		</g>
		<path fill="#FFFFFF" d="M199,144.5c0,5.799-4.925,10.5-11,10.5s-11-4.701-11-10.5s4.925-10.5,11-10.5S199,138.701,199,144.5z"/>
		<g>
			<path d="M192.604,146.08h-2.976V148h3.324v1.5h-5.148v-8.088h4.98v1.5h-3.156v1.68h2.976V146.08z"/>
		</g>
		<path fill="#FFFFFF" d="M173,174.5c0,5.799-4.925,10.5-11,10.5s-11-4.701-11-10.5s4.925-10.5,11-10.5S173,168.701,173,174.5z"/>
		<g>
			<path d="M159.804,168.412h4.932v1.5h-3.108v1.848h2.904v1.488h-2.904v3.252h-1.824V168.412z"/>
		</g>
		<path fill="#FFFFFF" d="M68,174.5c0,5.799-4.925,10.5-11,10.5s-11-4.701-11-10.5S50.925,164,57,164S68,168.701,68,174.5z"/>
		<g>
			<path d="M60.548,178.128c-0.564,0.192-1.632,0.456-2.7,0.456c-1.476,0-2.544-0.372-3.288-1.08
				c-0.732-0.708-1.14-1.764-1.14-2.952c0.012-2.688,1.968-4.224,4.62-4.224c1.044,0,1.848,0.204,2.244,0.384l-0.384,1.476
				c-0.444-0.204-0.984-0.348-1.872-0.348c-1.524,0-2.688,0.864-2.688,2.616c0,1.68,1.056,2.652,2.556,2.652
				c0.408,0,0.744-0.048,0.888-0.108v-1.704h-1.248v-1.428h3.012V178.128z"/>
		</g>
		<path fill="#FFFFFF" d="M37,146.5c0,5.799-4.925,10.5-11,10.5s-11-4.701-11-10.5S19.925,136,26,136S37,140.701,37,146.5z"/>
		<g>
			<path d="M20.548,150.628c-0.564,0.192-1.632,0.456-2.7,0.456c-1.476,0-2.544-0.372-3.288-1.08
				c-0.732-0.708-1.14-1.764-1.14-2.952c0.012-2.688,1.968-4.224,4.62-4.224c1.044,0,1.848,0.204,2.244,0.384l-0.384,1.476
				c-0.444-0.204-0.984-0.348-1.872-0.348c-1.524,0-2.688,0.864-2.688,2.616c0,1.68,1.056,2.652,2.556,2.652
				c0.408,0,0.744-0.048,0.888-0.108v-1.704h-1.248v-1.428h3.012V150.628z"/>
			<path d="M28.648,151.48l2.568-8.7h1.212l-2.568,8.7H28.648z"/>
			<path d="M37.516,148.924L36.952,151h-1.896l2.472-8.088h2.388l2.52,8.088h-1.968l-0.624-2.076H37.516z M39.568,147.556
				l-0.504-1.716c-0.132-0.48-0.276-1.092-0.396-1.56h-0.036c-0.108,0.48-0.24,1.092-0.36,1.56l-0.492,1.716H39.568z"/>
		</g>
		<g>
			<path d="M24.032,136.756v-3.912h0.696v3.672l2.352-0.768v-3.504h0.696v3.288l0.936-0.312v2.496l-0.936,0.312v3.552l0.936-0.288
				v2.472l-0.936,0.312v3.912H27.08v-3.696l-2.352,0.768v3.552h-0.696V145.3L23,145.636v-2.496l1.032-0.336v-3.576L23,139.564
				v-2.472L24.032,136.756z M24.728,139.012v3.576l2.352-0.768v-3.576L24.728,139.012z"/>
		</g>
		<g>
			<path d="M44.624,140.252c0,0.216,0,1.536,0,1.536c0.912-0.816,1.416-0.984,2.424-1.008c1.2-0.024,1.968,1.176,1.992,2.136
				c0.024,0.504-0.12,1.032-0.312,1.44c-0.216,0.528-0.792,0.936-1.176,1.32C47.12,146.108,44,148.244,44,148.292v-14.184h0.624
				C44.624,134.108,44.648,137.084,44.624,140.252z M44.888,142.628c-0.312,0.6-0.264,1.632-0.264,2.376v2.064
				c0,0.024,0.864-0.72,1.344-1.176c0.432-0.408,0.768-0.864,0.936-1.584c0.192-0.72,0.12-1.488-0.336-1.992
				C46.256,141.956,45.392,141.668,44.888,142.628z"/>
		</g>
		<path fill="#FFFFFF" d="M31,59.5C31,65.299,26.075,70,20,70S9,65.299,9,59.5S13.925,49,20,49S31,53.701,31,59.5z"/>
		<g>
			<path d="M9.664,61.924L9.1,64H7.204l2.472-8.088h2.388L14.584,64h-1.968l-0.624-2.076H9.664z M11.716,60.556l-0.504-1.716
				c-0.132-0.48-0.276-1.092-0.396-1.56H10.78c-0.108,0.48-0.24,1.092-0.36,1.56l-0.492,1.716H11.716z"/>
			<path d="M22.336,64.48l2.568-8.7h1.212l-2.568,8.7H22.336z"/>
			<path d="M29.332,56.032c0.48-0.096,1.44-0.18,2.364-0.18c1.116,0,1.8,0.108,2.388,0.456c0.564,0.3,0.96,0.852,0.96,1.596
				c0,0.708-0.42,1.368-1.32,1.716v0.024c0.924,0.24,1.608,0.948,1.608,1.992c0,0.744-0.336,1.32-0.84,1.716
				c-0.588,0.468-1.572,0.732-3.18,0.732c-0.9,0-1.572-0.06-1.98-0.12V56.032z M31.144,59.116h0.6c0.972,0,1.476-0.396,1.476-0.996
				c0-0.612-0.468-0.936-1.296-0.936c-0.408,0-0.636,0.024-0.78,0.06V59.116z M31.144,62.704c0.18,0.036,0.396,0.036,0.708,0.036
				c0.828,0,1.56-0.324,1.56-1.176c0-0.816-0.732-1.14-1.644-1.14h-0.624V62.704z"/>
		</g>
		<g>
			<path d="M16.032,49.756v-3.912h0.696v3.672l2.352-0.768v-3.504h0.696v3.288l0.936-0.312v2.496l-0.936,0.312v3.552l0.936-0.288
				v2.472l-0.936,0.312v3.912H19.08v-3.696l-2.352,0.768v3.552h-0.696V58.3L15,58.636V56.14l1.032-0.336v-3.576L15,52.564v-2.472
				L16.032,49.756z M16.728,52.012v3.576l2.352-0.768v-3.576L16.728,52.012z"/>
		</g>
		<g>
			<path d="M38.624,53.252c0,0.216,0,1.536,0,1.536c0.912-0.816,1.416-0.984,2.424-1.008c1.2-0.024,1.968,1.176,1.992,2.136
				c0.024,0.504-0.12,1.032-0.312,1.44c-0.216,0.528-0.792,0.936-1.176,1.32C41.12,59.108,38,61.244,38,61.292V47.108h0.624
				C38.624,47.108,38.648,50.084,38.624,53.252z M38.888,55.628c-0.312,0.6-0.264,1.632-0.264,2.376v2.064
				c0,0.024,0.864-0.72,1.344-1.176c0.432-0.408,0.768-0.864,0.936-1.584c0.192-0.72,0.12-1.488-0.336-1.992
				C40.256,54.956,39.392,54.668,38.888,55.628z"/>
		</g>
		<path fill="#FFFFFF" d="M70,25.5C70,31.299,65.075,36,59,36s-11-4.701-11-10.5S52.925,15,59,15S70,19.701,70,25.5z"/>
		<g>
			<path d="M54.792,22.532c0.48-0.096,1.44-0.18,2.364-0.18c1.116,0,1.8,0.108,2.388,0.456c0.564,0.3,0.96,0.852,0.96,1.596
				c0,0.708-0.42,1.368-1.32,1.716v0.024c0.924,0.24,1.608,0.948,1.608,1.992c0,0.744-0.336,1.32-0.84,1.716
				c-0.588,0.468-1.572,0.732-3.18,0.732c-0.9,0-1.572-0.06-1.98-0.12V22.532z M56.604,25.616h0.6c0.972,0,1.476-0.396,1.476-0.996
				c0-0.612-0.468-0.936-1.296-0.936c-0.408,0-0.636,0.024-0.78,0.06V25.616z M56.604,29.204c0.18,0.036,0.396,0.036,0.708,0.036
				c0.828,0,1.56-0.324,1.56-1.176c0-0.816-0.732-1.14-1.644-1.14h-0.624V29.204z"/>
		</g>
		<path fill="#FFFFFF" d="M22,99.5c0,5.799-4.925,10.5-11,10.5S0,105.299,0,99.5S4.925,89,11,89S22,93.701,22,99.5z"/>
		<g>
			<path d="M8.664,102.424L8.1,104.5H6.204l2.472-8.088h2.388l2.52,8.088h-1.968l-0.624-2.076H8.664z M10.716,101.056l-0.504-1.716
				c-0.132-0.48-0.276-1.092-0.396-1.56H9.78c-0.108,0.48-0.24,1.092-0.36,1.56l-0.492,1.716H10.716z"/>
		</g>
		<path fill="#FFFFFF" d="M131,187.5c0,5.799-9.626,10.5-21.5,10.5S88,193.299,88,187.5s9.626-10.5,21.5-10.5S131,181.701,131,187.5
			z"/>
		<g>
			<path d="M91.804,186.912h4.932v1.5h-3.108v1.848h2.904v1.488h-2.904V195h-1.824V186.912z"/>
			<path d="M104.788,195.48l2.568-8.7h1.212l-2.568,8.7H104.788z"/>
			<path d="M118.54,194.628c-0.564,0.192-1.632,0.456-2.7,0.456c-1.476,0-2.544-0.372-3.288-1.08
				c-0.732-0.708-1.14-1.764-1.14-2.952c0.012-2.688,1.968-4.224,4.62-4.224c1.044,0,1.848,0.204,2.244,0.384l-0.384,1.476
				c-0.444-0.204-0.984-0.348-1.872-0.348c-1.524,0-2.688,0.864-2.688,2.616c0,1.68,1.056,2.652,2.556,2.652
				c0.408,0,0.744-0.048,0.888-0.108v-1.704h-1.248v-1.428h3.012V194.628z"/>
		</g>
		<g>
			<path d="M100.032,182.256v-3.912h0.696v3.672l2.352-0.768v-3.504h0.696v3.288l0.936-0.312v2.496l-0.936,0.312v3.552l0.936-0.288
				v2.472l-0.936,0.312v3.912h-0.696v-3.696l-2.352,0.768v3.552h-0.696V190.8L99,191.136v-2.496l1.032-0.336v-3.576L99,185.064
				v-2.472L100.032,182.256z M100.728,184.512v3.576l2.352-0.768v-3.576L100.728,184.512z"/>
		</g>
		<g>
			<path d="M122.624,183.252c0,0.216,0,1.536,0,1.536c0.912-0.816,1.416-0.984,2.424-1.008c1.2-0.024,1.968,1.176,1.992,2.136
				c0.024,0.504-0.12,1.032-0.312,1.44c-0.216,0.528-0.792,0.936-1.176,1.32c-0.432,0.432-3.552,2.568-3.552,2.616v-14.184h0.624
				C122.624,177.108,122.648,180.084,122.624,183.252z M122.888,185.628c-0.312,0.6-0.264,1.632-0.264,2.376v2.064
				c0,0.024,0.864-0.72,1.344-1.176c0.432-0.408,0.768-0.864,0.936-1.584c0.192-0.72,0.12-1.488-0.336-1.992
				C124.256,184.956,123.392,184.668,122.888,185.628z"/>
		</g>
	</g>
</svg>
