<?xml version="1.0" encoding="utf-8"?>
<!-- Generator: Adobe Illustrator 10.0, SVG Export Plug-In . SVG Version: 3.0.0 Build 76)  -->
<!DOCTYPE svg PUBLIC "-//W3C//DTD SVG 1.0//EN"    "http://www.w3.org/TR/2001/REC-SVG-20010904/DTD/svg10.dtd" [
	<!ENTITY ns_flows "http://ns.adobe.com/Flows/1.0/">
	<!ENTITY ns_extend "http://ns.adobe.com/Extensibility/1.0/">
	<!ENTITY ns_ai "http://ns.adobe.com/AdobeIllustrator/10.0/">
	<!ENTITY ns_svg "http://www.w3.org/2000/svg">
	<!ENTITY ns_xlink "http://www.w3.org/1999/xlink">
]>
<svg  xmlns:x="&ns_extend;" xmlns:i="&ns_ai;" xmlns:graph="&ns_graphs;"
	 xmlns="&ns_svg;" xmlns:xlink="&ns_xlink;" xmlns:a="http://ns.adobe.com/AdobeSVGViewerExtensions/3.0/" width="396" height="112"
	 viewBox="0.396 -0.48 396 112" overflow="visible" enable-background="new 0.396 -0.48 396 112" xml:space="preserve">
	<g id="Layer_1_2_">
		<path fill="#FFFFFF" stroke="#000000" d="M19.499,53.125c2.224-7.875,9.268-31.499,18.535-31.499
			c9.268,0,16.311,23.624,18.535,31.499C58.793,61,65.836,84.624,75.104,84.624S91.414,61,93.638,53.125s9.268-31.499,18.535-31.499
			c9.268,0,16.311,23.624,18.535,31.499s9.267,31.499,18.535,31.499S165.553,61,167.777,53.125s9.268-31.499,18.535-31.499
			c9.267,0,16.311,23.624,18.535,31.499s9.267,31.499,18.535,31.499S239.692,61,241.917,53.125
			c2.225-7.875,9.268-31.499,18.535-31.499c9.267,0,16.311,23.624,18.535,31.499"/>
		<g>
			<path fill="#FF0000" d="M309.214,58.572c-0.061-1.128-0.133-2.496-0.133-3.492h-0.023c-0.288,0.936-0.612,1.956-1.021,3.072
				l-1.428,3.924h-0.792l-1.32-3.852c-0.384-1.152-0.695-2.184-0.924-3.144h-0.023c-0.024,1.008-0.084,2.352-0.156,3.576
				l-0.216,3.468h-0.996l0.563-8.088h1.332l1.38,3.912c0.336,0.996,0.601,1.884,0.816,2.724h0.024
				c0.216-0.816,0.504-1.704,0.863-2.724l1.44-3.912h1.332l0.504,8.088h-1.032L309.214,58.572z"/>
			<path fill="#FF0000" d="M314.433,62.256c-1.56,0-2.783-1.152-2.783-2.988c0-1.944,1.283-3.084,2.88-3.084
				c1.668,0,2.796,1.212,2.796,2.976c0,2.16-1.5,3.096-2.88,3.096H314.433z M314.469,61.464c1.009,0,1.765-0.948,1.765-2.268
				c0-0.984-0.492-2.22-1.74-2.22c-1.236,0-1.776,1.152-1.776,2.256c0,1.272,0.721,2.232,1.74,2.232H314.469z"/>
			<path fill="#FF0000" d="M318.513,61.057c0.324,0.192,0.876,0.408,1.404,0.408c0.756,0,1.116-0.372,1.116-0.864
				c0-0.504-0.3-0.78-1.068-1.068c-1.056-0.384-1.548-0.948-1.548-1.644c0-0.936,0.768-1.704,2.004-1.704
				c0.588,0,1.104,0.156,1.416,0.36l-0.252,0.756c-0.228-0.132-0.647-0.336-1.188-0.336c-0.624,0-0.961,0.36-0.961,0.792
				c0,0.492,0.337,0.708,1.093,0.996c0.996,0.372,1.523,0.876,1.523,1.752c0,1.032-0.804,1.752-2.16,1.752
				c-0.636,0-1.224-0.168-1.632-0.408L318.513,61.057z"/>
			<path fill="#FF0000" d="M324.681,54.924v1.392h1.513v0.804h-1.513v3.132c0,0.72,0.204,1.128,0.792,1.128
				c0.288,0,0.456-0.024,0.612-0.072l0.048,0.804c-0.204,0.072-0.528,0.144-0.936,0.144c-0.492,0-0.889-0.168-1.141-0.444
				c-0.288-0.324-0.407-0.84-0.407-1.524v-3.168h-0.9v-0.804h0.9v-1.068L324.681,54.924z"/>
			<path fill="#FF0000" d="M334.94,53.604v7.02c0,0.516,0.013,1.104,0.049,1.5h-0.948l-0.048-1.008h-0.024
				c-0.324,0.648-1.02,1.14-1.968,1.14c-1.404,0-2.496-1.188-2.496-2.952c-0.012-1.944,1.2-3.12,2.604-3.12
				c0.9,0,1.5,0.42,1.752,0.876h0.024v-3.456H334.94z M333.885,58.681c0-0.144-0.012-0.312-0.048-0.456
				c-0.156-0.66-0.732-1.212-1.524-1.212c-1.092,0-1.739,0.96-1.739,2.232c0,1.188,0.588,2.16,1.716,2.16
				c0.708,0,1.355-0.48,1.548-1.26c0.036-0.144,0.048-0.288,0.048-0.456V58.681z"/>
			<path fill="#FF0000" d="M337.196,55.249c-0.396,0-0.659-0.312-0.659-0.684s0.275-0.672,0.684-0.672s0.672,0.3,0.672,0.672
				s-0.264,0.684-0.684,0.684H337.196z M336.692,62.125v-5.808h1.057v5.808H336.692z"/>
			<path fill="#FF0000" d="M339.356,61.057c0.324,0.192,0.876,0.408,1.404,0.408c0.756,0,1.116-0.372,1.116-0.864
				c0-0.504-0.301-0.78-1.068-1.068c-1.056-0.384-1.548-0.948-1.548-1.644c0-0.936,0.768-1.704,2.004-1.704
				c0.588,0,1.104,0.156,1.416,0.36l-0.252,0.756c-0.229-0.132-0.648-0.336-1.188-0.336c-0.624,0-0.96,0.36-0.96,0.792
				c0,0.492,0.336,0.708,1.093,0.996c0.995,0.372,1.523,0.876,1.523,1.752c0,1.032-0.804,1.752-2.16,1.752
				c-0.636,0-1.224-0.168-1.632-0.408L339.356,61.057z"/>
			<path fill="#FF0000" d="M344.253,58.212c0-0.744-0.013-1.344-0.049-1.896h0.948l0.061,0.996h0.023
				c0.42-0.72,1.116-1.128,2.053-1.128c1.416,0,2.472,1.188,2.472,2.952c0,2.088-1.284,3.12-2.641,3.12
				c-0.779,0-1.439-0.336-1.787-0.912h-0.024V64.5h-1.056V58.212z M345.309,59.76c0,0.144,0.012,0.3,0.048,0.432
				c0.18,0.732,0.828,1.236,1.572,1.236c1.116,0,1.764-0.912,1.764-2.244c0-1.164-0.6-2.16-1.716-2.16
				c-0.72,0-1.404,0.504-1.608,1.296c-0.023,0.144-0.06,0.3-0.06,0.432V59.76z"/>
			<path fill="#FF0000" d="M351.08,53.604h1.057v8.52h-1.057V53.604z"/>
			<path fill="#FF0000" d="M357.98,60.732c0,0.504,0.023,0.996,0.084,1.392h-0.948l-0.096-0.732h-0.036
				c-0.313,0.456-0.948,0.864-1.776,0.864c-1.176,0-1.775-0.828-1.775-1.668c0-1.404,1.248-2.172,3.492-2.16v-0.12
				c0-0.48-0.133-1.356-1.32-1.344c-0.552,0-1.116,0.156-1.524,0.432l-0.239-0.708c0.479-0.3,1.188-0.504,1.92-0.504
				c1.788,0,2.22,1.212,2.22,2.376V60.732z M356.948,59.161c-1.152-0.024-2.46,0.18-2.46,1.308c0,0.696,0.456,1.008,0.984,1.008
				c0.768,0,1.26-0.48,1.428-0.972c0.036-0.108,0.048-0.228,0.048-0.336V59.161z"/>
			<path fill="#FF0000" d="M363.813,61.92c-0.276,0.132-0.889,0.336-1.668,0.336c-1.752,0-2.893-1.188-2.893-2.976
				c0-1.788,1.225-3.096,3.12-3.096c0.624,0,1.176,0.156,1.464,0.312l-0.239,0.804c-0.252-0.132-0.648-0.276-1.225-0.276
				c-1.332,0-2.052,0.996-2.052,2.208c0,1.344,0.864,2.172,2.016,2.172c0.601,0,0.996-0.144,1.296-0.276L363.813,61.92z"/>
			<path fill="#FF0000" d="M365.576,59.4c0.024,1.428,0.924,2.016,1.98,2.016c0.756,0,1.224-0.132,1.607-0.288l0.192,0.744
				c-0.372,0.168-1.021,0.372-1.944,0.372c-1.775,0-2.855-1.188-2.855-2.928c0-1.764,1.044-3.144,2.735-3.144
				c1.896,0,2.389,1.668,2.389,2.736c0,0.216-0.013,0.384-0.036,0.504L365.576,59.4z M368.66,58.645
				c0.012-0.66-0.275-1.716-1.452-1.716c-1.08,0-1.536,0.984-1.62,1.716H368.66z"/>
			<path fill="#FF0000" d="M370.988,57.889c0-0.612-0.024-1.092-0.048-1.572h0.924l0.048,0.936h0.036
				c0.324-0.552,0.864-1.068,1.836-1.068c0.78,0,1.38,0.48,1.632,1.164h0.024c0.18-0.336,0.42-0.576,0.66-0.756
				c0.348-0.264,0.72-0.408,1.271-0.408c0.78,0,1.92,0.504,1.92,2.52v3.42h-1.032v-3.288c0-1.128-0.42-1.788-1.26-1.788
				c-0.611,0-1.067,0.444-1.26,0.948c-0.048,0.156-0.084,0.348-0.084,0.528v3.6h-1.032v-3.48c0-0.936-0.408-1.596-1.212-1.596
				c-0.647,0-1.14,0.528-1.308,1.056c-0.061,0.156-0.084,0.336-0.084,0.516v3.504h-1.032V57.889z"/>
			<path fill="#FF0000" d="M381.596,59.4c0.024,1.428,0.925,2.016,1.98,2.016c0.756,0,1.224-0.132,1.608-0.288l0.191,0.744
				c-0.372,0.168-1.02,0.372-1.943,0.372c-1.776,0-2.856-1.188-2.856-2.928c0-1.764,1.044-3.144,2.736-3.144
				c1.896,0,2.388,1.668,2.388,2.736c0,0.216-0.012,0.384-0.036,0.504L381.596,59.4z M384.681,58.645
				c0.012-0.66-0.276-1.716-1.452-1.716c-1.08,0-1.536,0.984-1.62,1.716H384.681z"/>
			<path fill="#FF0000" d="M387.008,57.889c0-0.612-0.012-1.092-0.048-1.572h0.937l0.06,0.948h0.024c0.288-0.54,0.96-1.08,1.92-1.08
				c0.804,0,2.052,0.48,2.052,2.472v3.468h-1.056v-3.348c0-0.936-0.349-1.728-1.345-1.728c-0.684,0-1.224,0.492-1.416,1.08
				c-0.048,0.132-0.071,0.324-0.071,0.492v3.504h-1.057V57.889z"/>
			<path fill="#FF0000" d="M394.892,54.924v1.392h1.513v0.804h-1.513v3.132c0,0.72,0.204,1.128,0.792,1.128
				c0.288,0,0.456-0.024,0.612-0.072l0.048,0.804c-0.204,0.072-0.527,0.144-0.936,0.144c-0.492,0-0.888-0.168-1.141-0.444
				c-0.287-0.324-0.407-0.84-0.407-1.524v-3.168h-0.9v-0.804h0.9v-1.068L394.892,54.924z"/>
		</g>
		<g>
			<path fill="none" stroke="#FF0000" d="M269.227,21.21l39.583,28.166"/>
			<path fill="none" stroke="#FF0000" d="M275.312,33.04l-6.085-11.83"/>
			<path fill="none" stroke="#FF0000" d="M283.47,23.841l-14.243-2.631"/>
		</g>
		<g>
			<path fill="none" stroke="#FF0000" d="M234.853,84.093l61.65-20.749"/>
			<path fill="none" stroke="#FF0000" d="M251.798,84.839l-16.945-0.746"/>
			<path fill="none" stroke="#FF0000" d="M249.564,72.691l-14.712,11.402"/>
		</g>
		<path fill="none" stroke="#000000" d="M0,52.125h289.486"/>
		<g>
			<path fill="#0A50A1" d="M181.403,95.127v-8.088h1.152l2.58,4.092c0.588,0.948,1.068,1.788,1.44,2.628l0.036-0.012
				c-0.096-1.08-0.12-2.064-0.12-3.312v-3.396h0.984v8.088h-1.056l-2.568-4.104c-0.564-0.9-1.104-1.824-1.5-2.7l-0.036,0.012
				c0.06,1.02,0.072,1.992,0.072,3.336v3.456H181.403z"/>
			<path fill="#0A50A1" d="M191.615,95.259c-1.56,0-2.784-1.152-2.784-2.988c0-1.944,1.284-3.084,2.88-3.084
				c1.668,0,2.796,1.212,2.796,2.976c0,2.16-1.5,3.096-2.88,3.096H191.615z M191.651,94.467c1.008,0,1.764-0.948,1.764-2.268
				c0-0.984-0.492-2.22-1.74-2.22c-1.236,0-1.776,1.152-1.776,2.256c0,1.272,0.72,2.232,1.74,2.232H191.651z"/>
			<path fill="#0A50A1" d="M186.383,101.107v7.02c0,0.516,0.012,1.104,0.048,1.5h-0.948l-0.048-1.008h-0.024
				c-0.324,0.648-1.02,1.14-1.968,1.14c-1.404,0-2.496-1.188-2.496-2.952c-0.012-1.944,1.2-3.12,2.604-3.12
				c0.9,0,1.5,0.42,1.752,0.876h0.024v-3.456H186.383z M185.327,106.183c0-0.144-0.012-0.312-0.048-0.456
				c-0.156-0.66-0.732-1.212-1.524-1.212c-1.092,0-1.74,0.96-1.74,2.232c0,1.188,0.588,2.16,1.716,2.16
				c0.708,0,1.356-0.48,1.548-1.26c0.036-0.144,0.048-0.288,0.048-0.456V106.183z"/>
			<path fill="#0A50A1" d="M188.639,102.751c-0.396,0-0.66-0.312-0.66-0.684s0.276-0.672,0.684-0.672c0.408,0,0.672,0.3,0.672,0.672
				s-0.264,0.684-0.684,0.684H188.639z M188.135,109.627v-5.808h1.056v5.808H188.135z"/>
			<path fill="#0A50A1" d="M190.799,108.559c0.324,0.192,0.876,0.408,1.404,0.408c0.756,0,1.116-0.372,1.116-0.864
				c0-0.504-0.3-0.78-1.068-1.068c-1.056-0.384-1.548-0.948-1.548-1.644c0-0.936,0.768-1.704,2.004-1.704
				c0.588,0,1.104,0.156,1.416,0.36l-0.252,0.756c-0.228-0.132-0.648-0.336-1.188-0.336c-0.624,0-0.96,0.36-0.96,0.792
				c0,0.492,0.336,0.708,1.092,0.996c0.996,0.372,1.524,0.876,1.524,1.752c0,1.032-0.804,1.752-2.16,1.752
				c-0.636,0-1.224-0.168-1.632-0.408L190.799,108.559z"/>
			<path fill="#0A50A1" d="M195.694,105.715c0-0.744-0.012-1.344-0.048-1.896h0.948l0.06,0.996h0.024
				c0.42-0.72,1.116-1.128,2.052-1.128c1.416,0,2.472,1.188,2.472,2.952c0,2.088-1.284,3.12-2.64,3.12
				c-0.78,0-1.44-0.336-1.788-0.912h-0.024v3.156h-1.056V105.715z M196.75,107.263c0,0.144,0.012,0.3,0.048,0.432
				c0.18,0.732,0.828,1.236,1.572,1.236c1.116,0,1.764-0.912,1.764-2.244c0-1.164-0.6-2.16-1.716-2.16
				c-0.72,0-1.404,0.504-1.608,1.296c-0.024,0.144-0.06,0.3-0.06,0.432V107.263z"/>
			<path fill="#0A50A1" d="M202.522,101.107h1.056v8.52h-1.056V101.107z"/>
			<path fill="#0A50A1" d="M209.422,108.235c0,0.504,0.024,0.996,0.084,1.392h-0.948l-0.096-0.732h-0.036
				c-0.312,0.456-0.948,0.864-1.776,0.864c-1.176,0-1.776-0.828-1.776-1.668c0-1.404,1.248-2.172,3.492-2.16v-0.12
				c0-0.48-0.132-1.356-1.32-1.344c-0.552,0-1.116,0.156-1.524,0.432l-0.24-0.708c0.48-0.3,1.188-0.504,1.92-0.504
				c1.788,0,2.22,1.212,2.22,2.376V108.235z M208.39,106.663c-1.152-0.024-2.46,0.18-2.46,1.308c0,0.696,0.456,1.008,0.984,1.008
				c0.768,0,1.26-0.48,1.428-0.972c0.036-0.108,0.048-0.228,0.048-0.336V106.663z"/>
			<path fill="#0A50A1" d="M215.254,109.423c-0.276,0.132-0.888,0.336-1.668,0.336c-1.752,0-2.892-1.188-2.892-2.976
				c0-1.788,1.224-3.096,3.12-3.096c0.624,0,1.176,0.156,1.464,0.312l-0.24,0.804c-0.252-0.132-0.648-0.276-1.224-0.276
				c-1.332,0-2.052,0.996-2.052,2.208c0,1.344,0.864,2.172,2.016,2.172c0.6,0,0.996-0.144,1.296-0.276L215.254,109.423z"/>
			<path fill="#0A50A1" d="M217.018,106.903c0.024,1.428,0.924,2.016,1.98,2.016c0.756,0,1.224-0.132,1.608-0.288l0.192,0.744
				c-0.372,0.168-1.02,0.372-1.944,0.372c-1.776,0-2.856-1.188-2.856-2.928c0-1.764,1.044-3.144,2.736-3.144
				c1.896,0,2.388,1.668,2.388,2.736c0,0.216-0.012,0.384-0.036,0.504L217.018,106.903z M220.102,106.147
				c0.012-0.66-0.276-1.716-1.452-1.716c-1.08,0-1.536,0.984-1.62,1.716H220.102z"/>
			<path fill="#0A50A1" d="M222.43,105.391c0-0.612-0.024-1.092-0.048-1.572h0.924l0.048,0.936h0.036
				c0.324-0.552,0.864-1.068,1.836-1.068c0.78,0,1.38,0.48,1.632,1.164h0.024c0.18-0.336,0.42-0.576,0.66-0.756
				c0.348-0.264,0.72-0.408,1.272-0.408c0.78,0,1.92,0.504,1.92,2.52v3.42h-1.032v-3.288c0-1.128-0.42-1.788-1.26-1.788
				c-0.612,0-1.068,0.444-1.26,0.948c-0.048,0.156-0.084,0.348-0.084,0.528v3.6h-1.032v-3.48c0-0.936-0.408-1.596-1.212-1.596
				c-0.648,0-1.14,0.528-1.308,1.056c-0.06,0.156-0.084,0.336-0.084,0.516v3.504h-1.032V105.391z"/>
			<path fill="#0A50A1" d="M233.038,106.903c0.024,1.428,0.924,2.016,1.98,2.016c0.756,0,1.224-0.132,1.608-0.288l0.192,0.744
				c-0.372,0.168-1.02,0.372-1.944,0.372c-1.776,0-2.856-1.188-2.856-2.928c0-1.764,1.044-3.144,2.736-3.144
				c1.896,0,2.388,1.668,2.388,2.736c0,0.216-0.012,0.384-0.036,0.504L233.038,106.903z M236.122,106.147
				c0.012-0.66-0.276-1.716-1.452-1.716c-1.08,0-1.536,0.984-1.62,1.716H236.122z"/>
			<path fill="#0A50A1" d="M238.45,105.391c0-0.612-0.012-1.092-0.048-1.572h0.936l0.06,0.948h0.024c0.288-0.54,0.96-1.08,1.92-1.08
				c0.804,0,2.052,0.48,2.052,2.472v3.468h-1.056v-3.348c0-0.936-0.348-1.728-1.344-1.728c-0.684,0-1.224,0.492-1.416,1.08
				c-0.048,0.132-0.072,0.324-0.072,0.492v3.504h-1.056V105.391z"/>
			<path fill="#0A50A1" d="M246.334,102.427v1.392h1.512v0.804h-1.512v3.132c0,0.72,0.204,1.128,0.792,1.128
				c0.288,0,0.456-0.024,0.612-0.072l0.048,0.804c-0.204,0.072-0.528,0.144-0.936,0.144c-0.492,0-0.888-0.168-1.14-0.444
				c-0.288-0.324-0.408-0.84-0.408-1.524v-3.168h-0.9v-0.804h0.9v-1.068L246.334,102.427z"/>
		</g>
		<g>
			<path fill="none" stroke="#0A50A1" d="M170.806,55.18l8.584,29.342"/>
			<path fill="none" stroke="#0A50A1" d="M178.76,60.601l-7.954-5.421"/>
			<path fill="none" stroke="#0A50A1" d="M167.258,64.826l3.547-9.646"/>
		</g>
		<g>
			<path fill="none" stroke="#0A50A1" d="M202.156,55.904L191.396,84.52"/>
			<path fill="none" stroke="#0A50A1" d="M193.818,60.714l8.338-4.81"/>
			<path fill="none" stroke="#0A50A1" d="M204.97,65.79l-2.814-9.886"/>
		</g>
		<path fill="#0A50A1" stroke="#0A50A1" d="M169.777,52.125c0,1.153-0.935,2.087-2.087,2.087s-2.087-0.935-2.087-2.087
			s0.935-2.087,2.087-2.087S169.777,50.972,169.777,52.125z"/>
		<path fill="#0A50A1" stroke="#0A50A1" d="M206.935,52.038c0,1.153-0.935,2.087-2.087,2.087s-2.087-0.935-2.087-2.087
			s0.935-2.087,2.087-2.087S206.935,50.885,206.935,52.038z"/>
		<path fill="#FF0000" stroke="#FF0000" d="M262.935,21.038c0,1.153-0.935,2.087-2.087,2.087s-2.087-0.935-2.087-2.087
			s0.935-2.087,2.087-2.087S262.935,19.885,262.935,21.038z"/>
		<path fill="#FF0000" stroke="#FF0000" d="M225.469,83.536c0,1.153-0.935,2.087-2.087,2.087s-2.087-0.935-2.087-2.087
			s0.935-2.087,2.087-2.087S225.469,82.383,225.469,83.536z"/>
		<g>
			<g>
				<path fill="none" stroke="#000000" d="M38.343,21.924v30.572"/>
				<path fill="none" stroke="#000000" d="M32.23,29.361l6.112-7.437"/>
				<path fill="none" stroke="#000000" d="M44.456,30.187l-6.113-8.263"/>
			</g>
			<g>
				<path fill="none" stroke="#000000" d="M38.344,52.497V21.924"/>
				<path fill="none" stroke="#000000" d="M44.456,45.06l-6.112,7.437"/>
				<path fill="none" stroke="#000000" d="M32.23,44.234l6.113,8.263"/>
			</g>
		</g>
		<g>
			<path d="M15.616,15.976l-0.84,2.544h-1.08l2.748-8.088h1.26l2.76,8.088h-1.116l-0.864-2.544H15.616z M18.268,15.16l-0.804-2.328
				c-0.168-0.528-0.288-1.008-0.408-1.476H17.02c-0.108,0.468-0.24,0.972-0.396,1.464l-0.792,2.34H18.268z"/>
			<path d="M21.58,14.284c0-0.612-0.024-1.092-0.048-1.572h0.924l0.048,0.936h0.036c0.324-0.552,0.864-1.068,1.836-1.068
				c0.78,0,1.38,0.48,1.632,1.164h0.024c0.18-0.336,0.42-0.576,0.66-0.756c0.348-0.264,0.72-0.408,1.272-0.408
				c0.78,0,1.92,0.504,1.92,2.52v3.42h-1.032v-3.288c0-1.128-0.42-1.788-1.26-1.788c-0.612,0-1.068,0.444-1.26,0.948
				c-0.048,0.156-0.084,0.348-0.084,0.528v3.6h-1.032v-3.48c0-0.936-0.408-1.596-1.212-1.596c-0.648,0-1.14,0.528-1.308,1.056
				c-0.06,0.156-0.084,0.336-0.084,0.516v3.504H21.58V14.284z"/>
			<path d="M31.587,14.608c0-0.744-0.012-1.344-0.048-1.896h0.948l0.06,0.996h0.024c0.42-0.72,1.116-1.128,2.052-1.128
				c1.416,0,2.472,1.188,2.472,2.952c0,2.088-1.284,3.12-2.64,3.12c-0.78,0-1.44-0.336-1.788-0.912h-0.024v3.156h-1.056V14.608z
				 M32.644,16.156c0,0.144,0.012,0.3,0.048,0.432c0.18,0.732,0.828,1.236,1.572,1.236c1.116,0,1.764-0.912,1.764-2.244
				c0-1.164-0.6-2.16-1.716-2.16c-0.72,0-1.404,0.504-1.608,1.296c-0.024,0.144-0.06,0.3-0.06,0.432V16.156z"/>
			<path d="M38.416,10h1.056v8.52h-1.056V10z"/>
			<path d="M41.728,11.644c-0.396,0-0.66-0.312-0.66-0.684s0.276-0.672,0.684-0.672c0.408,0,0.672,0.3,0.672,0.672
				s-0.264,0.684-0.684,0.684H41.728z M41.223,18.52v-5.808h1.056v5.808H41.223z"/>
			<path d="M45.303,11.32v1.392h1.512v0.804h-1.512v3.132c0,0.72,0.204,1.128,0.792,1.128c0.288,0,0.456-0.024,0.612-0.072
				l0.048,0.804c-0.204,0.072-0.528,0.144-0.936,0.144c-0.492,0-0.888-0.168-1.14-0.444c-0.288-0.324-0.408-0.84-0.408-1.524v-3.168
				h-0.9v-0.804h0.9v-1.068L45.303,11.32z"/>
			<path d="M52.863,16.936c0,0.6,0.012,1.128,0.048,1.584h-0.936l-0.06-0.948h-0.024c-0.264,0.468-0.888,1.08-1.92,1.08
				c-0.912,0-2.004-0.516-2.004-2.544v-3.396h1.056v3.204c0,1.104,0.348,1.86,1.296,1.86c0.708,0,1.2-0.492,1.392-0.972
				c0.06-0.144,0.096-0.336,0.096-0.54v-3.552h1.056V16.936z"/>
			<path d="M59.631,10v7.02c0,0.516,0.012,1.104,0.048,1.5h-0.948l-0.048-1.008h-0.024c-0.324,0.648-1.02,1.14-1.968,1.14
				c-1.404,0-2.496-1.188-2.496-2.952c-0.012-1.944,1.2-3.12,2.604-3.12c0.9,0,1.5,0.42,1.752,0.876h0.024V10H59.631z
				 M58.575,15.076c0-0.144-0.012-0.312-0.048-0.456c-0.156-0.66-0.732-1.212-1.524-1.212c-1.092,0-1.74,0.96-1.74,2.232
				c0,1.188,0.588,2.16,1.716,2.16c0.708,0,1.356-0.48,1.548-1.26c0.036-0.144,0.048-0.288,0.048-0.456V15.076z"/>
			<path d="M61.983,15.796c0.024,1.428,0.924,2.016,1.98,2.016c0.756,0,1.224-0.132,1.608-0.288l0.192,0.744
				c-0.372,0.168-1.02,0.372-1.944,0.372c-1.776,0-2.856-1.188-2.856-2.928c0-1.764,1.044-3.144,2.736-3.144
				c1.896,0,2.388,1.668,2.388,2.736c0,0.216-0.012,0.384-0.036,0.504L61.983,15.796z M65.067,15.04
				c0.012-0.66-0.276-1.716-1.452-1.716c-1.08,0-1.536,0.984-1.62,1.716H65.067z"/>
		</g>
		<g>
			<g>
				<path fill="none" stroke="#000000" d="M117.057,20.21h30.572"/>
				<path fill="none" stroke="#000000" d="M124.494,26.323l-7.437-6.112"/>
				<path fill="none" stroke="#000000" d="M125.32,14.097l-8.263,6.113"/>
			</g>
			<path fill="none" stroke="#000000" d="M180.63,20.209h-63.572"/>
			<path fill="none" stroke="#000000" d="M173.193,14.097l7.437,6.112"/>
			<path fill="none" stroke="#000000" d="M172.367,26.323l8.263-6.113"/>
		</g>
		<g>
			<path d="M117.627,8.52l-2.052-8.088h1.104l0.96,4.092c0.24,1.02,0.456,2.016,0.6,2.796h0.024c0.132-0.804,0.384-1.764,0.66-2.808
				l1.08-4.08h1.092l0.984,4.104c0.228,0.972,0.444,1.92,0.564,2.772h0.024c0.168-0.888,0.396-1.788,0.648-2.796l1.068-4.08h1.068
				L123.16,8.52h-1.092l-1.02-4.2c-0.252-1.044-0.42-1.836-0.528-2.652h-0.024c-0.132,0.816-0.324,1.596-0.624,2.64L118.72,8.52
				H117.627z"/>
			<path d="M130.107,7.128c0,0.504,0.024,0.996,0.084,1.392h-0.948l-0.096-0.732h-0.036c-0.312,0.456-0.948,0.864-1.776,0.864
				c-1.176,0-1.776-0.828-1.776-1.668c0-1.404,1.248-2.172,3.492-2.16v-0.12c0-0.48-0.132-1.356-1.32-1.344
				c-0.552,0-1.116,0.156-1.524,0.432l-0.24-0.708c0.48-0.3,1.188-0.504,1.92-0.504c1.788,0,2.22,1.212,2.22,2.376V7.128z
				 M129.076,5.556c-1.152-0.024-2.46,0.18-2.46,1.308c0,0.696,0.456,1.008,0.984,1.008c0.768,0,1.26-0.48,1.428-0.972
				c0.036-0.108,0.048-0.228,0.048-0.336V5.556z"/>
			<path d="M132.052,2.712l1.14,3.252c0.192,0.54,0.348,1.02,0.468,1.5h0.036c0.132-0.48,0.3-0.96,0.492-1.5l1.128-3.252h1.104
				l-2.28,5.808h-1.008l-2.208-5.808H132.052z"/>
			<path d="M137.884,5.796c0.024,1.428,0.924,2.016,1.98,2.016c0.756,0,1.224-0.132,1.608-0.288l0.192,0.744
				c-0.372,0.168-1.02,0.372-1.944,0.372c-1.776,0-2.856-1.188-2.856-2.928c0-1.764,1.044-3.144,2.736-3.144
				c1.896,0,2.388,1.668,2.388,2.736c0,0.216-0.012,0.384-0.036,0.504L137.884,5.796z M140.968,5.04
				c0.012-0.66-0.276-1.716-1.452-1.716c-1.08,0-1.536,0.984-1.62,1.716H140.968z"/>
			<path d="M143.295,0h1.056v8.52h-1.056V0z"/>
			<path d="M146.704,5.796c0.024,1.428,0.924,2.016,1.98,2.016c0.756,0,1.224-0.132,1.608-0.288l0.192,0.744
				c-0.372,0.168-1.02,0.372-1.944,0.372c-1.776,0-2.856-1.188-2.856-2.928c0-1.764,1.044-3.144,2.736-3.144
				c1.896,0,2.388,1.668,2.388,2.736c0,0.216-0.012,0.384-0.036,0.504L146.704,5.796z M149.788,5.04
				c0.012-0.66-0.276-1.716-1.452-1.716c-1.08,0-1.536,0.984-1.62,1.716H149.788z"/>
			<path d="M152.115,4.284c0-0.612-0.012-1.092-0.048-1.572h0.936l0.06,0.948h0.024c0.288-0.54,0.96-1.08,1.92-1.08
				c0.804,0,2.052,0.48,2.052,2.472V8.52h-1.056V5.172c0-0.936-0.348-1.728-1.344-1.728c-0.684,0-1.224,0.492-1.416,1.08
				c-0.048,0.132-0.072,0.324-0.072,0.492V8.52h-1.056V4.284z"/>
			<path d="M163.743,7.668c0,1.344-0.276,2.148-0.828,2.664c-0.576,0.516-1.392,0.696-2.124,0.696c-0.696,0-1.464-0.168-1.932-0.48
				l0.264-0.816c0.384,0.252,0.984,0.468,1.704,0.468c1.08,0,1.872-0.564,1.872-2.04V7.524h-0.024
				c-0.312,0.54-0.948,0.972-1.848,0.972c-1.44,0-2.472-1.224-2.472-2.844c0-1.968,1.284-3.072,2.628-3.072
				c1.008,0,1.548,0.516,1.812,0.996h0.024l0.036-0.864h0.936c-0.036,0.408-0.048,0.876-0.048,1.584V7.668z M162.688,4.992
				c0-0.168-0.012-0.324-0.06-0.468c-0.192-0.624-0.696-1.128-1.476-1.128c-1.008,0-1.728,0.852-1.728,2.208
				c0,1.128,0.588,2.088,1.716,2.088c0.66,0,1.248-0.408,1.464-1.092c0.06-0.168,0.084-0.372,0.084-0.564V4.992z"/>
			<path d="M166.755,1.32v1.392h1.512v0.804h-1.512v3.132c0,0.72,0.204,1.128,0.792,1.128c0.288,0,0.456-0.024,0.612-0.072
				l0.048,0.804c-0.204,0.072-0.528,0.144-0.936,0.144c-0.492,0-0.888-0.168-1.14-0.444c-0.288-0.324-0.408-0.84-0.408-1.524V3.516
				h-0.9V2.712h0.9V1.644L166.755,1.32z"/>
			<path d="M169.455,0h1.056v3.624h0.024c0.168-0.3,0.432-0.576,0.756-0.744c0.312-0.192,0.684-0.3,1.08-0.3
				c0.78,0,2.028,0.48,2.028,2.484V8.52h-1.056V5.184c0-0.948-0.348-1.728-1.344-1.728c-0.684,0-1.212,0.48-1.416,1.056
				c-0.06,0.144-0.072,0.3-0.072,0.504V8.52h-1.056V0z"/>
		</g>
	</g>
</svg>
