<?xml version="1.0" encoding="utf-8"?>
<!-- Generator: Adobe Illustrator 10.0, SVG Export Plug-In . SVG Version: 3.0.0 Build 76)  -->
<!DOCTYPE svg PUBLIC "-//W3C//DTD SVG 1.0//EN"    "http://www.w3.org/TR/2001/REC-SVG-20010904/DTD/svg10.dtd" [
	<!ENTITY ns_flows "http://ns.adobe.com/Flows/1.0/">
	<!ENTITY ns_extend "http://ns.adobe.com/Extensibility/1.0/">
	<!ENTITY ns_ai "http://ns.adobe.com/AdobeIllustrator/10.0/">
	<!ENTITY ns_svg "http://www.w3.org/2000/svg">
	<!ENTITY ns_xlink "http://www.w3.org/1999/xlink">
]>
<svg  xmlns:x="&ns_extend;" xmlns:i="&ns_ai;" xmlns:graph="&ns_graphs;"
	 xmlns="&ns_svg;" xmlns:xlink="&ns_xlink;" xmlns:a="http://ns.adobe.com/AdobeSVGViewerExtensions/3.0/" width="311" height="246"
	 viewBox="0.064 -0.278 311 246" overflow="visible" enable-background="new 0.064 -0.278 311 246" xml:space="preserve">
	<g id="Layer_1_2_">
		<g>
			<path fill="#FFFFFF" stroke="#000000" stroke-width="2" d="M2.601,68.253c0.218-1.885-2.972-4.033-1-6.188
				c2.518-2.747,3.929,1.227,4.723,2.568"/>
			<path fill="#FFFFFF" stroke="#000000" stroke-width="2" d="M6.388,64.393c1.345,4.089,5.259,7.937,7.502,11.686
				c3.433,5.739,6.419,11.788,10.108,17.205c1.52,2.23,2.24,5.284,4.726,6.527"/>
			<path fill="#FFFFFF" stroke="#000000" stroke-width="2" d="M3.462,67.495c-0.392,2.231,2.19,4.687,3.312,6.48
				c1.816,2.905,3.43,5.893,5.389,8.705c3.256,4.675,5.719,10.055,9,14.654c0.852,1.194,1.922,1.878,2.766,3.097
				c0.863,1.25,1.256,2.769,2.137,4.032"/>
			<path fill="#FFFFFF" stroke="#000000" stroke-width="2" d="M28.457,100.069c-0.165,1.877,4.574,4.32,6.117,4.912"/>
			<path fill="#FFFFFF" stroke="#000000" stroke-width="2" d="M26.064,104.722c1.367,2.81,2.105,4.416,2.127,7.756"/>
			<path fill="#FFFFFF" stroke="#000000" stroke-width="2" d="M27.66,112.994c3.701,0.45,7.626-4.962,7.18-8.272"/>
			<g>
				<g>
					<path fill="none" d="M8.781,71.889"/>
					<path d="M8.641,73.375c1.91,0,2.203-2.972,0.281-2.972C7.012,70.403,6.719,73.375,8.641,73.375z"/>
				</g>
			</g>
			<g>
				<g>
					<path fill="none" d="M12.504,76.802"/>
					<path d="M12.363,78.288c1.91,0,2.203-2.972,0.281-2.972C10.734,75.316,10.441,78.288,12.363,78.288z"/>
				</g>
			</g>
			<g>
				<g>
					<path fill="none" d="M15.162,80.68"/>
					<path d="M15.021,82.166c1.91,0,2.203-2.972,0.281-2.972C13.393,79.194,13.1,82.166,15.021,82.166z"/>
				</g>
			</g>
			<g>
				<g>
					<path fill="none" d="M17.822,85.591"/>
					<path d="M17.682,87.077c1.91,0,2.203-2.972,0.281-2.972C16.053,84.105,15.76,87.077,17.682,87.077z"/>
				</g>
			</g>
			<g>
				<g>
					<path fill="none" d="M20.215,89.986"/>
					<path d="M20.074,91.472c1.91,0,2.203-2.972,0.281-2.972C18.445,88.5,18.152,91.472,20.074,91.472z"/>
				</g>
			</g>
			<g>
				<g>
					<path fill="none" d="M22.874,94.381"/>
					<path d="M22.733,95.867c1.91,0,2.203-2.972,0.281-2.972C21.104,92.895,20.812,95.867,22.733,95.867z"/>
				</g>
			</g>
		</g>
		<g>
			<path fill="#FFFFFF" stroke="#000000" stroke-width="2" d="M7.986,5.396c0.139-1.195-1.902-2.557-0.64-3.922
				c1.611-1.742,2.515,0.777,3.022,1.628"/>
			<path fill="#FFFFFF" stroke="#000000" stroke-width="2" d="M10.41,2.949c0.861,2.592,3.365,5.031,4.801,7.408
				c2.196,3.638,4.107,7.472,6.469,10.906c0.972,1.414,1.432,3.349,3.022,4.137"/>
			<path fill="#FFFFFF" stroke="#000000" stroke-width="2" d="M8.537,4.916c-0.25,1.414,1.402,2.971,2.119,4.107
				c1.162,1.842,2.195,3.736,3.449,5.519c2.083,2.963,3.66,6.373,5.759,9.288c0.545,0.757,1.229,1.191,1.769,1.964
				c0.553,0.791,0.805,1.754,1.368,2.556"/>
			<path fill="#FFFFFF" stroke="#000000" stroke-width="2" d="M24.532,25.563c-0.106,1.191,2.927,2.739,3.913,3.115"/>
			<path fill="#FFFFFF" stroke="#000000" stroke-width="2" d="M23.001,28.514c0.875,1.782,1.348,2.799,1.361,4.916"/>
			<path fill="#FFFFFF" stroke="#000000" stroke-width="2" d="M24.022,33.757c2.367,0.285,4.88-3.146,4.593-5.244"/>
			<g>
				<g>
					<path fill="none" d="M11.941,7.702"/>
					<path d="M11.801,9.188c1.91,0,2.203-2.972,0.281-2.972C10.172,6.216,9.879,9.188,11.801,9.188z"/>
				</g>
			</g>
			<g>
				<g>
					<path fill="none" d="M14.323,10.815"/>
					<path d="M14.183,12.301c1.91,0,2.203-2.972,0.281-2.972C12.554,9.329,12.261,12.301,14.183,12.301z"/>
				</g>
			</g>
			<g>
				<g>
					<path fill="none" d="M16.025,13.273"/>
					<path d="M15.885,14.759c1.91,0,2.203-2.972,0.281-2.972C14.256,11.787,13.963,14.759,15.885,14.759z"/>
				</g>
			</g>
			<g>
				<g>
					<path fill="none" d="M17.727,16.388"/>
					<path d="M17.586,17.874c1.91,0,2.203-2.972,0.281-2.972C15.957,14.902,15.664,17.874,17.586,17.874z"/>
				</g>
			</g>
			<g>
				<g>
					<path fill="none" d="M19.257,19.172"/>
					<path d="M19.116,20.658c1.91,0,2.203-2.972,0.281-2.972C17.487,17.687,17.194,20.658,19.116,20.658z"/>
				</g>
			</g>
			<g>
				<g>
					<path fill="none" d="M20.959,21.958"/>
					<path d="M20.818,23.444c1.91,0,2.203-2.972,0.281-2.972C19.189,20.473,18.896,23.444,20.818,23.444z"/>
				</g>
			</g>
		</g>
		<g>
			<path fill="none" stroke="#000000" d="M30.729,243.081c1.767,1.968,8.505,3.172,9.839,0"/>
			<g>
				<path fill="none" stroke="#000000" d="M15.306,141.482c0.927,2.402,4.471,1.335,5.352-0.221c0.828-1.46,1.086-4.272,1.559-5.948
					c1.246-4.417,4.262-5.961,9.045-5.465"/>
				<path fill="none" stroke="#000000" d="M31.261,133.984c0.338-1.929,0.459-5.573,3.149-5.684
					c2.286-0.093,2.928,3.758,2.966,5.684"/>
				<path fill="none" stroke="#000000" d="M31.261,133.984v78.073"/>
				<path fill="none" stroke="#000000" d="M37.376,133.984l2.127,78.849"/>
				<path fill="none" stroke="#000000" d="M31.527,212.315c1.051,2.644-1.203,4.79-2.129,7.113c-1.469,3.686-0.385,7.063,0.8,10.467
					"/>
				<path fill="none" stroke="#000000" d="M30.198,230.153c4.887,3.586,3.628,7.862,1.063,12.409"/>
				<g>
					<g>
						<path fill="none" d="M34.718,184.655c0,0.258,0,0.258,0.266,0.518"/>
						<path d="M33.232,184.515c0.008,0.651,0.143,1.158,0.614,1.624c0.577,0.571,1.442,0.734,2.104,0.173
							c0.578-0.492,0.752-1.531,0.172-2.104c-0.42-0.416,0.074-0.125,0.083,0.588c-0.01-0.813-0.473-1.544-1.346-1.626
							C34.115,183.099,33.223,183.7,33.232,184.515z"/>
					</g>
				</g>
				<g>
					<g>
						<path fill="none" d="M34.718,199.907c0,0.258,0.266,0.517,0.266,0.517"/>
						<path d="M33.249,200.167c0.069,0.446,0.281,0.896,0.598,1.223c0.563,0.584,1.453,0.725,2.104,0.173
							c0.589-0.501,0.738-1.518,0.172-2.104c-0.177-0.183,0.054,0.106,0.066,0.189c-0.124-0.804-0.941-1.349-1.729-1.21
							C33.645,198.581,33.125,199.362,33.249,200.167z"/>
					</g>
				</g>
				<path fill="none" stroke="#000000" d="M39.769,212.959c-1.051,2.644,1.202,4.79,2.128,7.112
					c1.47,3.686,0.385,7.063-0.799,10.468"/>
				<path fill="none" stroke="#000000" d="M41.236,230.412c-4.888,3.586-3.629,7.861-1.064,12.41"/>
				<g>
					<g>
						<path fill="none" d="M34.718,191.894c0,0.258,0,0.258,0.266,0.517"/>
						<path d="M33.232,191.753c0.008,0.65,0.143,1.158,0.614,1.623c0.578,0.57,1.441,0.735,2.104,0.173
							c0.577-0.491,0.753-1.532,0.172-2.104c-0.42-0.415,0.074-0.125,0.083,0.589c-0.01-0.813-0.473-1.544-1.346-1.626
							C34.115,190.337,33.223,190.938,33.232,191.753z"/>
					</g>
				</g>
				<g>
					<g>
						<path fill="none" d="M34.984,207.145c0,0.26,0,0.26,0.266,0.519"/>
						<path d="M33.498,207.004c0.008,0.651,0.142,1.16,0.614,1.625c0.578,0.57,1.441,0.735,2.104,0.173
							c0.577-0.491,0.753-1.532,0.172-2.104c-0.42-0.414,0.074-0.125,0.083,0.587c-0.01-0.813-0.473-1.544-1.346-1.626
							C34.38,205.588,33.489,206.189,33.498,207.004z"/>
					</g>
				</g>
				<g>
					<g>
						<path fill="none" d="M34.452,177.416c0,0.258,0,0.258,0.267,0.518"/>
						<path d="M32.965,177.275c0.008,0.651,0.143,1.159,0.615,1.624c0.578,0.569,1.441,0.735,2.104,0.173
							c0.577-0.491,0.753-1.532,0.172-2.104c-0.421-0.415,0.073-0.126,0.082,0.588c-0.01-0.813-0.473-1.544-1.346-1.626
							C33.848,175.86,32.957,176.461,32.965,177.275z"/>
					</g>
				</g>
				<g>
					<g>
						<path fill="none" d="M34.452,171.211c0,0.258,0,0.258,0.267,0.517"/>
						<path d="M32.965,171.07c0.008,0.65,0.142,1.159,0.615,1.623c0.579,0.568,1.44,0.736,2.104,0.173
							c0.576-0.49,0.755-1.533,0.172-2.104c-0.421-0.413,0.073-0.126,0.082,0.589c-0.01-0.813-0.473-1.544-1.346-1.626
							C33.848,169.655,32.957,170.256,32.965,171.07z"/>
					</g>
				</g>
				<path fill="none" stroke="#000000" d="M10.786,140.964c1.124,0.679,2.54,0.501,3.989,0.518"/>
			</g>
		</g>
		<path fill="#FFFFFF" stroke="#000000" d="M43.237,98.698c1.958-4.125,8.156-16.5,16.312-16.5s14.354,12.375,16.312,16.5
			c1.957,4.125,8.156,16.5,16.312,16.5s14.354-12.375,16.312-16.5c1.958-4.125,8.156-16.5,16.312-16.5
			c8.156,0,14.354,12.375,16.312,16.5s8.156,16.5,16.312,16.5s14.354-12.375,16.312-16.5c1.957-4.125,8.156-16.5,16.312-16.5
			s14.354,12.375,16.312,16.5s8.156,16.5,16.312,16.5c8.156,0,14.354-12.375,16.312-16.5c1.958-4.125,8.156-16.5,16.313-16.5
			c8.155,0,14.354,12.375,16.312,16.5c1.957,4.125,8.155,16.5,16.312,16.5c8.155,0,14.354-12.375,16.312-16.5"/>
		<g>
			<path fill="#FFFFFF" stroke="#000000" d="M36.74,26.188c0.979-4.125,4.08-16.5,8.158-16.5c4.08,0,7.18,12.375,8.159,16.5
				s4.08,16.5,8.159,16.5s7.18-12.375,8.159-16.5c0.979-4.125,4.079-16.5,8.159-16.5c4.079,0,7.179,12.375,8.158,16.5
				s4.079,16.5,8.158,16.5c4.08,0,7.18-12.375,8.159-16.5c0.979-4.125,4.079-16.5,8.158-16.5s7.18,12.375,8.158,16.5
				c0.979,4.125,4.08,16.5,8.159,16.5c4.08,0,7.18-12.375,8.159-16.5s4.079-16.5,8.159-16.5c4.079,0,7.179,12.375,8.159,16.5
				c0.979,4.125,4.079,16.5,8.158,16.5c4.079,0,7.179-12.375,8.158-16.5"/>
			<path fill="#FFFFFF" stroke="#000000" d="M167.528,25.195c0.979-4.125,4.079-16.5,8.158-16.5c4.08,0,7.18,12.375,8.159,16.5
				c0.979,4.125,4.079,16.5,8.158,16.5s7.18-12.375,8.159-16.5s4.079-16.5,8.159-16.5c4.079,0,7.18,12.375,8.158,16.5
				c0.979,4.125,4.08,16.5,8.158,16.5c4.079,0,7.18-12.375,8.159-16.5s4.08-16.5,8.159-16.5c4.079,0,7.179,12.375,8.158,16.5
				c0.979,4.125,4.08,16.5,8.159,16.5c4.08,0,7.18-12.375,8.158-16.5c0.98-4.125,4.08-16.5,8.158-16.5c4.08,0,7.18,12.375,8.16,16.5
				c0.979,4.125,4.078,16.5,8.157,16.5s7.181-12.375,8.159-16.5"/>
		</g>
		<path fill="#FFFFFF" stroke="#000000" d="M48.237,190.698c3.943-4.125,16.427-16.5,32.853-16.5
			c16.427,0,28.912,12.375,32.854,16.5c3.942,4.125,16.427,16.5,32.853,16.5c16.427,0,28.912-12.375,32.854-16.5
			c3.942-4.125,16.426-16.5,32.854-16.5c16.426,0,28.91,12.375,32.853,16.5c3.942,4.125,16.427,16.5,32.853,16.5
			c16.427,0,28.912-12.375,32.854-16.5"/>
	</g>
</svg>
