<?xml version="1.0" encoding="utf-8"?>
<!-- Generator: Adobe Illustrator 10.0, SVG Export Plug-In . SVG Version: 3.0.0 Build 76)  -->
<!DOCTYPE svg PUBLIC "-//W3C//DTD SVG 1.0//EN"    "http://www.w3.org/TR/2001/REC-SVG-20010904/DTD/svg10.dtd" [
	<!ENTITY ns_flows "http://ns.adobe.com/Flows/1.0/">
	<!ENTITY ns_extend "http://ns.adobe.com/Extensibility/1.0/">
	<!ENTITY ns_ai "http://ns.adobe.com/AdobeIllustrator/10.0/">
	<!ENTITY ns_svg "http://www.w3.org/2000/svg">
	<!ENTITY ns_xlink "http://www.w3.org/1999/xlink">
]>
<svg  xmlns:x="&ns_extend;" xmlns:i="&ns_ai;" xmlns:graph="&ns_graphs;"
	 xmlns="&ns_svg;" xmlns:xlink="&ns_xlink;" xmlns:a="http://ns.adobe.com/AdobeSVGViewerExtensions/3.0/" width="261" height="155"
	 viewBox="0.088 0.279 261 155" overflow="visible" enable-background="new 0.088 0.279 261 155" xml:space="preserve">
	<g id="Layer_1_2_">
		<g>
			<path d="M0,30.279v-8.088h1.152l2.58,4.092c0.588,0.948,1.068,1.788,1.44,2.628l0.036-0.012c-0.096-1.08-0.12-2.064-0.12-3.312
				v-3.396h0.984v8.088H5.016l-2.568-4.104c-0.564-0.9-1.104-1.824-1.5-2.7l-0.036,0.012c0.06,1.02,0.072,1.992,0.072,3.336v3.456H0
				z"/>
			<path d="M10.212,30.411c-1.56,0-2.784-1.152-2.784-2.988c0-1.944,1.284-3.084,2.88-3.084c1.668,0,2.796,1.212,2.796,2.976
				c0,2.16-1.5,3.096-2.88,3.096H10.212z M10.248,29.619c1.008,0,1.764-0.948,1.764-2.268c0-0.984-0.492-2.22-1.74-2.22
				c-1.236,0-1.776,1.152-1.776,2.256c0,1.272,0.72,2.232,1.74,2.232H10.248z"/>
			<path d="M14.94,23.403c-0.396,0-0.66-0.312-0.66-0.684s0.276-0.672,0.684-0.672s0.672,0.3,0.672,0.672s-0.264,0.684-0.684,0.684
				H14.94z M14.436,30.279v-5.808h1.056v5.808H14.436z"/>
			<path d="M17.1,29.211c0.324,0.192,0.876,0.408,1.404,0.408c0.756,0,1.116-0.372,1.116-0.864c0-0.504-0.3-0.78-1.068-1.068
				c-1.056-0.384-1.548-0.948-1.548-1.644c0-0.936,0.768-1.704,2.004-1.704c0.588,0,1.104,0.156,1.416,0.36l-0.252,0.756
				c-0.228-0.132-0.648-0.336-1.188-0.336c-0.624,0-0.96,0.36-0.96,0.792c0,0.492,0.336,0.708,1.092,0.996
				c0.996,0.372,1.524,0.876,1.524,1.752c0,1.032-0.804,1.752-2.16,1.752c-0.636,0-1.224-0.168-1.632-0.408L17.1,29.211z"/>
			<path d="M22.596,27.555c0.024,1.428,0.924,2.016,1.98,2.016c0.756,0,1.224-0.132,1.608-0.288l0.192,0.744
				c-0.372,0.168-1.02,0.372-1.944,0.372c-1.776,0-2.856-1.188-2.856-2.928c0-1.764,1.044-3.144,2.736-3.144
				c1.896,0,2.388,1.668,2.388,2.736c0,0.216-0.012,0.384-0.036,0.504L22.596,27.555z M25.68,26.799
				c0.012-0.66-0.276-1.716-1.452-1.716c-1.08,0-1.536,0.984-1.62,1.716H25.68z"/>
		</g>
		<g>
			<path d="M5.536,128.079h-2.46v-0.888h5.988v0.888H6.592v7.2H5.536V128.079z"/>
			<path d="M11.524,135.411c-1.56,0-2.784-1.152-2.784-2.988c0-1.944,1.284-3.084,2.88-3.084c1.668,0,2.796,1.212,2.796,2.976
				c0,2.16-1.5,3.096-2.88,3.096H11.524z M11.56,134.619c1.008,0,1.764-0.948,1.764-2.268c0-0.984-0.492-2.22-1.74-2.22
				c-1.236,0-1.776,1.152-1.776,2.256c0,1.272,0.72,2.232,1.74,2.232H11.56z"/>
			<path d="M15.748,131.043c0-0.612-0.012-1.092-0.048-1.572h0.936l0.06,0.948h0.024c0.288-0.54,0.96-1.08,1.92-1.08
				c0.804,0,2.052,0.48,2.052,2.472v3.468h-1.056v-3.348c0-0.936-0.348-1.728-1.344-1.728c-0.684,0-1.224,0.492-1.416,1.08
				c-0.048,0.132-0.072,0.324-0.072,0.492v3.504h-1.056V131.043z"/>
			<path d="M23.008,132.555c0.024,1.428,0.924,2.016,1.98,2.016c0.756,0,1.224-0.132,1.608-0.288l0.192,0.744
				c-0.372,0.168-1.02,0.372-1.944,0.372c-1.776,0-2.856-1.188-2.856-2.928c0-1.764,1.044-3.144,2.736-3.144
				c1.896,0,2.388,1.668,2.388,2.736c0,0.216-0.012,0.384-0.036,0.504L23.008,132.555z M26.092,131.799
				c0.012-0.66-0.276-1.716-1.452-1.716c-1.08,0-1.536,0.984-1.62,1.716H26.092z"/>
		</g>
		<path fill="#FFFFFF" stroke="#000000" d="M61.088,136.279c1.5-4.75,6.25-19,12.5-19s11,14.25,12.5,19s6.25,19,12.5,19
			s11-14.25,12.5-19s6.25-19,12.5-19s11,14.25,12.5,19s6.25,19,12.5,19s11-14.25,12.5-19s6.25-19,12.5-19s11,14.25,12.5,19
			s6.25,19,12.5,19s11-14.25,12.5-19s6.25-19,12.5-19s11,14.25,12.5,19s6.25,19,12.5,19s11-14.25,12.5-19"/>
		<g>
			<path fill="#FFFFFF" stroke="#000000" d="M151.963,33.279c0.676,13.5,2.813,54,5.625,54s4.949-40.5,5.625-54"/>
			<path fill="#FFFFFF" stroke="#000000" d="M139.384,36.248c0.17-1.022,0.308-1.917,0.414-2.612
				c0.737-4.839,3.072-19.356,6.145-19.356c3.073,0,5.408,14.518,6.146,19.356"/>
			<path fill="#FFFFFF" stroke="#000000" d="M124.917,33.279c0.892,4.25,3.718,17,7.435,17c3.185,0,5.714-9.351,6.935-14.706"/>
			<path fill="#FFFFFF" stroke="#000000" d="M114.088,33.279c0.649-5.5,2.707-22,5.415-22c2.707,0,4.765,16.5,5.414,22"/>
			<path fill="#FFFFFF" stroke="#000000" d="M108.041,33.279c0.366,8.5,1.523,34,3.047,34s2.681-25.5,3.047-34"/>
			<path fill="#FFFFFF" stroke="#000000" d="M103.088,34.279c0.3-5.5,1.25-22,2.5-22s2.2,16.5,2.5,22"/>
			<path fill="#FFFFFF" stroke="#000000" d="M88.588,31.279c0.45-7.75,1.875-31,3.75-31s3.3,23.25,3.75,31s1.875,31,3.75,31
				s3.3-23.25,3.75-31"/>
			<path fill="#FFFFFF" stroke="#000000" d="M187.713,34.279c0.292-2.5,1.219-10,2.438-10s2.146,7.5,2.438,10s1.219,10,2.438,10
				s2.146-7.5,2.438-10"/>
			<path fill="#FFFFFF" stroke="#000000" d="M172.088,33.279c0.479-7,2-28,4-28s3.521,21,4,28s2,28,4,28s3.521-21,4-28"/>
			<path fill="#FFFFFF" stroke="#000000" d="M163.088,33.279c0.27-7,1.125-28,2.25-28s1.98,21,2.25,28s1.125,28,2.25,28
				s1.98-21,2.25-28"/>
			<path fill="#FFFFFF" stroke="#000000" d="M203.088,34.279c0.72,0.75,3,3,6,3s5.28-2.25,6-3"/>
			<path fill="#FFFFFF" stroke="#000000" d="M197.963,34.279c0.314-1,1.313-4,2.625-4s2.311,3,2.625,4"/>
			<path fill="#FFFFFF" stroke="#000000" d="M240.374,30.279c0.445,4,1.856,16,3.714,16s3.269-12,3.714-16"/>
			<path fill="#FFFFFF" stroke="#000000" d="M234.999,37.279c0.379-3.25,1.58-13,3.16-13c1.581,0,2.782,9.75,3.161,13"/>
			<path fill="#FFFFFF" stroke="#000000" d="M225.785,32.333c0.103,1.529,0.188,2.873,0.256,3.945c0.534,8.5,2.227,34,4.452,34
				s3.918-25.5,4.452-34"/>
			<path fill="#FFFFFF" stroke="#000000" d="M215.374,34.279c0.661-2.5,2.754-10,5.507-10c2.406,0,4.308,5.726,5.19,8.84"/>
		</g>
	</g>
</svg>
