<?xml version="1.0" encoding="utf-8"?>
<!-- Generator: Adobe Illustrator 10.0, SVG Export Plug-In . SVG Version: 3.0.0 Build 76)  -->
<!DOCTYPE svg PUBLIC "-//W3C//DTD SVG 1.0//EN"    "http://www.w3.org/TR/2001/REC-SVG-20010904/DTD/svg10.dtd" [
	<!ENTITY ns_flows "http://ns.adobe.com/Flows/1.0/">
	<!ENTITY ns_extend "http://ns.adobe.com/Extensibility/1.0/">
	<!ENTITY ns_ai "http://ns.adobe.com/AdobeIllustrator/10.0/">
	<!ENTITY ns_svg "http://www.w3.org/2000/svg">
	<!ENTITY ns_xlink "http://www.w3.org/1999/xlink">
]>
<svg  xmlns:x="&ns_extend;" xmlns:i="&ns_ai;" xmlns:graph="&ns_graphs;"
	 xmlns="&ns_svg;" xmlns:xlink="&ns_xlink;" xmlns:a="http://ns.adobe.com/AdobeSVGViewerExtensions/3.0/" width="190" height="74"
	 viewBox="-0.363 -0.045 190 74" overflow="visible" enable-background="new -0.363 -0.045 190 74" xml:space="preserve">
	<g id="Layer_1_2_">
		<path fill="none" stroke="#FF0000" d="M3.64,46.604c2.323-0.058,4.679-0.088,7.068-0.088c42.786,0,75.301,9.703,85.571,12.938
			c10.265,3.234,42.78,12.938,85.565,12.938c2.8,0,5.558-0.042,8.265-0.12"/>
		<path fill="none" stroke="#0A50A1" d="M3.123,72.266c2.808,0.083,5.667,0.126,8.571,0.126c43.277,0,76.167-9.703,86.554-12.938
			c10.384-3.234,43.274-12.938,86.553-12.938c1.615,0,3.217,0.014,4.803,0.04"/>
		<path fill="none" stroke="#000000" d="M1.167,27.358h186.61"/>
		<path fill="none" stroke="#000000" d="M0.801,0.5H187.41"/>
		<path fill="none" stroke="#FF0000" d="M1.797,13.72c20.631-3.235,85.97-12.938,171.935-12.938c4.617,0,9.173,0.028,13.667,0.081"
			/>
		<path fill="none" stroke="#0A50A1" d="M1.797,13.72c19.187,3.235,79.949,12.938,159.894,12.938c9.263,0,18.269-0.13,26.982-0.365"
			/>
		<path fill="none" stroke="#000000" d="M3.167,73.358h186.611"/>
		<path fill="none" stroke="#000000" d="M2.801,45.5H189.41"/>
		<path fill="none" stroke="#000000" d="M0.5,0.691v26.667"/>
	</g>
</svg>
