<?xml version="1.0" encoding="utf-8"?>
<!-- Generator: Adobe Illustrator 10.0, SVG Export Plug-In . SVG Version: 3.0.0 Build 76)  -->
<!DOCTYPE svg PUBLIC "-//W3C//DTD SVG 1.0//EN"    "http://www.w3.org/TR/2001/REC-SVG-20010904/DTD/svg10.dtd" [
	<!ENTITY ns_flows "http://ns.adobe.com/Flows/1.0/">
	<!ENTITY ns_extend "http://ns.adobe.com/Extensibility/1.0/">
	<!ENTITY ns_ai "http://ns.adobe.com/AdobeIllustrator/10.0/">
	<!ENTITY ns_svg "http://www.w3.org/2000/svg">
	<!ENTITY ns_xlink "http://www.w3.org/1999/xlink">
]>
<svg  xmlns:x="&ns_extend;" xmlns:i="&ns_ai;" xmlns:graph="&ns_graphs;"
	 xmlns="&ns_svg;" xmlns:xlink="&ns_xlink;" xmlns:a="http://ns.adobe.com/AdobeSVGViewerExtensions/3.0/" width="300" height="194"
	 viewBox="-0.299 0.055 300 194" overflow="visible" enable-background="new -0.299 0.055 300 194" xml:space="preserve">
	<g id="Layer_1_2_">
		<g>
			<path d="M19.258,1.32h-2.455V0.432h5.975V1.32h-2.467v7.2h-1.054V1.32z"/>
			<path d="M23.557,0h1.054v3.624h0.024c0.167-0.3,0.431-0.576,0.754-0.744c0.311-0.192,0.683-0.3,1.078-0.3
				c0.778,0,2.023,0.48,2.023,2.484V8.52h-1.054V5.184c0-0.948-0.347-1.728-1.341-1.728c-0.683,0-1.209,0.48-1.413,1.056
				c-0.06,0.144-0.072,0.3-0.072,0.504V8.52h-1.054V0z"/>
			<path d="M30.8,5.796c0.024,1.428,0.922,2.016,1.976,2.016c0.754,0,1.221-0.132,1.604-0.288l0.191,0.744
				c-0.371,0.168-1.018,0.372-1.94,0.372c-1.772,0-2.85-1.188-2.85-2.928c0-1.764,1.042-3.144,2.73-3.144
				c1.892,0,2.383,1.668,2.383,2.736c0,0.216-0.012,0.384-0.036,0.504L30.8,5.796z M33.878,5.04c0.012-0.66-0.275-1.716-1.449-1.716
				c-1.078,0-1.532,0.984-1.616,1.716H33.878z"/>
			<path d="M39.158,2.712l0.778,2.94c0.156,0.648,0.312,1.26,0.419,1.86h0.036c0.132-0.588,0.323-1.212,0.515-1.848l0.946-2.952
				h0.886l0.898,2.904c0.216,0.684,0.383,1.308,0.515,1.896h0.036c0.096-0.588,0.251-1.2,0.443-1.884l0.826-2.916h1.042L44.63,8.52
				h-0.958l-0.886-2.772c-0.203-0.66-0.371-1.236-0.515-1.92h-0.024c-0.144,0.696-0.323,1.308-0.527,1.932l-0.934,2.76h-0.958
				L38.08,2.712H39.158z"/>
			<path d="M51.586,7.128c0,0.504,0.024,0.996,0.084,1.392h-0.946l-0.096-0.732h-0.036c-0.312,0.456-0.946,0.864-1.772,0.864
				c-1.173,0-1.772-0.828-1.772-1.668c0-1.404,1.245-2.172,3.484-2.16v-0.12c0-0.48-0.132-1.356-1.317-1.344
				c-0.551,0-1.114,0.156-1.521,0.432l-0.239-0.708c0.479-0.3,1.185-0.504,1.916-0.504c1.784,0,2.215,1.212,2.215,2.376V7.128z
				 M50.557,5.556c-1.149-0.024-2.455,0.18-2.455,1.308c0,0.696,0.455,1.008,0.982,1.008c0.766,0,1.257-0.48,1.425-0.972
				c0.036-0.108,0.048-0.228,0.048-0.336V5.556z"/>
			<path d="M53.526,2.712l1.137,3.252c0.192,0.54,0.347,1.02,0.467,1.5h0.036c0.132-0.48,0.299-0.96,0.491-1.5l1.125-3.252h1.102
				L55.609,8.52h-1.005l-2.203-5.808H53.526z"/>
			<path d="M59.345,5.796c0.024,1.428,0.922,2.016,1.976,2.016c0.754,0,1.222-0.132,1.604-0.288l0.192,0.744
				c-0.371,0.168-1.018,0.372-1.94,0.372c-1.772,0-2.85-1.188-2.85-2.928c0-1.764,1.042-3.144,2.73-3.144
				c1.892,0,2.383,1.668,2.383,2.736c0,0.216-0.012,0.384-0.036,0.504L59.345,5.796z M62.422,5.04
				c0.012-0.66-0.275-1.716-1.449-1.716c-1.078,0-1.533,0.984-1.616,1.716H62.422z"/>
			<path d="M64.602,7.452c0.323,0.192,0.874,0.408,1.401,0.408c0.754,0,1.114-0.372,1.114-0.864c0-0.504-0.299-0.78-1.066-1.068
				c-1.054-0.384-1.544-0.948-1.544-1.644c0-0.936,0.766-1.704,2-1.704c0.587,0,1.102,0.156,1.413,0.36l-0.251,0.756
				c-0.228-0.132-0.646-0.336-1.186-0.336c-0.623,0-0.958,0.36-0.958,0.792c0,0.492,0.335,0.708,1.09,0.996
				c0.994,0.372,1.521,0.876,1.521,1.752c0,1.032-0.802,1.752-2.155,1.752c-0.634,0-1.221-0.168-1.628-0.408L64.602,7.452z"/>
			<path d="M76.108,7.128c0,0.504,0.024,0.996,0.084,1.392h-0.946L75.15,7.788h-0.036c-0.312,0.456-0.946,0.864-1.772,0.864
				c-1.173,0-1.772-0.828-1.772-1.668c0-1.404,1.245-2.172,3.484-2.16v-0.12c0-0.48-0.131-1.356-1.317-1.344
				c-0.551,0-1.113,0.156-1.521,0.432l-0.24-0.708c0.479-0.3,1.186-0.504,1.916-0.504c1.784,0,2.215,1.212,2.215,2.376V7.128z
				 M75.078,5.556c-1.149-0.024-2.454,0.18-2.454,1.308c0,0.696,0.455,1.008,0.981,1.008c0.767,0,1.257-0.48,1.425-0.972
				c0.036-0.108,0.048-0.228,0.048-0.336V5.556z"/>
			<path d="M77.808,4.524c0-0.684-0.012-1.272-0.048-1.812h0.922l0.048,1.14h0.036c0.264-0.78,0.91-1.272,1.617-1.272
				c0.107,0,0.191,0.012,0.287,0.036V3.6c-0.12-0.012-0.228-0.024-0.371-0.024c-0.742,0-1.269,0.564-1.413,1.344
				c-0.024,0.156-0.036,0.324-0.036,0.504V8.52h-1.054L77.808,4.524z"/>
			<path d="M82.238,5.796c0.024,1.428,0.922,2.016,1.976,2.016c0.754,0,1.221-0.132,1.604-0.288l0.192,0.744
				c-0.371,0.168-1.018,0.372-1.94,0.372c-1.772,0-2.85-1.188-2.85-2.928c0-1.764,1.042-3.144,2.73-3.144
				c1.892,0,2.383,1.668,2.383,2.736c0,0.216-0.012,0.384-0.036,0.504L82.238,5.796z M85.316,5.04
				c0.012-0.66-0.275-1.716-1.449-1.716c-1.078,0-1.532,0.984-1.616,1.716H85.316z"/>
			<path d="M94.26,7.128c0,0.504,0.024,0.996,0.084,1.392h-0.946l-0.096-0.732h-0.036c-0.312,0.456-0.946,0.864-1.772,0.864
				c-1.173,0-1.772-0.828-1.772-1.668c0-1.404,1.245-2.172,3.484-2.16v-0.12c0-0.48-0.132-1.356-1.317-1.344
				c-0.551,0-1.114,0.156-1.521,0.432l-0.239-0.708c0.479-0.3,1.186-0.504,1.916-0.504c1.784,0,2.215,1.212,2.215,2.376V7.128z
				 M93.23,5.556c-1.149-0.024-2.455,0.18-2.455,1.308c0,0.696,0.455,1.008,0.982,1.008c0.766,0,1.257-0.48,1.425-0.972
				c0.036-0.108,0.048-0.228,0.048-0.336V5.556z"/>
			<path d="M95.948,0h1.054v8.52h-1.054V0z"/>
			<path d="M98.75,0h1.054v8.52H98.75V0z"/>
			<path d="M105.359,1.32v1.392h1.509v0.804h-1.509v3.132c0,0.72,0.204,1.128,0.79,1.128c0.288,0,0.455-0.024,0.611-0.072
				l0.048,0.804c-0.204,0.072-0.527,0.144-0.934,0.144c-0.491,0-0.886-0.168-1.137-0.444c-0.288-0.324-0.407-0.84-0.407-1.524V3.516
				h-0.898V2.712h0.898V1.644L105.359,1.32z"/>
			<path d="M108.065,4.524c0-0.684-0.012-1.272-0.048-1.812h0.922l0.048,1.14h0.036c0.264-0.78,0.91-1.272,1.617-1.272
				c0.108,0,0.191,0.012,0.288,0.036V3.6c-0.12-0.012-0.228-0.024-0.372-0.024c-0.742,0-1.269,0.564-1.413,1.344
				c-0.024,0.156-0.036,0.324-0.036,0.504V8.52h-1.054L108.065,4.524z"/>
			<path d="M115.979,7.128c0,0.504,0.024,0.996,0.083,1.392h-0.946l-0.096-0.732h-0.036c-0.311,0.456-0.946,0.864-1.772,0.864
				c-1.173,0-1.772-0.828-1.772-1.668c0-1.404,1.245-2.172,3.484-2.16v-0.12c0-0.48-0.132-1.356-1.317-1.344
				c-0.551,0-1.113,0.156-1.521,0.432l-0.239-0.708c0.479-0.3,1.185-0.504,1.916-0.504c1.784,0,2.215,1.212,2.215,2.376V7.128z
				 M114.95,5.556c-1.149-0.024-2.455,0.18-2.455,1.308c0,0.696,0.455,1.008,0.982,1.008c0.766,0,1.257-0.48,1.425-0.972
				c0.036-0.108,0.048-0.228,0.048-0.336V5.556z"/>
			<path d="M117.919,2.712l1.138,3.252c0.191,0.54,0.347,1.02,0.467,1.5h0.036c0.132-0.48,0.299-0.96,0.491-1.5l1.125-3.252h1.102
				l-2.275,5.808h-1.006l-2.203-5.808H117.919z"/>
			<path d="M123.738,5.796c0.024,1.428,0.922,2.016,1.976,2.016c0.754,0,1.221-0.132,1.604-0.288l0.191,0.744
				c-0.371,0.168-1.018,0.372-1.939,0.372c-1.772,0-2.85-1.188-2.85-2.928c0-1.764,1.042-3.144,2.73-3.144
				c1.892,0,2.383,1.668,2.383,2.736c0,0.216-0.012,0.384-0.036,0.504L123.738,5.796z M126.815,5.04
				c0.012-0.66-0.275-1.716-1.449-1.716c-1.078,0-1.533,0.984-1.616,1.716H126.815z"/>
			<path d="M129.138,0h1.054v8.52h-1.054V0z"/>
			<path d="M131.94,0h1.054v8.52h-1.054V0z"/>
			<path d="M135.245,1.644c-0.395,0-0.659-0.312-0.659-0.684s0.275-0.672,0.683-0.672s0.67,0.3,0.67,0.672s-0.263,0.684-0.682,0.684
				H135.245z M134.742,8.52V2.712h1.054V8.52H134.742z"/>
			<path d="M137.543,4.284c0-0.612-0.012-1.092-0.048-1.572h0.934l0.06,0.948h0.024c0.288-0.54,0.958-1.08,1.916-1.08
				c0.802,0,2.047,0.48,2.047,2.472V8.52h-1.054V5.172c0-0.936-0.347-1.728-1.341-1.728c-0.683,0-1.221,0.492-1.413,1.08
				c-0.048,0.132-0.072,0.324-0.072,0.492V8.52h-1.054V4.284z"/>
			<path d="M149.146,7.668c0,1.344-0.275,2.148-0.826,2.664c-0.575,0.516-1.389,0.696-2.12,0.696c-0.694,0-1.46-0.168-1.928-0.48
				l0.264-0.816c0.383,0.252,0.981,0.468,1.7,0.468c1.078,0,1.868-0.564,1.868-2.04V7.524h-0.024
				c-0.311,0.54-0.946,0.972-1.844,0.972c-1.437,0-2.467-1.224-2.467-2.844c0-1.968,1.281-3.072,2.623-3.072
				c1.005,0,1.544,0.516,1.808,0.996h0.024l0.036-0.864h0.934c-0.036,0.408-0.048,0.876-0.048,1.584V7.668z M148.092,4.992
				c0-0.168-0.012-0.324-0.06-0.468c-0.191-0.624-0.694-1.128-1.473-1.128c-1.006,0-1.724,0.852-1.724,2.208
				c0,1.128,0.586,2.088,1.712,2.088c0.659,0,1.246-0.408,1.461-1.092c0.06-0.168,0.084-0.372,0.084-0.564V4.992z"/>
			<path d="M157.503,7.128c0,0.504,0.024,0.996,0.084,1.392h-0.946l-0.096-0.732h-0.036c-0.311,0.456-0.946,0.864-1.772,0.864
				c-1.173,0-1.772-0.828-1.772-1.668c0-1.404,1.245-2.172,3.484-2.16v-0.12c0-0.48-0.132-1.356-1.317-1.344
				c-0.551,0-1.113,0.156-1.521,0.432l-0.24-0.708c0.479-0.3,1.186-0.504,1.916-0.504c1.784,0,2.215,1.212,2.215,2.376V7.128z
				 M156.474,5.556c-1.15-0.024-2.455,0.18-2.455,1.308c0,0.696,0.455,1.008,0.981,1.008c0.767,0,1.257-0.48,1.425-0.972
				c0.036-0.108,0.048-0.228,0.048-0.336V5.556z"/>
			<path d="M160.413,1.32v1.392h1.509v0.804h-1.509v3.132c0,0.72,0.204,1.128,0.791,1.128c0.287,0,0.455-0.024,0.61-0.072
				l0.048,0.804c-0.204,0.072-0.527,0.144-0.934,0.144c-0.491,0-0.886-0.168-1.138-0.444c-0.287-0.324-0.407-0.84-0.407-1.524V3.516
				h-0.898V2.712h0.898V1.644L160.413,1.32z"/>
			<path d="M169.728,7.128c0,0.504,0.024,0.996,0.083,1.392h-0.946l-0.096-0.732h-0.036c-0.312,0.456-0.946,0.864-1.772,0.864
				c-1.173,0-1.772-0.828-1.772-1.668c0-1.404,1.245-2.172,3.484-2.16v-0.12c0-0.48-0.132-1.356-1.317-1.344
				c-0.551,0-1.113,0.156-1.521,0.432l-0.239-0.708c0.479-0.3,1.185-0.504,1.916-0.504c1.784,0,2.215,1.212,2.215,2.376V7.128z
				 M168.698,5.556c-1.149-0.024-2.455,0.18-2.455,1.308c0,0.696,0.455,1.008,0.982,1.008c0.766,0,1.257-0.48,1.425-0.972
				c0.036-0.108,0.048-0.228,0.048-0.336V5.556z"/>
			<path d="M171.416,0h1.054v3.636h0.024c0.371-0.648,1.042-1.056,1.976-1.056c1.437,0,2.443,1.2,2.443,2.952
				c0,2.088-1.317,3.12-2.61,3.12c-0.838,0-1.497-0.324-1.94-1.092h-0.024l-0.06,0.96h-0.91c0.036-0.396,0.048-0.984,0.048-1.5V0z
				 M172.47,6.192c0,0.132,0.012,0.264,0.036,0.384c0.204,0.732,0.826,1.236,1.581,1.236c1.113,0,1.76-0.9,1.76-2.232
				c0-1.176-0.599-2.172-1.724-2.172c-0.718,0-1.389,0.504-1.592,1.296c-0.036,0.132-0.06,0.276-0.06,0.444V6.192z"/>
			<path d="M180.6,8.652c-1.557,0-2.778-1.152-2.778-2.988c0-1.944,1.281-3.084,2.874-3.084c1.665,0,2.79,1.212,2.79,2.976
				c0,2.16-1.497,3.096-2.874,3.096H180.6z M180.636,7.86c1.005,0,1.76-0.948,1.76-2.268c0-0.984-0.491-2.22-1.736-2.22
				c-1.233,0-1.772,1.152-1.772,2.256c0,1.272,0.719,2.232,1.736,2.232H180.636z"/>
			<path d="M189.664,6.936c0,0.6,0.012,1.128,0.048,1.584h-0.934l-0.06-0.948h-0.024c-0.264,0.468-0.886,1.08-1.916,1.08
				c-0.91,0-2-0.516-2-2.544V2.712h1.054v3.204c0,1.104,0.347,1.86,1.293,1.86c0.707,0,1.197-0.492,1.389-0.972
				c0.06-0.144,0.096-0.336,0.096-0.54V2.712h1.054V6.936z"/>
			<path d="M192.681,1.32v1.392h1.509v0.804h-1.509v3.132c0,0.72,0.204,1.128,0.791,1.128c0.287,0,0.455-0.024,0.61-0.072
				l0.048,0.804c-0.203,0.072-0.527,0.144-0.934,0.144c-0.491,0-0.886-0.168-1.138-0.444c-0.287-0.324-0.407-0.84-0.407-1.524V3.516
				h-0.898V2.712h0.898V1.644L192.681,1.32z"/>
			<path d="M199.182,1.32v1.392h1.509v0.804h-1.509v3.132c0,0.72,0.204,1.128,0.791,1.128c0.287,0,0.455-0.024,0.61-0.072
				l0.048,0.804c-0.203,0.072-0.527,0.144-0.934,0.144c-0.491,0-0.886-0.168-1.138-0.444c-0.287-0.324-0.407-0.84-0.407-1.524V3.516
				h-0.898V2.712h0.898V1.644L199.182,1.32z"/>
			<path d="M201.876,0h1.054v3.624h0.024c0.167-0.3,0.431-0.576,0.754-0.744c0.312-0.192,0.683-0.3,1.078-0.3
				c0.778,0,2.023,0.48,2.023,2.484V8.52h-1.054V5.184c0-0.948-0.348-1.728-1.341-1.728c-0.683,0-1.21,0.48-1.413,1.056
				c-0.061,0.144-0.072,0.3-0.072,0.504V8.52h-1.054V0z"/>
			<path d="M209.12,5.796c0.024,1.428,0.922,2.016,1.976,2.016c0.755,0,1.222-0.132,1.604-0.288l0.191,0.744
				c-0.371,0.168-1.018,0.372-1.939,0.372c-1.772,0-2.85-1.188-2.85-2.928c0-1.764,1.042-3.144,2.729-3.144
				c1.893,0,2.383,1.668,2.383,2.736c0,0.216-0.012,0.384-0.035,0.504L209.12,5.796z M212.197,5.04
				c0.012-0.66-0.275-1.716-1.448-1.716c-1.078,0-1.533,0.984-1.617,1.716H212.197z"/>
			<path d="M216.915,7.452c0.323,0.192,0.874,0.408,1.4,0.408c0.755,0,1.113-0.372,1.113-0.864c0-0.504-0.299-0.78-1.065-1.068
				c-1.054-0.384-1.544-0.948-1.544-1.644c0-0.936,0.766-1.704,1.999-1.704c0.587,0,1.102,0.156,1.413,0.36l-0.252,0.756
				c-0.227-0.132-0.646-0.336-1.185-0.336c-0.623,0-0.958,0.36-0.958,0.792c0,0.492,0.335,0.708,1.09,0.996
				c0.993,0.372,1.521,0.876,1.521,1.752c0,1.032-0.803,1.752-2.155,1.752c-0.635,0-1.222-0.168-1.629-0.408L216.915,7.452z"/>
			<path d="M225.883,7.128c0,0.504,0.024,0.996,0.084,1.392h-0.946l-0.096-0.732h-0.036c-0.311,0.456-0.945,0.864-1.771,0.864
				c-1.174,0-1.772-0.828-1.772-1.668c0-1.404,1.245-2.172,3.484-2.16v-0.12c0-0.48-0.132-1.356-1.317-1.344
				c-0.551,0-1.113,0.156-1.521,0.432l-0.239-0.708c0.479-0.3,1.186-0.504,1.916-0.504c1.784,0,2.215,1.212,2.215,2.376V7.128z
				 M224.854,5.556c-1.149-0.024-2.455,0.18-2.455,1.308c0,0.696,0.455,1.008,0.982,1.008c0.766,0,1.257-0.48,1.425-0.972
				c0.035-0.108,0.048-0.228,0.048-0.336V5.556z"/>
			<path d="M227.571,4.284c0-0.612-0.024-1.092-0.048-1.572h0.922l0.048,0.936h0.036c0.323-0.552,0.861-1.068,1.832-1.068
				c0.778,0,1.377,0.48,1.628,1.164h0.024c0.18-0.336,0.419-0.576,0.658-0.756c0.348-0.264,0.719-0.408,1.27-0.408
				c0.778,0,1.915,0.504,1.915,2.52v3.42h-1.029V5.232c0-1.128-0.419-1.788-1.257-1.788c-0.611,0-1.066,0.444-1.258,0.948
				c-0.048,0.156-0.084,0.348-0.084,0.528v3.6h-1.029V5.04c0-0.936-0.407-1.596-1.209-1.596c-0.647,0-1.138,0.528-1.306,1.056
				c-0.06,0.156-0.084,0.336-0.084,0.516V8.52h-1.029V4.284z"/>
			<path d="M238.155,5.796c0.024,1.428,0.923,2.016,1.977,2.016c0.754,0,1.221-0.132,1.604-0.288l0.192,0.744
				c-0.371,0.168-1.019,0.372-1.94,0.372c-1.771,0-2.85-1.188-2.85-2.928c0-1.764,1.042-3.144,2.73-3.144
				c1.892,0,2.383,1.668,2.383,2.736c0,0.216-0.013,0.384-0.036,0.504L238.155,5.796z M241.233,5.04
				c0.012-0.66-0.275-1.716-1.449-1.716c-1.078,0-1.532,0.984-1.616,1.716H241.233z"/>
			<path d="M245.95,7.452c0.323,0.192,0.874,0.408,1.401,0.408c0.754,0,1.113-0.372,1.113-0.864c0-0.504-0.3-0.78-1.065-1.068
				c-1.054-0.384-1.545-0.948-1.545-1.644c0-0.936,0.767-1.704,2-1.704c0.586,0,1.102,0.156,1.412,0.36l-0.251,0.756
				c-0.228-0.132-0.646-0.336-1.186-0.336c-0.623,0-0.958,0.36-0.958,0.792c0,0.492,0.335,0.708,1.09,0.996
				c0.994,0.372,1.521,0.876,1.521,1.752c0,1.032-0.802,1.752-2.155,1.752c-0.635,0-1.222-0.168-1.628-0.408L245.95,7.452z"/>
			<path d="M250.836,4.608c0-0.744-0.013-1.344-0.049-1.896h0.946l0.06,0.996h0.024c0.419-0.72,1.113-1.128,2.048-1.128
				c1.412,0,2.466,1.188,2.466,2.952c0,2.088-1.281,3.12-2.634,3.12c-0.778,0-1.437-0.336-1.784-0.912h-0.024v3.156h-1.053V4.608z
				 M251.889,6.156c0,0.144,0.013,0.3,0.049,0.432c0.179,0.732,0.826,1.236,1.568,1.236c1.113,0,1.76-0.912,1.76-2.244
				c0-1.164-0.599-2.16-1.712-2.16c-0.719,0-1.401,0.504-1.604,1.296c-0.024,0.144-0.061,0.3-0.061,0.432V6.156z"/>
			<path d="M258.259,5.796c0.024,1.428,0.922,2.016,1.976,2.016c0.754,0,1.222-0.132,1.604-0.288l0.191,0.744
				c-0.371,0.168-1.018,0.372-1.939,0.372c-1.772,0-2.85-1.188-2.85-2.928c0-1.764,1.042-3.144,2.729-3.144
				c1.893,0,2.383,1.668,2.383,2.736c0,0.216-0.012,0.384-0.036,0.504L258.259,5.796z M261.336,5.04
				c0.012-0.66-0.275-1.716-1.449-1.716c-1.077,0-1.532,0.984-1.616,1.716H261.336z"/>
			<path d="M264.258,5.796c0.023,1.428,0.922,2.016,1.976,2.016c0.754,0,1.221-0.132,1.604-0.288l0.191,0.744
				c-0.371,0.168-1.018,0.372-1.939,0.372c-1.772,0-2.851-1.188-2.851-2.928c0-1.764,1.042-3.144,2.73-3.144
				c1.892,0,2.383,1.668,2.383,2.736c0,0.216-0.012,0.384-0.036,0.504L264.258,5.796z M267.335,5.04
				c0.012-0.66-0.275-1.716-1.449-1.716c-1.077,0-1.532,0.984-1.616,1.716H267.335z"/>
			<path d="M274.662,0v7.02c0,0.516,0.013,1.104,0.048,1.5h-0.945l-0.048-1.008h-0.024c-0.323,0.648-1.018,1.14-1.964,1.14
				c-1.4,0-2.49-1.188-2.49-2.952c-0.012-1.944,1.197-3.12,2.599-3.12c0.897,0,1.496,0.42,1.748,0.876h0.023V0H274.662z
				 M273.608,5.076c0-0.144-0.012-0.312-0.048-0.456c-0.155-0.66-0.73-1.212-1.521-1.212c-1.09,0-1.736,0.96-1.736,2.232
				c0,1.188,0.587,2.16,1.713,2.16c0.706,0,1.353-0.48,1.544-1.26c0.036-0.144,0.048-0.288,0.048-0.456V5.076z"/>
			<path d="M275.429,10.008c0.264-0.72,0.587-2.004,0.719-2.88l1.173-0.12c-0.287,1.02-0.814,2.352-1.149,2.916L275.429,10.008z"/>
			<path d="M17.546,21.952c0.323,0.192,0.874,0.408,1.401,0.408c0.754,0,1.113-0.372,1.113-0.864c0-0.504-0.299-0.78-1.065-1.068
				c-1.054-0.384-1.544-0.948-1.544-1.644c0-0.936,0.766-1.704,2-1.704c0.586,0,1.102,0.156,1.413,0.36l-0.251,0.756
				c-0.227-0.132-0.646-0.336-1.185-0.336c-0.623,0-0.958,0.36-0.958,0.792c0,0.492,0.335,0.708,1.09,0.996
				c0.994,0.372,1.521,0.876,1.521,1.752c0,1.032-0.802,1.752-2.155,1.752c-0.635,0-1.221-0.168-1.628-0.408L17.546,21.952z"/>
			<path d="M24.79,23.152c-1.556,0-2.778-1.152-2.778-2.988c0-1.944,1.281-3.084,2.874-3.084c1.664,0,2.79,1.212,2.79,2.976
				c0,2.16-1.497,3.096-2.874,3.096H24.79z M24.826,22.36c1.006,0,1.76-0.948,1.76-2.268c0-0.984-0.491-2.22-1.736-2.22
				c-1.233,0-1.772,1.152-1.772,2.256c0,1.272,0.718,2.232,1.736,2.232H24.826z"/>
			<path d="M32.812,15.82v1.392h1.509v0.804h-1.509v3.132c0,0.72,0.204,1.128,0.79,1.128c0.288,0,0.455-0.024,0.611-0.072
				l0.048,0.804c-0.204,0.072-0.527,0.144-0.934,0.144c-0.491,0-0.886-0.168-1.137-0.444c-0.288-0.324-0.407-0.84-0.407-1.524
				v-3.168h-0.898v-0.804h0.898v-1.068L32.812,15.82z"/>
			<path d="M35.506,14.5h1.054v3.624h0.024c0.167-0.3,0.431-0.576,0.754-0.744c0.311-0.192,0.683-0.3,1.078-0.3
				c0.778,0,2.023,0.48,2.023,2.484v3.456h-1.054v-3.336c0-0.948-0.347-1.728-1.341-1.728c-0.683,0-1.209,0.48-1.413,1.056
				c-0.06,0.144-0.072,0.3-0.072,0.504v3.504h-1.054V14.5z"/>
			<path d="M42.654,16.144c-0.395,0-0.658-0.312-0.658-0.684s0.275-0.672,0.682-0.672c0.407,0,0.671,0.3,0.671,0.672
				s-0.264,0.684-0.683,0.684H42.654z M42.151,23.02v-5.808h1.054v5.808H42.151z"/>
			<path d="M44.809,21.952c0.323,0.192,0.874,0.408,1.401,0.408c0.754,0,1.114-0.372,1.114-0.864c0-0.504-0.299-0.78-1.066-1.068
				c-1.054-0.384-1.544-0.948-1.544-1.644c0-0.936,0.766-1.704,2-1.704c0.587,0,1.102,0.156,1.413,0.36l-0.251,0.756
				c-0.228-0.132-0.646-0.336-1.186-0.336c-0.623,0-0.958,0.36-0.958,0.792c0,0.492,0.335,0.708,1.09,0.996
				c0.994,0.372,1.521,0.876,1.521,1.752c0,1.032-0.802,1.752-2.155,1.752c-0.634,0-1.221-0.168-1.628-0.408L44.809,21.952z"/>
			<path d="M52.735,16.144c-0.395,0-0.658-0.312-0.658-0.684s0.275-0.672,0.682-0.672c0.407,0,0.671,0.3,0.671,0.672
				s-0.264,0.684-0.683,0.684H52.735z M52.232,23.02v-5.808h1.054v5.808H52.232z"/>
			<path d="M54.891,21.952c0.323,0.192,0.874,0.408,1.401,0.408c0.754,0,1.114-0.372,1.114-0.864c0-0.504-0.299-0.78-1.066-1.068
				c-1.054-0.384-1.544-0.948-1.544-1.644c0-0.936,0.766-1.704,2-1.704c0.587,0,1.102,0.156,1.413,0.36l-0.251,0.756
				c-0.228-0.132-0.646-0.336-1.186-0.336c-0.623,0-0.958,0.36-0.958,0.792c0,0.492,0.335,0.708,1.09,0.996
				c0.994,0.372,1.521,0.876,1.521,1.752c0,1.032-0.802,1.752-2.155,1.752c-0.635,0-1.221-0.168-1.628-0.408L54.891,21.952z"/>
			<path d="M63.583,15.82v1.392h1.508v0.804h-1.508v3.132c0,0.72,0.204,1.128,0.79,1.128c0.288,0,0.455-0.024,0.611-0.072
				l0.048,0.804c-0.204,0.072-0.527,0.144-0.934,0.144c-0.491,0-0.886-0.168-1.137-0.444c-0.288-0.324-0.407-0.84-0.407-1.524
				v-3.168h-0.898v-0.804h0.898v-1.068L63.583,15.82z"/>
			<path d="M66.277,14.5h1.054v3.624h0.024c0.167-0.3,0.431-0.576,0.754-0.744c0.311-0.192,0.682-0.3,1.078-0.3
				c0.778,0,2.023,0.48,2.023,2.484v3.456h-1.054v-3.336c0-0.948-0.347-1.728-1.341-1.728c-0.683,0-1.209,0.48-1.413,1.056
				c-0.06,0.144-0.072,0.3-0.072,0.504v3.504h-1.054V14.5z"/>
			<path d="M73.521,20.296c0.024,1.428,0.922,2.016,1.976,2.016c0.754,0,1.221-0.132,1.604-0.288l0.191,0.744
				c-0.371,0.168-1.018,0.372-1.94,0.372c-1.772,0-2.85-1.188-2.85-2.928c0-1.764,1.042-3.144,2.73-3.144
				c1.892,0,2.383,1.668,2.383,2.736c0,0.216-0.012,0.384-0.036,0.504L73.521,20.296z M76.599,19.54
				c0.012-0.66-0.275-1.716-1.449-1.716c-1.078,0-1.532,0.984-1.616,1.716H76.599z"/>
			<path d="M81.459,18.784c0-0.612-0.012-1.092-0.048-1.572h0.934l0.06,0.948h0.024c0.288-0.54,0.958-1.08,1.916-1.08
				c0.802,0,2.047,0.48,2.047,2.472v3.468h-1.054v-3.348c0-0.936-0.347-1.728-1.341-1.728c-0.683,0-1.222,0.492-1.413,1.08
				c-0.048,0.132-0.072,0.324-0.072,0.492v3.504h-1.054V18.784z"/>
			<path d="M92.954,21.436c0,0.6,0.012,1.128,0.048,1.584h-0.934l-0.06-0.948h-0.024c-0.264,0.468-0.886,1.08-1.916,1.08
				c-0.91,0-2-0.516-2-2.544v-3.396h1.054v3.204c0,1.104,0.347,1.86,1.293,1.86c0.707,0,1.197-0.492,1.389-0.972
				c0.06-0.144,0.096-0.336,0.096-0.54v-3.552h1.054V21.436z"/>
			<path d="M94.702,18.784c0-0.612-0.024-1.092-0.048-1.572h0.922l0.048,0.936h0.036c0.323-0.552,0.862-1.068,1.832-1.068
				c0.778,0,1.377,0.48,1.628,1.164h0.024c0.179-0.336,0.419-0.576,0.658-0.756c0.347-0.264,0.719-0.408,1.27-0.408
				c0.778,0,1.916,0.504,1.916,2.52v3.42h-1.03v-3.288c0-1.128-0.419-1.788-1.257-1.788c-0.61,0-1.065,0.444-1.257,0.948
				c-0.048,0.156-0.084,0.348-0.084,0.528v3.6h-1.03v-3.48c0-0.936-0.407-1.596-1.209-1.596c-0.646,0-1.137,0.528-1.305,1.056
				c-0.06,0.156-0.083,0.336-0.083,0.516v3.504h-1.03V18.784z"/>
			<path d="M104.688,14.5h1.054v3.636h0.024c0.371-0.648,1.042-1.056,1.976-1.056c1.437,0,2.443,1.2,2.443,2.952
				c0,2.088-1.317,3.12-2.61,3.12c-0.838,0-1.497-0.324-1.94-1.092h-0.024l-0.06,0.96h-0.91c0.036-0.396,0.048-0.984,0.048-1.5V14.5
				z M105.742,20.692c0,0.132,0.012,0.264,0.036,0.384c0.203,0.732,0.826,1.236,1.581,1.236c1.113,0,1.76-0.9,1.76-2.232
				c0-1.176-0.599-2.172-1.724-2.172c-0.718,0-1.389,0.504-1.592,1.296c-0.036,0.132-0.06,0.276-0.06,0.444V20.692z"/>
			<path d="M112.111,20.296c0.024,1.428,0.922,2.016,1.976,2.016c0.754,0,1.221-0.132,1.604-0.288l0.191,0.744
				c-0.371,0.168-1.018,0.372-1.939,0.372c-1.772,0-2.85-1.188-2.85-2.928c0-1.764,1.042-3.144,2.73-3.144
				c1.892,0,2.383,1.668,2.383,2.736c0,0.216-0.012,0.384-0.036,0.504L112.111,20.296z M115.188,19.54
				c0.012-0.66-0.275-1.716-1.449-1.716c-1.078,0-1.533,0.984-1.616,1.716H115.188z"/>
			<path d="M117.523,19.024c0-0.684-0.012-1.272-0.048-1.812h0.922l0.048,1.14h0.036c0.263-0.78,0.91-1.272,1.616-1.272
				c0.108,0,0.191,0.012,0.287,0.036V18.1c-0.12-0.012-0.227-0.024-0.371-0.024c-0.742,0-1.269,0.564-1.413,1.344
				c-0.024,0.156-0.036,0.324-0.036,0.504v3.096h-1.054L117.523,19.024z"/>
			<path d="M126.324,23.152c-1.557,0-2.778-1.152-2.778-2.988c0-1.944,1.281-3.084,2.874-3.084c1.665,0,2.79,1.212,2.79,2.976
				c0,2.16-1.497,3.096-2.874,3.096H126.324z M126.36,22.36c1.005,0,1.76-0.948,1.76-2.268c0-0.984-0.491-2.22-1.736-2.22
				c-1.233,0-1.772,1.152-1.772,2.256c0,1.272,0.719,2.232,1.736,2.232H126.36z"/>
			<path d="M130.634,23.02v-5.004h-0.802v-0.804h0.802v-0.276c0-0.816,0.191-1.56,0.682-2.028c0.396-0.384,0.922-0.54,1.401-0.54
				c0.383,0,0.694,0.084,0.898,0.168l-0.132,0.816c-0.167-0.072-0.371-0.132-0.683-0.132c-0.886,0-1.125,0.792-1.125,1.68v0.312
				h1.401v0.804h-1.389v5.004H130.634z"/>
			<path d="M137.171,20.296c0.024,1.428,0.922,2.016,1.976,2.016c0.754,0,1.222-0.132,1.604-0.288l0.192,0.744
				c-0.371,0.168-1.018,0.372-1.94,0.372c-1.772,0-2.85-1.188-2.85-2.928c0-1.764,1.042-3.144,2.73-3.144
				c1.892,0,2.383,1.668,2.383,2.736c0,0.216-0.012,0.384-0.036,0.504L137.171,20.296z M140.249,19.54
				c0.012-0.66-0.275-1.716-1.449-1.716c-1.078,0-1.533,0.984-1.616,1.716H140.249z"/>
			<path d="M146.654,21.628c0,0.504,0.024,0.996,0.084,1.392h-0.946l-0.096-0.732h-0.036c-0.311,0.456-0.946,0.864-1.772,0.864
				c-1.173,0-1.772-0.828-1.772-1.668c0-1.404,1.245-2.172,3.484-2.16v-0.12c0-0.48-0.131-1.356-1.317-1.344
				c-0.551,0-1.114,0.156-1.521,0.432l-0.24-0.708c0.479-0.3,1.186-0.504,1.916-0.504c1.784,0,2.215,1.212,2.215,2.376V21.628z
				 M145.625,20.056c-1.15-0.024-2.455,0.18-2.455,1.308c0,0.696,0.455,1.008,0.982,1.008c0.767,0,1.257-0.48,1.425-0.972
				c0.036-0.108,0.048-0.228,0.048-0.336V20.056z"/>
			<path d="M152.474,22.816c-0.275,0.132-0.886,0.336-1.665,0.336c-1.748,0-2.885-1.188-2.885-2.976
				c0-1.788,1.221-3.096,3.113-3.096c0.623,0,1.173,0.156,1.461,0.312l-0.24,0.804c-0.251-0.132-0.646-0.276-1.221-0.276
				c-1.329,0-2.047,0.996-2.047,2.208c0,1.344,0.862,2.172,2.012,2.172c0.599,0,0.994-0.144,1.293-0.276L152.474,22.816z"/>
			<path d="M153.707,14.5h1.054v3.624h0.024c0.167-0.3,0.431-0.576,0.754-0.744c0.312-0.192,0.683-0.3,1.078-0.3
				c0.778,0,2.024,0.48,2.024,2.484v3.456h-1.054v-3.336c0-0.948-0.347-1.728-1.341-1.728c-0.683,0-1.209,0.48-1.413,1.056
				c-0.06,0.144-0.072,0.3-0.072,0.504v3.504h-1.054V14.5z"/>
			<path d="M163.31,17.212l0.778,2.94c0.155,0.648,0.311,1.26,0.419,1.86h0.036c0.132-0.588,0.324-1.212,0.515-1.848l0.946-2.952
				h0.886l0.898,2.904c0.215,0.684,0.383,1.308,0.515,1.896h0.036c0.096-0.588,0.251-1.2,0.443-1.884l0.826-2.916h1.042
				l-1.868,5.808h-0.958l-0.886-2.772c-0.204-0.66-0.371-1.236-0.515-1.92h-0.024c-0.144,0.696-0.323,1.308-0.527,1.932l-0.934,2.76
				h-0.958l-1.748-5.808H163.31z"/>
			<path d="M175.738,21.628c0,0.504,0.024,0.996,0.084,1.392h-0.946l-0.096-0.732h-0.036c-0.312,0.456-0.946,0.864-1.772,0.864
				c-1.173,0-1.772-0.828-1.772-1.668c0-1.404,1.246-2.172,3.484-2.16v-0.12c0-0.48-0.131-1.356-1.317-1.344
				c-0.551,0-1.114,0.156-1.521,0.432l-0.24-0.708c0.479-0.3,1.186-0.504,1.916-0.504c1.784,0,2.215,1.212,2.215,2.376V21.628z
				 M174.708,20.056c-1.149-0.024-2.455,0.18-2.455,1.308c0,0.696,0.455,1.008,0.982,1.008c0.767,0,1.257-0.48,1.425-0.972
				c0.036-0.108,0.048-0.228,0.048-0.336V20.056z"/>
			<path d="M177.678,17.212l1.138,3.252c0.191,0.54,0.347,1.02,0.467,1.5h0.036c0.131-0.48,0.299-0.96,0.491-1.5l1.125-3.252h1.102
				l-2.275,5.808h-1.006l-2.203-5.808H177.678z"/>
			<path d="M183.497,20.296c0.024,1.428,0.922,2.016,1.976,2.016c0.754,0,1.221-0.132,1.604-0.288l0.191,0.744
				c-0.371,0.168-1.018,0.372-1.939,0.372c-1.772,0-2.85-1.188-2.85-2.928c0-1.764,1.042-3.144,2.73-3.144
				c1.892,0,2.383,1.668,2.383,2.736c0,0.216-0.012,0.384-0.036,0.504L183.497,20.296z M186.574,19.54
				c0.012-0.66-0.275-1.716-1.449-1.716c-1.078,0-1.533,0.984-1.617,1.716H186.574z"/>
			<path d="M192.705,15.82v1.392h1.508v0.804h-1.508v3.132c0,0.72,0.203,1.128,0.79,1.128c0.288,0,0.455-0.024,0.611-0.072
				l0.048,0.804c-0.204,0.072-0.527,0.144-0.934,0.144c-0.491,0-0.886-0.168-1.138-0.444c-0.287-0.324-0.407-0.84-0.407-1.524
				v-3.168h-0.898v-0.804h0.898v-1.068L192.705,15.82z"/>
			<path d="M195.398,14.5h1.054v3.624h0.024c0.167-0.3,0.431-0.576,0.754-0.744c0.311-0.192,0.682-0.3,1.078-0.3
				c0.778,0,2.023,0.48,2.023,2.484v3.456h-1.054v-3.336c0-0.948-0.347-1.728-1.341-1.728c-0.682,0-1.209,0.48-1.413,1.056
				c-0.06,0.144-0.072,0.3-0.072,0.504v3.504h-1.054V14.5z"/>
			<path d="M206.127,21.628c0,0.504,0.023,0.996,0.083,1.392h-0.945l-0.096-0.732h-0.036c-0.312,0.456-0.946,0.864-1.772,0.864
				c-1.173,0-1.771-0.828-1.771-1.668c0-1.404,1.245-2.172,3.484-2.16v-0.12c0-0.48-0.132-1.356-1.317-1.344
				c-0.551,0-1.113,0.156-1.521,0.432l-0.239-0.708c0.479-0.3,1.185-0.504,1.915-0.504c1.784,0,2.216,1.212,2.216,2.376V21.628z
				 M205.097,20.056c-1.149-0.024-2.454,0.18-2.454,1.308c0,0.696,0.455,1.008,0.981,1.008c0.767,0,1.257-0.48,1.425-0.972
				c0.036-0.108,0.048-0.228,0.048-0.336V20.056z"/>
			<path d="M209.036,15.82v1.392h1.509v0.804h-1.509v3.132c0,0.72,0.203,1.128,0.79,1.128c0.287,0,0.455-0.024,0.611-0.072
				l0.048,0.804c-0.204,0.072-0.527,0.144-0.935,0.144c-0.49,0-0.886-0.168-1.138-0.444c-0.287-0.324-0.406-0.84-0.406-1.524v-3.168
				h-0.898v-0.804h0.898v-1.068L209.036,15.82z"/>
			<path d="M214.688,17.212l0.778,2.94c0.155,0.648,0.312,1.26,0.419,1.86h0.036c0.132-0.588,0.323-1.212,0.515-1.848l0.946-2.952
				h0.886l0.898,2.904c0.215,0.684,0.383,1.308,0.515,1.896h0.036c0.096-0.588,0.251-1.2,0.442-1.884l0.826-2.916h1.042
				l-1.868,5.808h-0.958l-0.886-2.772c-0.203-0.66-0.371-1.236-0.515-1.92h-0.024c-0.144,0.696-0.323,1.308-0.526,1.932l-0.935,2.76
				h-0.957l-1.749-5.808H214.688z"/>
			<path d="M223.584,16.144c-0.396,0-0.659-0.312-0.659-0.684s0.275-0.672,0.683-0.672s0.671,0.3,0.671,0.672
				s-0.264,0.684-0.683,0.684H223.584z M223.081,23.02v-5.808h1.054v5.808H223.081z"/>
			<path d="M225.883,14.5h1.054v8.52h-1.054V14.5z"/>
			<path d="M228.685,14.5h1.054v8.52h-1.054V14.5z"/>
			<path d="M234.036,19.024c0-0.684-0.012-1.272-0.048-1.812h0.922l0.048,1.14h0.036c0.264-0.78,0.91-1.272,1.616-1.272
				c0.108,0,0.191,0.012,0.288,0.036V18.1c-0.12-0.012-0.228-0.024-0.372-0.024c-0.742,0-1.269,0.564-1.412,1.344
				c-0.024,0.156-0.036,0.324-0.036,0.504v3.096h-1.054L234.036,19.024z"/>
			<path d="M238.467,20.296c0.023,1.428,0.922,2.016,1.976,2.016c0.754,0,1.221-0.132,1.604-0.288l0.191,0.744
				c-0.371,0.168-1.018,0.372-1.939,0.372c-1.772,0-2.85-1.188-2.85-2.928c0-1.764,1.041-3.144,2.729-3.144
				c1.892,0,2.383,1.668,2.383,2.736c0,0.216-0.012,0.384-0.036,0.504L238.467,20.296z M241.544,19.54
				c0.012-0.66-0.275-1.716-1.449-1.716c-1.077,0-1.532,0.984-1.616,1.716H241.544z"/>
			<path d="M247.949,21.628c0,0.504,0.024,0.996,0.084,1.392h-0.946l-0.096-0.732h-0.035c-0.312,0.456-0.946,0.864-1.772,0.864
				c-1.174,0-1.772-0.828-1.772-1.668c0-1.404,1.245-2.172,3.484-2.16v-0.12c0-0.48-0.132-1.356-1.316-1.344
				c-0.551,0-1.114,0.156-1.521,0.432l-0.239-0.708c0.479-0.3,1.186-0.504,1.916-0.504c1.784,0,2.215,1.212,2.215,2.376V21.628z
				 M246.92,20.056c-1.149-0.024-2.455,0.18-2.455,1.308c0,0.696,0.455,1.008,0.982,1.008c0.766,0,1.257-0.48,1.425-0.972
				c0.036-0.108,0.048-0.228,0.048-0.336V20.056z"/>
			<path d="M253.769,22.816c-0.275,0.132-0.886,0.336-1.664,0.336c-1.748,0-2.886-1.188-2.886-2.976
				c0-1.788,1.221-3.096,3.113-3.096c0.622,0,1.173,0.156,1.461,0.312l-0.24,0.804c-0.251-0.132-0.646-0.276-1.221-0.276
				c-1.329,0-2.048,0.996-2.048,2.208c0,1.344,0.862,2.172,2.012,2.172c0.599,0,0.994-0.144,1.293-0.276L253.769,22.816z"/>
			<path d="M255.002,14.5h1.054v3.624h0.023c0.168-0.3,0.432-0.576,0.755-0.744c0.312-0.192,0.683-0.3,1.077-0.3
				c0.778,0,2.023,0.48,2.023,2.484v3.456h-1.054v-3.336c0-0.948-0.347-1.728-1.341-1.728c-0.683,0-1.209,0.48-1.413,1.056
				c-0.06,0.144-0.071,0.3-0.071,0.504v3.504h-1.054V14.5z"/>
			<path d="M265.454,15.82v1.392h1.509v0.804h-1.509v3.132c0,0.72,0.204,1.128,0.791,1.128c0.287,0,0.455-0.024,0.61-0.072
				l0.048,0.804c-0.203,0.072-0.526,0.144-0.934,0.144c-0.491,0-0.887-0.168-1.138-0.444c-0.287-0.324-0.407-0.84-0.407-1.524
				v-3.168h-0.898v-0.804h0.898v-1.068L265.454,15.82z"/>
			<path d="M268.148,14.5h1.054v3.624h0.024c0.167-0.3,0.431-0.576,0.754-0.744c0.312-0.192,0.683-0.3,1.078-0.3
				c0.777,0,2.023,0.48,2.023,2.484v3.456h-1.054v-3.336c0-0.948-0.348-1.728-1.342-1.728c-0.682,0-1.209,0.48-1.412,1.056
				c-0.061,0.144-0.072,0.3-0.072,0.504v3.504h-1.054V14.5z"/>
			<path d="M275.393,20.296c0.023,1.428,0.922,2.016,1.976,2.016c0.754,0,1.222-0.132,1.604-0.288l0.191,0.744
				c-0.371,0.168-1.018,0.372-1.939,0.372c-1.772,0-2.85-1.188-2.85-2.928c0-1.764,1.041-3.144,2.729-3.144
				c1.892,0,2.383,1.668,2.383,2.736c0,0.216-0.012,0.384-0.036,0.504L275.393,20.296z M278.47,19.54
				c0.012-0.66-0.275-1.716-1.449-1.716c-1.077,0-1.532,0.984-1.616,1.716H278.47z"/>
			<path d="M283.93,20.296c0.023,1.428,0.922,2.016,1.976,2.016c0.754,0,1.221-0.132,1.604-0.288l0.191,0.744
				c-0.371,0.168-1.018,0.372-1.939,0.372c-1.772,0-2.851-1.188-2.851-2.928c0-1.764,1.042-3.144,2.73-3.144
				c1.892,0,2.383,1.668,2.383,2.736c0,0.216-0.012,0.384-0.036,0.504L283.93,20.296z M287.007,19.54
				c0.012-0.66-0.275-1.716-1.449-1.716c-1.077,0-1.532,0.984-1.616,1.716H287.007z"/>
			<path d="M293.412,21.628c0,0.504,0.024,0.996,0.084,1.392h-0.946l-0.096-0.732h-0.035c-0.312,0.456-0.946,0.864-1.772,0.864
				c-1.174,0-1.772-0.828-1.772-1.668c0-1.404,1.245-2.172,3.484-2.16v-0.12c0-0.48-0.132-1.356-1.316-1.344
				c-0.551,0-1.114,0.156-1.521,0.432l-0.239-0.708c0.479-0.3,1.186-0.504,1.916-0.504c1.784,0,2.215,1.212,2.215,2.376V21.628z
				 M292.383,20.056c-1.149-0.024-2.455,0.18-2.455,1.308c0,0.696,0.455,1.008,0.982,1.008c0.766,0,1.257-0.48,1.425-0.972
				c0.036-0.108,0.048-0.228,0.048-0.336V20.056z"/>
			<path d="M295.112,19.024c0-0.684-0.012-1.272-0.048-1.812h0.922l0.048,1.14h0.036c0.264-0.78,0.91-1.272,1.616-1.272
				c0.108,0,0.191,0.012,0.288,0.036V18.1c-0.12-0.012-0.228-0.024-0.372-0.024c-0.742,0-1.269,0.564-1.412,1.344
				c-0.024,0.156-0.036,0.324-0.036,0.504v3.096h-1.054L295.112,19.024z"/>
			<path d="M18.192,30.644c-0.395,0-0.659-0.312-0.659-0.684s0.275-0.672,0.683-0.672s0.67,0.3,0.67,0.672s-0.263,0.684-0.682,0.684
				H18.192z M17.689,37.52v-5.808h1.054v5.808H17.689z"/>
			<path d="M20.491,33.284c0-0.612-0.012-1.092-0.048-1.572h0.934l0.06,0.948h0.024c0.288-0.54,0.958-1.08,1.916-1.08
				c0.802,0,2.047,0.48,2.047,2.472v3.468h-1.054v-3.348c0-0.936-0.347-1.728-1.341-1.728c-0.683,0-1.222,0.492-1.413,1.08
				c-0.048,0.132-0.072,0.324-0.072,0.492v3.504h-1.054V33.284z"/>
			<path d="M33.758,36.128c0,0.504,0.024,0.996,0.084,1.392h-0.946L32.8,36.788h-0.036c-0.312,0.456-0.946,0.864-1.772,0.864
				c-1.173,0-1.772-0.828-1.772-1.668c0-1.404,1.245-2.172,3.484-2.16v-0.12c0-0.48-0.132-1.356-1.317-1.344
				c-0.551,0-1.113,0.156-1.521,0.432l-0.239-0.708c0.479-0.3,1.185-0.504,1.916-0.504c1.784,0,2.215,1.212,2.215,2.376V36.128z
				 M32.728,34.556c-1.149-0.024-2.455,0.18-2.455,1.308c0,0.696,0.455,1.008,0.982,1.008c0.766,0,1.257-0.48,1.425-0.972
				c0.036-0.108,0.048-0.228,0.048-0.336V34.556z"/>
			<path d="M37.984,29h1.054v3.624h0.024c0.167-0.3,0.431-0.576,0.754-0.744c0.311-0.192,0.682-0.3,1.078-0.3
				c0.778,0,2.023,0.48,2.023,2.484v3.456h-1.054v-3.336c0-0.948-0.347-1.728-1.341-1.728c-0.682,0-1.209,0.48-1.413,1.056
				c-0.06,0.144-0.072,0.3-0.072,0.504v3.504h-1.054V29z"/>
			<path d="M49.479,35.936c0,0.6,0.012,1.128,0.048,1.584h-0.934l-0.06-0.948h-0.024c-0.263,0.468-0.886,1.08-1.916,1.08
				c-0.91,0-2-0.516-2-2.544v-3.396h1.054v3.204c0,1.104,0.347,1.86,1.293,1.86c0.707,0,1.197-0.492,1.389-0.972
				c0.06-0.144,0.096-0.336,0.096-0.54v-3.552h1.054V35.936z"/>
			<path d="M51.227,33.284c0-0.612-0.012-1.092-0.048-1.572h0.934l0.06,0.948h0.024c0.287-0.54,0.958-1.08,1.916-1.08
				c0.802,0,2.048,0.48,2.048,2.472v3.468h-1.054v-3.348c0-0.936-0.347-1.728-1.341-1.728c-0.683,0-1.221,0.492-1.413,1.08
				c-0.048,0.132-0.072,0.324-0.072,0.492v3.504h-1.053V33.284z"/>
			<path d="M62.877,29v7.02c0,0.516,0.012,1.104,0.048,1.5h-0.946l-0.048-1.008h-0.024c-0.323,0.648-1.018,1.14-1.964,1.14
				c-1.401,0-2.49-1.188-2.49-2.952c-0.012-1.944,1.197-3.12,2.598-3.12c0.898,0,1.497,0.42,1.748,0.876h0.024V29H62.877z
				 M61.823,34.076c0-0.144-0.012-0.312-0.048-0.456c-0.156-0.66-0.73-1.212-1.521-1.212c-1.09,0-1.736,0.96-1.736,2.232
				c0,1.188,0.587,2.16,1.712,2.16c0.707,0,1.353-0.48,1.544-1.26c0.036-0.144,0.048-0.288,0.048-0.456V34.076z"/>
			<path d="M64.637,33.524c0-0.684-0.012-1.272-0.048-1.812h0.922l0.048,1.14h0.036c0.263-0.78,0.91-1.272,1.616-1.272
				c0.108,0,0.191,0.012,0.288,0.036V32.6c-0.12-0.012-0.228-0.024-0.372-0.024c-0.742,0-1.269,0.564-1.413,1.344
				c-0.024,0.156-0.036,0.324-0.036,0.504v3.096h-1.054L64.637,33.524z"/>
			<path d="M69.067,34.796c0.024,1.428,0.922,2.016,1.976,2.016c0.754,0,1.221-0.132,1.604-0.288l0.191,0.744
				c-0.371,0.168-1.018,0.372-1.939,0.372c-1.772,0-2.85-1.188-2.85-2.928c0-1.764,1.042-3.144,2.73-3.144
				c1.892,0,2.383,1.668,2.383,2.736c0,0.216-0.012,0.384-0.036,0.504L69.067,34.796z M72.145,34.04
				c0.012-0.66-0.275-1.716-1.449-1.716c-1.078,0-1.533,0.984-1.617,1.716H72.145z"/>
			<path d="M79.472,29v7.02c0,0.516,0.012,1.104,0.048,1.5h-0.946l-0.048-1.008h-0.024c-0.323,0.648-1.018,1.14-1.964,1.14
				c-1.401,0-2.49-1.188-2.49-2.952c-0.012-1.944,1.197-3.12,2.598-3.12c0.898,0,1.497,0.42,1.748,0.876h0.024V29H79.472z
				 M78.418,34.076c0-0.144-0.012-0.312-0.048-0.456c-0.156-0.66-0.73-1.212-1.521-1.212c-1.09,0-1.736,0.96-1.736,2.232
				c0,1.188,0.587,2.16,1.712,2.16c0.707,0,1.353-0.48,1.544-1.26c0.036-0.144,0.048-0.288,0.048-0.456V34.076z"/>
			<path d="M82.49,30.32v1.392h1.508v0.804H82.49v3.132c0,0.72,0.203,1.128,0.79,1.128c0.288,0,0.455-0.024,0.611-0.072l0.048,0.804
				c-0.204,0.072-0.527,0.144-0.934,0.144c-0.491,0-0.886-0.168-1.138-0.444c-0.287-0.324-0.407-0.84-0.407-1.524v-3.168h-0.898
				v-0.804h0.898v-1.068L82.49,30.32z"/>
			<path d="M85.184,29h1.054v3.624h0.024c0.167-0.3,0.431-0.576,0.754-0.744c0.311-0.192,0.682-0.3,1.078-0.3
				c0.778,0,2.023,0.48,2.023,2.484v3.456h-1.054v-3.336c0-0.948-0.347-1.728-1.341-1.728c-0.682,0-1.209,0.48-1.413,1.056
				c-0.06,0.144-0.072,0.3-0.072,0.504v3.504h-1.054V29z"/>
			<path d="M96.726,37.652c-1.556,0-2.778-1.152-2.778-2.988c0-1.944,1.281-3.084,2.874-3.084c1.664,0,2.79,1.212,2.79,2.976
				c0,2.16-1.497,3.096-2.874,3.096H96.726z M96.762,36.86c1.006,0,1.76-0.948,1.76-2.268c0-0.984-0.491-2.22-1.736-2.22
				c-1.233,0-1.772,1.152-1.772,2.256c0,1.272,0.718,2.232,1.736,2.232H96.762z"/>
			<path d="M101.036,37.52v-5.004h-0.802v-0.804h0.802v-0.276c0-0.816,0.192-1.56,0.683-2.028c0.395-0.384,0.922-0.54,1.401-0.54
				c0.383,0,0.694,0.084,0.898,0.168l-0.132,0.816c-0.167-0.072-0.371-0.132-0.682-0.132c-0.886,0-1.125,0.792-1.125,1.68v0.312
				h1.401v0.804h-1.389v5.004H101.036z"/>
			<path d="M111.058,36.128c0,0.504,0.024,0.996,0.083,1.392h-0.946l-0.096-0.732h-0.036c-0.311,0.456-0.946,0.864-1.772,0.864
				c-1.173,0-1.772-0.828-1.772-1.668c0-1.404,1.245-2.172,3.484-2.16v-0.12c0-0.48-0.132-1.356-1.317-1.344
				c-0.551,0-1.113,0.156-1.521,0.432l-0.239-0.708c0.479-0.3,1.185-0.504,1.916-0.504c1.784,0,2.215,1.212,2.215,2.376V36.128z
				 M110.028,34.556c-1.149-0.024-2.455,0.18-2.455,1.308c0,0.696,0.455,1.008,0.982,1.008c0.766,0,1.257-0.48,1.425-0.972
				c0.036-0.108,0.048-0.228,0.048-0.336V34.556z"/>
			<path d="M115.141,36.452c0.323,0.192,0.874,0.408,1.401,0.408c0.754,0,1.114-0.372,1.114-0.864c0-0.504-0.299-0.78-1.066-1.068
				c-1.054-0.384-1.544-0.948-1.544-1.644c0-0.936,0.766-1.704,2-1.704c0.587,0,1.102,0.156,1.413,0.36l-0.251,0.756
				c-0.228-0.132-0.646-0.336-1.186-0.336c-0.623,0-0.958,0.36-0.958,0.792c0,0.492,0.335,0.708,1.09,0.996
				c0.994,0.372,1.521,0.876,1.521,1.752c0,1.032-0.802,1.752-2.155,1.752c-0.635,0-1.221-0.168-1.628-0.408L115.141,36.452z"/>
			<path d="M120.625,34.796c0.024,1.428,0.922,2.016,1.976,2.016c0.754,0,1.221-0.132,1.604-0.288l0.191,0.744
				c-0.371,0.168-1.018,0.372-1.939,0.372c-1.772,0-2.85-1.188-2.85-2.928c0-1.764,1.042-3.144,2.73-3.144
				c1.892,0,2.383,1.668,2.383,2.736c0,0.216-0.012,0.384-0.036,0.504L120.625,34.796z M123.702,34.04
				c0.012-0.66-0.275-1.716-1.449-1.716c-1.078,0-1.533,0.984-1.616,1.716H123.702z"/>
			<path d="M130.155,37.316c-0.275,0.132-0.886,0.336-1.664,0.336c-1.748,0-2.886-1.188-2.886-2.976
				c0-1.788,1.221-3.096,3.113-3.096c0.623,0,1.173,0.156,1.46,0.312l-0.239,0.804c-0.251-0.132-0.646-0.276-1.221-0.276
				c-1.329,0-2.048,0.996-2.048,2.208c0,1.344,0.862,2.172,2.012,2.172c0.599,0,0.994-0.144,1.293-0.276L130.155,37.316z"/>
			<path d="M133.676,37.652c-1.557,0-2.778-1.152-2.778-2.988c0-1.944,1.281-3.084,2.874-3.084c1.664,0,2.79,1.212,2.79,2.976
				c0,2.16-1.497,3.096-2.874,3.096H133.676z M133.711,36.86c1.006,0,1.76-0.948,1.76-2.268c0-0.984-0.491-2.22-1.736-2.22
				c-1.233,0-1.772,1.152-1.772,2.256c0,1.272,0.718,2.232,1.736,2.232H133.711z"/>
			<path d="M137.89,33.284c0-0.612-0.012-1.092-0.048-1.572h0.934l0.06,0.948h0.024c0.287-0.54,0.958-1.08,1.916-1.08
				c0.802,0,2.047,0.48,2.047,2.472v3.468h-1.054v-3.348c0-0.936-0.347-1.728-1.341-1.728c-0.683,0-1.221,0.492-1.413,1.08
				c-0.048,0.132-0.072,0.324-0.072,0.492v3.504h-1.054V33.284z"/>
			<path d="M149.541,29v7.02c0,0.516,0.012,1.104,0.048,1.5h-0.946l-0.048-1.008h-0.024c-0.323,0.648-1.018,1.14-1.964,1.14
				c-1.401,0-2.491-1.188-2.491-2.952c-0.012-1.944,1.198-3.12,2.599-3.12c0.898,0,1.497,0.42,1.748,0.876h0.024V29H149.541z
				 M148.487,34.076c0-0.144-0.012-0.312-0.048-0.456c-0.156-0.66-0.73-1.212-1.521-1.212c-1.09,0-1.736,0.96-1.736,2.232
				c0,1.188,0.587,2.16,1.712,2.16c0.706,0,1.353-0.48,1.544-1.26c0.036-0.144,0.048-0.288,0.048-0.456V34.076z"/>
			<path d="M151.492,37.652c-0.407,0-0.694-0.324-0.694-0.756s0.299-0.756,0.718-0.756s0.707,0.312,0.707,0.756
				c0,0.432-0.288,0.756-0.718,0.756H151.492z"/>
		</g>
		<g>
			<path fill="#FF0000" d="M62.579,104.533c0.467,0.3,1.137,0.528,1.856,0.528c1.065,0,1.688-0.552,1.688-1.38
				c0-0.744-0.431-1.188-1.521-1.596c-1.317-0.48-2.131-1.176-2.131-2.304c0-1.26,1.042-2.196,2.61-2.196
				c0.814,0,1.425,0.192,1.772,0.396l-0.287,0.852c-0.251-0.156-0.791-0.384-1.521-0.384c-1.102,0-1.521,0.66-1.521,1.212
				c0,0.756,0.491,1.128,1.604,1.56c1.365,0.54,2.047,1.188,2.047,2.376c0,1.248-0.91,2.34-2.813,2.34
				c-0.778,0-1.628-0.24-2.06-0.528L62.579,104.533z"/>
			<path fill="#FF0000" d="M68.542,97.285h1.054v3.624h0.024c0.167-0.3,0.431-0.576,0.754-0.744c0.311-0.192,0.683-0.3,1.078-0.3
				c0.778,0,2.023,0.48,2.023,2.484v3.456h-1.054v-3.336c0-0.948-0.347-1.728-1.341-1.728c-0.683,0-1.209,0.48-1.413,1.056
				c-0.06,0.144-0.072,0.3-0.072,0.504v3.504h-1.054V97.285z"/>
			<path fill="#FF0000" d="M77.545,105.937c-1.557,0-2.778-1.152-2.778-2.988c0-1.944,1.281-3.084,2.874-3.084
				c1.665,0,2.79,1.212,2.79,2.976c0,2.16-1.497,3.096-2.874,3.096H77.545z M77.582,105.145c1.006,0,1.76-0.948,1.76-2.268
				c0-0.984-0.491-2.22-1.736-2.22c-1.233,0-1.772,1.152-1.772,2.256c0,1.272,0.718,2.232,1.736,2.232H77.582z"/>
			<path fill="#FF0000" d="M81.772,101.809c0-0.684-0.012-1.272-0.048-1.812h0.922l0.048,1.14h0.036
				c0.264-0.78,0.91-1.272,1.617-1.272c0.107,0,0.191,0.012,0.287,0.036v0.984c-0.12-0.012-0.228-0.024-0.371-0.024
				c-0.742,0-1.269,0.564-1.413,1.344c-0.024,0.156-0.036,0.324-0.036,0.504v3.096H81.76L81.772,101.809z"/>
			<path fill="#FF0000" d="M87.232,98.605v1.392h1.509v0.804h-1.509v3.132c0,0.72,0.204,1.128,0.79,1.128
				c0.288,0,0.455-0.024,0.611-0.072l0.048,0.804c-0.204,0.072-0.527,0.144-0.934,0.144c-0.491,0-0.886-0.168-1.137-0.444
				c-0.288-0.324-0.407-0.84-0.407-1.524v-3.168h-0.898v-0.804h0.898v-1.068L87.232,98.605z"/>
			<path fill="#FF0000" d="M92.883,99.997l0.778,2.94c0.155,0.648,0.311,1.26,0.419,1.86h0.036c0.131-0.588,0.323-1.212,0.515-1.848
				l0.946-2.952h0.886l0.898,2.904c0.215,0.684,0.383,1.308,0.515,1.896h0.036c0.096-0.588,0.251-1.2,0.443-1.884l0.826-2.916h1.042
				l-1.868,5.808h-0.958l-0.886-2.772c-0.204-0.66-0.371-1.236-0.515-1.92h-0.024c-0.144,0.696-0.323,1.308-0.527,1.932l-0.934,2.76
				h-0.958l-1.748-5.808H92.883z"/>
			<path fill="#FF0000" d="M105.312,104.413c0,0.504,0.024,0.996,0.084,1.392h-0.946l-0.096-0.732h-0.036
				c-0.312,0.456-0.946,0.864-1.772,0.864c-1.173,0-1.772-0.828-1.772-1.668c0-1.404,1.245-2.172,3.484-2.16v-0.12
				c0-0.48-0.131-1.356-1.317-1.344c-0.551,0-1.114,0.156-1.521,0.432l-0.24-0.708c0.479-0.3,1.186-0.504,1.916-0.504
				c1.784,0,2.215,1.212,2.215,2.376V104.413z M104.282,102.841c-1.149-0.024-2.455,0.18-2.455,1.308
				c0,0.696,0.455,1.008,0.982,1.008c0.767,0,1.257-0.48,1.425-0.972c0.036-0.108,0.048-0.228,0.048-0.336V102.841z"/>
			<path fill="#FF0000" d="M107.251,99.997l1.138,3.252c0.191,0.54,0.347,1.02,0.467,1.5h0.036c0.131-0.48,0.299-0.96,0.491-1.5
				l1.125-3.252h1.102l-2.275,5.808h-1.006l-2.203-5.808H107.251z"/>
			<path fill="#FF0000" d="M113.071,103.081c0.024,1.428,0.922,2.016,1.976,2.016c0.754,0,1.221-0.132,1.604-0.288l0.191,0.744
				c-0.371,0.168-1.018,0.372-1.939,0.372c-1.772,0-2.85-1.188-2.85-2.928c0-1.764,1.042-3.144,2.73-3.144
				c1.892,0,2.383,1.668,2.383,2.736c0,0.216-0.012,0.384-0.036,0.504L113.071,103.081z M116.148,102.325
				c0.012-0.66-0.275-1.716-1.449-1.716c-1.078,0-1.533,0.984-1.617,1.716H116.148z"/>
			<path fill="#FF0000" d="M118.471,97.285h1.054v8.52h-1.054V97.285z"/>
			<path fill="#FF0000" d="M121.871,103.081c0.024,1.428,0.922,2.016,1.976,2.016c0.754,0,1.221-0.132,1.604-0.288l0.191,0.744
				c-0.371,0.168-1.018,0.372-1.939,0.372c-1.772,0-2.85-1.188-2.85-2.928c0-1.764,1.042-3.144,2.73-3.144
				c1.892,0,2.382,1.668,2.382,2.736c0,0.216-0.012,0.384-0.036,0.504L121.871,103.081z M124.948,102.325
				c0.012-0.66-0.275-1.716-1.449-1.716c-1.078,0-1.533,0.984-1.617,1.716H124.948z"/>
			<path fill="#FF0000" d="M127.271,101.569c0-0.612-0.012-1.092-0.048-1.572h0.934l0.06,0.948h0.024
				c0.288-0.54,0.958-1.08,1.916-1.08c0.802,0,2.047,0.48,2.047,2.472v3.468h-1.054v-3.348c0-0.936-0.347-1.728-1.341-1.728
				c-0.683,0-1.221,0.492-1.413,1.08c-0.048,0.132-0.072,0.324-0.072,0.492v3.504h-1.054V101.569z"/>
			<path fill="#FF0000" d="M138.874,104.953c0,1.344-0.275,2.148-0.826,2.664c-0.575,0.516-1.389,0.696-2.12,0.696
				c-0.694,0-1.46-0.168-1.928-0.48l0.264-0.816c0.383,0.252,0.982,0.468,1.7,0.468c1.078,0,1.868-0.564,1.868-2.04v-0.636h-0.024
				c-0.311,0.54-0.946,0.972-1.844,0.972c-1.437,0-2.467-1.224-2.467-2.844c0-1.968,1.281-3.072,2.623-3.072
				c1.005,0,1.544,0.516,1.808,0.996h0.024l0.036-0.864h0.934c-0.036,0.408-0.048,0.876-0.048,1.584V104.953z M137.82,102.277
				c0-0.168-0.012-0.324-0.06-0.468c-0.191-0.624-0.694-1.128-1.473-1.128c-1.006,0-1.724,0.852-1.724,2.208
				c0,1.128,0.586,2.088,1.712,2.088c0.659,0,1.246-0.408,1.461-1.092c0.06-0.168,0.084-0.372,0.084-0.564V102.277z"/>
			<path fill="#FF0000" d="M141.878,98.605v1.392h1.509v0.804h-1.509v3.132c0,0.72,0.204,1.128,0.791,1.128
				c0.287,0,0.455-0.024,0.61-0.072l0.048,0.804c-0.204,0.072-0.527,0.144-0.934,0.144c-0.491,0-0.886-0.168-1.138-0.444
				c-0.287-0.324-0.407-0.84-0.407-1.524v-3.168h-0.898v-0.804h0.898v-1.068L141.878,98.605z"/>
			<path fill="#FF0000" d="M144.573,97.285h1.054v3.624h0.024c0.167-0.3,0.431-0.576,0.754-0.744c0.312-0.192,0.683-0.3,1.078-0.3
				c0.778,0,2.023,0.48,2.023,2.484v3.456h-1.054v-3.336c0-0.948-0.347-1.728-1.341-1.728c-0.682,0-1.209,0.48-1.413,1.056
				c-0.06,0.144-0.072,0.3-0.072,0.504v3.504h-1.054V97.285z"/>
			<path fill="#FF0000" d="M153.756,101.569c0-0.612-0.024-1.092-0.048-1.572h0.922l0.048,0.936h0.036
				c0.323-0.552,0.862-1.068,1.832-1.068c0.778,0,1.377,0.48,1.628,1.164h0.024c0.18-0.336,0.419-0.576,0.659-0.756
				c0.347-0.264,0.718-0.408,1.269-0.408c0.778,0,1.916,0.504,1.916,2.52v3.42h-1.03v-3.288c0-1.128-0.419-1.788-1.257-1.788
				c-0.611,0-1.065,0.444-1.257,0.948c-0.048,0.156-0.083,0.348-0.083,0.528v3.6h-1.03v-3.48c0-0.936-0.407-1.596-1.209-1.596
				c-0.646,0-1.138,0.528-1.305,1.056c-0.06,0.156-0.084,0.336-0.084,0.516v3.504h-1.03V101.569z"/>
			<path fill="#FF0000" d="M164.341,103.081c0.024,1.428,0.922,2.016,1.976,2.016c0.754,0,1.221-0.132,1.604-0.288l0.191,0.744
				c-0.371,0.168-1.018,0.372-1.939,0.372c-1.772,0-2.85-1.188-2.85-2.928c0-1.764,1.042-3.144,2.73-3.144
				c1.892,0,2.383,1.668,2.383,2.736c0,0.216-0.012,0.384-0.036,0.504L164.341,103.081z M167.418,102.325
				c0.012-0.66-0.275-1.716-1.449-1.716c-1.078,0-1.533,0.984-1.617,1.716H167.418z"/>
			<path fill="#FF0000" d="M173.824,104.413c0,0.504,0.024,0.996,0.084,1.392h-0.946l-0.096-0.732h-0.036
				c-0.312,0.456-0.946,0.864-1.772,0.864c-1.173,0-1.772-0.828-1.772-1.668c0-1.404,1.245-2.172,3.484-2.16v-0.12
				c0-0.48-0.132-1.356-1.317-1.344c-0.551,0-1.114,0.156-1.521,0.432l-0.239-0.708c0.479-0.3,1.186-0.504,1.916-0.504
				c1.784,0,2.215,1.212,2.215,2.376V104.413z M172.794,102.841c-1.149-0.024-2.455,0.18-2.455,1.308
				c0,0.696,0.455,1.008,0.982,1.008c0.766,0,1.257-0.48,1.425-0.972c0.036-0.108,0.048-0.228,0.048-0.336V102.841z"/>
			<path fill="#FF0000" d="M175.512,101.569c0-0.612-0.012-1.092-0.048-1.572h0.934l0.06,0.948h0.024
				c0.287-0.54,0.958-1.08,1.916-1.08c0.802,0,2.047,0.48,2.047,2.472v3.468h-1.053v-3.348c0-0.936-0.348-1.728-1.341-1.728
				c-0.683,0-1.221,0.492-1.413,1.08c-0.048,0.132-0.072,0.324-0.072,0.492v3.504h-1.054V101.569z"/>
			<path fill="#FF0000" d="M182.014,104.737c0.323,0.192,0.874,0.408,1.401,0.408c0.754,0,1.113-0.372,1.113-0.864
				c0-0.504-0.299-0.78-1.065-1.068c-1.054-0.384-1.545-0.948-1.545-1.644c0-0.936,0.767-1.704,2-1.704
				c0.586,0,1.102,0.156,1.413,0.36l-0.251,0.756c-0.228-0.132-0.646-0.336-1.185-0.336c-0.623,0-0.958,0.36-0.958,0.792
				c0,0.492,0.335,0.708,1.089,0.996c0.994,0.372,1.521,0.876,1.521,1.752c0,1.032-0.802,1.752-2.155,1.752
				c-0.635,0-1.222-0.168-1.628-0.408L182.014,104.737z"/>
			<path fill="#FF0000" d="M189.437,97.285h1.054v8.52h-1.054V97.285z"/>
			<path fill="#FF0000" d="M194.598,105.937c-1.557,0-2.778-1.152-2.778-2.988c0-1.944,1.281-3.084,2.874-3.084
				c1.664,0,2.79,1.212,2.79,2.976c0,2.16-1.497,3.096-2.874,3.096H194.598z M194.633,105.145c1.006,0,1.76-0.948,1.76-2.268
				c0-0.984-0.491-2.22-1.736-2.22c-1.233,0-1.772,1.152-1.772,2.256c0,1.272,0.718,2.232,1.736,2.232H194.633z"/>
			<path fill="#FF0000" d="M200.081,98.605v1.392h1.509v0.804h-1.509v3.132c0,0.72,0.204,1.128,0.79,1.128
				c0.288,0,0.455-0.024,0.611-0.072l0.048,0.804c-0.204,0.072-0.527,0.144-0.934,0.144c-0.491,0-0.886-0.168-1.138-0.444
				c-0.287-0.324-0.407-0.84-0.407-1.524v-3.168h-0.898v-0.804h0.898v-1.068L200.081,98.605z"/>
			<path fill="#FF0000" d="M202.632,104.737c0.323,0.192,0.874,0.408,1.4,0.408c0.755,0,1.114-0.372,1.114-0.864
				c0-0.504-0.3-0.78-1.066-1.068c-1.054-0.384-1.544-0.948-1.544-1.644c0-0.936,0.766-1.704,1.999-1.704
				c0.587,0,1.102,0.156,1.413,0.36l-0.251,0.756c-0.228-0.132-0.647-0.336-1.186-0.336c-0.623,0-0.958,0.36-0.958,0.792
				c0,0.492,0.335,0.708,1.09,0.996c0.993,0.372,1.521,0.876,1.521,1.752c0,1.032-0.803,1.752-2.155,1.752
				c-0.635,0-1.222-0.168-1.629-0.408L202.632,104.737z"/>
			<path fill="#FF0000" d="M212.414,105.937c-1.557,0-2.778-1.152-2.778-2.988c0-1.944,1.281-3.084,2.874-3.084
				c1.664,0,2.79,1.212,2.79,2.976c0,2.16-1.497,3.096-2.874,3.096H212.414z M212.45,105.145c1.005,0,1.76-0.948,1.76-2.268
				c0-0.984-0.491-2.22-1.736-2.22c-1.233,0-1.772,1.152-1.772,2.256c0,1.272,0.719,2.232,1.736,2.232H212.45z"/>
			<path fill="#FF0000" d="M216.725,105.805v-5.004h-0.803v-0.804h0.803v-0.276c0-0.816,0.191-1.56,0.683-2.028
				c0.395-0.384,0.922-0.54,1.4-0.54c0.383,0,0.694,0.084,0.898,0.168l-0.132,0.816c-0.168-0.072-0.371-0.132-0.683-0.132
				c-0.886,0-1.126,0.792-1.126,1.68v0.312h1.401v0.804h-1.389v5.004H216.725z"/>
			<path fill="#FF0000" d="M223.082,99.997l0.778,2.94c0.155,0.648,0.312,1.26,0.419,1.86h0.036
				c0.132-0.588,0.323-1.212,0.515-1.848l0.946-2.952h0.886l0.898,2.904c0.215,0.684,0.383,1.308,0.515,1.896h0.036
				c0.096-0.588,0.251-1.2,0.442-1.884l0.826-2.916h1.042l-1.868,5.808h-0.958l-0.886-2.772c-0.203-0.66-0.371-1.236-0.515-1.92
				h-0.024c-0.144,0.696-0.323,1.308-0.526,1.932l-0.935,2.76h-0.957l-1.749-5.808H223.082z"/>
			<path fill="#FF0000" d="M235.511,104.413c0,0.504,0.023,0.996,0.084,1.392h-0.946l-0.096-0.732h-0.036
				c-0.312,0.456-0.945,0.864-1.772,0.864c-1.173,0-1.771-0.828-1.771-1.668c0-1.404,1.245-2.172,3.484-2.16v-0.12
				c0-0.48-0.132-1.356-1.317-1.344c-0.551,0-1.113,0.156-1.521,0.432l-0.239-0.708c0.479-0.3,1.186-0.504,1.916-0.504
				c1.783,0,2.215,1.212,2.215,2.376V104.413z M234.48,102.841c-1.149-0.024-2.454,0.18-2.454,1.308
				c0,0.696,0.455,1.008,0.981,1.008c0.767,0,1.258-0.48,1.425-0.972c0.036-0.108,0.048-0.228,0.048-0.336V102.841z"/>
			<path fill="#FF0000" d="M237.45,99.997l1.138,3.252c0.191,0.54,0.348,1.02,0.467,1.5h0.036c0.132-0.48,0.299-0.96,0.491-1.5
				l1.125-3.252h1.102l-2.274,5.808h-1.006l-2.203-5.808H237.45z"/>
			<path fill="#FF0000" d="M243.27,103.081c0.023,1.428,0.922,2.016,1.976,2.016c0.754,0,1.222-0.132,1.604-0.288l0.191,0.744
				c-0.371,0.168-1.018,0.372-1.939,0.372c-1.772,0-2.85-1.188-2.85-2.928c0-1.764,1.041-3.144,2.729-3.144
				c1.893,0,2.383,1.668,2.383,2.736c0,0.216-0.012,0.384-0.036,0.504L243.27,103.081z M246.347,102.325
				c0.012-0.66-0.275-1.716-1.449-1.716c-1.077,0-1.532,0.984-1.616,1.716H246.347z"/>
			<path fill="#FF0000" d="M248.525,104.737c0.323,0.192,0.874,0.408,1.401,0.408c0.754,0,1.113-0.372,1.113-0.864
				c0-0.504-0.299-0.78-1.065-1.068c-1.054-0.384-1.545-0.948-1.545-1.644c0-0.936,0.767-1.704,2-1.704
				c0.587,0,1.102,0.156,1.413,0.36l-0.252,0.756c-0.228-0.132-0.646-0.336-1.186-0.336c-0.622,0-0.957,0.36-0.957,0.792
				c0,0.492,0.335,0.708,1.089,0.996c0.994,0.372,1.521,0.876,1.521,1.752c0,1.032-0.802,1.752-2.155,1.752
				c-0.634,0-1.221-0.168-1.628-0.408L248.525,104.737z"/>
			<path fill="#FF0000" d="M252.74,107.281c0.264-0.708,0.587-1.992,0.719-2.868l1.161-0.12c-0.287,1.02-0.814,2.352-1.149,2.916
				L252.74,107.281z M253.95,101.701c-0.407,0-0.695-0.324-0.695-0.744c0-0.444,0.3-0.756,0.707-0.756
				c0.431,0,0.706,0.312,0.706,0.756c0,0.42-0.275,0.744-0.706,0.744H253.95z"/>
			<path fill="#FF0000" d="M62.674,111.785h1.054v3.624h0.024c0.167-0.3,0.431-0.576,0.754-0.744c0.312-0.192,0.683-0.3,1.078-0.3
				c0.778,0,2.023,0.48,2.023,2.484v3.456h-1.054v-3.336c0-0.948-0.347-1.728-1.341-1.728c-0.683,0-1.209,0.48-1.413,1.056
				c-0.06,0.144-0.072,0.3-0.072,0.504v3.504h-1.054V111.785z"/>
			<path fill="#FF0000" d="M69.822,113.429c-0.395,0-0.658-0.312-0.658-0.684s0.275-0.672,0.683-0.672c0.407,0,0.67,0.3,0.67,0.672
				s-0.264,0.684-0.683,0.684H69.822z M69.32,120.305v-5.808h1.053v5.808H69.32z"/>
			<path fill="#FF0000" d="M77.079,119.453c0,1.344-0.275,2.148-0.826,2.664c-0.575,0.516-1.389,0.696-2.12,0.696
				c-0.694,0-1.461-0.168-1.928-0.48l0.264-0.816c0.383,0.252,0.981,0.468,1.7,0.468c1.078,0,1.868-0.564,1.868-2.04v-0.636h-0.024
				c-0.311,0.54-0.946,0.972-1.844,0.972c-1.437,0-2.467-1.224-2.467-2.844c0-1.968,1.281-3.072,2.623-3.072
				c1.005,0,1.544,0.516,1.808,0.996h0.024l0.036-0.864h0.934c-0.036,0.408-0.048,0.876-0.048,1.584V119.453z M76.025,116.777
				c0-0.168-0.012-0.324-0.06-0.468c-0.191-0.624-0.694-1.128-1.473-1.128c-1.006,0-1.724,0.852-1.724,2.208
				c0,1.128,0.586,2.088,1.712,2.088c0.659,0,1.246-0.408,1.461-1.092c0.06-0.168,0.084-0.372,0.084-0.564V116.777z"/>
			<path fill="#FF0000" d="M78.814,111.785h1.054v3.624h0.024c0.167-0.3,0.431-0.576,0.754-0.744c0.311-0.192,0.683-0.3,1.078-0.3
				c0.778,0,2.023,0.48,2.023,2.484v3.456h-1.054v-3.336c0-0.948-0.347-1.728-1.341-1.728c-0.683,0-1.209,0.48-1.413,1.056
				c-0.06,0.144-0.072,0.3-0.072,0.504v3.504h-1.054V111.785z"/>
			<path fill="#FF0000" d="M88.094,120.305v-5.004h-0.802v-0.804h0.802v-0.276c0-0.816,0.191-1.56,0.683-2.028
				c0.395-0.384,0.922-0.54,1.401-0.54c0.383,0,0.694,0.084,0.898,0.168l-0.132,0.816c-0.167-0.072-0.371-0.132-0.683-0.132
				c-0.886,0-1.125,0.792-1.125,1.68v0.312h1.401v0.804h-1.389v5.004H88.094z"/>
			<path fill="#FF0000" d="M91.506,116.309c0-0.684-0.012-1.272-0.048-1.812h0.922l0.048,1.14h0.036
				c0.264-0.78,0.91-1.272,1.617-1.272c0.107,0,0.191,0.012,0.287,0.036v0.984c-0.12-0.012-0.228-0.024-0.371-0.024
				c-0.742,0-1.269,0.564-1.413,1.344c-0.024,0.156-0.036,0.324-0.036,0.504v3.096h-1.054L91.506,116.309z"/>
			<path fill="#FF0000" d="M95.937,117.581c0.024,1.428,0.922,2.016,1.976,2.016c0.754,0,1.221-0.132,1.604-0.288l0.191,0.744
				c-0.371,0.168-1.018,0.372-1.939,0.372c-1.772,0-2.85-1.188-2.85-2.928c0-1.764,1.042-3.144,2.73-3.144
				c1.892,0,2.383,1.668,2.383,2.736c0,0.216-0.012,0.384-0.036,0.504L95.937,117.581z M99.014,116.825
				c0.012-0.66-0.275-1.716-1.449-1.716c-1.078,0-1.533,0.984-1.617,1.716H99.014z"/>
			<path fill="#FF0000" d="M105.288,119.417h-0.024c-0.312,0.564-0.958,1.02-1.892,1.02c-1.353,0-2.455-1.164-2.455-2.94
				c0-2.172,1.401-3.132,2.623-3.132c0.898,0,1.497,0.444,1.784,1.008h0.024l0.036-0.876h1.006c-0.036,0.48-0.048,0.984-0.048,1.596
				v6.588h-1.054V119.417z M105.288,116.849c0-0.156-0.012-0.312-0.048-0.444c-0.167-0.648-0.718-1.2-1.509-1.2
				c-1.089,0-1.748,0.924-1.748,2.232c0,1.164,0.551,2.16,1.712,2.16c0.682,0,1.269-0.42,1.508-1.152
				c0.048-0.144,0.084-0.348,0.084-0.504V116.849z"/>
			<path fill="#FF0000" d="M112.927,118.721c0,0.6,0.012,1.128,0.048,1.584h-0.934l-0.06-0.948h-0.024
				c-0.263,0.468-0.886,1.08-1.916,1.08c-0.91,0-2-0.516-2-2.544v-3.396h1.054v3.204c0,1.104,0.347,1.86,1.293,1.86
				c0.707,0,1.197-0.492,1.389-0.972c0.06-0.144,0.096-0.336,0.096-0.54v-3.552h1.054V118.721z"/>
			<path fill="#FF0000" d="M115.273,117.581c0.024,1.428,0.922,2.016,1.976,2.016c0.754,0,1.221-0.132,1.604-0.288l0.191,0.744
				c-0.371,0.168-1.018,0.372-1.939,0.372c-1.772,0-2.85-1.188-2.85-2.928c0-1.764,1.042-3.144,2.73-3.144
				c1.892,0,2.383,1.668,2.383,2.736c0,0.216-0.012,0.384-0.036,0.504L115.273,117.581z M118.351,116.825
				c0.012-0.66-0.275-1.716-1.449-1.716c-1.078,0-1.533,0.984-1.617,1.716H118.351z"/>
			<path fill="#FF0000" d="M120.673,116.069c0-0.612-0.012-1.092-0.048-1.572h0.934l0.06,0.948h0.024
				c0.288-0.54,0.958-1.08,1.916-1.08c0.802,0,2.047,0.48,2.047,2.472v3.468h-1.054v-3.348c0-0.936-0.347-1.728-1.341-1.728
				c-0.683,0-1.222,0.492-1.413,1.08c-0.048,0.132-0.072,0.324-0.072,0.492v3.504h-1.054V116.069z"/>
			<path fill="#FF0000" d="M131.449,120.101c-0.275,0.132-0.886,0.336-1.664,0.336c-1.748,0-2.886-1.188-2.886-2.976
				c0-1.788,1.221-3.096,3.113-3.096c0.623,0,1.173,0.156,1.461,0.312l-0.24,0.804c-0.251-0.132-0.646-0.276-1.221-0.276
				c-1.329,0-2.047,0.996-2.047,2.208c0,1.344,0.862,2.172,2.011,2.172c0.599,0,0.994-0.144,1.293-0.276L131.449,120.101z"/>
			<path fill="#FF0000" d="M133.281,114.497l1.257,3.432c0.144,0.384,0.287,0.84,0.383,1.188h0.024
				c0.107-0.348,0.227-0.792,0.371-1.212l1.149-3.408h1.113l-1.581,4.14c-0.754,1.992-1.269,3.012-1.987,3.648
				c-0.527,0.444-1.03,0.624-1.293,0.672l-0.263-0.888c0.263-0.072,0.611-0.24,0.922-0.516c0.288-0.228,0.635-0.636,0.886-1.176
				c0.048-0.108,0.083-0.18,0.083-0.252c0-0.06-0.024-0.144-0.083-0.264l-2.131-5.364H133.281z"/>
			<path fill="#FF0000" d="M137.185,121.793c0.263-0.72,0.587-2.004,0.718-2.88l1.173-0.12c-0.287,1.02-0.814,2.352-1.149,2.916
				L137.185,121.793z"/>
			<path fill="#FF0000" d="M142.058,111.785h1.054v3.624h0.024c0.167-0.3,0.431-0.576,0.754-0.744c0.312-0.192,0.683-0.3,1.078-0.3
				c0.778,0,2.023,0.48,2.023,2.484v3.456h-1.054v-3.336c0-0.948-0.347-1.728-1.341-1.728c-0.683,0-1.209,0.48-1.413,1.056
				c-0.06,0.144-0.072,0.3-0.072,0.504v3.504h-1.054V111.785z"/>
			<path fill="#FF0000" d="M149.206,113.429c-0.396,0-0.659-0.312-0.659-0.684s0.275-0.672,0.683-0.672c0.407,0,0.67,0.3,0.67,0.672
				s-0.264,0.684-0.683,0.684H149.206z M148.703,120.305v-5.808h1.054v5.808H148.703z"/>
			<path fill="#FF0000" d="M156.462,119.453c0,1.344-0.275,2.148-0.826,2.664c-0.575,0.516-1.389,0.696-2.12,0.696
				c-0.694,0-1.46-0.168-1.928-0.48l0.264-0.816c0.383,0.252,0.982,0.468,1.7,0.468c1.078,0,1.868-0.564,1.868-2.04v-0.636h-0.024
				c-0.311,0.54-0.946,0.972-1.844,0.972c-1.437,0-2.467-1.224-2.467-2.844c0-1.968,1.281-3.072,2.623-3.072
				c1.005,0,1.544,0.516,1.808,0.996h0.024l0.036-0.864h0.934c-0.036,0.408-0.048,0.876-0.048,1.584V119.453z M155.408,116.777
				c0-0.168-0.012-0.324-0.06-0.468c-0.191-0.624-0.694-1.128-1.473-1.128c-1.006,0-1.724,0.852-1.724,2.208
				c0,1.128,0.586,2.088,1.712,2.088c0.659,0,1.246-0.408,1.461-1.092c0.06-0.168,0.084-0.372,0.084-0.564V116.777z"/>
			<path fill="#FF0000" d="M158.198,111.785h1.054v3.624h0.024c0.167-0.3,0.431-0.576,0.754-0.744c0.311-0.192,0.683-0.3,1.078-0.3
				c0.778,0,2.023,0.48,2.023,2.484v3.456h-1.054v-3.336c0-0.948-0.347-1.728-1.341-1.728c-0.683,0-1.209,0.48-1.413,1.056
				c-0.06,0.144-0.072,0.3-0.072,0.504v3.504h-1.054V111.785z"/>
			<path fill="#FF0000" d="M167.238,119.237c0.323,0.192,0.874,0.408,1.401,0.408c0.754,0,1.113-0.372,1.113-0.864
				c0-0.504-0.299-0.78-1.065-1.068c-1.054-0.384-1.545-0.948-1.545-1.644c0-0.936,0.767-1.704,2-1.704
				c0.586,0,1.102,0.156,1.413,0.36l-0.251,0.756c-0.228-0.132-0.646-0.336-1.185-0.336c-0.623,0-0.958,0.36-0.958,0.792
				c0,0.492,0.335,0.708,1.089,0.996c0.994,0.372,1.521,0.876,1.521,1.752c0,1.032-0.802,1.752-2.155,1.752
				c-0.635,0-1.222-0.168-1.628-0.408L167.238,119.237z"/>
			<path fill="#FF0000" d="M174.481,120.437c-1.557,0-2.778-1.152-2.778-2.988c0-1.944,1.281-3.084,2.874-3.084
				c1.665,0,2.79,1.212,2.79,2.976c0,2.16-1.497,3.096-2.874,3.096H174.481z M174.518,119.645c1.006,0,1.76-0.948,1.76-2.268
				c0-0.984-0.491-2.22-1.736-2.22c-1.233,0-1.772,1.152-1.772,2.256c0,1.272,0.718,2.232,1.736,2.232H174.518z"/>
			<path fill="#FF0000" d="M183.545,118.721c0,0.6,0.012,1.128,0.048,1.584h-0.934l-0.06-0.948h-0.024
				c-0.264,0.468-0.886,1.08-1.916,1.08c-0.91,0-2-0.516-2-2.544v-3.396h1.054v3.204c0,1.104,0.347,1.86,1.293,1.86
				c0.706,0,1.197-0.492,1.389-0.972c0.06-0.144,0.096-0.336,0.096-0.54v-3.552h1.054V118.721z"/>
			<path fill="#FF0000" d="M185.293,116.069c0-0.612-0.012-1.092-0.048-1.572h0.934l0.06,0.948h0.024
				c0.287-0.54,0.958-1.08,1.916-1.08c0.802,0,2.047,0.48,2.047,2.472v3.468h-1.054v-3.348c0-0.936-0.347-1.728-1.341-1.728
				c-0.683,0-1.221,0.492-1.413,1.08c-0.048,0.132-0.072,0.324-0.072,0.492v3.504h-1.054V116.069z"/>
			<path fill="#FF0000" d="M196.944,111.785v7.02c0,0.516,0.012,1.104,0.048,1.5h-0.946l-0.048-1.008h-0.024
				c-0.323,0.648-1.018,1.14-1.964,1.14c-1.401,0-2.491-1.188-2.491-2.952c-0.012-1.944,1.198-3.12,2.599-3.12
				c0.898,0,1.497,0.42,1.748,0.876h0.024v-3.456H196.944z M195.89,116.861c0-0.144-0.012-0.312-0.048-0.456
				c-0.156-0.66-0.73-1.212-1.521-1.212c-1.09,0-1.736,0.96-1.736,2.232c0,1.188,0.586,2.16,1.712,2.16
				c0.706,0,1.353-0.48,1.544-1.26c0.036-0.144,0.048-0.288,0.048-0.456V116.861z"/>
		</g>
		<g>
			<path fill="#0A50A1" d="M67.279,169.249h1.054v7.212h3.448v0.876h-4.502V169.249z"/>
			<path fill="#0A50A1" d="M75.098,177.468c-1.557,0-2.778-1.152-2.778-2.988c0-1.944,1.281-3.084,2.874-3.084
				c1.664,0,2.79,1.212,2.79,2.976c0,2.16-1.497,3.096-2.874,3.096H75.098z M75.133,176.676c1.006,0,1.76-0.948,1.76-2.268
				c0-0.984-0.491-2.22-1.736-2.22c-1.233,0-1.772,1.152-1.772,2.256c0,1.272,0.718,2.232,1.736,2.232H75.133z"/>
			<path fill="#0A50A1" d="M79.312,173.101c0-0.612-0.012-1.092-0.048-1.572h0.934l0.06,0.948h0.024
				c0.287-0.54,0.958-1.08,1.916-1.08c0.802,0,2.047,0.48,2.047,2.472v3.468h-1.054v-3.348c0-0.936-0.347-1.728-1.341-1.728
				c-0.683,0-1.221,0.492-1.413,1.08c-0.048,0.132-0.072,0.324-0.072,0.492v3.504h-1.054V173.101z"/>
			<path fill="#0A50A1" d="M90.915,176.484c0,1.344-0.275,2.148-0.826,2.664c-0.575,0.516-1.389,0.696-2.12,0.696
				c-0.694,0-1.46-0.168-1.928-0.48l0.264-0.816c0.383,0.252,0.982,0.468,1.7,0.468c1.078,0,1.868-0.564,1.868-2.04v-0.636h-0.024
				c-0.311,0.54-0.946,0.972-1.844,0.972c-1.437,0-2.467-1.224-2.467-2.844c0-1.968,1.281-3.072,2.623-3.072
				c1.006,0,1.544,0.516,1.808,0.996h0.024l0.036-0.864h0.934c-0.036,0.408-0.048,0.876-0.048,1.584V176.484z M89.861,173.809
				c0-0.168-0.012-0.324-0.06-0.468c-0.191-0.624-0.694-1.128-1.473-1.128c-1.006,0-1.724,0.852-1.724,2.208
				c0,1.128,0.586,2.088,1.712,2.088c0.658,0,1.245-0.408,1.46-1.092c0.06-0.168,0.084-0.372,0.084-0.564V173.809z"/>
			<path fill="#0A50A1" d="M95.608,171.528l0.778,2.94c0.156,0.648,0.311,1.26,0.419,1.86h0.036
				c0.131-0.588,0.323-1.212,0.515-1.848l0.946-2.952h0.886l0.898,2.904c0.216,0.684,0.383,1.308,0.515,1.896h0.036
				c0.096-0.588,0.251-1.2,0.443-1.884l0.826-2.916h1.042l-1.868,5.808h-0.958l-0.886-2.772c-0.204-0.66-0.371-1.236-0.515-1.92
				h-0.024c-0.144,0.696-0.323,1.308-0.527,1.932l-0.934,2.76h-0.958l-1.748-5.808H95.608z"/>
			<path fill="#0A50A1" d="M108.037,175.944c0,0.504,0.024,0.996,0.083,1.392h-0.946l-0.096-0.732h-0.036
				c-0.311,0.456-0.946,0.864-1.772,0.864c-1.173,0-1.772-0.828-1.772-1.668c0-1.404,1.245-2.172,3.484-2.16v-0.12
				c0-0.48-0.132-1.356-1.317-1.344c-0.551,0-1.113,0.156-1.521,0.432l-0.24-0.708c0.479-0.3,1.186-0.504,1.916-0.504
				c1.784,0,2.215,1.212,2.215,2.376V175.944z M107.007,174.373c-1.149-0.024-2.455,0.18-2.455,1.308
				c0,0.696,0.455,1.008,0.981,1.008c0.767,0,1.257-0.48,1.425-0.972c0.036-0.108,0.048-0.228,0.048-0.336V174.373z"/>
			<path fill="#0A50A1" d="M109.976,171.528l1.138,3.252c0.191,0.54,0.347,1.02,0.467,1.5h0.036c0.131-0.48,0.299-0.96,0.491-1.5
				l1.125-3.252h1.102l-2.275,5.808h-1.006l-2.203-5.808H109.976z"/>
			<path fill="#0A50A1" d="M115.795,174.612c0.024,1.428,0.922,2.016,1.976,2.016c0.754,0,1.221-0.132,1.604-0.288l0.191,0.744
				c-0.371,0.168-1.018,0.372-1.939,0.372c-1.772,0-2.85-1.188-2.85-2.928c0-1.764,1.042-3.144,2.73-3.144
				c1.892,0,2.382,1.668,2.382,2.736c0,0.216-0.012,0.384-0.036,0.504L115.795,174.612z M118.873,173.856
				c0.012-0.66-0.275-1.716-1.449-1.716c-1.078,0-1.533,0.984-1.617,1.716H118.873z"/>
			<path fill="#0A50A1" d="M121.195,168.816h1.054v8.52h-1.054V168.816z"/>
			<path fill="#0A50A1" d="M124.596,174.612c0.024,1.428,0.922,2.016,1.976,2.016c0.754,0,1.221-0.132,1.604-0.288l0.191,0.744
				c-0.371,0.168-1.018,0.372-1.939,0.372c-1.772,0-2.85-1.188-2.85-2.928c0-1.764,1.042-3.144,2.73-3.144
				c1.892,0,2.383,1.668,2.383,2.736c0,0.216-0.012,0.384-0.036,0.504L124.596,174.612z M127.673,173.856
				c0.012-0.66-0.275-1.716-1.449-1.716c-1.078,0-1.533,0.984-1.616,1.716H127.673z"/>
			<path fill="#0A50A1" d="M129.996,173.101c0-0.612-0.012-1.092-0.048-1.572h0.934l0.06,0.948h0.024
				c0.287-0.54,0.958-1.08,1.916-1.08c0.802,0,2.047,0.48,2.047,2.472v3.468h-1.054v-3.348c0-0.936-0.347-1.728-1.341-1.728
				c-0.683,0-1.221,0.492-1.413,1.08c-0.048,0.132-0.072,0.324-0.072,0.492v3.504h-1.054V173.101z"/>
			<path fill="#0A50A1" d="M141.598,176.484c0,1.344-0.275,2.148-0.826,2.664c-0.575,0.516-1.389,0.696-2.12,0.696
				c-0.694,0-1.46-0.168-1.928-0.48l0.264-0.816c0.383,0.252,0.982,0.468,1.7,0.468c1.078,0,1.868-0.564,1.868-2.04v-0.636h-0.024
				c-0.311,0.54-0.946,0.972-1.844,0.972c-1.437,0-2.467-1.224-2.467-2.844c0-1.968,1.281-3.072,2.623-3.072
				c1.006,0,1.544,0.516,1.808,0.996h0.024l0.036-0.864h0.934c-0.036,0.408-0.048,0.876-0.048,1.584V176.484z M140.544,173.809
				c0-0.168-0.012-0.324-0.06-0.468c-0.191-0.624-0.694-1.128-1.473-1.128c-1.006,0-1.724,0.852-1.724,2.208
				c0,1.128,0.586,2.088,1.712,2.088c0.658,0,1.245-0.408,1.46-1.092c0.06-0.168,0.084-0.372,0.084-0.564V173.809z"/>
			<path fill="#0A50A1" d="M144.604,170.136v1.392h1.508v0.804h-1.508v3.132c0,0.72,0.203,1.128,0.79,1.128
				c0.287,0,0.455-0.024,0.611-0.072l0.048,0.804c-0.204,0.072-0.527,0.144-0.934,0.144c-0.491,0-0.886-0.168-1.138-0.444
				c-0.287-0.324-0.407-0.84-0.407-1.524v-3.168h-0.898v-0.804h0.898v-1.068L144.604,170.136z"/>
			<path fill="#0A50A1" d="M147.297,168.816h1.054v3.624h0.024c0.167-0.3,0.431-0.576,0.754-0.744c0.311-0.192,0.682-0.3,1.078-0.3
				c0.778,0,2.023,0.48,2.023,2.484v3.456h-1.054V174c0-0.948-0.347-1.728-1.341-1.728c-0.682,0-1.209,0.48-1.413,1.056
				c-0.06,0.144-0.072,0.3-0.072,0.504v3.504h-1.054V168.816z"/>
			<path fill="#0A50A1" d="M156.481,173.101c0-0.612-0.024-1.092-0.048-1.572h0.922l0.048,0.936h0.036
				c0.323-0.552,0.862-1.068,1.832-1.068c0.778,0,1.377,0.48,1.628,1.164h0.024c0.18-0.336,0.419-0.576,0.659-0.756
				c0.347-0.264,0.718-0.408,1.269-0.408c0.778,0,1.916,0.504,1.916,2.52v3.42h-1.03v-3.288c0-1.128-0.419-1.788-1.257-1.788
				c-0.61,0-1.065,0.444-1.257,0.948c-0.048,0.156-0.083,0.348-0.083,0.528v3.6h-1.03v-3.48c0-0.936-0.407-1.596-1.209-1.596
				c-0.646,0-1.138,0.528-1.305,1.056c-0.06,0.156-0.083,0.336-0.083,0.516v3.504h-1.03V173.101z"/>
			<path fill="#0A50A1" d="M167.065,174.612c0.024,1.428,0.922,2.016,1.976,2.016c0.754,0,1.221-0.132,1.604-0.288l0.191,0.744
				c-0.371,0.168-1.018,0.372-1.939,0.372c-1.772,0-2.85-1.188-2.85-2.928c0-1.764,1.042-3.144,2.73-3.144
				c1.892,0,2.382,1.668,2.382,2.736c0,0.216-0.012,0.384-0.036,0.504L167.065,174.612z M170.143,173.856
				c0.012-0.66-0.275-1.716-1.449-1.716c-1.078,0-1.533,0.984-1.617,1.716H170.143z"/>
			<path fill="#0A50A1" d="M176.548,175.944c0,0.504,0.024,0.996,0.084,1.392h-0.946l-0.096-0.732h-0.036
				c-0.312,0.456-0.946,0.864-1.772,0.864c-1.173,0-1.772-0.828-1.772-1.668c0-1.404,1.246-2.172,3.484-2.16v-0.12
				c0-0.48-0.132-1.356-1.317-1.344c-0.551,0-1.114,0.156-1.521,0.432l-0.239-0.708c0.479-0.3,1.186-0.504,1.916-0.504
				c1.784,0,2.215,1.212,2.215,2.376V175.944z M175.519,174.373c-1.149-0.024-2.455,0.18-2.455,1.308
				c0,0.696,0.455,1.008,0.982,1.008c0.766,0,1.257-0.48,1.425-0.972c0.036-0.108,0.048-0.228,0.048-0.336V174.373z"/>
			<path fill="#0A50A1" d="M178.236,173.101c0-0.612-0.012-1.092-0.048-1.572h0.934l0.06,0.948h0.024
				c0.287-0.54,0.958-1.08,1.916-1.08c0.802,0,2.048,0.48,2.048,2.472v3.468h-1.054v-3.348c0-0.936-0.348-1.728-1.341-1.728
				c-0.683,0-1.221,0.492-1.413,1.08c-0.048,0.132-0.072,0.324-0.072,0.492v3.504h-1.054V173.101z"/>
			<path fill="#0A50A1" d="M184.738,176.269c0.323,0.192,0.874,0.408,1.401,0.408c0.754,0,1.113-0.372,1.113-0.864
				c0-0.504-0.299-0.78-1.065-1.068c-1.054-0.384-1.544-0.948-1.544-1.644c0-0.936,0.766-1.704,2-1.704
				c0.586,0,1.102,0.156,1.413,0.36l-0.251,0.756c-0.228-0.132-0.646-0.336-1.185-0.336c-0.623,0-0.958,0.36-0.958,0.792
				c0,0.492,0.335,0.708,1.089,0.996c0.994,0.372,1.521,0.876,1.521,1.752c0,1.032-0.802,1.752-2.155,1.752
				c-0.635,0-1.222-0.168-1.628-0.408L184.738,176.269z"/>
			<path fill="#0A50A1" d="M192.257,177.336v-5.004h-0.802v-0.804h0.802v-0.276c0-0.816,0.191-1.56,0.683-2.028
				c0.395-0.384,0.922-0.54,1.401-0.54c0.383,0,0.694,0.084,0.898,0.168l-0.132,0.816c-0.167-0.072-0.371-0.132-0.682-0.132
				c-0.886,0-1.126,0.792-1.126,1.68v0.312h1.401v0.804h-1.389v5.004H192.257z"/>
			<path fill="#0A50A1" d="M196.113,174.612c0.024,1.428,0.922,2.016,1.976,2.016c0.754,0,1.221-0.132,1.604-0.288l0.192,0.744
				c-0.372,0.168-1.018,0.372-1.94,0.372c-1.772,0-2.85-1.188-2.85-2.928c0-1.764,1.042-3.144,2.73-3.144
				c1.892,0,2.383,1.668,2.383,2.736c0,0.216-0.012,0.384-0.036,0.504L196.113,174.612z M199.19,173.856
				c0.012-0.66-0.275-1.716-1.449-1.716c-1.078,0-1.533,0.984-1.616,1.716H199.19z"/>
			<path fill="#0A50A1" d="M201.932,171.528l0.778,2.94c0.156,0.648,0.312,1.26,0.419,1.86h0.036
				c0.132-0.588,0.323-1.212,0.515-1.848l0.946-2.952h0.886l0.898,2.904c0.216,0.684,0.383,1.308,0.515,1.896h0.036
				c0.096-0.588,0.251-1.2,0.443-1.884l0.826-2.916h1.041l-1.867,5.808h-0.958l-0.887-2.772c-0.203-0.66-0.371-1.236-0.515-1.92
				h-0.023c-0.145,0.696-0.323,1.308-0.527,1.932l-0.934,2.76h-0.958l-1.748-5.808H201.932z"/>
			<path fill="#0A50A1" d="M210.816,174.612c0.023,1.428,0.922,2.016,1.976,2.016c0.754,0,1.222-0.132,1.604-0.288l0.191,0.744
				c-0.371,0.168-1.018,0.372-1.939,0.372c-1.772,0-2.85-1.188-2.85-2.928c0-1.764,1.041-3.144,2.729-3.144
				c1.892,0,2.383,1.668,2.383,2.736c0,0.216-0.012,0.384-0.036,0.504L210.816,174.612z M213.894,173.856
				c0.012-0.66-0.275-1.716-1.449-1.716c-1.077,0-1.532,0.984-1.616,1.716H213.894z"/>
			<path fill="#0A50A1" d="M216.229,173.34c0-0.684-0.012-1.272-0.048-1.812h0.922l0.048,1.14h0.036
				c0.263-0.78,0.909-1.272,1.616-1.272c0.107,0,0.191,0.012,0.287,0.036v0.984c-0.119-0.012-0.228-0.024-0.371-0.024
				c-0.742,0-1.27,0.564-1.413,1.344c-0.023,0.156-0.036,0.324-0.036,0.504v3.096h-1.053L216.229,173.34z"/>
			<path fill="#0A50A1" d="M223.089,171.528l0.778,2.94c0.155,0.648,0.312,1.26,0.419,1.86h0.036
				c0.132-0.588,0.323-1.212,0.515-1.848l0.946-2.952h0.886l0.898,2.904c0.215,0.684,0.383,1.308,0.515,1.896h0.036
				c0.096-0.588,0.251-1.2,0.442-1.884l0.826-2.916h1.042l-1.868,5.808h-0.957l-0.887-2.772c-0.203-0.66-0.371-1.236-0.515-1.92
				h-0.024c-0.144,0.696-0.323,1.308-0.526,1.932l-0.934,2.76h-0.958l-1.748-5.808H223.089z"/>
			<path fill="#0A50A1" d="M235.518,175.944c0,0.504,0.023,0.996,0.084,1.392h-0.946l-0.096-0.732h-0.036
				c-0.312,0.456-0.945,0.864-1.771,0.864c-1.174,0-1.772-0.828-1.772-1.668c0-1.404,1.245-2.172,3.484-2.16v-0.12
				c0-0.48-0.132-1.356-1.317-1.344c-0.551,0-1.113,0.156-1.521,0.432l-0.239-0.708c0.479-0.3,1.186-0.504,1.916-0.504
				c1.784,0,2.215,1.212,2.215,2.376V175.944z M234.487,174.373c-1.149-0.024-2.454,0.18-2.454,1.308
				c0,0.696,0.455,1.008,0.981,1.008c0.767,0,1.258-0.48,1.425-0.972c0.036-0.108,0.048-0.228,0.048-0.336V174.373z"/>
			<path fill="#0A50A1" d="M237.457,171.528l1.138,3.252c0.191,0.54,0.348,1.02,0.467,1.5h0.036c0.132-0.48,0.3-0.96,0.491-1.5
				l1.125-3.252h1.102l-2.274,5.808h-1.006l-2.203-5.808H237.457z"/>
			<path fill="#0A50A1" d="M243.276,174.612c0.024,1.428,0.922,2.016,1.976,2.016c0.755,0,1.222-0.132,1.604-0.288l0.191,0.744
				c-0.371,0.168-1.018,0.372-1.939,0.372c-1.772,0-2.85-1.188-2.85-2.928c0-1.764,1.042-3.144,2.729-3.144
				c1.893,0,2.383,1.668,2.383,2.736c0,0.216-0.012,0.384-0.035,0.504L243.276,174.612z M246.354,173.856
				c0.012-0.66-0.275-1.716-1.448-1.716c-1.078,0-1.533,0.984-1.617,1.716H246.354z"/>
			<path fill="#0A50A1" d="M248.533,176.269c0.323,0.192,0.874,0.408,1.4,0.408c0.755,0,1.113-0.372,1.113-0.864
				c0-0.504-0.299-0.78-1.065-1.068c-1.054-0.384-1.545-0.948-1.545-1.644c0-0.936,0.767-1.704,2-1.704
				c0.587,0,1.102,0.156,1.413,0.36l-0.252,0.756c-0.228-0.132-0.646-0.336-1.185-0.336c-0.623,0-0.958,0.36-0.958,0.792
				c0,0.492,0.335,0.708,1.089,0.996c0.994,0.372,1.521,0.876,1.521,1.752c0,1.032-0.803,1.752-2.155,1.752
				c-0.635,0-1.222-0.168-1.629-0.408L248.533,176.269z"/>
			<path fill="#0A50A1" d="M252.747,178.813c0.264-0.708,0.587-1.992,0.719-2.868l1.161-0.12c-0.287,1.02-0.813,2.352-1.149,2.916
				L252.747,178.813z M253.957,173.232c-0.407,0-0.694-0.324-0.694-0.744c0-0.444,0.299-0.756,0.706-0.756
				c0.431,0,0.706,0.312,0.706,0.756c0,0.42-0.275,0.744-0.706,0.744H253.957z"/>
			<path fill="#0A50A1" d="M67.255,183.316h1.054v8.52h-1.054V183.316z"/>
			<path fill="#0A50A1" d="M72.416,191.968c-1.557,0-2.778-1.152-2.778-2.988c0-1.944,1.281-3.084,2.874-3.084
				c1.665,0,2.79,1.212,2.79,2.976c0,2.16-1.497,3.096-2.874,3.096H72.416z M72.451,191.176c1.006,0,1.76-0.948,1.76-2.268
				c0-0.984-0.491-2.22-1.736-2.22c-1.233,0-1.772,1.152-1.772,2.256c0,1.272,0.719,2.232,1.736,2.232H72.451z"/>
			<path fill="#0A50A1" d="M76.965,186.028l0.778,2.94c0.156,0.648,0.312,1.26,0.419,1.86h0.036
				c0.132-0.588,0.323-1.212,0.515-1.848l0.946-2.952h0.886l0.898,2.904c0.215,0.684,0.383,1.308,0.515,1.896h0.036
				c0.096-0.588,0.251-1.2,0.443-1.884l0.826-2.916h1.042l-1.868,5.808h-0.958l-0.886-2.772c-0.203-0.66-0.371-1.236-0.515-1.92
				h-0.024c-0.144,0.696-0.323,1.308-0.527,1.932l-0.934,2.76h-0.958l-1.749-5.808H76.965z"/>
			<path fill="#0A50A1" d="M87.993,191.836v-5.004h-0.802v-0.804h0.802v-0.276c0-0.816,0.191-1.56,0.682-2.028
				c0.396-0.384,0.922-0.54,1.401-0.54c0.383,0,0.695,0.084,0.898,0.168l-0.132,0.816c-0.168-0.072-0.371-0.132-0.683-0.132
				c-0.886,0-1.125,0.792-1.125,1.68v0.312h1.401v0.804h-1.389v5.004H87.993z"/>
			<path fill="#0A50A1" d="M91.405,187.84c0-0.684-0.012-1.272-0.048-1.812h0.922l0.048,1.14h0.036
				c0.263-0.78,0.91-1.272,1.616-1.272c0.108,0,0.192,0.012,0.288,0.036v0.984c-0.12-0.012-0.228-0.024-0.371-0.024
				c-0.743,0-1.27,0.564-1.413,1.344c-0.024,0.156-0.036,0.324-0.036,0.504v3.096h-1.054L91.405,187.84z"/>
			<path fill="#0A50A1" d="M95.835,189.112c0.024,1.428,0.922,2.016,1.976,2.016c0.754,0,1.222-0.132,1.604-0.288l0.192,0.744
				c-0.372,0.168-1.018,0.372-1.94,0.372c-1.772,0-2.85-1.188-2.85-2.928c0-1.764,1.042-3.144,2.73-3.144
				c1.892,0,2.383,1.668,2.383,2.736c0,0.216-0.012,0.384-0.036,0.504L95.835,189.112z M98.913,188.356
				c0.012-0.66-0.275-1.716-1.449-1.716c-1.078,0-1.533,0.984-1.616,1.716H98.913z"/>
			<path fill="#0A50A1" d="M105.187,190.948h-0.024c-0.312,0.564-0.958,1.02-1.892,1.02c-1.353,0-2.455-1.164-2.455-2.94
				c0-2.172,1.401-3.132,2.622-3.132c0.898,0,1.497,0.444,1.784,1.008h0.024l0.036-0.876h1.006c-0.036,0.48-0.048,0.984-0.048,1.596
				v6.588h-1.053V190.948z M105.187,188.38c0-0.156-0.012-0.312-0.048-0.444c-0.167-0.648-0.718-1.2-1.508-1.2
				c-1.09,0-1.749,0.924-1.749,2.232c0,1.164,0.551,2.16,1.712,2.16c0.683,0,1.269-0.42,1.509-1.152
				c0.048-0.144,0.084-0.348,0.084-0.504V188.38z"/>
			<path fill="#0A50A1" d="M112.826,190.252c0,0.6,0.012,1.128,0.048,1.584h-0.934l-0.06-0.948h-0.024
				c-0.264,0.468-0.886,1.08-1.916,1.08c-0.91,0-2-0.516-2-2.544v-3.396h1.054v3.204c0,1.104,0.347,1.86,1.293,1.86
				c0.706,0,1.197-0.492,1.389-0.972c0.06-0.144,0.096-0.336,0.096-0.54v-3.552h1.054V190.252z"/>
			<path fill="#0A50A1" d="M115.172,189.112c0.024,1.428,0.922,2.016,1.976,2.016c0.754,0,1.222-0.132,1.604-0.288l0.192,0.744
				c-0.371,0.168-1.018,0.372-1.94,0.372c-1.772,0-2.85-1.188-2.85-2.928c0-1.764,1.042-3.144,2.73-3.144
				c1.892,0,2.383,1.668,2.383,2.736c0,0.216-0.012,0.384-0.036,0.504L115.172,189.112z M118.25,188.356
				c0.012-0.66-0.275-1.716-1.449-1.716c-1.078,0-1.532,0.984-1.616,1.716H118.25z"/>
			<path fill="#0A50A1" d="M120.572,187.601c0-0.612-0.012-1.092-0.048-1.572h0.934l0.06,0.948h0.024
				c0.287-0.54,0.958-1.08,1.916-1.08c0.802,0,2.048,0.48,2.048,2.472v3.468h-1.054v-3.348c0-0.936-0.348-1.728-1.341-1.728
				c-0.683,0-1.221,0.492-1.413,1.08c-0.048,0.132-0.072,0.324-0.072,0.492v3.504h-1.054V187.601z"/>
			<path fill="#0A50A1" d="M131.349,191.632c-0.275,0.132-0.886,0.336-1.664,0.336c-1.749,0-2.886-1.188-2.886-2.976
				c0-1.788,1.221-3.096,3.113-3.096c0.623,0,1.174,0.156,1.461,0.312l-0.239,0.804c-0.251-0.132-0.647-0.276-1.222-0.276
				c-1.329,0-2.047,0.996-2.047,2.208c0,1.344,0.862,2.172,2.012,2.172c0.599,0,0.994-0.144,1.293-0.276L131.349,191.632z"/>
			<path fill="#0A50A1" d="M133.181,186.028l1.257,3.432c0.144,0.384,0.288,0.84,0.383,1.188h0.024
				c0.108-0.348,0.228-0.792,0.371-1.212l1.149-3.408h1.114l-1.581,4.14c-0.754,1.992-1.269,3.012-1.988,3.648
				c-0.527,0.444-1.029,0.624-1.293,0.672l-0.263-0.888c0.263-0.072,0.61-0.24,0.922-0.516c0.287-0.228,0.634-0.636,0.886-1.176
				c0.048-0.108,0.084-0.18,0.084-0.252c0-0.06-0.024-0.144-0.084-0.264l-2.131-5.364H133.181z"/>
			<path fill="#0A50A1" d="M137.084,193.324c0.263-0.72,0.586-2.004,0.718-2.88l1.173-0.12c-0.288,1.02-0.814,2.352-1.149,2.916
				L137.084,193.324z"/>
			<path fill="#0A50A1" d="M141.957,183.316h1.054v8.52h-1.054V183.316z"/>
			<path fill="#0A50A1" d="M147.117,191.968c-1.556,0-2.778-1.152-2.778-2.988c0-1.944,1.281-3.084,2.874-3.084
				c1.664,0,2.79,1.212,2.79,2.976c0,2.16-1.497,3.096-2.874,3.096H147.117z M147.153,191.176c1.006,0,1.76-0.948,1.76-2.268
				c0-0.984-0.491-2.22-1.736-2.22c-1.233,0-1.772,1.152-1.772,2.256c0,1.272,0.718,2.232,1.736,2.232H147.153z"/>
			<path fill="#0A50A1" d="M151.667,186.028l0.778,2.94c0.156,0.648,0.311,1.26,0.419,1.86h0.036
				c0.131-0.588,0.323-1.212,0.515-1.848l0.946-2.952h0.886l0.898,2.904c0.216,0.684,0.383,1.308,0.515,1.896h0.036
				c0.096-0.588,0.251-1.2,0.443-1.884l0.826-2.916h1.042l-1.868,5.808h-0.958l-0.886-2.772c-0.204-0.66-0.371-1.236-0.515-1.92
				h-0.024c-0.144,0.696-0.323,1.308-0.527,1.932l-0.934,2.76h-0.958l-1.748-5.808H151.667z"/>
			<path fill="#0A50A1" d="M162.456,190.769c0.323,0.192,0.874,0.408,1.401,0.408c0.754,0,1.113-0.372,1.113-0.864
				c0-0.504-0.299-0.78-1.065-1.068c-1.054-0.384-1.544-0.948-1.544-1.644c0-0.936,0.766-1.704,2-1.704
				c0.586,0,1.102,0.156,1.413,0.36l-0.251,0.756c-0.228-0.132-0.646-0.336-1.185-0.336c-0.623,0-0.958,0.36-0.958,0.792
				c0,0.492,0.335,0.708,1.089,0.996c0.994,0.372,1.521,0.876,1.521,1.752c0,1.032-0.802,1.752-2.155,1.752
				c-0.635,0-1.221-0.168-1.628-0.408L162.456,190.769z"/>
			<path fill="#0A50A1" d="M169.699,191.968c-1.557,0-2.778-1.152-2.778-2.988c0-1.944,1.281-3.084,2.874-3.084
				c1.664,0,2.79,1.212,2.79,2.976c0,2.16-1.497,3.096-2.874,3.096H169.699z M169.735,191.176c1.006,0,1.76-0.948,1.76-2.268
				c0-0.984-0.491-2.22-1.736-2.22c-1.233,0-1.772,1.152-1.772,2.256c0,1.272,0.718,2.232,1.736,2.232H169.735z"/>
			<path fill="#0A50A1" d="M178.763,190.252c0,0.6,0.012,1.128,0.048,1.584h-0.934l-0.06-0.948h-0.024
				c-0.263,0.468-0.886,1.08-1.916,1.08c-0.91,0-2-0.516-2-2.544v-3.396h1.054v3.204c0,1.104,0.347,1.86,1.293,1.86
				c0.706,0,1.197-0.492,1.389-0.972c0.06-0.144,0.096-0.336,0.096-0.54v-3.552h1.054V190.252z"/>
			<path fill="#0A50A1" d="M180.511,187.601c0-0.612-0.012-1.092-0.048-1.572h0.934l0.06,0.948h0.024
				c0.287-0.54,0.958-1.08,1.916-1.08c0.802,0,2.047,0.48,2.047,2.472v3.468h-1.054v-3.348c0-0.936-0.347-1.728-1.341-1.728
				c-0.683,0-1.221,0.492-1.413,1.08c-0.048,0.132-0.072,0.324-0.072,0.492v3.504h-1.054V187.601z"/>
			<path fill="#0A50A1" d="M192.162,183.316v7.02c0,0.516,0.012,1.104,0.048,1.5h-0.946l-0.048-1.008h-0.024
				c-0.323,0.648-1.018,1.14-1.964,1.14c-1.401,0-2.49-1.188-2.49-2.952c-0.012-1.944,1.197-3.12,2.598-3.12
				c0.898,0,1.497,0.42,1.748,0.876h0.024v-3.456H192.162z M191.108,188.393c0-0.144-0.012-0.312-0.048-0.456
				c-0.156-0.66-0.73-1.212-1.521-1.212c-1.09,0-1.736,0.96-1.736,2.232c0,1.188,0.587,2.16,1.712,2.16
				c0.706,0,1.353-0.48,1.544-1.26c0.036-0.144,0.048-0.288,0.048-0.456V188.393z"/>
		</g>
		<g>
			<path fill="none" stroke="#FF0000" d="M179.192,72.86c-3.248-7.169-3.248-7.169-3.248-7.169l-1.624-2.05l-1.624-1.024h-1.626
				l-1.624,1.024l-1.624,2.05l-3.245,7.169"/>
			<path fill="none" stroke="#FF0000" d="M179.192,72.86c3.247,7.17,3.247,7.17,3.247,7.17l1.624,2.048l1.624,1.024h1.624
				l1.624-1.024l1.624-2.048l3.25-7.17"/>
			<path fill="none" stroke="#FF0000" d="M208.42,72.86c-3.247-7.169-3.247-7.169-3.247-7.169l-1.626-2.05l-1.624-1.024h-1.621
				l-1.624,1.024l-1.625,2.05l-3.246,7.169"/>
			<path fill="none" stroke="#FF0000" d="M208.42,72.86c3.247,7.17,3.247,7.17,3.247,7.17l1.627,2.048l1.622,1.024h1.623
				l1.624-1.024l1.626-2.048l3.247-7.17"/>
			<path fill="none" stroke="#FF0000" d="M237.648,72.86c-3.247-7.169-3.247-7.169-3.247-7.169l-1.623-2.05l-1.624-1.024h-1.624
				l-1.623,1.024l-1.624,2.05l-3.247,7.169"/>
			<path fill="none" stroke="#FF0000" d="M237.648,72.86c3.251,7.17,3.251,7.17,3.251,7.17l1.624,2.048l1.621,1.024h1.626
				l1.623-1.024l1.624-2.048l3.247-7.17"/>
			<path fill="none" stroke="#FF0000" d="M266.881,72.86c-3.25-7.169-3.25-7.169-3.25-7.169l-1.624-2.05l-1.621-1.024h-1.626
				l-1.624,1.024l-1.624,2.05l-3.247,7.169"/>
			<g>
				<path fill="none" stroke="#FF0000" d="M33.044,72.86c3.248,7.17,3.248,7.17,3.248,7.17l1.625,2.048l1.623,1.024h1.623
					l1.624-1.024l1.624-2.048l3.248-7.17"/>
				<path fill="none" stroke="#FF0000" d="M62.272,72.86c-3.247-7.169-3.247-7.169-3.247-7.169l-1.625-2.05l-1.623-1.024h-1.624
					L52.53,63.64l-1.624,2.05l-3.248,7.169"/>
				<path fill="none" stroke="#FF0000" d="M62.272,72.86c3.25,7.17,3.25,7.17,3.25,7.17l1.624,2.048l1.624,1.024h1.624l1.624-1.024
					l1.624-2.048l3.249-7.17"/>
				<path fill="none" stroke="#FF0000" d="M91.504,72.86c-3.249-7.169-3.249-7.169-3.249-7.169l-1.624-2.05l-1.624-1.024h-1.624
					L81.76,63.64l-1.624,2.05l-3.248,7.169"/>
				<path fill="none" stroke="#FF0000" d="M91.504,72.86c3.245,7.17,3.245,7.17,3.245,7.17l1.625,2.048l1.624,1.024h1.624
					l1.625-1.024l1.624-2.048l3.248-7.17"/>
				<path fill="none" stroke="#FF0000" d="M120.732,72.86c-3.248-7.169-3.248-7.169-3.248-7.169l-1.624-2.05l-1.624-1.024h-1.624
					l-1.625,1.024l-1.624,2.05l-3.247,7.169"/>
				<path fill="none" stroke="#FF0000" d="M120.732,72.86c3.247,7.17,3.247,7.17,3.247,7.17l1.624,2.048l1.625,1.024h1.624
					l1.624-1.024l1.624-2.048l3.248-7.17"/>
				<path fill="none" stroke="#FF0000" d="M149.963,72.86c-3.25-7.169-3.25-7.169-3.25-7.169l-1.622-2.05l-1.624-1.024h-1.626
					l-1.624,1.024l-1.624,2.05l-3.248,7.169"/>
				<path fill="none" stroke="#FF0000" d="M149.963,72.86c3.245,7.17,3.245,7.17,3.245,7.17l1.626,2.048l1.624,1.024h1.624
					l1.624-1.024l1.624-2.048l3.248-7.17"/>
				<path fill="none" stroke="#FF0000" d="M179.192,72.86c-3.248-7.169-3.248-7.169-3.248-7.169l-1.624-2.05l-1.624-1.024h-1.626
					l-1.624,1.024l-1.624,2.05l-3.247,7.169"/>
			</g>
		</g>
		<g>
			<path fill="none" stroke="#0A50A1" stroke-width="2" d="M139.185,161.713l80.276,0.393"/>
			<path fill="none" stroke="#0A50A1" stroke-width="2" d="M219.698,162.879l0.002-4.933"/>
			<path fill="none" stroke="#000000" stroke-width="2" d="M138.709,162.475l0.002-4.932"/>
		</g>
		<g>
			<path fill="none" stroke="#FF0000" stroke-width="2" d="M127.888,93.218l29.743-0.234"/>
			<path fill="none" stroke="#FF0000" stroke-width="2" d="M157.701,93.756l0.113-4.93"/>
			<path fill="none" stroke="#FF0000" stroke-width="2" d="M127.695,93.984l0.113-4.931"/>
		</g>
		<g>
			<g>
				<path fill="none" d="M287.62,94.341c-8.22-10.086-14.987,4.125-12.087,11.919c1.934,3.667,8.22,16.504,13.537,9.169"/>
				<path d="M288.758,93.375c-8.421-9.575-16.078,1.326-15.282,10.644c0.574,6.727,10.053,20.575,16.817,12.266
					c1.217-1.495-1.236-3.196-2.445-1.712c-4.229,5.195-9.326-5.824-10.967-8.954c-1.393-2.658-0.348-6.743,0.687-9.309
					c1.925-4.775,5.762-4.589,8.915-1.004C287.751,96.749,290.033,94.825,288.758,93.375z"/>
			</g>
		</g>
		<g>
			<g>
				<path fill="none" d="M287.275,104.662c-4.835-1.375-3.384,3.668,0,5.043"/>
				<path d="M287.793,103.262c-1.19-0.316-2.532-0.557-3.674,0.066c-1.053,0.575-1.477,1.647-1.419,2.799
					c0.113,2.25,2.117,4.14,4.058,4.978c1.772,0.765,2.794-2.041,1.035-2.8c-0.523-0.226-0.974-0.562-1.359-0.979
					c-0.182-0.196-0.332-0.391-0.448-0.589c-0.071-0.121-0.299-0.675-0.263-0.547c-0.025-0.098-0.045-0.196-0.06-0.296
					c-0.073-0.424-0.029,0.246,0.008-0.153c-0.004,0.037-0.157,0.237-0.054,0.148c-0.139,0.118,0.031,0.026,0.088,0.024
					c0.354-0.007,0.713,0.059,1.053,0.149C288.604,106.552,289.651,103.756,287.793,103.262z"/>
			</g>
		</g>
		<g>
			<g>
				<path fill="none" d="M285.202,96.633c-2.9-3.209-6.284-2.292-6.769,1.833"/>
				<path d="M286.34,95.667c-1.48-1.561-3.447-2.829-5.688-2.338c-2.339,0.513-3.395,2.846-3.705,4.996
					c-0.275,1.91,2.699,2.177,2.973,0.281c0.14-0.97,0.422-1.959,1.383-2.379c0.95-0.415,2.208,0.787,2.762,1.37
					C285.382,98.987,287.669,97.068,286.34,95.667z"/>
			</g>
		</g>
		<g>
			<path fill="none" stroke="#000000" d="M70.209,50.749H37.845"/>
			<path fill="none" stroke="#000000" d="M62.337,57.055l7.872-6.306"/>
			<path fill="none" stroke="#000000" d="M61.462,44.441l8.747,6.307"/>
		</g>
		<g>
			<g>
				<path fill="none" d="M294.65,79.297c-5.287,3.274-8.516,9.432-6.456,12.315"/>
				<path d="M293.685,78.159c-3.887,2.53-9.968,9.001-6.839,14.094c0.996,1.62,3.705,0.36,2.697-1.281
					c-2.327-3.787,3.351-8.765,6.073-10.537C297.225,79.389,295.278,77.122,293.685,78.159z"/>
			</g>
		</g>
		<g>
			<g>
				<path fill="none" d="M289.025,119.258c1.521,6.423,6.128,11.427,9.215,10.01"/>
				<path d="M287.556,119.518c1.133,4.45,5.229,13.441,11.325,11.099c1.795-0.69,0.507-3.383-1.281-2.696
					c-1.419,0.545-2.949-1.153-3.759-2.07c-1.688-1.911-2.725-4.408-3.346-6.851C290.023,117.146,287.081,117.651,287.556,119.518z"
					/>
			</g>
		</g>
		<g>
			<path fill="none" stroke="#000000" d="M252.573,47.749h-32.364"/>
			<path fill="none" stroke="#000000" d="M244.701,54.055l7.872-6.306"/>
			<path fill="none" stroke="#000000" d="M243.826,41.441l8.747,6.307"/>
		</g>
		<g>
			<path fill="none" stroke="#000000" d="M159.573,49.749h-32.364"/>
			<path fill="none" stroke="#000000" d="M151.701,56.055l7.872-6.306"/>
			<path fill="none" stroke="#000000" d="M150.826,43.441l8.747,6.307"/>
		</g>
		<g>
			<path fill="#FFFFFF" stroke="#000000" stroke-width="2" d="M2.008,60.188c0.139-1.195-1.902-2.557-0.64-3.922
				c1.611-1.742,2.514,0.777,3.022,1.628"/>
			<path fill="#FFFFFF" stroke="#000000" stroke-width="2" d="M4.431,57.741c0.861,2.592,3.365,5.031,4.801,7.408
				c2.197,3.638,4.107,7.472,6.469,10.906c0.972,1.414,1.432,3.349,3.022,4.137"/>
			<path fill="#FFFFFF" stroke="#000000" stroke-width="2" d="M2.559,59.708c-0.25,1.414,1.402,2.971,2.119,4.107
				c1.163,1.842,2.195,3.736,3.449,5.519c2.083,2.963,3.66,6.373,5.759,9.288c0.545,0.757,1.229,1.191,1.769,1.964
				c0.553,0.791,0.804,1.754,1.368,2.556"/>
			<path fill="#FFFFFF" stroke="#000000" stroke-width="2" d="M18.554,80.355c-0.106,1.191,2.927,2.739,3.914,3.115"/>
			<path fill="#FFFFFF" stroke="#000000" stroke-width="2" d="M17.022,83.305c0.875,1.782,1.348,2.799,1.361,4.916"/>
			<path fill="#FFFFFF" stroke="#000000" stroke-width="2" d="M18.044,88.549c2.367,0.285,4.88-3.146,4.593-5.244"/>
			<g>
				<g>
					<path fill="none" d="M5.963,62.494"/>
					<path d="M5.822,63.979c1.911,0,2.204-2.972,0.281-2.972C4.193,61.008,3.9,63.979,5.822,63.979z"/>
				</g>
			</g>
			<g>
				<g>
					<path fill="none" d="M8.345,65.606"/>
					<path d="M8.204,67.092c1.911,0,2.204-2.972,0.281-2.972C6.575,64.121,6.282,67.092,8.204,67.092z"/>
				</g>
			</g>
			<g>
				<g>
					<path fill="none" d="M10.047,68.064"/>
					<path d="M9.906,69.55c1.911,0,2.204-2.972,0.281-2.972C8.277,66.579,7.984,69.55,9.906,69.55z"/>
				</g>
			</g>
			<g>
				<g>
					<path fill="none" d="M11.748,71.179"/>
					<path d="M11.607,72.665c1.911,0,2.204-2.972,0.281-2.972C9.978,69.693,9.685,72.665,11.607,72.665z"/>
				</g>
			</g>
			<g>
				<g>
					<path fill="none" d="M13.278,73.964"/>
					<path d="M13.138,75.45c1.911,0,2.204-2.972,0.281-2.972C11.508,72.478,11.215,75.45,13.138,75.45z"/>
				</g>
			</g>
			<g>
				<g>
					<path fill="none" d="M14.98,76.75"/>
					<path d="M14.84,78.236c1.911,0,2.204-2.972,0.281-2.972C13.21,75.264,12.917,78.236,14.84,78.236z"/>
				</g>
			</g>
		</g>
		<g>
			<path fill="#FFFFFF" stroke="#000000" stroke-width="2" d="M4.14,122.627c0.218-1.885-2.973-4.033-0.999-6.187
				c2.516-2.747,3.928,1.227,4.722,2.568"/>
			<path fill="#FFFFFF" stroke="#000000" stroke-width="2" d="M7.926,118.767c1.347,4.089,5.26,7.937,7.503,11.686
				c3.433,5.738,6.419,11.786,10.108,17.205c1.52,2.231,2.24,5.283,4.726,6.527"/>
			<path fill="#FFFFFF" stroke="#000000" stroke-width="2" d="M5.001,121.869c-0.392,2.231,2.19,4.688,3.311,6.479
				c1.816,2.906,3.431,5.893,5.39,8.706c3.256,4.674,5.719,10.054,9,14.653c0.852,1.194,1.922,1.878,2.765,3.097
				c0.864,1.25,1.257,2.769,2.138,4.034"/>
			<path fill="#FFFFFF" stroke="#000000" stroke-width="2" d="M29.996,154.443c-0.164,1.878,4.574,4.321,6.116,4.912"/>
			<path fill="#FFFFFF" stroke="#000000" stroke-width="2" d="M27.604,159.096c1.367,2.811,2.105,4.417,2.127,7.756"/>
			<path fill="#FFFFFF" stroke="#000000" stroke-width="2" d="M29.199,167.37c3.701,0.45,7.627-4.964,7.18-8.273"/>
			<g>
				<g>
					<path fill="none" d="M10.319,126.265"/>
					<path d="M10.179,127.75c1.911,0,2.204-2.972,0.281-2.972C8.549,124.779,8.256,127.75,10.179,127.75z"/>
				</g>
			</g>
			<g>
				<g>
					<path fill="none" d="M14.043,131.176"/>
					<path d="M13.902,132.662c1.91,0,2.203-2.972,0.281-2.972C12.272,129.69,11.979,132.662,13.902,132.662z"/>
				</g>
			</g>
			<g>
				<g>
					<path fill="none" d="M16.701,135.054"/>
					<path d="M16.561,136.54c1.91,0,2.203-2.972,0.281-2.972C14.932,133.568,14.639,136.54,16.561,136.54z"/>
				</g>
			</g>
			<g>
				<g>
					<path fill="none" d="M19.36,139.966"/>
					<path d="M19.22,141.452c1.911,0,2.204-2.972,0.281-2.972C17.59,138.48,17.297,141.452,19.22,141.452z"/>
				</g>
			</g>
			<g>
				<g>
					<path fill="none" d="M21.754,144.36"/>
					<path d="M21.613,145.846c1.91,0,2.203-2.972,0.281-2.972C19.983,142.874,19.69,145.846,21.613,145.846z"/>
				</g>
			</g>
			<g>
				<g>
					<path fill="none" d="M24.413,148.756"/>
					<path d="M24.272,150.242c1.911,0,2.204-2.972,0.281-2.972C22.643,147.27,22.35,150.242,24.272,150.242z"/>
				</g>
			</g>
		</g>
		<g>
			<g>
				<path fill="none" stroke="#0A50A1" d="M39.56,143.013c8.824,7.169,8.824,7.169,8.824,7.169l4.411,2.048l4.412,1.025h4.414
					l4.411-1.025l4.414-2.048l8.824-7.169"/>
				<path fill="none" stroke="#0A50A1" d="M118.979,143.013c-8.825-7.17-8.825-7.17-8.825-7.17l-4.413-2.049l-4.412-1.023h-4.411
					l-4.413,1.023l-4.411,2.049l-8.826,7.17"/>
				<path fill="none" stroke="#0A50A1" d="M118.979,143.013c8.825,7.169,8.825,7.169,8.825,7.169l4.411,2.048l4.412,1.025h4.413
					l4.411-1.025l4.414-2.048l8.826-7.169"/>
			</g>
			<g>
				<path fill="none" stroke="#0A50A1" d="M158.275,143.224c8.825-7.169,8.825-7.169,8.825-7.169l4.411-2.048l4.411-1.025h4.414
					l4.411,1.025l4.414,2.048l8.823,7.169"/>
				<path fill="none" stroke="#0A50A1" d="M237.694,143.224c-8.825,7.17-8.825,7.17-8.825,7.17l-4.412,2.049l-4.413,1.023h-4.41
					l-4.414-1.023l-4.41-2.049l-8.826-7.17"/>
				<path fill="none" stroke="#0A50A1" d="M237.694,143.224c8.825-7.169,8.825-7.169,8.825-7.169l4.41-2.048l4.412-1.025h4.412
					l4.411,1.025l4.414,2.048l8.825,7.169"/>
			</g>
		</g>
	</g>
</svg>
