<?xml version="1.0" encoding="utf-8"?>
<!-- Generator: Adobe Illustrator 10.0, SVG Export Plug-In . SVG Version: 3.0.0 Build 76)  -->
<!DOCTYPE svg PUBLIC "-//W3C//DTD SVG 1.0//EN"    "http://www.w3.org/TR/2001/REC-SVG-20010904/DTD/svg10.dtd" [
	<!ENTITY ns_flows "http://ns.adobe.com/Flows/1.0/">
	<!ENTITY ns_extend "http://ns.adobe.com/Extensibility/1.0/">
	<!ENTITY ns_ai "http://ns.adobe.com/AdobeIllustrator/10.0/">
	<!ENTITY ns_svg "http://www.w3.org/2000/svg">
	<!ENTITY ns_xlink "http://www.w3.org/1999/xlink">
]>
<svg  xmlns:x="&ns_extend;" xmlns:i="&ns_ai;" xmlns:graph="&ns_graphs;"
	 xmlns="&ns_svg;" xmlns:xlink="&ns_xlink;" xmlns:a="http://ns.adobe.com/AdobeSVGViewerExtensions/3.0/" width="428" height="143"
	 viewBox="0.1 -0.301 428 143" overflow="visible" enable-background="new 0.1 -0.301 428 143" xml:space="preserve">
	<g id="Layer_1_2_">
		<path fill="none" stroke="#000000" d="M55.098,127.596c8.267-10.567,8.267-10.567,8.267-10.567l4.133-3.019l4.134-1.51h4.133
			l4.133,1.51l4.133,3.019l8.267,10.567"/>
		<path fill="none" stroke="#000000" d="M129.499,127.596c-8.267,10.567-8.267,10.567-8.267,10.567l-4.133,3.019l-4.133,1.51h-4.134
			l-4.133-1.51l-4.133-3.019l-8.267-10.567"/>
		<path fill="none" stroke="#000000" d="M129.499,127.596c8.267-10.567,8.267-10.567,8.267-10.567l4.134-3.019l4.133-1.51h4.134
			l4.133,1.51l4.133,3.019l8.267,10.567"/>
		<path fill="none" stroke="#000000" d="M203.9,127.596c-8.267,10.567-8.267,10.567-8.267,10.567l-4.133,3.019l-4.133,1.51h-4.133
			l-4.134-1.51l-4.133-3.019l-8.267-10.567"/>
		<path fill="none" stroke="#000000" d="M203.9,127.596c8.267-10.567,8.267-10.567,8.267-10.567l4.133-3.019l4.134-1.51h4.133
			l4.134,1.51l4.133,3.019l8.267,10.567"/>
		<path fill="none" stroke="#000000" d="M278.3,127.596c-8.267,10.567-8.267,10.567-8.267,10.567l-4.133,3.019l-4.134,1.51h-4.133
			l-4.133-1.51l-4.133-3.019l-8.267-10.567"/>
		<path fill="none" stroke="#000000" d="M278.3,127.596c8.267-10.567,8.267-10.567,8.267-10.567l4.133-3.019l4.134-1.51h4.133
			l4.133,1.51l4.134,3.019l8.267,10.567"/>
		<path fill="none" stroke="#000000" d="M352.702,127.596c-8.267,10.567-8.267,10.567-8.267,10.567l-4.134,3.019l-4.134,1.51h-4.133
			l-4.134-1.51l-4.133-3.019l-8.268-10.567"/>
		<path fill="none" stroke="#000000" d="M352.702,127.596c8.267-10.567,8.267-10.567,8.267-10.567l4.134-3.019l4.133-1.51h4.134
			l4.133,1.51l4.134,3.019l8.267,10.567"/>
		<path fill="none" stroke="#000000" d="M427.102,127.596c-8.267,10.567-8.267,10.567-8.267,10.567l-4.134,3.019l-4.133,1.51h-4.134
			l-4.133-1.51l-4.134-3.019l-8.267-10.567"/>
		<path fill="none" stroke="#000000" d="M56.098,43.096c8.267-29.817,8.267-29.817,8.267-29.817l4.133-8.519l4.134-4.26h4.133
			l4.133,4.26l4.133,8.519l8.267,29.817"/>
		<path fill="none" stroke="#000000" d="M130.499,43.096c-8.267,29.817-8.267,29.817-8.267,29.817l-4.133,8.519l-4.133,4.26h-4.134
			l-4.133-4.26l-4.133-8.519l-8.267-29.817"/>
		<path fill="none" stroke="#000000" d="M130.499,43.096c8.267-29.817,8.267-29.817,8.267-29.817l4.134-8.519l4.133-4.26h4.134
			l4.133,4.26l4.133,8.519l8.267,29.817"/>
		<path fill="none" stroke="#000000" d="M204.9,43.096c-8.267,29.817-8.267,29.817-8.267,29.817l-4.133,8.519l-4.133,4.26h-4.133
			l-4.134-4.26l-4.133-8.519l-8.267-29.817"/>
		<path fill="none" stroke="#000000" d="M204.9,43.096c8.267-29.817,8.267-29.817,8.267-29.817L217.3,4.76l4.134-4.26h4.133
			l4.134,4.26l4.133,8.519l8.267,29.817"/>
		<path fill="none" stroke="#000000" d="M279.3,43.096c-8.267,29.817-8.267,29.817-8.267,29.817l-4.133,8.519l-4.134,4.26h-4.133
			l-4.133-4.26l-4.133-8.519L242.1,43.096"/>
		<path fill="none" stroke="#000000" d="M279.3,43.096c8.267-29.817,8.267-29.817,8.267-29.817l4.133-8.519l4.134-4.26h4.133
			l4.133,4.26l4.134,8.519l8.267,29.817"/>
		<path fill="none" stroke="#000000" d="M353.702,43.096c-8.267,29.817-8.267,29.817-8.267,29.817l-4.134,8.519l-4.134,4.26h-4.133
			l-4.134-4.26l-4.133-8.519L316.5,43.096"/>
		<path fill="none" stroke="#000000" d="M353.702,43.096c8.267-29.817,8.267-29.817,8.267-29.817l4.134-8.519l4.133-4.26h4.134
			l4.133,4.26l4.134,8.519l8.267,29.817"/>
		<path fill="none" stroke="#000000" d="M428.102,43.096c-8.267,29.817-8.267,29.817-8.267,29.817l-4.134,8.519l-4.133,4.26h-4.134
			l-4.133-4.26l-4.134-8.519l-8.267-29.817"/>
		<g>
			<path d="M0,24.611h1.056v7.212h3.456v0.876H0V24.611z"/>
			<path d="M7.836,32.831c-1.56,0-2.784-1.152-2.784-2.988c0-1.944,1.284-3.084,2.88-3.084c1.668,0,2.796,1.212,2.796,2.976
				c0,2.16-1.5,3.096-2.88,3.096H7.836z M7.872,32.039c1.008,0,1.764-0.948,1.764-2.268c0-0.984-0.492-2.22-1.74-2.22
				c-1.236,0-1.776,1.152-1.776,2.256c0,1.272,0.72,2.232,1.74,2.232H7.872z"/>
			<path d="M16.92,31.115c0,0.6,0.012,1.128,0.048,1.584h-0.936l-0.06-0.948h-0.024c-0.264,0.468-0.888,1.08-1.92,1.08
				c-0.912,0-2.004-0.516-2.004-2.544v-3.396h1.056v3.204c0,1.104,0.348,1.86,1.296,1.86c0.708,0,1.2-0.492,1.392-0.972
				c0.06-0.144,0.096-0.336,0.096-0.54v-3.552h1.056V31.115z"/>
			<path d="M23.688,24.179v7.02c0,0.516,0.012,1.104,0.048,1.5h-0.948l-0.048-1.008h-0.024c-0.324,0.648-1.02,1.14-1.968,1.14
				c-1.404,0-2.496-1.188-2.496-2.952c-0.012-1.944,1.2-3.12,2.604-3.12c0.9,0,1.5,0.42,1.752,0.876h0.024v-3.456H23.688z
				 M22.632,29.255c0-0.144-0.012-0.312-0.048-0.456c-0.156-0.66-0.732-1.212-1.524-1.212c-1.092,0-1.74,0.96-1.74,2.232
				c0,1.188,0.588,2.16,1.716,2.16c0.708,0,1.356-0.48,1.548-1.26c0.036-0.144,0.048-0.288,0.048-0.456V29.255z"/>
			<path d="M26.04,29.975c0.024,1.428,0.924,2.016,1.98,2.016c0.756,0,1.224-0.132,1.608-0.288l0.192,0.744
				c-0.372,0.168-1.02,0.372-1.944,0.372c-1.776,0-2.856-1.188-2.856-2.928c0-1.764,1.044-3.144,2.736-3.144
				c1.896,0,2.388,1.668,2.388,2.736c0,0.216-0.012,0.384-0.036,0.504L26.04,29.975z M29.124,29.219
				c0.012-0.66-0.276-1.716-1.452-1.716c-1.08,0-1.536,0.984-1.62,1.716H29.124z"/>
			<path d="M31.464,28.703c0-0.684-0.012-1.272-0.048-1.812h0.924l0.048,1.14h0.036c0.264-0.78,0.912-1.272,1.62-1.272
				c0.108,0,0.192,0.012,0.288,0.036v0.984c-0.12-0.012-0.228-0.024-0.372-0.024c-0.744,0-1.272,0.564-1.416,1.344
				c-0.024,0.156-0.036,0.324-0.036,0.504v3.096h-1.056L31.464,28.703z"/>
		</g>
		<g>
			<path d="M2.88,126.427c0.468,0.3,1.14,0.528,1.86,0.528c1.068,0,1.692-0.552,1.692-1.38c0-0.744-0.432-1.188-1.524-1.596
				c-1.32-0.48-2.136-1.176-2.136-2.304c0-1.26,1.044-2.196,2.616-2.196c0.816,0,1.428,0.192,1.776,0.396l-0.288,0.852
				c-0.252-0.156-0.792-0.384-1.524-0.384c-1.104,0-1.524,0.66-1.524,1.212c0,0.756,0.492,1.128,1.608,1.56
				c1.368,0.54,2.052,1.188,2.052,2.376c0,1.248-0.912,2.34-2.82,2.34c-0.78,0-1.632-0.24-2.064-0.528L2.88,126.427z"/>
			<path d="M11.304,127.831c-1.56,0-2.784-1.152-2.784-2.988c0-1.944,1.284-3.084,2.88-3.084c1.668,0,2.796,1.212,2.796,2.976
				c0,2.16-1.5,3.096-2.88,3.096H11.304z M11.34,127.039c1.008,0,1.764-0.948,1.764-2.268c0-0.984-0.492-2.22-1.74-2.22
				c-1.236,0-1.776,1.152-1.776,2.256c0,1.272,0.72,2.232,1.74,2.232H11.34z"/>
			<path d="M15.624,127.699v-5.004H14.82v-0.804h0.804v-0.276c0-0.816,0.192-1.56,0.684-2.028c0.396-0.384,0.924-0.54,1.404-0.54
				c0.384,0,0.696,0.084,0.9,0.168l-0.132,0.816c-0.168-0.072-0.372-0.132-0.684-0.132c-0.888,0-1.128,0.792-1.128,1.68v0.312h1.404
				v0.804H16.68v5.004H15.624z"/>
			<path d="M20.436,120.499v1.392h1.512v0.804h-1.512v3.132c0,0.72,0.204,1.128,0.792,1.128c0.288,0,0.456-0.024,0.612-0.072
				l0.048,0.804c-0.204,0.072-0.528,0.144-0.936,0.144c-0.492,0-0.888-0.168-1.14-0.444c-0.288-0.324-0.408-0.84-0.408-1.524v-3.168
				h-0.9v-0.804h0.9v-1.068L20.436,120.499z"/>
			<path d="M23.664,124.975c0.024,1.428,0.924,2.016,1.98,2.016c0.756,0,1.224-0.132,1.608-0.288l0.192,0.744
				c-0.372,0.168-1.02,0.372-1.944,0.372c-1.776,0-2.856-1.188-2.856-2.928c0-1.764,1.044-3.144,2.736-3.144
				c1.896,0,2.388,1.668,2.388,2.736c0,0.216-0.012,0.384-0.036,0.504L23.664,124.975z M26.748,124.219
				c0.012-0.66-0.276-1.716-1.452-1.716c-1.08,0-1.536,0.984-1.62,1.716H26.748z"/>
			<path d="M29.087,123.703c0-0.684-0.012-1.272-0.048-1.812h0.924l0.048,1.14h0.036c0.264-0.78,0.912-1.272,1.62-1.272
				c0.108,0,0.192,0.012,0.288,0.036v0.984c-0.12-0.012-0.228-0.024-0.372-0.024c-0.744,0-1.272,0.564-1.416,1.344
				c-0.024,0.156-0.036,0.324-0.036,0.504v3.096h-1.056L29.087,123.703z"/>
		</g>
	</g>
</svg>
