<?xml version="1.0" encoding="utf-8"?>
<!-- Generator: Adobe Illustrator 10.0, SVG Export Plug-In . SVG Version: 3.0.0 Build 76)  -->
<!DOCTYPE svg PUBLIC "-//W3C//DTD SVG 1.0//EN"    "http://www.w3.org/TR/2001/REC-SVG-20010904/DTD/svg10.dtd" [
	<!ENTITY ns_flows "http://ns.adobe.com/Flows/1.0/">
	<!ENTITY ns_extend "http://ns.adobe.com/Extensibility/1.0/">
	<!ENTITY ns_ai "http://ns.adobe.com/AdobeIllustrator/10.0/">
	<!ENTITY ns_svg "http://www.w3.org/2000/svg">
	<!ENTITY ns_xlink "http://www.w3.org/1999/xlink">
]>
<svg  xmlns:x="&ns_extend;" xmlns:i="&ns_ai;" xmlns:graph="&ns_graphs;"
	 xmlns="&ns_svg;" xmlns:xlink="&ns_xlink;" xmlns:a="http://ns.adobe.com/AdobeSVGViewerExtensions/3.0/" width="396" height="417"
	 viewBox="0.1 -0.42 396 417" overflow="visible" enable-background="new 0.1 -0.42 396 417" xml:space="preserve">
	<g id="Layer_1_2_">
		<g>
			<path d="M93.794,288.856c2.664,0.023,5.184,1.032,5.376,3.264c0.144,1.632-2.016,3.12-4.68,3.12
				c-2.688-0.024-5.184-1.008-5.4-3.24C88.946,290.345,91.13,288.856,93.794,288.856z M94.442,294.688
				c1.152,0,1.896-1.104,1.776-1.992c-0.264-1.752-0.864-3.168-2.448-3.168c-1.152,0-1.824,1.128-1.68,2.016
				C92.354,293.296,92.858,294.688,94.442,294.688z"/>
		</g>
		<path fill="none" stroke="#000000" stroke-width="2" d="M253.1,122.58c0,49.153-43.428,89-97,89s-97-39.847-97-89s43.428-89,97-89
			S253.1,73.427,253.1,122.58z"/>
		<g>
			<path d="M71.161,311.641c0.648-0.096,1.405-0.168,2.234-0.168c1.501,0,2.57,0.336,3.279,0.996
				c0.733,0.66,1.153,1.608,1.153,2.916c0,1.32-0.42,2.4-1.165,3.145c-0.769,0.756-2.018,1.164-3.592,1.164
				c-0.756,0-1.369-0.024-1.91-0.097V311.641z M72.218,318.805c0.264,0.049,0.648,0.049,1.057,0.049
				c2.234,0.012,3.447-1.248,3.447-3.433c0.012-1.932-1.069-3.12-3.279-3.12c-0.541,0-0.949,0.048-1.225,0.108V318.805z"/>
			<path d="M88.542,316.069c-0.06-1.128-0.132-2.496-0.132-3.492h-0.024c-0.289,0.936-0.613,1.956-1.021,3.072l-1.43,3.924h-0.792
				l-1.321-3.853c-0.384-1.151-0.697-2.184-0.925-3.144h-0.024c-0.024,1.008-0.084,2.352-0.156,3.576l-0.216,3.468h-0.997
				l0.564-8.088h1.333l1.381,3.912c0.336,0.996,0.601,1.884,0.817,2.724h0.024c0.216-0.815,0.504-1.704,0.865-2.724l1.441-3.912
				h1.333l0.504,8.088h-1.033L88.542,316.069z"/>
			<path d="M95.508,318.229c0,0.504,0.024,0.995,0.084,1.392h-0.949l-0.096-0.732h-0.036c-0.312,0.456-0.949,0.864-1.777,0.864
				c-1.177,0-1.778-0.828-1.778-1.668c0-1.404,1.249-2.172,3.495-2.16v-0.12c0-0.479-0.132-1.355-1.321-1.344
				c-0.552,0-1.117,0.156-1.525,0.432l-0.24-0.708c0.48-0.3,1.189-0.504,1.922-0.504c1.79,0,2.222,1.212,2.222,2.376V318.229z
				 M94.475,316.657c-1.153-0.024-2.462,0.18-2.462,1.308c0,0.696,0.457,1.008,0.985,1.008c0.769,0,1.261-0.479,1.429-0.972
				c0.036-0.107,0.048-0.228,0.048-0.336V316.657z"/>
			<path d="M95.772,321.325c0.493-0.036,0.901-0.168,1.153-0.444c0.288-0.324,0.408-0.792,0.408-2.184v-4.884h1.057v5.292
				c0,1.128-0.18,1.859-0.697,2.388c-0.468,0.468-1.237,0.66-1.802,0.66L95.772,321.325z M97.838,312.745
				c-0.396,0-0.661-0.313-0.661-0.685c0-0.371,0.276-0.672,0.685-0.672c0.408,0,0.672,0.301,0.672,0.672
				c0,0.372-0.252,0.685-0.685,0.685H97.838z"/>
			<path d="M102.487,319.753c-1.562,0-2.787-1.151-2.787-2.988c0-1.943,1.285-3.084,2.883-3.084c1.67,0,2.799,1.212,2.799,2.977
				c0,2.16-1.501,3.096-2.883,3.096H102.487z M102.523,318.961c1.009,0,1.766-0.948,1.766-2.268c0-0.984-0.492-2.221-1.742-2.221
				c-1.237,0-1.777,1.152-1.777,2.257c0,1.271,0.721,2.231,1.742,2.231H102.523z"/>
			<path d="M106.727,315.625c0-0.684-0.012-1.271-0.048-1.812h0.925l0.048,1.14h0.036c0.264-0.78,0.913-1.272,1.622-1.272
				c0.108,0,0.192,0.013,0.289,0.036v0.984c-0.12-0.012-0.229-0.024-0.373-0.024c-0.745,0-1.273,0.564-1.417,1.345
				c-0.024,0.155-0.036,0.323-0.036,0.504v3.096h-1.057L106.727,315.625z"/>
			<path d="M135.878,318.037c0,0.6,0.012,1.128,0.048,1.584h-0.937l-0.06-0.948h-0.024c-0.265,0.468-0.889,1.08-1.922,1.08
				c-0.913,0-2.006-0.516-2.006-2.544v-3.396h1.057v3.203c0,1.104,0.349,1.86,1.297,1.86c0.708,0,1.201-0.492,1.394-0.972
				c0.06-0.145,0.096-0.336,0.096-0.54v-3.552h1.057V318.037z"/>
			<path d="M137.632,315.709c0-0.744-0.012-1.344-0.048-1.896h0.949l0.06,0.995h0.024c0.42-0.72,1.117-1.128,2.054-1.128
				c1.417,0,2.474,1.188,2.474,2.952c0,2.088-1.285,3.12-2.643,3.12c-0.781,0-1.441-0.336-1.79-0.912h-0.024v3.156h-1.057V315.709z
				 M138.689,317.257c0,0.145,0.012,0.3,0.048,0.433c0.18,0.731,0.829,1.235,1.574,1.235c1.117,0,1.766-0.912,1.766-2.244
				c0-1.164-0.601-2.159-1.718-2.159c-0.721,0-1.405,0.504-1.61,1.296c-0.024,0.144-0.06,0.3-0.06,0.432V317.257z"/>
			<path d="M149.379,319.753c-1.562,0-2.787-1.151-2.787-2.988c0-1.943,1.285-3.084,2.883-3.084c1.669,0,2.798,1.212,2.798,2.977
				c0,2.16-1.501,3.096-2.883,3.096H149.379z M149.416,318.961c1.009,0,1.766-0.948,1.766-2.268c0-0.984-0.493-2.221-1.742-2.221
				c-1.237,0-1.778,1.152-1.778,2.257c0,1.271,0.721,2.231,1.742,2.231H149.416z"/>
			<path d="M153.607,315.385c0-0.611-0.012-1.092-0.048-1.571h0.937l0.06,0.947h0.024c0.288-0.54,0.961-1.08,1.922-1.08
				c0.805,0,2.054,0.48,2.054,2.473v3.468h-1.057v-3.348c0-0.937-0.348-1.729-1.345-1.729c-0.685,0-1.225,0.492-1.417,1.08
				c-0.048,0.132-0.072,0.324-0.072,0.492v3.504h-1.057V315.385z"/>
			<path d="M160.875,316.897c0.024,1.428,0.925,2.016,1.982,2.016c0.757,0,1.225-0.132,1.609-0.288l0.192,0.744
				c-0.373,0.168-1.021,0.372-1.946,0.372c-1.778,0-2.859-1.188-2.859-2.928c0-1.765,1.045-3.145,2.739-3.145
				c1.897,0,2.39,1.668,2.39,2.736c0,0.216-0.012,0.384-0.036,0.504L160.875,316.897z M163.961,316.141
				c0.012-0.659-0.276-1.716-1.454-1.716c-1.081,0-1.537,0.984-1.622,1.716H163.961z"/>
			<path d="M169.258,313.813l0.781,2.939c0.156,0.648,0.313,1.26,0.42,1.86h0.036c0.132-0.588,0.324-1.212,0.517-1.849l0.949-2.951
				h0.889l0.901,2.903c0.216,0.685,0.385,1.309,0.517,1.896h0.036c0.096-0.588,0.252-1.2,0.444-1.884l0.829-2.916h1.045
				l-1.874,5.808h-0.961l-0.889-2.772c-0.204-0.659-0.373-1.235-0.517-1.92h-0.024c-0.144,0.696-0.324,1.309-0.529,1.933
				l-0.937,2.76h-0.961l-1.754-5.808H169.258z"/>
			<path d="M177.678,311.101h1.057v3.624h0.024c0.168-0.3,0.433-0.575,0.757-0.743c0.313-0.192,0.685-0.301,1.081-0.301
				c0.781,0,2.03,0.48,2.03,2.484v3.456h-1.057v-3.336c0-0.948-0.349-1.729-1.345-1.729c-0.685,0-1.213,0.48-1.417,1.057
				c-0.06,0.144-0.072,0.3-0.072,0.504v3.504h-1.057V311.101z"/>
			<path d="M186.711,319.753c-1.562,0-2.787-1.151-2.787-2.988c0-1.943,1.285-3.084,2.883-3.084c1.67,0,2.799,1.212,2.799,2.977
				c0,2.16-1.501,3.096-2.883,3.096H186.711z M186.747,318.961c1.009,0,1.766-0.948,1.766-2.268c0-0.984-0.492-2.221-1.742-2.221
				c-1.237,0-1.777,1.152-1.777,2.257c0,1.271,0.721,2.231,1.742,2.231H186.747z"/>
			<path d="M190.939,311.101h1.057v8.521h-1.057V311.101z"/>
			<path d="M194.351,316.897c0.024,1.428,0.925,2.016,1.982,2.016c0.757,0,1.225-0.132,1.609-0.288l0.192,0.744
				c-0.373,0.168-1.021,0.372-1.946,0.372c-1.778,0-2.859-1.188-2.859-2.928c0-1.765,1.045-3.145,2.739-3.145
				c1.897,0,2.39,1.668,2.39,2.736c0,0.216-0.012,0.384-0.036,0.504L194.351,316.897z M197.438,316.141
				c0.012-0.659-0.276-1.716-1.454-1.716c-1.081,0-1.537,0.984-1.622,1.716H197.438z"/>
			<path d="M202.17,318.553c0.324,0.192,0.877,0.408,1.405,0.408c0.757,0,1.117-0.372,1.117-0.864c0-0.504-0.3-0.779-1.069-1.067
				c-1.057-0.384-1.55-0.948-1.55-1.645c0-0.936,0.769-1.704,2.006-1.704c0.589,0,1.105,0.156,1.417,0.36l-0.252,0.756
				c-0.229-0.132-0.649-0.336-1.189-0.336c-0.625,0-0.961,0.36-0.961,0.792c0,0.492,0.336,0.708,1.093,0.996
				c0.997,0.372,1.525,0.876,1.525,1.752c0,1.032-0.805,1.752-2.162,1.752c-0.637,0-1.225-0.168-1.634-0.408L202.17,318.553z"/>
			<path d="M208.344,312.421v1.393h1.514v0.804h-1.514v3.132c0,0.72,0.204,1.128,0.793,1.128c0.288,0,0.457-0.023,0.612-0.072
				l0.048,0.805c-0.204,0.071-0.529,0.144-0.937,0.144c-0.493,0-0.889-0.168-1.141-0.444c-0.288-0.323-0.408-0.84-0.408-1.523
				v-3.168h-0.901v-0.804h0.901v-1.068L208.344,312.421z"/>
			<path d="M211.575,316.897c0.024,1.428,0.925,2.016,1.982,2.016c0.756,0,1.225-0.132,1.609-0.288l0.192,0.744
				c-0.373,0.168-1.021,0.372-1.946,0.372c-1.777,0-2.858-1.188-2.858-2.928c0-1.765,1.045-3.145,2.738-3.145
				c1.898,0,2.391,1.668,2.391,2.736c0,0.216-0.012,0.384-0.036,0.504L211.575,316.897z M214.662,316.141
				c0.012-0.659-0.276-1.716-1.454-1.716c-1.081,0-1.538,0.984-1.622,1.716H214.662z"/>
			<path d="M216.992,315.709c0-0.744-0.012-1.344-0.048-1.896h0.949l0.06,0.995h0.024c0.42-0.72,1.117-1.128,2.054-1.128
				c1.417,0,2.474,1.188,2.474,2.952c0,2.088-1.285,3.12-2.643,3.12c-0.781,0-1.441-0.336-1.79-0.912h-0.024v3.156h-1.057V315.709z
				 M218.049,317.257c0,0.145,0.012,0.3,0.048,0.433c0.18,0.731,0.829,1.235,1.574,1.235c1.117,0,1.766-0.912,1.766-2.244
				c0-1.164-0.601-2.159-1.718-2.159c-0.721,0-1.405,0.504-1.609,1.296c-0.024,0.144-0.06,0.3-0.06,0.432V317.257z"/>
			<path d="M278.271,315.829h-3.135v2.916h3.507v0.876h-4.564v-8.088h4.384v0.876h-3.327v2.556h3.135V315.829z"/>
			<path d="M282.51,315.385c0-0.611-0.024-1.092-0.048-1.571h0.925l0.048,0.936h0.036c0.325-0.552,0.865-1.068,1.838-1.068
				c0.781,0,1.381,0.48,1.634,1.164h0.024c0.18-0.336,0.42-0.575,0.661-0.756c0.348-0.264,0.721-0.408,1.273-0.408
				c0.781,0,1.922,0.504,1.922,2.521v3.42h-1.033v-3.288c0-1.128-0.42-1.788-1.261-1.788c-0.613,0-1.069,0.444-1.261,0.948
				c-0.048,0.156-0.084,0.348-0.084,0.528v3.6h-1.033v-3.48c0-0.936-0.408-1.596-1.213-1.596c-0.649,0-1.141,0.528-1.31,1.056
				c-0.06,0.156-0.084,0.337-0.084,0.517v3.504h-1.033V315.385z"/>
			<path d="M296.624,318.229c0,0.504,0.024,0.995,0.084,1.392h-0.949l-0.096-0.732h-0.036c-0.313,0.456-0.949,0.864-1.778,0.864
				c-1.177,0-1.778-0.828-1.778-1.668c0-1.404,1.249-2.172,3.496-2.16v-0.12c0-0.479-0.132-1.355-1.321-1.344
				c-0.553,0-1.117,0.156-1.526,0.432l-0.24-0.708c0.48-0.3,1.189-0.504,1.922-0.504c1.79,0,2.222,1.212,2.222,2.376V318.229z
				 M295.591,316.657c-1.153-0.024-2.462,0.18-2.462,1.308c0,0.696,0.457,1.008,0.985,1.008c0.769,0,1.261-0.479,1.429-0.972
				c0.036-0.107,0.048-0.228,0.048-0.336V316.657z"/>
			<path d="M296.888,321.325c0.493-0.036,0.901-0.168,1.153-0.444c0.288-0.324,0.408-0.792,0.408-2.184v-4.884h1.057v5.292
				c0,1.128-0.18,1.859-0.697,2.388c-0.468,0.468-1.237,0.66-1.802,0.66L296.888,321.325z M298.955,312.745
				c-0.396,0-0.661-0.313-0.661-0.685c0-0.371,0.276-0.672,0.685-0.672c0.408,0,0.672,0.301,0.672,0.672
				c0,0.372-0.252,0.685-0.685,0.685H298.955z"/>
			<path d="M303.603,319.753c-1.562,0-2.787-1.151-2.787-2.988c0-1.943,1.286-3.084,2.883-3.084c1.67,0,2.799,1.212,2.799,2.977
				c0,2.16-1.501,3.096-2.883,3.096H303.603z M303.639,318.961c1.009,0,1.766-0.948,1.766-2.268c0-0.984-0.493-2.221-1.742-2.221
				c-1.237,0-1.778,1.152-1.778,2.257c0,1.271,0.721,2.231,1.742,2.231H303.639z"/>
			<path d="M307.843,315.625c0-0.684-0.012-1.271-0.048-1.812h0.925l0.048,1.14h0.036c0.265-0.78,0.913-1.272,1.622-1.272
				c0.108,0,0.192,0.013,0.289,0.036v0.984c-0.12-0.012-0.229-0.024-0.373-0.024c-0.745,0-1.273,0.564-1.417,1.345
				c-0.024,0.155-0.036,0.323-0.036,0.504v3.096h-1.057L307.843,315.625z"/>
		</g>
		<g>
			<path d="M70.013,405.612c0.456-0.108,1.189-0.181,1.91-0.181c1.045,0,1.718,0.181,2.21,0.588c0.42,0.313,0.685,0.793,0.685,1.429
				c0,0.792-0.529,1.476-1.37,1.775v0.036c0.769,0.181,1.67,0.816,1.67,2.017c0,0.695-0.276,1.224-0.697,1.62
				c-0.553,0.516-1.465,0.756-2.787,0.756c-0.721,0-1.273-0.048-1.622-0.097V405.612z M71.058,408.924h0.949
				c1.093,0,1.742-0.588,1.742-1.368c0-0.936-0.708-1.319-1.766-1.319c-0.48,0-0.757,0.036-0.925,0.071V408.924z M71.058,412.788
				c0.216,0.036,0.504,0.048,0.877,0.048c1.081,0,2.078-0.396,2.078-1.572c0-1.092-0.949-1.56-2.09-1.56h-0.865V412.788z"/>
			<path d="M79.034,409.344c0-0.611-0.024-1.092-0.048-1.571h0.925l0.048,0.936h0.036c0.324-0.552,0.865-1.068,1.838-1.068
				c0.781,0,1.381,0.48,1.633,1.164h0.024c0.18-0.336,0.42-0.575,0.661-0.756c0.349-0.264,0.721-0.408,1.273-0.408
				c0.781,0,1.922,0.504,1.922,2.521v3.42h-1.033v-3.288c0-1.128-0.42-1.788-1.261-1.788c-0.612,0-1.069,0.444-1.261,0.948
				c-0.048,0.156-0.084,0.348-0.084,0.528v3.6h-1.033v-3.48c0-0.936-0.409-1.596-1.213-1.596c-0.648,0-1.141,0.528-1.309,1.056
				c-0.06,0.156-0.084,0.337-0.084,0.517v3.504h-1.033V409.344z"/>
			<path d="M89.556,406.704c-0.396,0-0.661-0.313-0.661-0.685c0-0.371,0.276-0.672,0.685-0.672c0.409,0,0.673,0.301,0.673,0.672
				c0,0.372-0.264,0.685-0.685,0.685H89.556z M89.051,413.58v-5.808h1.057v5.808H89.051z"/>
			<path d="M91.862,409.344c0-0.611-0.012-1.092-0.048-1.571h0.937l0.06,0.947h0.024c0.288-0.54,0.961-1.08,1.922-1.08
				c0.805,0,2.054,0.48,2.054,2.473v3.468h-1.057v-3.348c0-0.937-0.349-1.729-1.345-1.729c-0.685,0-1.226,0.492-1.417,1.08
				c-0.048,0.132-0.072,0.324-0.072,0.492v3.504h-1.057V409.344z"/>
			<path d="M100.895,413.712c-1.562,0-2.787-1.151-2.787-2.988c0-1.943,1.285-3.084,2.883-3.084c1.67,0,2.799,1.212,2.799,2.977
				c0,2.16-1.501,3.096-2.883,3.096H100.895z M100.931,412.92c1.009,0,1.766-0.948,1.766-2.268c0-0.984-0.492-2.221-1.742-2.221
				c-1.237,0-1.777,1.152-1.777,2.257c0,1.271,0.721,2.231,1.742,2.231H100.931z"/>
			<path d="M105.135,409.584c0-0.684-0.012-1.271-0.048-1.812h0.925l0.048,1.14h0.036c0.264-0.78,0.913-1.272,1.622-1.272
				c0.108,0,0.192,0.013,0.288,0.036v0.984c-0.12-0.012-0.228-0.024-0.372-0.024c-0.745,0-1.273,0.564-1.417,1.345
				c-0.024,0.155-0.036,0.323-0.036,0.504v3.096h-1.057L105.135,409.584z"/>
			<path d="M134.442,405.06v7.021c0,0.516,0.012,1.104,0.048,1.5h-0.949l-0.048-1.008h-0.024c-0.324,0.647-1.021,1.14-1.97,1.14
				c-1.405,0-2.499-1.188-2.499-2.952c-0.012-1.943,1.201-3.12,2.606-3.12c0.901,0,1.501,0.42,1.754,0.876h0.024v-3.456H134.442z
				 M133.385,410.136c0-0.144-0.012-0.312-0.048-0.456c-0.156-0.659-0.733-1.212-1.525-1.212c-1.093,0-1.742,0.96-1.742,2.232
				c0,1.188,0.589,2.16,1.718,2.16c0.709,0,1.357-0.48,1.55-1.261c0.036-0.144,0.048-0.287,0.048-0.455V410.136z"/>
			<path d="M138.563,413.712c-1.562,0-2.787-1.151-2.787-2.988c0-1.943,1.286-3.084,2.883-3.084c1.67,0,2.799,1.212,2.799,2.977
				c0,2.16-1.501,3.096-2.883,3.096H138.563z M138.598,412.92c1.009,0,1.766-0.948,1.766-2.268c0-0.984-0.493-2.221-1.742-2.221
				c-1.237,0-1.778,1.152-1.778,2.257c0,1.271,0.721,2.231,1.742,2.231H138.598z"/>
			<path d="M143.127,407.772l0.781,2.939c0.156,0.648,0.312,1.26,0.42,1.86h0.036c0.132-0.588,0.324-1.212,0.516-1.849l0.949-2.951
				h0.889l0.901,2.903c0.216,0.685,0.384,1.309,0.517,1.896h0.036c0.096-0.588,0.252-1.2,0.444-1.884l0.829-2.916h1.045
				l-1.874,5.808h-0.961l-0.889-2.772c-0.205-0.659-0.373-1.235-0.517-1.92h-0.024c-0.145,0.696-0.325,1.309-0.529,1.933
				l-0.937,2.76h-0.961l-1.753-5.808H143.127z"/>
			<path d="M151.547,409.344c0-0.611-0.012-1.092-0.048-1.571h0.937l0.06,0.947h0.024c0.288-0.54,0.961-1.08,1.922-1.08
				c0.805,0,2.054,0.48,2.054,2.473v3.468h-1.057v-3.348c0-0.937-0.349-1.729-1.346-1.729c-0.685,0-1.225,0.492-1.417,1.08
				c-0.048,0.132-0.072,0.324-0.072,0.492v3.504h-1.057V409.344z"/>
			<path d="M164.856,412.188c0,0.504,0.024,0.995,0.084,1.392h-0.949l-0.096-0.732h-0.036c-0.313,0.456-0.949,0.864-1.778,0.864
				c-1.177,0-1.778-0.828-1.778-1.668c0-1.404,1.249-2.172,3.496-2.16v-0.12c0-0.479-0.132-1.355-1.321-1.344
				c-0.553,0-1.117,0.156-1.526,0.432l-0.24-0.708c0.48-0.3,1.189-0.504,1.922-0.504c1.79,0,2.223,1.212,2.223,2.376V412.188z
				 M163.823,410.616c-1.153-0.024-2.462,0.18-2.462,1.308c0,0.696,0.457,1.008,0.985,1.008c0.769,0,1.261-0.479,1.429-0.972
				c0.036-0.107,0.048-0.228,0.048-0.336V410.616z"/>
			<path d="M169.096,409.344c0-0.611-0.024-1.092-0.048-1.571h0.925l0.048,0.936h0.036c0.324-0.552,0.865-1.068,1.838-1.068
				c0.781,0,1.381,0.48,1.633,1.164h0.024c0.18-0.336,0.42-0.575,0.66-0.756c0.349-0.264,0.721-0.408,1.273-0.408
				c0.781,0,1.922,0.504,1.922,2.521v3.42h-1.033v-3.288c0-1.128-0.42-1.788-1.261-1.788c-0.613,0-1.069,0.444-1.262,0.948
				c-0.048,0.156-0.084,0.348-0.084,0.528v3.6h-1.033v-3.48c0-0.936-0.409-1.596-1.213-1.596c-0.648,0-1.141,0.528-1.309,1.056
				c-0.06,0.156-0.084,0.337-0.084,0.517v3.504h-1.033V409.344z"/>
			<path d="M183.209,412.188c0,0.504,0.024,0.995,0.084,1.392h-0.949l-0.096-0.732h-0.036c-0.313,0.456-0.949,0.864-1.778,0.864
				c-1.177,0-1.778-0.828-1.778-1.668c0-1.404,1.25-2.172,3.496-2.16v-0.12c0-0.479-0.132-1.355-1.321-1.344
				c-0.553,0-1.117,0.156-1.525,0.432l-0.24-0.708c0.48-0.3,1.189-0.504,1.922-0.504c1.79,0,2.222,1.212,2.222,2.376V412.188z
				 M182.176,410.616c-1.153-0.024-2.462,0.18-2.462,1.308c0,0.696,0.457,1.008,0.985,1.008c0.769,0,1.261-0.479,1.43-0.972
				c0.036-0.107,0.048-0.228,0.048-0.336V410.616z"/>
			<path d="M183.474,415.284c0.492-0.036,0.901-0.168,1.153-0.444c0.289-0.324,0.409-0.792,0.409-2.184v-4.884h1.057v5.292
				c0,1.128-0.18,1.859-0.697,2.388c-0.469,0.468-1.237,0.66-1.802,0.66L183.474,415.284z M185.54,406.704
				c-0.396,0-0.661-0.313-0.661-0.685c0-0.371,0.276-0.672,0.685-0.672c0.409,0,0.673,0.301,0.673,0.672
				c0,0.372-0.252,0.685-0.685,0.685H185.54z"/>
			<path d="M190.188,413.712c-1.562,0-2.787-1.151-2.787-2.988c0-1.943,1.285-3.084,2.883-3.084c1.669,0,2.799,1.212,2.799,2.977
				c0,2.16-1.501,3.096-2.883,3.096H190.188z M190.224,412.92c1.009,0,1.766-0.948,1.766-2.268c0-0.984-0.492-2.221-1.742-2.221
				c-1.237,0-1.778,1.152-1.778,2.257c0,1.271,0.721,2.231,1.742,2.231H190.224z"/>
			<path d="M194.428,409.584c0-0.684-0.012-1.271-0.048-1.812h0.925l0.048,1.14h0.036c0.264-0.78,0.913-1.272,1.622-1.272
				c0.108,0,0.192,0.013,0.288,0.036v0.984c-0.12-0.012-0.228-0.024-0.372-0.024c-0.745,0-1.273,0.564-1.417,1.345
				c-0.024,0.155-0.036,0.323-0.036,0.504v3.096h-1.057L194.428,409.584z"/>
			<path d="M202.164,406.38v1.393h1.514v0.804h-1.514v3.132c0,0.72,0.204,1.128,0.793,1.128c0.288,0,0.456-0.023,0.612-0.072
				l0.048,0.805c-0.205,0.071-0.529,0.144-0.937,0.144c-0.493,0-0.889-0.168-1.141-0.444c-0.289-0.323-0.409-0.84-0.409-1.523
				v-3.168h-0.901v-0.804h0.901v-1.068L202.164,406.38z"/>
			<path d="M204.866,405.06h1.057v3.624h0.024c0.168-0.3,0.432-0.575,0.757-0.743c0.312-0.192,0.685-0.301,1.081-0.301
				c0.781,0,2.03,0.48,2.03,2.484v3.456h-1.057v-3.336c0-0.948-0.348-1.729-1.345-1.729c-0.685,0-1.213,0.48-1.417,1.057
				c-0.06,0.144-0.072,0.3-0.072,0.504v3.504h-1.057V405.06z"/>
			<path d="M212.037,406.704c-0.396,0-0.661-0.313-0.661-0.685c0-0.371,0.276-0.672,0.685-0.672s0.673,0.301,0.673,0.672
				c0,0.372-0.265,0.685-0.685,0.685H212.037z M211.533,413.58v-5.808h1.057v5.808H211.533z"/>
			<path d="M214.355,409.584c0-0.684-0.012-1.271-0.048-1.812h0.925l0.048,1.14h0.036c0.265-0.78,0.913-1.272,1.622-1.272
				c0.108,0,0.192,0.013,0.289,0.036v0.984c-0.12-0.012-0.229-0.024-0.373-0.024c-0.745,0-1.273,0.564-1.417,1.345
				c-0.024,0.155-0.036,0.323-0.036,0.504v3.096h-1.057L214.355,409.584z"/>
			<path d="M223.22,405.06v7.021c0,0.516,0.012,1.104,0.048,1.5h-0.949l-0.048-1.008h-0.024c-0.325,0.647-1.021,1.14-1.97,1.14
				c-1.405,0-2.499-1.188-2.499-2.952c-0.012-1.943,1.201-3.12,2.607-3.12c0.901,0,1.501,0.42,1.753,0.876h0.024v-3.456H223.22z
				 M222.163,410.136c0-0.144-0.012-0.312-0.048-0.456c-0.156-0.659-0.733-1.212-1.525-1.212c-1.093,0-1.742,0.96-1.742,2.232
				c0,1.188,0.588,2.16,1.718,2.16c0.708,0,1.357-0.48,1.549-1.261c0.036-0.144,0.048-0.287,0.048-0.455V410.136z"/>
			<path d="M279.104,413.22c-0.469,0.181-1.405,0.444-2.499,0.444c-1.225,0-2.234-0.312-3.027-1.068
				c-0.697-0.672-1.129-1.752-1.129-3.012c0-2.412,1.67-4.176,4.384-4.176c0.937,0,1.682,0.204,2.03,0.372l-0.264,0.852
				c-0.433-0.204-0.973-0.348-1.79-0.348c-1.97,0-3.255,1.224-3.255,3.252c0,2.052,1.225,3.264,3.123,3.264
				c0.685,0,1.153-0.096,1.393-0.216v-2.412h-1.633v-0.84h2.667V413.22z"/>
			<path d="M283.2,409.344c0-0.611-0.024-1.092-0.048-1.571h0.925l0.048,0.936h0.036c0.324-0.552,0.865-1.068,1.838-1.068
				c0.781,0,1.381,0.48,1.633,1.164h0.024c0.18-0.336,0.42-0.575,0.661-0.756c0.348-0.264,0.721-0.408,1.273-0.408
				c0.781,0,1.922,0.504,1.922,2.521v3.42h-1.033v-3.288c0-1.128-0.42-1.788-1.261-1.788c-0.613,0-1.069,0.444-1.261,0.948
				c-0.048,0.156-0.084,0.348-0.084,0.528v3.6h-1.033v-3.48c0-0.936-0.409-1.596-1.213-1.596c-0.648,0-1.141,0.528-1.309,1.056
				c-0.06,0.156-0.084,0.337-0.084,0.517v3.504H283.2V409.344z"/>
			<path d="M293.722,406.704c-0.396,0-0.66-0.313-0.66-0.685c0-0.371,0.276-0.672,0.685-0.672c0.408,0,0.672,0.301,0.672,0.672
				c0,0.372-0.264,0.685-0.685,0.685H293.722z M293.218,413.58v-5.808h1.057v5.808H293.218z"/>
			<path d="M296.029,409.344c0-0.611-0.012-1.092-0.048-1.571h0.937l0.06,0.947h0.024c0.289-0.54,0.961-1.08,1.922-1.08
				c0.805,0,2.054,0.48,2.054,2.473v3.468h-1.057v-3.348c0-0.937-0.348-1.729-1.345-1.729c-0.685,0-1.225,0.492-1.417,1.08
				c-0.048,0.132-0.072,0.324-0.072,0.492v3.504h-1.057V409.344z"/>
			<path d="M305.062,413.712c-1.562,0-2.787-1.151-2.787-2.988c0-1.943,1.286-3.084,2.883-3.084c1.67,0,2.799,1.212,2.799,2.977
				c0,2.16-1.501,3.096-2.883,3.096H305.062z M305.097,412.92c1.009,0,1.766-0.948,1.766-2.268c0-0.984-0.493-2.221-1.742-2.221
				c-1.237,0-1.778,1.152-1.778,2.257c0,1.271,0.721,2.231,1.742,2.231H305.097z"/>
			<path d="M309.301,409.584c0-0.684-0.012-1.271-0.048-1.812h0.925l0.048,1.14h0.036c0.264-0.78,0.913-1.272,1.622-1.272
				c0.108,0,0.192,0.013,0.289,0.036v0.984c-0.12-0.012-0.229-0.024-0.373-0.024c-0.745,0-1.273,0.564-1.417,1.345
				c-0.024,0.155-0.036,0.323-0.036,0.504v3.096h-1.057L309.301,409.584z"/>
		</g>
		<g>
			<path fill="none" stroke="#000000" d="M185.319,279.867l-36.438,6.426"/>
			<path fill="none" stroke="#000000" d="M177.671,288.324l7.647-8.457"/>
			<path fill="none" stroke="#000000" d="M174.255,274.711l11.063,5.156"/>
		</g>
		<g>
			<path fill="none" stroke="#000000" d="M174.499,372.361l10.618-4.152"/>
			<g>
				<path fill="none" stroke="#000000" d="M185.117,368.209l-35.473-10.518"/>
				<path fill="none" stroke="#000000" d="M177.52,358.655l7.597,9.554"/>
			</g>
		</g>
		<g>
			<path fill="#FFFFFF" d="M237.209,166.978v1.687l0.007,0.971c0,0.605,0.007,1.049,0.021,1.329c0.664,0.05,1.375,0.076,2.134,0.076
				c0.509,0,0.937-0.022,1.282-0.068c0.223-0.027,0.459-0.086,0.709-0.178c0.113-0.401,0.229-0.902,0.348-1.504h0.453
				c-0.124,0.995-0.186,1.659-0.186,1.99l0.014,0.307c-0.523,0.042-1.038,0.063-1.542,0.063l-1.072-0.019
				c-1.183-0.029-2.052-0.044-2.607-0.044c-0.533,0-1.24,0.016-2.123,0.047v-0.438h0.212c0.397,0,0.647-0.039,0.75-0.116
				c0.103-0.077,0.171-0.259,0.205-0.546c0.034-0.287,0.052-0.92,0.052-1.899v-3.75c0-0.615-0.015-1.118-0.045-1.51
				c-0.029-0.392-0.062-0.625-0.096-0.7s-0.083-0.133-0.147-0.174s-0.261-0.077-0.59-0.109l-0.528-0.055v-0.438h0.737l0.724,0.023
				c0.405,0.016,0.713,0.023,0.922,0.023l2.622-0.039l1.243-0.008c0.423-0.004,0.851,0.011,1.284,0.047
				c-0.17,0.537-0.264,1.234-0.281,2.094h-0.453c0-0.5-0.025-0.915-0.075-1.247c-0.538-0.2-1.199-0.3-1.982-0.3
				c-0.625,0-1.278,0.027-1.962,0.082c0.004,0.429,0,0.858-0.014,1.287l-0.014,1.054v1.39c0.453,0.031,0.853,0.047,1.201,0.047
				c1.088,0,1.705-0.038,1.849-0.113c0.144-0.076,0.216-0.311,0.216-0.705v-0.447h0.453c-0.032,0.69-0.048,1.241-0.048,1.652
				c0,0.434,0.016,0.946,0.048,1.535h-0.453v-0.396c0-0.437-0.086-0.704-0.257-0.802s-0.776-0.146-1.814-0.146
				C238.019,166.931,237.621,166.946,237.209,166.978z"/>
		</g>
		<g>
			<g>
				<g>
					<path fill="none" d="M67.506,31.19c-12.354,6.661-23.387,13.823-29.31,27.458"/>
					<path fill="#0A50A1" d="M66.865,29.842C54.248,36.693,42.913,44.696,36.796,58.13c-0.8,1.757,2.008,2.775,2.8,1.036
						c5.774-12.683,16.665-20.174,28.551-26.628C69.829,31.625,68.562,28.921,66.865,29.842z"/>
				</g>
			</g>
			<g>
				<g>
					<path fill="none" d="M48.636,55.042c-2.735,1.232-5.471,2.464-8.617,2.784"/>
					<path fill="#0A50A1" d="M47.996,53.694c-2.67,1.201-5.304,2.306-8.235,2.663c-1.913,0.233-1.384,3.171,0.519,2.939
						c3.182-0.388,6.097-1.601,8.998-2.906C51.031,55.602,49.752,52.904,47.996,53.694z"/>
				</g>
			</g>
			<g>
				<g>
					<path fill="none" d="M36.324,49.62c-0.091,2.234,0.229,5.38,0.139,7.615"/>
					<path fill="#0A50A1" d="M34.838,49.479c-0.074,2.54,0.212,5.074,0.139,7.615c-0.056,1.917,2.916,2.205,2.972,0.281
						c0.074-2.54-0.212-5.075-0.139-7.615C37.865,47.844,34.894,47.556,34.838,49.479z"/>
				</g>
			</g>
		</g>
		<g>
			<path fill="#0A50A1" d="M34.82,9.364c-0.324,0.156-1.092,0.348-2.064,0.348c-2.796,0-4.236-1.752-4.236-4.068
				c0-2.76,1.968-4.284,4.416-4.284c0.948,0,1.668,0.192,1.992,0.36l-0.384,1.44c-0.36-0.156-0.876-0.3-1.536-0.3
				c-1.44,0-2.568,0.876-2.568,2.688c0,1.62,0.96,2.64,2.58,2.64c0.564,0,1.164-0.108,1.536-0.264L34.82,9.364z"/>
			<path fill="#0A50A1" d="M38.42,9.712c-1.716,0-3.036-1.128-3.036-3.024s1.248-3.108,3.144-3.108c1.788,0,2.988,1.236,2.988,3.012
				c0,2.136-1.524,3.12-3.084,3.12H38.42z M38.456,8.404c0.72,0,1.164-0.708,1.164-1.764c0-0.864-0.336-1.752-1.164-1.752
				c-0.864,0-1.2,0.888-1.2,1.764c0,0.996,0.42,1.752,1.188,1.752H38.456z"/>
			<path fill="#0A50A1" d="M48.176,7.696c0,0.768,0.024,1.392,0.048,1.884H46.64l-0.084-0.828H46.52
				c-0.228,0.36-0.78,0.96-1.836,0.96c-1.2,0-2.064-0.744-2.064-2.556V3.712h1.824v3.156c0,0.852,0.276,1.368,0.924,1.368
				c0.504,0,0.804-0.348,0.912-0.636c0.048-0.108,0.072-0.24,0.072-0.396V3.712h1.824V7.696z"/>
			<path fill="#0A50A1" d="M49.64,5.584c0-0.732-0.024-1.344-0.048-1.872h1.584l0.084,0.816h0.036
				c0.24-0.384,0.828-0.948,1.812-0.948c1.2,0,2.1,0.804,2.1,2.532V9.58h-1.824V6.328c0-0.756-0.264-1.272-0.924-1.272
				c-0.504,0-0.804,0.348-0.936,0.684c-0.048,0.12-0.06,0.288-0.06,0.456V9.58H49.64V5.584z"/>
			<path fill="#0A50A1" d="M58.64,2.116v1.596h1.308v1.344H58.64v2.136c0,0.708,0.18,1.032,0.72,1.032
				c0.252,0,0.372-0.012,0.54-0.048l0.012,1.38c-0.228,0.084-0.672,0.156-1.176,0.156c-0.588,0-1.08-0.204-1.38-0.504
				c-0.336-0.348-0.504-0.912-0.504-1.74V5.056h-0.78V3.712h0.78V2.608L58.64,2.116z"/>
			<path fill="#0A50A1" d="M62.348,7.216c0.06,0.768,0.804,1.128,1.656,1.128c0.624,0,1.128-0.084,1.62-0.252l0.24,1.236
				C65.264,9.58,64.532,9.7,63.74,9.7c-1.992,0-3.132-1.152-3.132-3c0-1.488,0.936-3.132,2.964-3.132
				c1.896,0,2.616,1.476,2.616,2.928c0,0.312-0.036,0.588-0.06,0.732L62.348,7.216z M64.496,5.968c0-0.432-0.192-1.188-1.02-1.188
				c-0.78,0-1.092,0.708-1.14,1.188H64.496z"/>
			<path fill="#0A50A1" d="M67.292,5.644c0-0.864-0.012-1.428-0.048-1.932h1.56l0.072,1.092h0.048
				c0.3-0.864,1.008-1.224,1.584-1.224c0.168,0,0.252,0.012,0.384,0.036v1.716c-0.156-0.024-0.3-0.048-0.504-0.048
				c-0.672,0-1.128,0.348-1.248,0.924c-0.024,0.12-0.036,0.252-0.036,0.408V9.58H67.28L67.292,5.644z"/>
			<path fill="#0A50A1" d="M76.16,9.436c-0.324,0.156-0.936,0.276-1.632,0.276c-1.896,0-3.108-1.164-3.108-3.012
				c0-1.716,1.176-3.12,3.36-3.12c0.48,0,1.008,0.084,1.392,0.228l-0.288,1.356c-0.216-0.096-0.54-0.18-1.02-0.18
				c-0.96,0-1.584,0.684-1.572,1.644c0,1.08,0.72,1.656,1.608,1.656c0.432,0,0.768-0.072,1.044-0.192L76.16,9.436z"/>
			<path fill="#0A50A1" d="M77.167,1.06h1.824v8.52h-1.824V1.06z"/>
			<path fill="#0A50A1" d="M83.156,9.712c-1.716,0-3.036-1.128-3.036-3.024s1.248-3.108,3.144-3.108
				c1.788,0,2.988,1.236,2.988,3.012c0,2.136-1.524,3.12-3.084,3.12H83.156z M83.191,8.404c0.72,0,1.164-0.708,1.164-1.764
				c0-0.864-0.336-1.752-1.164-1.752c-0.864,0-1.2,0.888-1.2,1.764c0,0.996,0.42,1.752,1.188,1.752H83.191z"/>
			<path fill="#0A50A1" d="M91.819,9.436c-0.324,0.156-0.936,0.276-1.632,0.276c-1.896,0-3.108-1.164-3.108-3.012
				c0-1.716,1.176-3.12,3.36-3.12c0.48,0,1.008,0.084,1.392,0.228l-0.288,1.356c-0.216-0.096-0.54-0.18-1.02-0.18
				c-0.96,0-1.584,0.684-1.572,1.644c0,1.08,0.72,1.656,1.608,1.656c0.432,0,0.768-0.072,1.044-0.192L91.819,9.436z"/>
			<path fill="#0A50A1" d="M94.651,6.196h0.024c0.132-0.252,0.276-0.492,0.42-0.708l1.188-1.776h2.196l-2.1,2.376l2.4,3.492h-2.244
				l-1.428-2.412l-0.456,0.588V9.58h-1.824V1.06h1.824V6.196z"/>
			<path fill="#0A50A1" d="M100.639,3.712l0.48,2.412c0.108,0.6,0.228,1.248,0.324,1.92h0.036c0.108-0.66,0.288-1.332,0.42-1.908
				l0.624-2.424h1.44l0.588,2.34c0.168,0.672,0.324,1.32,0.432,1.992h0.024c0.084-0.66,0.204-1.332,0.348-2.004l0.492-2.328h1.788
				l-1.8,5.868h-1.704l-0.552-2.052c-0.156-0.576-0.264-1.104-0.384-1.836h-0.024c-0.108,0.732-0.228,1.284-0.372,1.824
				l-0.588,2.064h-1.716l-1.716-5.868H100.639z"/>
			<path fill="#0A50A1" d="M109.387,2.944c-0.612,0-1.008-0.432-1.008-0.972c0-0.552,0.408-0.972,1.032-0.972s1.008,0.42,1.02,0.972
				c0,0.54-0.396,0.972-1.032,0.972H109.387z M108.487,9.58V3.712h1.824V9.58H108.487z"/>
			<path fill="#0A50A1" d="M111.763,7.996c0.336,0.204,1.032,0.432,1.572,0.432c0.552,0,0.78-0.18,0.78-0.48
				c0-0.312-0.18-0.456-0.852-0.684c-1.224-0.396-1.692-1.068-1.68-1.752c0-1.104,0.936-1.932,2.388-1.932
				c0.684,0,1.284,0.168,1.644,0.348l-0.312,1.248c-0.264-0.132-0.78-0.324-1.272-0.324c-0.444,0-0.696,0.18-0.696,0.468
				c0,0.288,0.228,0.432,0.948,0.684c1.116,0.372,1.572,0.948,1.584,1.8c0,1.104-0.852,1.908-2.532,1.908
				c-0.768,0-1.452-0.18-1.896-0.42L111.763,7.996z"/>
			<path fill="#0A50A1" d="M118.387,7.216c0.06,0.768,0.804,1.128,1.656,1.128c0.624,0,1.128-0.084,1.62-0.252l0.24,1.236
				c-0.6,0.252-1.332,0.372-2.124,0.372c-1.992,0-3.132-1.152-3.132-3c0-1.488,0.936-3.132,2.964-3.132
				c1.896,0,2.616,1.476,2.616,2.928c0,0.312-0.036,0.588-0.06,0.732L118.387,7.216z M120.535,5.968c0-0.432-0.192-1.188-1.02-1.188
				c-0.78,0-1.092,0.708-1.14,1.188H120.535z"/>
			<path fill="#0A50A1" d="M125.491,5.68V4.564h6.192V5.68H125.491z M125.491,8.164V7.048h6.192v1.116H125.491z"/>
			<path fill="#0A50A1" d="M28.904,15.992h1.824v6.552h3.216v1.536h-5.04V15.992z"/>
			<path fill="#0A50A1" d="M37.556,24.212c-1.716,0-3.036-1.128-3.036-3.024s1.248-3.108,3.144-3.108
				c1.788,0,2.988,1.236,2.988,3.012c0,2.136-1.524,3.12-3.084,3.12H37.556z M37.592,22.904c0.72,0,1.164-0.708,1.164-1.764
				c0-0.864-0.336-1.752-1.164-1.752c-0.864,0-1.2,0.888-1.2,1.764c0,0.996,0.42,1.752,1.188,1.752H37.592z"/>
			<path fill="#0A50A1" d="M42.932,18.212l0.48,2.412c0.108,0.6,0.228,1.248,0.324,1.92h0.036c0.108-0.66,0.288-1.332,0.42-1.908
				l0.624-2.424h1.44l0.588,2.34c0.168,0.672,0.324,1.32,0.432,1.992H47.3c0.084-0.66,0.204-1.332,0.348-2.004l0.492-2.328h1.788
				l-1.8,5.868h-1.704l-0.552-2.052c-0.156-0.576-0.264-1.104-0.384-1.836h-0.024c-0.108,0.732-0.228,1.284-0.372,1.824
				l-0.588,2.064h-1.716l-1.716-5.868H42.932z"/>
			<path fill="#0A50A1" d="M52.04,21.716c0.06,0.768,0.804,1.128,1.656,1.128c0.624,0,1.128-0.084,1.62-0.252l0.24,1.236
				c-0.6,0.252-1.332,0.372-2.124,0.372c-1.992,0-3.132-1.152-3.132-3c0-1.488,0.936-3.132,2.964-3.132
				c1.896,0,2.616,1.476,2.616,2.928c0,0.312-0.036,0.588-0.06,0.732L52.04,21.716z M54.188,20.468c0-0.432-0.192-1.188-1.02-1.188
				c-0.78,0-1.092,0.708-1.14,1.188H54.188z"/>
			<path fill="#0A50A1" d="M56.984,20.144c0-0.864-0.012-1.428-0.048-1.932h1.56l0.072,1.092h0.048
				c0.3-0.864,1.008-1.224,1.584-1.224c0.168,0,0.252,0.012,0.384,0.036v1.716c-0.156-0.024-0.3-0.048-0.504-0.048
				c-0.672,0-1.128,0.348-1.248,0.924c-0.024,0.12-0.036,0.252-0.036,0.408v2.964h-1.824L56.984,20.144z"/>
		</g>
		<g>
			<path fill="#FF0000" d="M209.82,8.364c-0.324,0.156-1.092,0.348-2.064,0.348c-2.796,0-4.236-1.752-4.236-4.068
				c0-2.76,1.968-4.284,4.416-4.284c0.948,0,1.668,0.192,1.992,0.36l-0.384,1.44c-0.36-0.156-0.876-0.3-1.536-0.3
				c-1.44,0-2.568,0.876-2.568,2.688c0,1.62,0.96,2.64,2.58,2.64c0.564,0,1.164-0.108,1.536-0.264L209.82,8.364z"/>
			<path fill="#FF0000" d="M210.912,0.06h1.824v8.52h-1.824V0.06z"/>
			<path fill="#FF0000" d="M216.9,8.712c-1.716,0-3.036-1.128-3.036-3.024s1.248-3.108,3.144-3.108c1.788,0,2.988,1.236,2.988,3.012
				c0,2.136-1.524,3.12-3.084,3.12H216.9z M216.936,7.404c0.72,0,1.164-0.708,1.164-1.764c0-0.864-0.336-1.752-1.164-1.752
				c-0.864,0-1.2,0.888-1.2,1.764c0,0.996,0.42,1.752,1.188,1.752H216.936z"/>
			<path fill="#FF0000" d="M225.564,8.436c-0.324,0.156-0.936,0.276-1.632,0.276c-1.896,0-3.108-1.164-3.108-3.012
				c0-1.716,1.176-3.12,3.36-3.12c0.48,0,1.008,0.084,1.392,0.228l-0.288,1.356c-0.216-0.096-0.54-0.18-1.02-0.18
				c-0.96,0-1.584,0.684-1.572,1.644c0,1.08,0.72,1.656,1.608,1.656c0.432,0,0.768-0.072,1.044-0.192L225.564,8.436z"/>
			<path fill="#FF0000" d="M228.396,5.196h0.024c0.132-0.252,0.276-0.492,0.42-0.708l1.188-1.776h2.196l-2.1,2.376l2.4,3.492h-2.244
				l-1.428-2.412l-0.456,0.588V8.58h-1.824V0.06h1.824V5.196z"/>
			<path fill="#FF0000" d="M234.383,2.712l0.48,2.412c0.108,0.6,0.228,1.248,0.324,1.92h0.036c0.108-0.66,0.288-1.332,0.42-1.908
				l0.624-2.424h1.44l0.588,2.34c0.168,0.672,0.324,1.32,0.432,1.992h0.024c0.084-0.66,0.204-1.332,0.348-2.004l0.492-2.328h1.788
				l-1.8,5.868h-1.704l-0.552-2.052c-0.156-0.576-0.264-1.104-0.384-1.836h-0.024c-0.108,0.732-0.228,1.284-0.372,1.824
				l-0.588,2.064h-1.716l-1.716-5.868H234.383z"/>
			<path fill="#FF0000" d="M243.131,1.944c-0.612,0-1.008-0.432-1.008-0.972c0-0.552,0.408-0.972,1.032-0.972s1.008,0.42,1.02,0.972
				c0,0.54-0.396,0.972-1.032,0.972H243.131z M242.231,8.58V2.712h1.824V8.58H242.231z"/>
			<path fill="#FF0000" d="M245.507,6.996c0.336,0.204,1.032,0.432,1.572,0.432c0.552,0,0.78-0.18,0.78-0.48
				c0-0.312-0.18-0.456-0.852-0.684c-1.224-0.396-1.692-1.068-1.68-1.752c0-1.104,0.936-1.932,2.388-1.932
				c0.684,0,1.284,0.168,1.644,0.348l-0.312,1.248c-0.264-0.132-0.78-0.324-1.272-0.324c-0.444,0-0.696,0.18-0.696,0.468
				c0,0.288,0.228,0.432,0.948,0.684c1.116,0.372,1.572,0.948,1.584,1.8c0,1.104-0.852,1.908-2.532,1.908
				c-0.768,0-1.452-0.18-1.896-0.42L245.507,6.996z"/>
			<path fill="#FF0000" d="M252.131,6.216c0.06,0.768,0.804,1.128,1.656,1.128c0.624,0,1.128-0.084,1.62-0.252l0.24,1.236
				c-0.6,0.252-1.332,0.372-2.124,0.372c-1.992,0-3.132-1.152-3.132-3c0-1.488,0.936-3.132,2.964-3.132
				c1.896,0,2.616,1.476,2.616,2.928c0,0.312-0.036,0.588-0.06,0.732L252.131,6.216z M254.279,4.968c0-0.432-0.192-1.188-1.02-1.188
				c-0.78,0-1.092,0.708-1.14,1.188H254.279z"/>
			<path fill="#FF0000" d="M259.235,4.68V3.564h6.192V4.68H259.235z M259.235,7.164V6.048h6.192v1.116H259.235z"/>
			<path fill="#FF0000" d="M205.728,14.992v3.12h3.012v-3.12h1.824v8.088h-1.824v-3.372h-3.012v3.372h-1.824v-8.088H205.728z"/>
			<path fill="#FF0000" d="M213,16.444c-0.612,0-1.008-0.432-1.008-0.972c0-0.552,0.408-0.972,1.032-0.972s1.008,0.42,1.02,0.972
				c0,0.54-0.396,0.972-1.032,0.972H213z M212.1,23.08v-5.868h1.824v5.868H212.1z"/>
			<path fill="#FF0000" d="M220.944,22.228c0,1.128-0.228,2.052-0.9,2.64c-0.636,0.552-1.512,0.72-2.376,0.72
				c-0.78,0-1.584-0.156-2.112-0.444l0.36-1.392c0.372,0.216,1.008,0.444,1.704,0.444c0.864,0,1.524-0.456,1.524-1.548v-0.372
				h-0.024c-0.348,0.48-0.912,0.756-1.584,0.756c-1.452,0-2.484-1.176-2.484-2.856c0-1.896,1.212-3.096,2.664-3.096
				c0.804,0,1.308,0.348,1.608,0.828h0.024l0.06-0.696h1.584c-0.024,0.384-0.048,0.876-0.048,1.752V22.228z M219.12,19.6
				c0-0.108-0.012-0.228-0.036-0.336c-0.132-0.48-0.48-0.804-0.984-0.804c-0.672,0-1.2,0.6-1.2,1.668c0,0.876,0.432,1.56,1.188,1.56
				c0.48,0,0.852-0.312,0.972-0.732c0.048-0.144,0.06-0.336,0.06-0.492V19.6z"/>
			<path fill="#FF0000" d="M222.408,14.56h1.824v3.36h0.024c0.192-0.264,0.432-0.468,0.72-0.612
				c0.276-0.144,0.612-0.228,0.948-0.228c1.164,0,2.052,0.804,2.052,2.58v3.42h-1.824v-3.228c0-0.768-0.264-1.296-0.948-1.296
				c-0.48,0-0.78,0.312-0.912,0.648c-0.048,0.108-0.06,0.264-0.06,0.396v3.48h-1.824V14.56z"/>
			<path fill="#FF0000" d="M230.844,20.716c0.06,0.768,0.804,1.128,1.656,1.128c0.624,0,1.128-0.084,1.62-0.252l0.24,1.236
				c-0.6,0.252-1.332,0.372-2.124,0.372c-1.992,0-3.132-1.152-3.132-3c0-1.488,0.936-3.132,2.964-3.132
				c1.896,0,2.616,1.476,2.616,2.928c0,0.312-0.036,0.588-0.06,0.732L230.844,20.716z M232.992,19.468
				c0-0.432-0.192-1.188-1.02-1.188c-0.78,0-1.092,0.708-1.14,1.188H232.992z"/>
			<path fill="#FF0000" d="M235.788,19.144c0-0.864-0.012-1.428-0.048-1.932h1.56l0.072,1.092h0.048
				c0.3-0.864,1.008-1.224,1.584-1.224c0.168,0,0.252,0.012,0.384,0.036v1.716c-0.156-0.024-0.3-0.048-0.504-0.048
				c-0.672,0-1.128,0.348-1.248,0.924c-0.024,0.12-0.036,0.252-0.036,0.408v2.964h-1.824L235.788,19.144z"/>
		</g>
		<path fill="none" stroke="#FF0000" stroke-dasharray="3 1 3 1 3 1" d="M254.1,85.58c38.281,1.697,55.438,47.897,23.638,71.03
			c-8.379,6.096-17.171,9.518-27.638,8.97"/>
		<path fill="none" stroke="#FF0000" stroke-dasharray="3 1 3 1 3 1" d="M251.1,165.58c1.629-1.607,3.967-3.56,6-5"/>
		<path fill="none" stroke="#FF0000" stroke-dasharray="3 1 3 1 3 1" d="M251.1,166.58c2.584,0.31,5.25,1.44,7,3"/>
		<g>
			<path fill="#FF0000" d="M304,121.492h4.356v0.876h-3.3v2.688h3.048v0.864h-3.048v3.66H304V121.492z"/>
			<path fill="#FF0000" d="M309.52,125.584c0-0.684-0.012-1.272-0.048-1.812h0.924l0.048,1.14h0.036
				c0.264-0.78,0.912-1.272,1.62-1.272c0.108,0,0.192,0.012,0.288,0.036v0.984c-0.12-0.012-0.228-0.024-0.372-0.024
				c-0.744,0-1.272,0.564-1.416,1.344c-0.024,0.156-0.036,0.324-0.036,0.504v3.096h-1.056L309.52,125.584z"/>
			<path fill="#FF0000" d="M315.724,129.712c-1.56,0-2.784-1.152-2.784-2.988c0-1.944,1.284-3.084,2.88-3.084
				c1.668,0,2.796,1.212,2.796,2.976c0,2.16-1.5,3.096-2.88,3.096H315.724z M315.76,128.92c1.008,0,1.764-0.948,1.764-2.268
				c0-0.984-0.492-2.22-1.74-2.22c-1.236,0-1.776,1.152-1.776,2.256c0,1.272,0.72,2.232,1.74,2.232H315.76z"/>
			<path fill="#FF0000" d="M319.948,125.344c0-0.612-0.024-1.092-0.048-1.572h0.924l0.048,0.936h0.036
				c0.324-0.552,0.864-1.068,1.836-1.068c0.78,0,1.38,0.48,1.632,1.164h0.024c0.18-0.336,0.42-0.576,0.66-0.756
				c0.348-0.264,0.72-0.408,1.272-0.408c0.78,0,1.92,0.504,1.92,2.52v3.42h-1.032v-3.288c0-1.128-0.42-1.788-1.26-1.788
				c-0.612,0-1.068,0.444-1.26,0.948c-0.048,0.156-0.084,0.348-0.084,0.528v3.6h-1.032v-3.48c0-0.936-0.408-1.596-1.212-1.596
				c-0.648,0-1.14,0.528-1.308,1.056c-0.06,0.156-0.084,0.336-0.084,0.516v3.504h-1.032V125.344z"/>
			<path fill="#FF0000" d="M332.524,121.6c0.648-0.096,1.404-0.168,2.232-0.168c1.5,0,2.568,0.336,3.276,0.996
				c0.732,0.66,1.152,1.608,1.152,2.916c0,1.32-0.42,2.4-1.164,3.144c-0.768,0.756-2.016,1.164-3.588,1.164
				c-0.756,0-1.368-0.024-1.908-0.096V121.6z M333.58,128.764c0.264,0.048,0.648,0.048,1.056,0.048
				c2.232,0.012,3.444-1.248,3.444-3.432c0.012-1.932-1.068-3.12-3.276-3.12c-0.54,0-0.948,0.048-1.224,0.108V128.764z"/>
			<path fill="#FF0000" d="M344.308,122.38v1.392h1.512v0.804h-1.512v3.132c0,0.72,0.204,1.128,0.792,1.128
				c0.288,0,0.456-0.024,0.612-0.072l0.048,0.804c-0.204,0.072-0.528,0.144-0.936,0.144c-0.492,0-0.888-0.168-1.14-0.444
				c-0.288-0.324-0.408-0.84-0.408-1.524v-3.168h-0.9v-0.804h0.9v-1.068L344.308,122.38z"/>
			<path fill="#FF0000" d="M349.3,129.712c-1.56,0-2.784-1.152-2.784-2.988c0-1.944,1.284-3.084,2.88-3.084
				c1.668,0,2.796,1.212,2.796,2.976c0,2.16-1.5,3.096-2.88,3.096H349.3z M349.336,128.92c1.008,0,1.764-0.948,1.764-2.268
				c0-0.984-0.492-2.22-1.74-2.22c-1.236,0-1.776,1.152-1.776,2.256c0,1.272,0.72,2.232,1.74,2.232H349.336z"/>
			<path fill="#FF0000" d="M360.28,125.788h-3.132v2.916h3.504v0.876h-4.56v-8.088h4.38v0.876h-3.324v2.556h3.132V125.788z"/>
			<path fill="#FF0000" d="M364.119,125.536v-0.72h6.192v0.72H364.119z M364.119,127.888v-0.72h6.192v0.72H364.119z"/>
			<path fill="#FF0000" d="M305.056,135.992v4.8c0,1.8,0.804,2.568,1.884,2.568c1.188,0,1.968-0.792,1.968-2.568v-4.8h1.056v4.728
				c0,2.484-1.308,3.492-3.06,3.492c-1.656,0-2.904-0.936-2.904-3.456v-4.764H305.056z"/>
			<path fill="#FF0000" d="M311.716,140.168c0-0.744-0.012-1.344-0.048-1.896h0.948l0.06,0.996h0.024
				c0.42-0.72,1.116-1.128,2.052-1.128c1.416,0,2.472,1.188,2.472,2.952c0,2.088-1.284,3.12-2.64,3.12
				c-0.78,0-1.44-0.336-1.788-0.912h-0.024v3.156h-1.056V140.168z M312.772,141.716c0,0.144,0.012,0.3,0.048,0.432
				c0.18,0.732,0.828,1.236,1.572,1.236c1.116,0,1.764-0.912,1.764-2.244c0-1.164-0.6-2.16-1.716-2.16
				c-0.72,0-1.404,0.504-1.608,1.296c-0.024,0.144-0.06,0.3-0.06,0.432V141.716z"/>
			<path fill="#FF0000" d="M323.452,144.212c-1.56,0-2.784-1.152-2.784-2.988c0-1.944,1.284-3.084,2.88-3.084
				c1.668,0,2.796,1.212,2.796,2.976c0,2.16-1.5,3.096-2.88,3.096H323.452z M323.488,143.42c1.008,0,1.764-0.948,1.764-2.268
				c0-0.984-0.492-2.22-1.74-2.22c-1.236,0-1.776,1.152-1.776,2.256c0,1.272,0.72,2.232,1.74,2.232H323.488z"/>
			<path fill="#FF0000" d="M327.676,139.844c0-0.612-0.012-1.092-0.048-1.572h0.936l0.06,0.948h0.024
				c0.288-0.54,0.96-1.08,1.92-1.08c0.804,0,2.052,0.48,2.052,2.472v3.468h-1.056v-3.348c0-0.936-0.348-1.728-1.344-1.728
				c-0.684,0-1.224,0.492-1.416,1.08c-0.048,0.132-0.072,0.324-0.072,0.492v3.504h-1.056V139.844z"/>
			<path fill="#FF0000" d="M334.936,141.356c0.024,1.428,0.924,2.016,1.98,2.016c0.756,0,1.224-0.132,1.608-0.288l0.192,0.744
				c-0.372,0.168-1.02,0.372-1.944,0.372c-1.776,0-2.856-1.188-2.856-2.928c0-1.764,1.044-3.144,2.736-3.144
				c1.896,0,2.388,1.668,2.388,2.736c0,0.216-0.012,0.384-0.036,0.504L334.936,141.356z M338.02,140.6
				c0.012-0.66-0.276-1.716-1.452-1.716c-1.08,0-1.536,0.984-1.62,1.716H338.02z"/>
			<path fill="#FF0000" d="M343.312,138.272l0.78,2.94c0.156,0.648,0.312,1.26,0.42,1.86h0.036c0.132-0.588,0.324-1.212,0.516-1.848
				l0.948-2.952h0.888l0.9,2.904c0.216,0.684,0.384,1.308,0.516,1.896h0.036c0.096-0.588,0.252-1.2,0.444-1.884l0.828-2.916h1.044
				l-1.872,5.808h-0.96l-0.888-2.772c-0.204-0.66-0.372-1.236-0.516-1.92h-0.024c-0.144,0.696-0.324,1.308-0.528,1.932l-0.936,2.76
				h-0.96l-1.752-5.808H343.312z"/>
			<path fill="#FF0000" d="M351.723,135.56h1.056v3.624h0.024c0.168-0.3,0.432-0.576,0.756-0.744c0.312-0.192,0.684-0.3,1.08-0.3
				c0.78,0,2.028,0.48,2.028,2.484v3.456h-1.056v-3.336c0-0.948-0.348-1.728-1.344-1.728c-0.684,0-1.212,0.48-1.416,1.056
				c-0.06,0.144-0.072,0.3-0.072,0.504v3.504h-1.056V135.56z"/>
			<path fill="#FF0000" d="M360.747,144.212c-1.56,0-2.784-1.152-2.784-2.988c0-1.944,1.284-3.084,2.88-3.084
				c1.668,0,2.796,1.212,2.796,2.976c0,2.16-1.5,3.096-2.88,3.096H360.747z M360.783,143.42c1.008,0,1.764-0.948,1.764-2.268
				c0-0.984-0.492-2.22-1.74-2.22c-1.236,0-1.776,1.152-1.776,2.256c0,1.272,0.72,2.232,1.74,2.232H360.783z"/>
			<path fill="#FF0000" d="M364.971,135.56h1.056v8.52h-1.056V135.56z"/>
			<path fill="#FF0000" d="M368.379,141.356c0.024,1.428,0.924,2.016,1.98,2.016c0.756,0,1.225-0.132,1.608-0.288l0.191,0.744
				c-0.372,0.168-1.02,0.372-1.944,0.372c-1.776,0-2.856-1.188-2.856-2.928c0-1.764,1.044-3.144,2.736-3.144
				c1.896,0,2.388,1.668,2.388,2.736c0,0.216-0.012,0.384-0.036,0.504L368.379,141.356z M371.463,140.6
				c0.012-0.66-0.276-1.716-1.452-1.716c-1.08,0-1.536,0.984-1.62,1.716H371.463z"/>
			<path fill="#FF0000" d="M376.191,143.012c0.324,0.192,0.876,0.408,1.404,0.408c0.756,0,1.115-0.372,1.115-0.864
				c0-0.504-0.3-0.78-1.067-1.068c-1.057-0.384-1.548-0.948-1.548-1.644c0-0.936,0.768-1.704,2.004-1.704
				c0.588,0,1.104,0.156,1.416,0.36l-0.252,0.756c-0.229-0.132-0.648-0.336-1.188-0.336c-0.624,0-0.96,0.36-0.96,0.792
				c0,0.492,0.336,0.708,1.092,0.996c0.996,0.372,1.524,0.876,1.524,1.752c0,1.032-0.804,1.752-2.16,1.752
				c-0.636,0-1.224-0.168-1.632-0.408L376.191,143.012z"/>
			<path fill="#FF0000" d="M382.359,136.88v1.392h1.512v0.804h-1.512v3.132c0,0.72,0.204,1.128,0.792,1.128
				c0.288,0,0.456-0.024,0.612-0.072l0.048,0.804c-0.204,0.072-0.528,0.144-0.937,0.144c-0.492,0-0.888-0.168-1.14-0.444
				c-0.288-0.324-0.408-0.84-0.408-1.524v-3.168h-0.9v-0.804h0.9v-1.068L382.359,136.88z"/>
			<path fill="#FF0000" d="M385.586,141.356c0.024,1.428,0.924,2.016,1.98,2.016c0.756,0,1.224-0.132,1.607-0.288l0.192,0.744
				c-0.372,0.168-1.02,0.372-1.944,0.372c-1.775,0-2.855-1.188-2.855-2.928c0-1.764,1.044-3.144,2.736-3.144
				c1.896,0,2.388,1.668,2.388,2.736c0,0.216-0.012,0.384-0.036,0.504L385.586,141.356z M388.67,140.6
				c0.013-0.66-0.275-1.716-1.452-1.716c-1.079,0-1.535,0.984-1.619,1.716H388.67z"/>
			<path fill="#FF0000" d="M390.999,140.168c0-0.744-0.012-1.344-0.048-1.896h0.948l0.06,0.996h0.024
				c0.42-0.72,1.115-1.128,2.052-1.128c1.416,0,2.472,1.188,2.472,2.952c0,2.088-1.284,3.12-2.64,3.12
				c-0.78,0-1.44-0.336-1.788-0.912h-0.024v3.156h-1.056V140.168z M392.054,141.716c0,0.144,0.013,0.3,0.049,0.432
				c0.18,0.732,0.827,1.236,1.571,1.236c1.116,0,1.765-0.912,1.765-2.244c0-1.164-0.601-2.16-1.717-2.16
				c-0.72,0-1.403,0.504-1.607,1.296c-0.024,0.144-0.061,0.3-0.061,0.432V141.716z"/>
		</g>
		<g>
			<path fill="#0A50A1" d="M0,203.492h4.356v0.876h-3.3v2.688h3.048v0.864H1.056v3.66H0V203.492z"/>
			<path fill="#0A50A1" d="M5.52,207.584c0-0.684-0.012-1.272-0.048-1.812h0.924l0.048,1.14H6.48c0.264-0.78,0.912-1.272,1.62-1.272
				c0.108,0,0.192,0.012,0.288,0.036v0.984c-0.12-0.012-0.228-0.024-0.372-0.024c-0.744,0-1.272,0.564-1.416,1.344
				c-0.024,0.156-0.036,0.324-0.036,0.504v3.096H5.508L5.52,207.584z"/>
			<path fill="#0A50A1" d="M11.724,211.712c-1.56,0-2.784-1.152-2.784-2.988c0-1.944,1.284-3.084,2.88-3.084
				c1.668,0,2.796,1.212,2.796,2.976c0,2.16-1.5,3.096-2.88,3.096H11.724z M11.76,210.92c1.008,0,1.764-0.948,1.764-2.268
				c0-0.984-0.492-2.22-1.74-2.22c-1.236,0-1.776,1.152-1.776,2.256c0,1.272,0.72,2.232,1.74,2.232H11.76z"/>
			<path fill="#0A50A1" d="M15.948,207.344c0-0.612-0.024-1.092-0.048-1.572h0.924l0.048,0.936h0.036
				c0.324-0.552,0.864-1.068,1.836-1.068c0.78,0,1.38,0.48,1.632,1.164H20.4c0.18-0.336,0.42-0.576,0.66-0.756
				c0.348-0.264,0.72-0.408,1.272-0.408c0.78,0,1.92,0.504,1.92,2.52v3.42H23.22v-3.288c0-1.128-0.42-1.788-1.26-1.788
				c-0.612,0-1.068,0.444-1.26,0.948c-0.048,0.156-0.084,0.348-0.084,0.528v3.6h-1.032v-3.48c0-0.936-0.408-1.596-1.212-1.596
				c-0.648,0-1.14,0.528-1.308,1.056c-0.06,0.156-0.084,0.336-0.084,0.516v3.504h-1.032V207.344z"/>
			<path fill="#0A50A1" d="M28.536,203.612c0.456-0.108,1.188-0.18,1.908-0.18c1.044,0,1.716,0.18,2.208,0.588
				c0.42,0.312,0.684,0.792,0.684,1.428c0,0.792-0.528,1.476-1.368,1.776v0.036c0.768,0.18,1.668,0.816,1.668,2.016
				c0,0.696-0.276,1.224-0.696,1.62c-0.552,0.516-1.464,0.756-2.784,0.756c-0.72,0-1.272-0.048-1.62-0.096V203.612z M29.58,206.924
				h0.948c1.092,0,1.74-0.588,1.74-1.368c0-0.936-0.708-1.32-1.764-1.32c-0.48,0-0.756,0.036-0.924,0.072V206.924z M29.58,210.788
				c0.216,0.036,0.504,0.048,0.876,0.048c1.08,0,2.076-0.396,2.076-1.572c0-1.092-0.948-1.56-2.088-1.56H29.58V210.788z"/>
			<path fill="#0A50A1" d="M38.82,204.38v1.392h1.512v0.804H38.82v3.132c0,0.72,0.204,1.128,0.792,1.128
				c0.288,0,0.456-0.024,0.612-0.072l0.048,0.804c-0.204,0.072-0.528,0.144-0.936,0.144c-0.492,0-0.888-0.168-1.14-0.444
				c-0.288-0.324-0.408-0.84-0.408-1.524v-3.168h-0.9v-0.804h0.9v-1.068L38.82,204.38z"/>
			<path fill="#0A50A1" d="M43.812,211.712c-1.56,0-2.784-1.152-2.784-2.988c0-1.944,1.284-3.084,2.88-3.084
				c1.668,0,2.796,1.212,2.796,2.976c0,2.16-1.5,3.096-2.88,3.096H43.812z M43.848,210.92c1.008,0,1.764-0.948,1.764-2.268
				c0-0.984-0.492-2.22-1.74-2.22c-1.236,0-1.776,1.152-1.776,2.256c0,1.272,0.72,2.232,1.74,2.232H43.848z"/>
			<path fill="#0A50A1" d="M56.784,211.22c-0.468,0.18-1.404,0.444-2.496,0.444c-1.224,0-2.232-0.312-3.024-1.068
				c-0.696-0.672-1.128-1.752-1.128-3.012c0-2.412,1.668-4.176,4.38-4.176c0.936,0,1.68,0.204,2.028,0.372l-0.264,0.852
				c-0.432-0.204-0.972-0.348-1.788-0.348c-1.968,0-3.252,1.224-3.252,3.252c0,2.052,1.224,3.264,3.12,3.264
				c0.684,0,1.152-0.096,1.392-0.216v-2.412H54.12v-0.84h2.664V211.22z"/>
			<path fill="#0A50A1" d="M60.479,207.536v-0.72h6.192v0.72H60.479z M60.479,209.888v-0.72h6.192v0.72H60.479z"/>
			<path fill="#0A50A1" d="M0,218.1c0.648-0.096,1.404-0.168,2.232-0.168c1.5,0,2.568,0.336,3.276,0.996
				c0.732,0.66,1.152,1.608,1.152,2.916c0,1.32-0.42,2.4-1.164,3.144c-0.768,0.756-2.016,1.164-3.588,1.164
				c-0.756,0-1.368-0.024-1.908-0.096V218.1z M1.056,225.264c0.264,0.048,0.648,0.048,1.056,0.048
				c2.232,0.012,3.444-1.248,3.444-3.432c0.012-1.932-1.068-3.12-3.276-3.12c-0.54,0-0.948,0.048-1.224,0.108V225.264z"/>
			<path fill="#0A50A1" d="M10.404,226.212c-1.56,0-2.784-1.152-2.784-2.988c0-1.944,1.284-3.084,2.88-3.084
				c1.668,0,2.796,1.212,2.796,2.976c0,2.16-1.5,3.096-2.88,3.096H10.404z M10.44,225.42c1.008,0,1.764-0.948,1.764-2.268
				c0-0.984-0.492-2.22-1.74-2.22c-1.236,0-1.776,1.152-1.776,2.256c0,1.272,0.72,2.232,1.74,2.232H10.44z"/>
			<path fill="#0A50A1" d="M14.964,220.272l0.78,2.94c0.156,0.648,0.312,1.26,0.42,1.86H16.2c0.132-0.588,0.324-1.212,0.516-1.848
				l0.948-2.952h0.888l0.9,2.904c0.216,0.684,0.384,1.308,0.516,1.896h0.036c0.096-0.588,0.252-1.2,0.444-1.884l0.828-2.916h1.044
				l-1.872,5.808h-0.96l-0.888-2.772c-0.204-0.66-0.372-1.236-0.516-1.92H18.06c-0.144,0.696-0.324,1.308-0.528,1.932l-0.936,2.76
				h-0.96l-1.752-5.808H14.964z"/>
			<path fill="#0A50A1" d="M23.376,221.844c0-0.612-0.012-1.092-0.048-1.572h0.936l0.06,0.948h0.024c0.288-0.54,0.96-1.08,1.92-1.08
				c0.804,0,2.052,0.48,2.052,2.472v3.468h-1.056v-3.348c0-0.936-0.348-1.728-1.344-1.728c-0.684,0-1.224,0.492-1.416,1.08
				c-0.048,0.132-0.072,0.324-0.072,0.492v3.504h-1.056V221.844z"/>
			<path fill="#0A50A1" d="M36.672,224.688c0,0.504,0.024,0.996,0.084,1.392h-0.948l-0.096-0.732h-0.036
				c-0.312,0.456-0.948,0.864-1.776,0.864c-1.176,0-1.776-0.828-1.776-1.668c0-1.404,1.248-2.172,3.492-2.16v-0.12
				c0-0.48-0.132-1.356-1.32-1.344c-0.552,0-1.116,0.156-1.524,0.432l-0.24-0.708c0.48-0.3,1.188-0.504,1.92-0.504
				c1.788,0,2.22,1.212,2.22,2.376V224.688z M35.64,223.116c-1.152-0.024-2.46,0.18-2.46,1.308c0,0.696,0.456,1.008,0.984,1.008
				c0.768,0,1.26-0.48,1.428-0.972c0.036-0.108,0.048-0.228,0.048-0.336V223.116z"/>
			<path fill="#0A50A1" d="M40.908,221.844c0-0.612-0.024-1.092-0.048-1.572h0.924l0.048,0.936h0.036
				c0.324-0.552,0.864-1.068,1.836-1.068c0.78,0,1.38,0.48,1.632,1.164h0.024c0.18-0.336,0.42-0.576,0.66-0.756
				c0.348-0.264,0.72-0.408,1.272-0.408c0.78,0,1.92,0.504,1.92,2.52v3.42H48.18v-3.288c0-1.128-0.42-1.788-1.26-1.788
				c-0.612,0-1.068,0.444-1.26,0.948c-0.048,0.156-0.084,0.348-0.084,0.528v3.6h-1.032v-3.48c0-0.936-0.408-1.596-1.212-1.596
				c-0.648,0-1.14,0.528-1.308,1.056c-0.06,0.156-0.084,0.336-0.084,0.516v3.504h-1.032V221.844z"/>
			<path fill="#0A50A1" d="M55.007,224.688c0,0.504,0.024,0.996,0.084,1.392h-0.948l-0.096-0.732h-0.036
				c-0.312,0.456-0.948,0.864-1.776,0.864c-1.176,0-1.776-0.828-1.776-1.668c0-1.404,1.248-2.172,3.492-2.16v-0.12
				c0-0.48-0.132-1.356-1.32-1.344c-0.552,0-1.116,0.156-1.524,0.432l-0.24-0.708c0.48-0.3,1.188-0.504,1.92-0.504
				c1.788,0,2.22,1.212,2.22,2.376V224.688z M53.976,223.116c-1.152-0.024-2.46,0.18-2.46,1.308c0,0.696,0.456,1.008,0.984,1.008
				c0.768,0,1.26-0.48,1.428-0.972c0.036-0.108,0.048-0.228,0.048-0.336V223.116z"/>
			<path fill="#0A50A1" d="M55.271,227.784c0.492-0.036,0.9-0.168,1.152-0.444c0.288-0.324,0.408-0.792,0.408-2.184v-4.884h1.056
				v5.292c0,1.128-0.18,1.86-0.696,2.388c-0.468,0.468-1.236,0.66-1.8,0.66L55.271,227.784z M57.335,219.204
				c-0.396,0-0.66-0.312-0.66-0.684s0.276-0.672,0.684-0.672c0.408,0,0.672,0.3,0.672,0.672s-0.252,0.684-0.684,0.684H57.335z"/>
			<path fill="#0A50A1" d="M61.979,226.212c-1.56,0-2.784-1.152-2.784-2.988c0-1.944,1.284-3.084,2.88-3.084
				c1.668,0,2.796,1.212,2.796,2.976c0,2.16-1.5,3.096-2.88,3.096H61.979z M62.016,225.42c1.008,0,1.764-0.948,1.764-2.268
				c0-0.984-0.492-2.22-1.74-2.22c-1.236,0-1.776,1.152-1.776,2.256c0,1.272,0.72,2.232,1.74,2.232H62.016z"/>
			<path fill="#0A50A1" d="M66.215,222.084c0-0.684-0.012-1.272-0.048-1.812h0.924l0.048,1.14h0.036
				c0.264-0.78,0.912-1.272,1.62-1.272c0.108,0,0.192,0.012,0.288,0.036v0.984c-0.12-0.012-0.228-0.024-0.372-0.024
				c-0.744,0-1.272,0.564-1.416,1.344c-0.024,0.156-0.036,0.324-0.036,0.504v3.096h-1.056L66.215,222.084z"/>
			<path fill="#0A50A1" d="M73.943,218.88v1.392h1.512v0.804h-1.512v3.132c0,0.72,0.204,1.128,0.792,1.128
				c0.288,0,0.456-0.024,0.612-0.072l0.048,0.804c-0.204,0.072-0.528,0.144-0.936,0.144c-0.492,0-0.888-0.168-1.14-0.444
				c-0.288-0.324-0.408-0.84-0.408-1.524v-3.168h-0.9v-0.804h0.9v-1.068L73.943,218.88z"/>
			<path fill="#0A50A1" d="M76.643,217.56h1.056v3.624h0.024c0.168-0.3,0.432-0.576,0.756-0.744c0.312-0.192,0.684-0.3,1.08-0.3
				c0.78,0,2.028,0.48,2.028,2.484v3.456h-1.056v-3.336c0-0.948-0.348-1.728-1.344-1.728c-0.684,0-1.212,0.48-1.416,1.056
				c-0.06,0.144-0.072,0.3-0.072,0.504v3.504h-1.056V217.56z"/>
			<path fill="#0A50A1" d="M83.807,219.204c-0.396,0-0.66-0.312-0.66-0.684s0.276-0.672,0.684-0.672c0.408,0,0.672,0.3,0.672,0.672
				s-0.264,0.684-0.684,0.684H83.807z M83.303,226.08v-5.808h1.056v5.808H83.303z"/>
			<path fill="#0A50A1" d="M86.123,222.084c0-0.684-0.012-1.272-0.048-1.812h0.924l0.048,1.14h0.036
				c0.264-0.78,0.912-1.272,1.62-1.272c0.108,0,0.192,0.012,0.288,0.036v0.984c-0.12-0.012-0.228-0.024-0.372-0.024
				c-0.744,0-1.272,0.564-1.416,1.344c-0.024,0.156-0.036,0.324-0.036,0.504v3.096h-1.056L86.123,222.084z"/>
			<path fill="#0A50A1" d="M94.979,217.56v7.02c0,0.516,0.012,1.104,0.048,1.5h-0.948l-0.048-1.008h-0.024
				c-0.324,0.648-1.02,1.14-1.968,1.14c-1.404,0-2.496-1.188-2.496-2.952c-0.012-1.944,1.2-3.12,2.604-3.12
				c0.9,0,1.5,0.42,1.752,0.876h0.024v-3.456H94.979z M93.923,222.636c0-0.144-0.012-0.312-0.048-0.456
				c-0.156-0.66-0.732-1.212-1.524-1.212c-1.092,0-1.74,0.96-1.74,2.232c0,1.188,0.588,2.16,1.716,2.16
				c0.708,0,1.356-0.48,1.548-1.26c0.036-0.144,0.048-0.288,0.048-0.456V222.636z"/>
		</g>
		<path fill="none" stroke="#0A50A1" d="M92.1,42.58C35.223,65.018,7.478,142.809,53.974,190.313
			c10.638,10.869,22.27,10.122,36.126,12.267"/>
		<path fill="none" stroke="#0A50A1" d="M81.1,208.58c2.69-0.97,5.337-2.869,7-5"/>
		<path fill="none" stroke="#0A50A1" d="M82.1,195.58c2.723,1.824,5.518,4.653,8,7"/>
		<path fill="#FFFFFF" d="M164.1,33.58c0,5.799-4.925,10.5-11,10.5s-11-4.701-11-10.5s4.925-10.5,11-10.5S164.1,27.781,164.1,33.58z
			"/>
		<path fill="none" d="M250.1,166.58c0,5.799-4.925,10.5-11,10.5s-11-4.701-11-10.5s4.925-10.5,11-10.5S250.1,160.781,250.1,166.58z
			"/>
		<path fill="none" d="M254.1,80.58c0,5.799-4.925,10.5-11,10.5s-11-4.701-11-10.5s4.925-10.5,11-10.5S254.1,74.781,254.1,80.58z"/>
		<path fill="#FFFFFF" d="M222.1,47.58c0,8.008-7.387,14.5-16.5,14.5s-16.5-6.492-16.5-14.5s7.387-14.5,16.5-14.5
			S222.1,39.572,222.1,47.58z"/>
		<g>
			<path d="M154.82,38.364c-0.324,0.156-1.092,0.348-2.064,0.348c-2.796,0-4.236-1.752-4.236-4.068c0-2.76,1.968-4.284,4.416-4.284
				c0.948,0,1.668,0.192,1.992,0.36l-0.384,1.44c-0.36-0.156-0.876-0.3-1.536-0.3c-1.44,0-2.568,0.876-2.568,2.688
				c0,1.62,0.96,2.64,2.58,2.64c0.564,0,1.164-0.108,1.536-0.264L154.82,38.364z"/>
		</g>
		<g>
			<path d="M198.82,51.864c-0.324,0.156-1.092,0.348-2.064,0.348c-2.796,0-4.236-1.752-4.236-4.068c0-2.76,1.968-4.284,4.416-4.284
				c0.948,0,1.668,0.192,1.992,0.36l-0.384,1.44c-0.36-0.156-0.876-0.3-1.536-0.3c-1.44,0-2.568,0.876-2.568,2.688
				c0,1.62,0.96,2.64,2.58,2.64c0.564,0,1.164-0.108,1.536-0.264L198.82,51.864z"/>
			<path d="M206.704,52.56l2.568-8.7h1.212l-2.568,8.7H206.704z"/>
			<path d="M213.7,44.112c0.672-0.12,1.548-0.18,2.46-0.18c1.548,0,2.556,0.252,3.324,0.84c0.84,0.624,1.368,1.632,1.368,3.072
				c0,1.548-0.564,2.616-1.332,3.276c-0.852,0.708-2.16,1.044-3.744,1.044c-0.948,0-1.632-0.06-2.076-0.12V44.112z M215.523,50.7
				c0.156,0.036,0.42,0.036,0.636,0.036c1.668,0.012,2.76-0.9,2.76-2.832c0-1.74-0.984-2.568-2.568-2.568
				c-0.396,0-0.672,0.036-0.828,0.072V50.7z"/>
		</g>
		<g>
			<path d="M201.132,36.836v-3.912h0.696v3.672l2.352-0.768v-3.504h0.696v3.288l0.936-0.312v2.496l-0.936,0.312v3.552l0.936-0.288
				v2.472l-0.936,0.312v3.912h-0.696v-3.696l-2.352,0.768v3.552h-0.696V45.38l-1.032,0.336V43.22l1.032-0.336v-3.576l-1.032,0.336
				v-2.472L201.132,36.836z M201.828,39.092v3.576l2.352-0.768v-3.576L201.828,39.092z"/>
		</g>
		<g>
			<path d="M223.724,41.332c0,0.216,0,1.536,0,1.536c0.912-0.816,1.416-0.984,2.424-1.008c1.2-0.024,1.968,1.176,1.992,2.136
				c0.024,0.504-0.12,1.032-0.312,1.44c-0.216,0.528-0.792,0.936-1.176,1.32c-0.432,0.432-3.552,2.568-3.552,2.616V35.188h0.624
				C223.724,35.188,223.748,38.164,223.724,41.332z M223.988,43.708c-0.312,0.6-0.264,1.632-0.264,2.376v2.064
				c0,0.024,0.864-0.72,1.344-1.176c0.432-0.408,0.768-0.864,0.936-1.584c0.192-0.72,0.12-1.488-0.336-1.992
				C225.356,43.036,224.492,42.748,223.988,43.708z"/>
		</g>
		<path fill="#FFFFFF" d="M261.1,122.33c0,8.146-4.925,14.75-11,14.75s-11-6.604-11-14.75s4.925-14.75,11-14.75
			S261.1,114.184,261.1,122.33z"/>
		<g>
			<path d="M237.892,123.112c0.672-0.12,1.548-0.18,2.46-0.18c1.548,0,2.556,0.252,3.324,0.84c0.84,0.624,1.368,1.632,1.368,3.072
				c0,1.548-0.564,2.616-1.332,3.276c-0.852,0.708-2.16,1.044-3.744,1.044c-0.948,0-1.632-0.06-2.076-0.12V123.112z M239.716,129.7
				c0.156,0.036,0.42,0.036,0.636,0.036c1.668,0.012,2.76-0.9,2.76-2.832c0-1.74-0.984-2.568-2.568-2.568
				c-0.396,0-0.672,0.036-0.828,0.072V129.7z"/>
			<path d="M252.916,131.56l2.568-8.7h1.212l-2.568,8.7H252.916z"/>
			<path d="M264.724,127.66h-2.976v1.92h3.324v1.5h-5.148v-8.088h4.98v1.5h-3.156v1.68h2.976V127.66z"/>
		</g>
		<g>
			<path d="M247.132,116.836v-3.912h0.696v3.672l2.352-0.768v-3.504h0.696v3.288l0.936-0.312v2.496l-0.936,0.312v3.552l0.936-0.288
				v2.472l-0.936,0.312v3.912h-0.696v-3.696l-2.352,0.768v3.552h-0.696v-3.312l-1.032,0.336v-2.496l1.032-0.336v-3.576l-1.032,0.336
				v-2.472L247.132,116.836z M247.828,119.092v3.576l2.352-0.768v-3.576L247.828,119.092z"/>
		</g>
		<g>
			<path d="M268.724,120.332c0,0.216,0,1.536,0,1.536c0.912-0.816,1.416-0.984,2.424-1.008c1.2-0.024,1.968,1.176,1.992,2.136
				c0.024,0.504-0.12,1.032-0.312,1.44c-0.216,0.528-0.792,0.936-1.176,1.32c-0.432,0.432-3.552,2.568-3.552,2.616v-14.184h0.624
				C268.724,114.188,268.748,117.164,268.724,120.332z M268.988,122.708c-0.312,0.6-0.264,1.632-0.264,2.376v2.064
				c0,0.024,0.864-0.72,1.344-1.176c0.432-0.408,0.768-0.864,0.936-1.584c0.192-0.72,0.12-1.488-0.336-1.992
				C270.356,122.036,269.492,121.748,268.988,122.708z"/>
		</g>
		<path fill="#FFFFFF" d="M251.1,79.58c0,5.799-4.925,10.5-11,10.5s-11-4.701-11-10.5s4.925-10.5,11-10.5S251.1,73.781,251.1,79.58z
			"/>
		<g>
			<path d="M235.892,76.612c0.672-0.12,1.548-0.18,2.46-0.18c1.548,0,2.556,0.252,3.324,0.84c0.84,0.624,1.368,1.632,1.368,3.072
				c0,1.548-0.564,2.616-1.332,3.276c-0.852,0.708-2.16,1.044-3.744,1.044c-0.948,0-1.632-0.06-2.076-0.12V76.612z M237.716,83.2
				c0.156,0.036,0.42,0.036,0.636,0.036c1.668,0.012,2.76-0.9,2.76-2.832c0-1.74-0.984-2.568-2.568-2.568
				c-0.396,0-0.672,0.036-0.828,0.072V83.2z"/>
		</g>
		<path fill="#FFFFFF" d="M246.1,167.58c0,5.799-4.925,10.5-11,10.5s-11-4.701-11-10.5s4.925-10.5,11-10.5
			S246.1,161.781,246.1,167.58z"/>
		<g>
			<path d="M239.704,169.16h-2.976v1.92h3.324v1.5h-5.148v-8.088h4.98v1.5h-3.156v1.68h2.976V169.16z"/>
		</g>
		<path fill="#FFFFFF" d="M220.1,197.58c0,5.799-4.925,10.5-11,10.5s-11-4.701-11-10.5s4.925-10.5,11-10.5
			S220.1,191.781,220.1,197.58z"/>
		<g>
			<path d="M206.904,191.492h4.932v1.5h-3.108v1.848h2.904v1.488h-2.904v3.252h-1.824V191.492z"/>
		</g>
		<path fill="#FFFFFF" d="M115.1,197.58c0,5.799-4.925,10.5-11,10.5s-11-4.701-11-10.5s4.925-10.5,11-10.5
			S115.1,191.781,115.1,197.58z"/>
		<g>
			<path d="M107.648,201.208c-0.564,0.192-1.632,0.456-2.7,0.456c-1.476,0-2.544-0.372-3.288-1.08
				c-0.732-0.708-1.14-1.764-1.14-2.952c0.012-2.688,1.968-4.224,4.62-4.224c1.044,0,1.848,0.204,2.244,0.384L107,195.268
				c-0.444-0.204-0.984-0.348-1.872-0.348c-1.524,0-2.688,0.864-2.688,2.616c0,1.68,1.056,2.652,2.556,2.652
				c0.408,0,0.744-0.048,0.888-0.108v-1.704h-1.248v-1.428h3.012V201.208z"/>
		</g>
		<path fill="#FFFFFF" d="M84.1,169.58c0,5.799-4.925,10.5-11,10.5s-11-4.701-11-10.5s4.925-10.5,11-10.5S84.1,163.781,84.1,169.58z
			"/>
		<g>
			<path d="M67.648,173.708c-0.564,0.192-1.632,0.456-2.7,0.456c-1.476,0-2.544-0.372-3.288-1.08
				c-0.732-0.708-1.14-1.764-1.14-2.952c0.012-2.688,1.968-4.224,4.62-4.224c1.044,0,1.848,0.204,2.244,0.384L67,167.768
				c-0.444-0.204-0.984-0.348-1.872-0.348c-1.524,0-2.688,0.864-2.688,2.616c0,1.68,1.056,2.652,2.556,2.652
				c0.408,0,0.744-0.048,0.888-0.108v-1.704h-1.248v-1.428h3.012V173.708z"/>
			<path d="M75.748,174.56l2.568-8.7h1.212l-2.568,8.7H75.748z"/>
			<path d="M84.616,172.004l-0.564,2.076h-1.896l2.472-8.088h2.388l2.52,8.088h-1.968l-0.624-2.076H84.616z M86.668,170.636
				l-0.504-1.716c-0.132-0.48-0.276-1.092-0.396-1.56h-0.036c-0.108,0.48-0.24,1.092-0.36,1.56l-0.492,1.716H86.668z"/>
		</g>
		<g>
			<path d="M71.132,159.836v-3.912h0.696v3.672l2.352-0.768v-3.504h0.696v3.288l0.936-0.312v2.496l-0.936,0.312v3.552l0.936-0.288
				v2.472l-0.936,0.312v3.912H74.18v-3.696l-2.352,0.768v3.552h-0.696v-3.312l-1.032,0.336v-2.496l1.032-0.336v-3.576l-1.032,0.336
				v-2.472L71.132,159.836z M71.828,162.092v3.576l2.352-0.768v-3.576L71.828,162.092z"/>
		</g>
		<g>
			<path d="M91.724,163.332c0,0.216,0,1.536,0,1.536c0.912-0.816,1.416-0.984,2.424-1.008c1.2-0.024,1.968,1.176,1.992,2.136
				c0.024,0.504-0.12,1.032-0.312,1.44c-0.216,0.528-0.792,0.936-1.176,1.32c-0.432,0.432-3.552,2.568-3.552,2.616v-14.184h0.624
				C91.724,157.188,91.748,160.164,91.724,163.332z M91.988,165.708c-0.312,0.6-0.264,1.632-0.264,2.376v2.064
				c0,0.024,0.864-0.72,1.344-1.176c0.432-0.408,0.768-0.864,0.936-1.584c0.192-0.72,0.12-1.488-0.336-1.992
				C93.356,165.036,92.492,164.748,91.988,165.708z"/>
		</g>
		<path fill="#FFFFFF" d="M78.1,82.58c0,5.799-4.925,10.5-11,10.5s-11-4.701-11-10.5s4.925-10.5,11-10.5S78.1,76.781,78.1,82.58z"/>
		<g>
			<path d="M56.764,85.004L56.2,87.08h-1.896l2.472-8.088h2.388l2.52,8.088h-1.968l-0.624-2.076H56.764z M58.816,83.636
				l-0.504-1.716c-0.132-0.48-0.276-1.092-0.396-1.56H57.88c-0.108,0.48-0.24,1.092-0.36,1.56l-0.492,1.716H58.816z"/>
			<path d="M69.436,87.56l2.568-8.7h1.212l-2.568,8.7H69.436z"/>
			<path d="M76.432,79.112c0.48-0.096,1.44-0.18,2.364-0.18c1.116,0,1.8,0.108,2.388,0.456c0.564,0.3,0.96,0.852,0.96,1.596
				c0,0.708-0.42,1.368-1.32,1.716v0.024c0.924,0.24,1.608,0.948,1.608,1.992c0,0.744-0.336,1.32-0.84,1.716
				c-0.588,0.468-1.572,0.732-3.18,0.732c-0.9,0-1.572-0.06-1.98-0.12V79.112z M78.244,82.196h0.6c0.972,0,1.476-0.396,1.476-0.996
				c0-0.612-0.468-0.936-1.296-0.936c-0.408,0-0.636,0.024-0.78,0.06V82.196z M78.244,85.784c0.18,0.036,0.396,0.036,0.708,0.036
				c0.828,0,1.56-0.324,1.56-1.176c0-0.816-0.732-1.14-1.644-1.14h-0.624V85.784z"/>
		</g>
		<g>
			<path d="M63.132,72.836v-3.912h0.696v3.672l2.352-0.768v-3.504h0.696v3.288l0.936-0.312v2.496l-0.936,0.312v3.552l0.936-0.288
				v2.472l-0.936,0.312v3.912H66.18v-3.696l-2.352,0.768v3.552h-0.696V81.38L62.1,81.716V79.22l1.032-0.336v-3.576L62.1,75.644
				v-2.472L63.132,72.836z M63.828,75.092v3.576L66.18,77.9v-3.576L63.828,75.092z"/>
		</g>
		<g>
			<path d="M85.724,76.332c0,0.216,0,1.536,0,1.536c0.912-0.816,1.416-0.984,2.424-1.008c1.2-0.024,1.968,1.176,1.992,2.136
				c0.024,0.504-0.12,1.032-0.312,1.44c-0.216,0.528-0.792,0.936-1.176,1.32c-0.432,0.432-3.552,2.568-3.552,2.616V70.188h0.624
				C85.724,70.188,85.748,73.164,85.724,76.332z M85.988,78.708c-0.312,0.6-0.264,1.632-0.264,2.376v2.064
				c0,0.024,0.864-0.72,1.344-1.176c0.432-0.408,0.768-0.864,0.936-1.584c0.192-0.72,0.12-1.488-0.336-1.992
				C87.356,78.036,86.492,77.748,85.988,78.708z"/>
		</g>
		<path fill="#FFFFFF" d="M117.1,48.58c0,5.799-4.925,10.5-11,10.5s-11-4.701-11-10.5s4.925-10.5,11-10.5S117.1,42.781,117.1,48.58z
			"/>
		<g>
			<path d="M101.892,45.612c0.48-0.096,1.44-0.18,2.364-0.18c1.116,0,1.8,0.108,2.388,0.456c0.564,0.3,0.96,0.852,0.96,1.596
				c0,0.708-0.42,1.368-1.32,1.716v0.024c0.924,0.24,1.608,0.948,1.608,1.992c0,0.744-0.336,1.32-0.84,1.716
				c-0.588,0.468-1.572,0.732-3.18,0.732c-0.9,0-1.572-0.06-1.98-0.12V45.612z M103.704,48.696h0.6c0.972,0,1.476-0.396,1.476-0.996
				c0-0.612-0.468-0.936-1.296-0.936c-0.408,0-0.636,0.024-0.78,0.06V48.696z M103.704,52.284c0.18,0.036,0.396,0.036,0.708,0.036
				c0.828,0,1.56-0.324,1.56-1.176c0-0.816-0.732-1.14-1.644-1.14h-0.624V52.284z"/>
		</g>
		<path fill="#FFFFFF" d="M69.1,122.58c0,5.799-4.925,10.5-11,10.5s-11-4.701-11-10.5s4.925-10.5,11-10.5S69.1,116.781,69.1,122.58z
			"/>
		<g>
			<path d="M55.764,125.504L55.2,127.58h-1.896l2.472-8.088h2.388l2.52,8.088h-1.968l-0.624-2.076H55.764z M57.816,124.136
				l-0.504-1.716c-0.132-0.48-0.276-1.092-0.396-1.56H56.88c-0.108,0.48-0.24,1.092-0.36,1.56l-0.492,1.716H57.816z"/>
		</g>
		<path fill="#FFFFFF" d="M178.1,210.58c0,5.799-9.626,10.5-21.5,10.5s-21.5-4.701-21.5-10.5s9.626-10.5,21.5-10.5
			S178.1,204.781,178.1,210.58z"/>
		<g>
			<path d="M138.904,209.992h4.932v1.5h-3.108v1.848h2.904v1.488h-2.904v3.252h-1.824V209.992z"/>
			<path d="M151.888,218.56l2.568-8.7h1.212l-2.568,8.7H151.888z"/>
			<path d="M165.64,217.708c-0.564,0.192-1.632,0.456-2.7,0.456c-1.476,0-2.544-0.372-3.288-1.08
				c-0.732-0.708-1.14-1.764-1.14-2.952c0.012-2.688,1.968-4.224,4.62-4.224c1.044,0,1.848,0.204,2.244,0.384l-0.384,1.476
				c-0.444-0.204-0.984-0.348-1.872-0.348c-1.524,0-2.688,0.864-2.688,2.616c0,1.68,1.056,2.652,2.556,2.652
				c0.408,0,0.744-0.048,0.888-0.108v-1.704h-1.248v-1.428h3.012V217.708z"/>
		</g>
		<g>
			<path d="M147.132,205.336v-3.912h0.696v3.672l2.352-0.768v-3.504h0.696v3.288l0.936-0.312v2.496l-0.936,0.312v3.552l0.936-0.288
				v2.472l-0.936,0.312v3.912h-0.696v-3.696l-2.352,0.768v3.552h-0.696v-3.312l-1.032,0.336v-2.496l1.032-0.336v-3.576l-1.032,0.336
				v-2.472L147.132,205.336z M147.828,207.592v3.576l2.352-0.768v-3.576L147.828,207.592z"/>
		</g>
		<g>
			<path d="M169.724,206.332c0,0.216,0,1.536,0,1.536c0.912-0.816,1.416-0.984,2.424-1.008c1.2-0.024,1.968,1.176,1.992,2.136
				c0.024,0.504-0.12,1.032-0.312,1.44c-0.216,0.528-0.792,0.936-1.176,1.32c-0.432,0.432-3.552,2.568-3.552,2.616v-14.184h0.624
				C169.724,200.188,169.748,203.164,169.724,206.332z M169.988,208.708c-0.312,0.6-0.264,1.632-0.264,2.376v2.064
				c0,0.024,0.864-0.72,1.344-1.176c0.432-0.408,0.768-0.864,0.936-1.584c0.192-0.72,0.12-1.488-0.336-1.992
				C171.356,208.036,170.492,207.748,169.988,208.708z"/>
		</g>
		<g>
			<path fill="none" stroke="#000000" d="M22.41,259.232h102.683"/>
			<path fill="none" stroke="#000000" d="M22.41,273.344h102.683"/>
			<path fill="none" stroke="#000000" d="M22.461,280.467h102.683"/>
			<path fill="none" stroke="#000000" d="M22.382,287.85h102.684"/>
			<path fill="none" stroke="#000000" d="M22.382,266.486h102.684"/>
		</g>
		<g>
			<path d="M52.623,256.325v-3.912h0.696v3.672l2.352-0.768v-3.504h0.696v3.288l0.936-0.312v2.496l-0.936,0.312v3.552l0.936-0.288
				v2.472l-0.936,0.312v3.912H55.67v-3.696l-2.352,0.768v3.552h-0.696v-3.312l-1.032,0.336v-2.496l1.032-0.336v-3.576l-1.032,0.336
				v-2.472L52.623,256.325z M53.318,258.582v3.576l2.352-0.768v-3.576L53.318,258.582z"/>
		</g>
		<g>
			<path d="M36.041,286.76c-4.944-2.353-5.736-5.377-5.952-8.473c-0.24-3.36,1.896-6.768,3.888-8.664
				c1.152-1.08,2.4-2.136,3.888-3.264c-0.048-0.84-0.24-1.176-0.336-2.376c-0.024-0.504-0.336-2.856,0.168-5.568
				c0.312-1.608,2.328-5.4,3.72-5.424c1.08-0.024,2.736,4.296,2.784,6.456c0.072,3.336-0.72,4.848-1.704,6.576
				c-0.504,0.864-1.032,1.464-1.584,2.136c-0.576,0.696-1.224,1.104-1.824,1.632c0,0,0.768,4.344,0.792,4.656
				c1.536-0.192,3.408,0.36,4.08,0.84c1.704,1.272,2.352,3.024,2.472,4.729c0.216,2.712-1.272,5.567-4.56,6.936
				c0,0,0.504,3.456,0.624,4.176c0.264,1.896,0.216,3.097-0.192,3.864c-0.696,1.296-1.824,2.496-4.008,2.641
				c-1.68,0.096-4.992-0.744-5.16-3.385c-0.096-1.56,0.6-3.239,2.496-3.359c1.152-0.097,2.52,0.863,2.616,2.231
				c0.096,1.176-0.672,2.4-2.664,2.952c0.312,0.432,1.248,0.937,2.592,0.937c1.392,0,2.832-0.937,3.528-2.185
				c0.432-0.815,0.384-2.28,0.216-3.624c-0.072-0.456-0.648-4.08-0.648-4.08C39.497,287.407,37.048,287.239,36.041,286.76z
				 M36.521,281.071c0.048,1.152,1.008,2.496,1.896,2.952c-0.12,0.072-0.24,0.264-0.24,0.264c-0.984-0.479-1.824-1.271-2.04-1.56
				c-0.696-0.937-0.984-1.464-1.08-2.88c-0.096-1.32,0.624-3.096,2.232-4.344c0.84-0.624,1.248-0.768,1.968-0.936l-0.72-4.344
				c-0.744,0.432-3.816,2.904-5.112,4.92c-1.152,1.8-1.848,3.24-1.704,5.016c0.288,4.008,4.68,7.296,9.432,6.168
				c0,0-1.416-8.52-1.392-8.52C37.145,277.903,36.448,279.919,36.521,281.071z M38.464,265.855c2.088-1.632,4.92-4.704,4.752-7.08
				c-0.048-0.744-0.36-2.088-1.44-2.064C39.304,256.735,37.913,261.895,38.464,265.855z M41.729,286.136
				c2.76-0.937,2.88-3.313,2.784-4.729c-0.096-1.176-0.624-3.816-4.128-3.648L41.729,286.136z"/>
		</g>
		<g>
			<path d="M93.794,263.857c2.664,0.024,5.184,1.032,5.376,3.264c0.144,1.632-2.016,3.12-4.68,3.12
				c-2.688-0.024-5.184-1.008-5.4-3.24C88.946,265.345,91.13,263.857,93.794,263.857z M94.442,269.689
				c1.152,0,1.896-1.104,1.776-1.992c-0.264-1.752-0.864-3.168-2.448-3.168c-1.152,0-1.824,1.128-1.68,2.016
				C92.354,268.297,92.858,269.689,94.442,269.689z"/>
		</g>
		<g>
			<path d="M252.724,367.332c0,0.216,0,1.536,0,1.536c0.912-0.816,1.416-0.984,2.424-1.008c1.2-0.024,1.968,1.176,1.992,2.136
				c0.024,0.504-0.12,1.032-0.312,1.44c-0.216,0.527-0.792,0.936-1.176,1.319c-0.432,0.433-3.552,2.568-3.552,2.616v-14.184h0.624
				C252.724,361.188,252.748,364.164,252.724,367.332z M252.988,369.708c-0.312,0.6-0.264,1.632-0.264,2.376v2.064
				c0,0.023,0.864-0.721,1.344-1.177c0.432-0.407,0.768-0.863,0.936-1.584c0.192-0.72,0.12-1.487-0.336-1.991
				C254.356,369.036,253.492,368.748,252.988,369.708z"/>
		</g>
		<g>
			<path d="M40.135,371.14c-0.937,1.135-1.526,1.759-2.704,2.667c-1.418,1.106-2.382,1.561-4.042,2.242
				c-1.606,0.624-4.31,1.135-4.31,1.135l-0.188-0.426c0,0,4.523-1.447,6.745-3.944c2.918-3.206,4.443-7.094,4.363-12.061
				c-0.027-2.241-0.696-6.441-4.069-6.47c-1.927,0-4.657,1.76-4.47,3.944c0.053,0.313,0.803-0.34,2.275-0.283
				c1.553,0.057,2.382,2.1,2.008,3.688c-0.268,1.249-1.018,2.043-2.382,2.043c-1.74,0-3.292-1.305-3.319-3.462
				c-0.053-3.263,1.66-4.909,2.704-5.59c1.312-0.852,2.73-1.164,3.935-1.164c2.704-0.057,5.702,2.016,6.719,5.023
				c0.589,1.702,0.589,3.604,0.134,5.817c-0.294,1.504-0.669,2.326-1.338,3.688C41.527,369.295,41.045,370.004,40.135,371.14z
				 M46.345,355.532c0.83,0,1.499,0.624,1.499,1.476c0.027,0.851-0.642,1.589-1.445,1.589c-0.803,0.028-1.499-0.681-1.499-1.532
				C44.873,356.185,45.542,355.561,46.345,355.532z M46.372,362.683c0.803,0,1.472,0.625,1.499,1.476c0,0.88-0.642,1.59-1.445,1.59
				c-0.83,0.028-1.499-0.653-1.526-1.533C44.899,363.364,45.542,362.711,46.372,362.683z"/>
		</g>
		<g>
			<path d="M62.623,266.325v-3.912h0.696v3.672l2.352-0.768v-3.504h0.696v3.288l0.936-0.312v2.496l-0.936,0.312v3.552l0.936-0.288
				v2.472l-0.936,0.312v3.912H65.67v-3.696l-2.352,0.768v3.552h-0.696v-3.313l-1.032,0.336v-2.496l1.032-0.336v-3.576l-1.032,0.336
				v-2.472L62.623,266.325z M63.318,268.582v3.576l2.352-0.768v-3.576L63.318,268.582z"/>
		</g>
		<g>
			<path d="M93.794,273.856c2.664,0.024,5.184,1.032,5.376,3.264c0.144,1.632-2.016,3.12-4.68,3.12
				c-2.688-0.024-5.184-1.008-5.4-3.24C88.946,275.344,91.13,273.856,93.794,273.856z M94.442,279.688
				c1.152,0,1.896-1.104,1.776-1.992c-0.264-1.752-0.864-3.168-2.448-3.168c-1.152,0-1.824,1.128-1.68,2.016
				C92.354,278.296,92.858,279.688,94.442,279.688z"/>
		</g>
		<g>
			<path d="M93.794,281.856c2.664,0.023,5.184,1.032,5.376,3.264c0.144,1.632-2.016,3.12-4.68,3.12
				c-2.688-0.024-5.184-1.008-5.4-3.24C88.946,283.345,91.13,281.856,93.794,281.856z M94.442,287.688
				c1.152,0,1.896-1.104,1.776-1.992c-0.264-1.752-0.864-3.168-2.448-3.168c-1.152,0-1.824,1.128-1.68,2.016
				C92.354,286.296,92.858,287.688,94.442,287.688z"/>
		</g>
		<g>
			<path d="M294.794,285.856c2.664,0.023,5.184,1.032,5.376,3.264c0.144,1.632-2.016,3.12-4.68,3.12
				c-2.688-0.024-5.184-1.008-5.4-3.24C289.946,287.345,292.13,285.856,294.794,285.856z M295.442,291.688
				c1.152,0,1.896-1.104,1.776-1.992c-0.264-1.752-0.864-3.168-2.448-3.168c-1.152,0-1.824,1.128-1.68,2.016
				C293.354,290.296,293.858,291.688,295.442,291.688z"/>
		</g>
		<g>
			<path fill="none" stroke="#000000" d="M219.41,259.232h102.683"/>
			<path fill="none" stroke="#000000" d="M219.41,273.344h102.683"/>
			<path fill="none" stroke="#000000" d="M219.461,280.467h102.683"/>
			<path fill="none" stroke="#000000" d="M219.382,287.85h102.684"/>
			<path fill="none" stroke="#000000" d="M219.382,266.486h102.684"/>
		</g>
		<g>
			<path d="M249.623,256.325v-3.912h0.696v3.672l2.352-0.768v-3.504h0.696v3.288l0.936-0.312v2.496l-0.936,0.312v3.552l0.936-0.288
				v2.472l-0.936,0.312v3.912h-0.696v-3.696l-2.352,0.768v3.552h-0.696v-3.312l-1.032,0.336v-2.496l1.032-0.336v-3.576l-1.032,0.336
				v-2.472L249.623,256.325z M250.318,258.582v3.576l2.352-0.768v-3.576L250.318,258.582z"/>
		</g>
		<g>
			<path d="M233.041,286.76c-4.944-2.353-5.736-5.377-5.952-8.473c-0.24-3.36,1.896-6.768,3.888-8.664
				c1.152-1.08,2.4-2.136,3.888-3.264c-0.048-0.84-0.24-1.176-0.336-2.376c-0.024-0.504-0.336-2.856,0.168-5.568
				c0.312-1.608,2.328-5.4,3.72-5.424c1.08-0.024,2.736,4.296,2.784,6.456c0.072,3.336-0.72,4.848-1.704,6.576
				c-0.504,0.864-1.032,1.464-1.584,2.136c-0.576,0.696-1.224,1.104-1.824,1.632c0,0,0.768,4.344,0.792,4.656
				c1.536-0.192,3.408,0.36,4.08,0.84c1.704,1.272,2.352,3.024,2.472,4.729c0.216,2.712-1.272,5.567-4.56,6.936
				c0,0,0.504,3.456,0.624,4.176c0.264,1.896,0.216,3.097-0.192,3.864c-0.696,1.296-1.824,2.496-4.008,2.641
				c-1.68,0.096-4.992-0.744-5.16-3.385c-0.096-1.56,0.6-3.239,2.496-3.359c1.152-0.097,2.52,0.863,2.616,2.231
				c0.096,1.176-0.672,2.4-2.664,2.952c0.312,0.432,1.248,0.937,2.592,0.937c1.392,0,2.832-0.937,3.528-2.185
				c0.432-0.815,0.384-2.28,0.216-3.624c-0.072-0.456-0.648-4.08-0.648-4.08C236.497,287.407,234.048,287.239,233.041,286.76z
				 M233.521,281.071c0.048,1.152,1.008,2.496,1.896,2.952c-0.12,0.072-0.24,0.264-0.24,0.264c-0.984-0.479-1.824-1.271-2.04-1.56
				c-0.696-0.937-0.984-1.464-1.08-2.88c-0.096-1.32,0.624-3.096,2.232-4.344c0.84-0.624,1.248-0.768,1.968-0.936l-0.72-4.344
				c-0.744,0.432-3.816,2.904-5.112,4.92c-1.152,1.8-1.848,3.24-1.704,5.016c0.288,4.008,4.68,7.296,9.432,6.168
				c0,0-1.416-8.52-1.392-8.52C234.145,277.903,233.448,279.919,233.521,281.071z M235.464,265.855
				c2.088-1.632,4.92-4.704,4.752-7.08c-0.048-0.744-0.36-2.088-1.44-2.064C236.304,256.735,234.913,261.895,235.464,265.855z
				 M238.729,286.136c2.76-0.937,2.88-3.313,2.784-4.729c-0.096-1.176-0.624-3.816-4.128-3.648L238.729,286.136z"/>
		</g>
		<g>
			<path d="M294.794,259.856c2.664,0.024,5.184,1.032,5.376,3.264c0.144,1.632-2.016,3.12-4.68,3.12
				c-2.688-0.024-5.184-1.008-5.4-3.24C289.946,261.344,292.13,259.856,294.794,259.856z M295.442,265.688
				c1.152,0,1.896-1.104,1.776-1.992c-0.264-1.752-0.864-3.168-2.448-3.168c-1.152,0-1.824,1.128-1.68,2.016
				C293.354,264.296,293.858,265.688,295.442,265.688z"/>
		</g>
		<g>
			<path d="M258.623,266.325v-3.912h0.696v3.672l2.352-0.768v-3.504h0.696v3.288l0.936-0.312v2.496l-0.936,0.312v3.552l0.936-0.288
				v2.472l-0.936,0.312v3.912h-0.696v-3.696l-2.352,0.768v3.552h-0.696v-3.313l-1.032,0.336v-2.496l1.032-0.336v-3.576l-1.032,0.336
				v-2.472L258.623,266.325z M259.318,268.582v3.576l2.352-0.768v-3.576L259.318,268.582z"/>
		</g>
		<g>
			<path d="M294.794,270.856c2.664,0.024,5.184,1.032,5.376,3.264c0.144,1.632-2.016,3.12-4.68,3.12
				c-2.688-0.024-5.184-1.008-5.4-3.24C289.946,272.344,292.13,270.856,294.794,270.856z M295.442,276.688
				c1.152,0,1.896-1.104,1.776-1.992c-0.264-1.752-0.864-3.168-2.448-3.168c-1.152,0-1.824,1.128-1.68,2.016
				C293.354,275.296,293.858,276.688,295.442,276.688z"/>
		</g>
		<g>
			<path d="M294.794,277.856c2.664,0.023,5.184,1.032,5.376,3.264c0.144,1.632-2.016,3.12-4.68,3.12
				c-2.688-0.024-5.184-1.008-5.4-3.24C289.946,279.345,292.13,277.856,294.794,277.856z M295.442,283.688
				c1.152,0,1.896-1.104,1.776-1.992c-0.264-1.752-0.864-3.168-2.448-3.168c-1.152,0-1.824,1.128-1.68,2.016
				C293.354,282.296,293.858,283.688,295.442,283.688z"/>
		</g>
		<g>
			<path fill="none" stroke="#000000" d="M24.41,353.232h102.683"/>
			<path fill="none" stroke="#000000" d="M24.41,367.344h102.683"/>
			<path fill="none" stroke="#000000" d="M24.461,374.467h102.683"/>
			<path fill="none" stroke="#000000" d="M24.382,381.85h102.684"/>
			<path fill="none" stroke="#000000" d="M24.382,360.486h102.684"/>
		</g>
		<g>
			<path d="M54.132,356.836v-3.912h0.696v3.672l2.352-0.768v-3.504h0.696v3.288l0.936-0.313v2.496l-0.936,0.313v3.552l0.936-0.288
				v2.472l-0.936,0.313v3.912H57.18v-3.696l-2.352,0.768v3.553h-0.696v-3.313l-1.032,0.336v-2.496l1.032-0.336v-3.576l-1.032,0.337
				v-2.473L54.132,356.836z M54.828,359.092v3.576l2.352-0.768v-3.576L54.828,359.092z"/>
		</g>
		<g>
			<path d="M63.132,366.836v-3.912h0.696v3.672l2.352-0.768v-3.504h0.696v3.288l0.936-0.313v2.496l-0.936,0.313v3.552l0.936-0.288
				v2.472l-0.936,0.313v3.912H66.18v-3.696l-2.352,0.768v3.553h-0.696v-3.313l-1.032,0.336v-2.496l1.032-0.336v-3.576l-1.032,0.337
				v-2.473L63.132,366.836z M63.828,369.092v3.576l2.352-0.768v-3.576L63.828,369.092z"/>
		</g>
		<g>
			<path d="M90.794,371.856c2.664,0.023,5.184,1.032,5.376,3.264c0.144,1.632-2.016,3.12-4.68,3.12
				c-2.688-0.024-5.184-1.008-5.4-3.24C85.946,373.345,88.13,371.856,90.794,371.856z M91.442,377.688
				c1.152,0,1.896-1.104,1.776-1.992c-0.264-1.752-0.864-3.168-2.448-3.168c-1.152,0-1.824,1.128-1.68,2.016
				C89.354,376.296,89.858,377.688,91.442,377.688z"/>
		</g>
		<g>
			<path d="M90.794,364.856c2.664,0.023,5.184,1.032,5.376,3.264c0.144,1.632-2.016,3.12-4.68,3.12
				c-2.688-0.024-5.184-1.008-5.4-3.24C85.946,366.345,88.13,364.856,90.794,364.856z M91.442,370.688
				c1.152,0,1.896-1.104,1.776-1.992c-0.264-1.752-0.864-3.168-2.448-3.168c-1.152,0-1.824,1.128-1.68,2.016
				C89.354,369.296,89.858,370.688,91.442,370.688z"/>
		</g>
		<g>
			<path d="M90.794,357.856c2.664,0.023,5.184,1.032,5.376,3.264c0.144,1.632-2.016,3.12-4.68,3.12
				c-2.688-0.024-5.184-1.008-5.4-3.24C85.946,359.345,88.13,357.856,90.794,357.856z M91.442,363.688
				c1.152,0,1.896-1.104,1.776-1.992c-0.264-1.752-0.864-3.168-2.448-3.168c-1.152,0-1.824,1.128-1.68,2.016
				C89.354,362.296,89.858,363.688,91.442,363.688z"/>
		</g>
		<g>
			<path d="M265.623,253.325v-3.912h0.696v3.672l2.352-0.768v-3.504h0.696v3.288l0.936-0.312v2.496l-0.936,0.312v3.552l0.936-0.288
				v2.472l-0.936,0.312v3.912h-0.696v-3.696l-2.352,0.768v3.552h-0.696v-3.312l-1.032,0.336v-2.496l1.032-0.336v-3.576l-1.032,0.336
				v-2.472L265.623,253.325z M266.318,255.582v3.576l2.352-0.768v-3.576L266.318,255.582z"/>
		</g>
		<g>
			<path d="M274.623,263.325v-3.912h0.696v3.672l2.352-0.768v-3.504h0.696v3.288l0.936-0.312v2.496l-0.936,0.312v3.552l0.936-0.288
				v2.472l-0.936,0.312v3.912h-0.696v-3.696l-2.352,0.768v3.552h-0.696v-3.312l-1.032,0.336v-2.496l1.032-0.336v-3.576l-1.032,0.336
				v-2.472L274.623,263.325z M275.318,265.582v3.576l2.352-0.768v-3.576L275.318,265.582z"/>
		</g>
		<g>
			<path d="M239.135,368.14c-0.937,1.135-1.526,1.759-2.704,2.667c-1.418,1.106-2.382,1.561-4.042,2.242
				c-1.606,0.624-4.31,1.135-4.31,1.135l-0.188-0.426c0,0,4.523-1.447,6.745-3.944c2.918-3.206,4.443-7.094,4.363-12.061
				c-0.027-2.241-0.696-6.441-4.069-6.47c-1.927,0-4.657,1.76-4.47,3.944c0.053,0.313,0.803-0.34,2.275-0.283
				c1.553,0.057,2.382,2.1,2.008,3.688c-0.268,1.249-1.018,2.043-2.382,2.043c-1.74,0-3.292-1.305-3.319-3.462
				c-0.053-3.263,1.66-4.909,2.704-5.59c1.312-0.852,2.73-1.164,3.935-1.164c2.704-0.057,5.702,2.016,6.719,5.023
				c0.589,1.702,0.589,3.604,0.134,5.817c-0.294,1.504-0.669,2.326-1.338,3.688C240.527,366.295,240.045,367.004,239.135,368.14z
				 M245.345,352.532c0.83,0,1.499,0.624,1.499,1.476c0.027,0.851-0.642,1.589-1.445,1.589c-0.803,0.028-1.499-0.681-1.499-1.532
				C243.873,353.185,244.542,352.561,245.345,352.532z M245.372,359.683c0.803,0,1.472,0.625,1.499,1.476
				c0,0.88-0.642,1.59-1.445,1.59c-0.83,0.028-1.499-0.653-1.526-1.533C243.899,360.364,244.542,359.711,245.372,359.683z"/>
		</g>
		<g>
			<path fill="none" stroke="#000000" d="M223.41,350.232h102.683"/>
			<path fill="none" stroke="#000000" d="M223.41,364.344h102.683"/>
			<path fill="none" stroke="#000000" d="M223.461,371.467h102.683"/>
			<path fill="none" stroke="#000000" d="M223.382,378.85h102.684"/>
			<path fill="none" stroke="#000000" d="M223.382,357.486h102.684"/>
		</g>
		<g>
			<path d="M289.794,375.856c2.664,0.023,5.184,1.032,5.376,3.264c0.144,1.632-2.016,3.12-4.68,3.12
				c-2.688-0.024-5.184-1.008-5.4-3.24C284.946,377.345,287.13,375.856,289.794,375.856z M290.442,381.688
				c1.152,0,1.896-1.104,1.776-1.992c-0.264-1.752-0.864-3.168-2.448-3.168c-1.152,0-1.824,1.128-1.68,2.016
				C288.354,380.296,288.858,381.688,290.442,381.688z"/>
		</g>
		<g>
			<path d="M289.794,368.856c2.664,0.023,5.184,1.032,5.376,3.264c0.144,1.632-2.016,3.12-4.68,3.12
				c-2.688-0.024-5.184-1.008-5.4-3.24C284.946,370.345,287.13,368.856,289.794,368.856z M290.442,374.688
				c1.152,0,1.896-1.104,1.776-1.992c-0.264-1.752-0.864-3.168-2.448-3.168c-1.152,0-1.824,1.128-1.68,2.016
				C288.354,373.296,288.858,374.688,290.442,374.688z"/>
		</g>
		<g>
			<path d="M289.794,361.856c2.664,0.023,5.184,1.032,5.376,3.264c0.144,1.632-2.016,3.12-4.68,3.12
				c-2.688-0.024-5.184-1.008-5.4-3.24C284.946,363.345,287.13,361.856,289.794,361.856z M290.442,367.688
				c1.152,0,1.896-1.104,1.776-1.992c-0.264-1.752-0.864-3.168-2.448-3.168c-1.152,0-1.824,1.128-1.68,2.016
				C288.354,366.296,288.858,367.688,290.442,367.688z"/>
		</g>
		<g>
			<path d="M261.724,357.332c0,0.216,0,1.536,0,1.536c0.912-0.816,1.416-0.984,2.424-1.008c1.2-0.024,1.968,1.176,1.992,2.136
				c0.024,0.504-0.12,1.032-0.312,1.44c-0.216,0.527-0.792,0.936-1.176,1.319c-0.432,0.433-3.552,2.568-3.552,2.616v-14.184h0.624
				C261.724,351.188,261.748,354.164,261.724,357.332z M261.988,359.708c-0.312,0.6-0.264,1.632-0.264,2.376v2.064
				c0,0.023,0.864-0.721,1.344-1.177c0.432-0.407,0.768-0.863,0.936-1.584c0.192-0.72,0.12-1.487-0.336-1.991
				C263.356,359.036,262.492,358.748,261.988,359.708z"/>
		</g>
		<g>
			<g>
				<g>
					<path fill="none" d="M247.323,35.19c12.354,6.661,23.387,13.823,29.31,27.458"/>
					<path fill="#FF0000" d="M246.467,36.412c12.013,6.522,22.978,14.051,28.818,26.876c0.797,1.75,3.495,0.472,2.696-1.281
						c-6.052-13.291-17.313-21.259-29.802-28.04C246.506,33.06,244.776,35.494,246.467,36.412z"/>
				</g>
			</g>
			<g>
				<g>
					<path fill="none" d="M266.193,59.042c2.735,1.232,5.471,2.464,8.617,2.784"/>
					<path fill="#FF0000" d="M265.675,60.442c2.907,1.307,5.807,2.482,8.994,2.87c1.916,0.233,2.186-2.74,0.281-2.972
						c-2.925-0.356-5.575-1.5-8.239-2.698C264.95,56.851,263.931,59.658,265.675,60.442z"/>
				</g>
			</g>
			<g>
				<g>
					<path fill="none" d="M278.505,53.62c0.091,2.234-0.229,5.38-0.139,7.615"/>
					<path fill="#FF0000" d="M277.02,53.479c0.073,2.54-0.212,5.074-0.139,7.615c0.055,1.901,3.027,2.199,2.972,0.281
						c-0.073-2.54,0.212-5.075,0.139-7.615C279.937,51.86,276.964,51.562,277.02,53.479z"/>
				</g>
			</g>
		</g>
	</g>
</svg>
