<?xml version="1.0" encoding="UTF-8" standalone="no"?>
<svg
   xmlns:dc="http://purl.org/dc/elements/1.1/"
   xmlns:cc="http://creativecommons.org/ns#"
   xmlns:rdf="http://www.w3.org/1999/02/22-rdf-syntax-ns#"
   xmlns:svg="http://www.w3.org/2000/svg"
   xmlns="http://www.w3.org/2000/svg"
   xmlns:sodipodi="http://sodipodi.sourceforge.net/DTD/sodipodi-0.dtd"
   xmlns:inkscape="http://www.inkscape.org/namespaces/inkscape"
   version="1.2"
   id="svg3875"
   inkscape:version="0.48.1 r9760"
   width="694.04211"
   height="133.61969"
   sodipodi:docname="TranspFig13a.svg">
  <metadata
     id="metadata4535">
    <rdf:RDF>
      <cc:Work
         rdf:about="">
        <dc:format>image/svg+xml</dc:format>
        <dc:type
           rdf:resource="http://purl.org/dc/dcmitype/StillImage" />
        <dc:title>Qt Svg Document</dc:title>
      </cc:Work>
    </rdf:RDF>
  </metadata>
  <sodipodi:namedview
     pagecolor="#ffffff"
     bordercolor="#666666"
     borderopacity="1"
     objecttolerance="10"
     gridtolerance="10"
     guidetolerance="10"
     inkscape:pageopacity="0"
     inkscape:pageshadow="2"
     inkscape:window-width="1065"
     inkscape:window-height="501"
     id="namedview4533"
     showgrid="false"
     inkscape:zoom="0.99585486"
     inkscape:cx="436.78358"
     inkscape:cy="61.370565"
     inkscape:window-x="0"
     inkscape:window-y="0"
     inkscape:window-maximized="0"
     inkscape:current-layer="g3883"
     fit-margin-top="0"
     fit-margin-left="0"
     fit-margin-right="0"
     fit-margin-bottom="0" />
  <title
     id="title3877">Qt Svg Document</title>
  <desc
     id="desc3879">Generated with Qt</desc>
  <defs
     id="defs3881" />
  <g
     id="g3883"
     style="fill:none;stroke:#000000;stroke-width:1;stroke-linecap:square;stroke-linejoin:bevel"
     transform="translate(5.0937184,-20.136295)">
    <g
       transform="matrix(1.38363,0,0,1.38363,8.3967691,35.796219)"
       font-size="13"
       font-weight="400"
       font-style="normal"
       id="g3889"
       style="font-size:13px;font-style:normal;font-weight:400;fill:none;stroke:#000000;stroke-width:0.40000001;stroke-linecap:butt;stroke-linejoin:bevel;stroke-opacity:1;font-family:Lucida Grande">
      <path
         d="M 0,0 143.179,0"
         id="polyline3891"
         inkscape:connector-curvature="0" />
      <path
         d="M 0,5 143.179,5"
         id="polyline3893"
         inkscape:connector-curvature="0" />
      <path
         d="m 0,10 143.179,0"
         id="polyline3895"
         inkscape:connector-curvature="0" />
      <path
         d="m 0,15 143.179,0"
         id="polyline3897"
         inkscape:connector-curvature="0" />
      <path
         d="m 0,20 143.179,0"
         id="polyline3899"
         inkscape:connector-curvature="0" />
    </g>
    <g
       transform="matrix(1.38363,0,0,1.38363,8.3967691,108.43673)"
       font-size="13"
       font-weight="400"
       font-style="normal"
       id="g3903"
       style="font-size:13px;font-style:normal;font-weight:400;fill:none;stroke:#000000;stroke-width:0.40000001;stroke-linecap:butt;stroke-linejoin:bevel;stroke-opacity:1;font-family:Lucida Grande">
      <path
         d="M 0,0 143.179,0"
         id="polyline3905"
         inkscape:connector-curvature="0" />
      <path
         d="M 0,5 143.179,5"
         id="polyline3907"
         inkscape:connector-curvature="0" />
      <path
         d="m 0,10 143.179,0"
         id="polyline3909"
         inkscape:connector-curvature="0" />
      <path
         d="m 0,15 143.179,0"
         id="polyline3911"
         inkscape:connector-curvature="0" />
      <path
         d="m 0,20 143.179,0"
         id="polyline3913"
         inkscape:connector-curvature="0" />
    </g>
    <g
       transform="matrix(1.38363,0,0,1.38363,13.931398,56.550654)"
       font-size="20"
       font-weight="400"
       font-style="normal"
       id="g3917"
       style="font-size:20px;font-style:normal;font-weight:400;fill:none;stroke:#000000;stroke-width:1;stroke-linecap:square;stroke-linejoin:bevel;stroke-opacity:1;font-family:MScore">
      <g
         style="fill:#000000;fill-opacity:1;stroke:none;font-family:MScore"
         id="text3919">
        <path
           d="m 12.753906,0.05859375 c 0,-1.40624855 -0.488282,-2.63671985 -1.445312,-3.69140625 C 10.332032,-4.6874989 9.0820297,-5.2148438 7.5585937,-5.234375 7.1875004,-6.5234362 6.7382807,-7.9882829 6.1914062,-9.6484375 7.3437488,-11.093749 8.2226569,-12.421876 8.8476563,-13.632813 9.4531244,-14.843749 9.765625,-16.132814 9.765625,-17.5 c 0,-1.015624 -0.2539067,-2.128907 -0.7226562,-3.359375 -0.4687496,-1.210936 -0.9765631,-2.207032 -1.4843751,-2.96875 -0.5273432,-0.761718 -0.8984376,-1.152344 -1.09375,-1.152344 -0.078125,0 -0.2343752,0.09766 -0.4492187,0.292969 -0.2343748,0.195312 -0.4882815,0.46875 -0.78125,0.859375 -0.2929685,0.390625 -0.5664065,0.820313 -0.8398438,1.308594 -0.2734372,0.507812 -0.5078126,1.09375 -0.7031249,1.796875 -0.1953124,0.703124 -0.2734375,1.425782 -0.2734375,2.148437 0,1.308593 0.097656,2.48047 0.3125,3.535156 0.2148435,1.054687 0.5664067,2.304689 1.0546874,3.769532 -0.058594,0.07813 -0.3320317,0.449219 -0.8398437,1.074218 -0.507812,0.6445311 -0.8007813,1.0351569 -0.8789062,1.1523442 L 2.3046875,-8.0078125 C 1.8750004,-7.4414068 1.6210936,-7.050781 1.5039062,-6.8164062 1.3867189,-6.5820315 1.2109372,-6.210937 0.9375,-5.703125 0.66406277,-5.195313 0.48828117,-4.7656247 0.41015625,-4.4335937 0.3125001,-4.0820316 0.21484367,-3.6914058 0.13671875,-3.2226563 0.0390626,-2.7539067 0,-2.2851558 0,-1.8359375 c 0,1.95312305 0.68359512,3.6328139 2.0507813,5.0195313 1.3671861,1.3867173 3.0078144,2.0703124 4.9414062,2.0703124 0.4296871,0 0.9179693,-0.039063 1.484375,-0.1367187 0,0.2148435 0.019531,0.5273442 0.019531,0.9375 0,0.6835931 -0.039063,1.4453133 -0.097656,2.2851563 -0.097656,1.0742176 -0.4492193,1.9921882 -1.0351563,2.7734372 -0.5859369,0.781249 -1.3281258,1.152344 -2.2265625,1.152344 -0.5468744,0 -1.0351566,-0.117188 -1.4843749,-0.371094 -0.4687496,-0.234375 -0.8398441,-0.566406 -1.1132813,-0.996093 0.1953123,0.07812 0.4101564,0.117187 0.6054688,0.117187 0.5078119,0 0.9570316,-0.175782 1.3281249,-0.546875 0.3710934,-0.371093 0.5664063,-0.820313 0.5664063,-1.3476562 0,-0.5664057 -0.1953129,-1.054688 -0.546875,-1.4648438 -0.3710934,-0.4101558 -0.820313,-0.625 -1.3476562,-0.625 -0.6054682,0 -1.132813,0.2148442 -1.5820313,0.625 -0.4492183,0.4101558 -0.6640625,0.8984381 -0.6640625,1.4648438 0,1.1328112 0.4101571,2.0703132 1.25,2.8320312 0.8203117,0.781249 1.8164074,1.152344 2.9882812,1.152344 1.1132802,0 2.050782,-0.44922 2.7929688,-1.367188 0.7421868,-0.917968 1.1914064,-2.0117198 1.3085938,-3.300781 0.058594,-0.8984366 0.097656,-1.6796882 0.097656,-2.3632813 0,-0.5273432 -0.019531,-0.917969 -0.019531,-1.171875 C 10.273437,4.5898441 11.093751,3.9843741 11.757813,3.1054688 12.421874,2.2460946 12.753906,1.2304676 12.753906,0.05859375 M 9.2773438,4.0625 C 9.1210939,1.8750022 8.7499994,-0.48828383 8.125,-3.0664063 c 0.9960928,0.1562499 1.7968756,0.6054695 2.421875,1.3476563 0.605468,0.74218676 0.917969,1.58203217 0.917969,2.5 0,0.7812492 -0.214844,1.4648443 -0.644531,2.0507813 C 10.390625,3.4179682 9.8828119,3.8281252 9.2773438,4.0625 M 6.0351562,2.5976563 c 0.1171874,0 0.2148439,-0.039063 0.3125,-0.1367188 0.078125,-0.078125 0.1367188,-0.1757814 0.1367188,-0.2929687 0,-0.1171874 -0.058594,-0.2148439 -0.15625,-0.3320313 -1.1914051,-0.5859369 -1.7773438,-1.42578232 -1.7773438,-2.5 0,-0.6249994 0.2343755,-1.1914067 0.7226563,-1.6601563 0.4882808,-0.4687495 1.1523446,-0.7226563 1.9726562,-0.78125 C 7.8906244,-0.44922141 8.2812502,2.011721 8.4375,4.2773437 7.9687505,4.3554687 7.4999995,4.3945312 6.9921875,4.3945312 c -1.4062486,0 -2.6757824,-0.4492196 -3.828125,-1.3867187 -1.1523426,-0.9179678 -1.71875,-2.01172 -1.71875,-3.26171875 0,-0.80078045 0.097656,-1.58203195 0.2929687,-2.32421875 0.1953124,-0.7421868 0.5468755,-1.503907 1.0156251,-2.2851562 0.4687495,-0.7812493 0.8984378,-1.4257818 1.2499999,-1.9140625 l 1.5625,-2.0703126 1.1132813,3.6718751 c -1.0546864,0.175781 -1.8945319,0.644532 -2.5,1.4062499 -0.6249994,0.761718 -0.9179687,1.6210947 -0.9179687,2.5585938 0,0.62499938 0.1171877,1.19140678 0.3710937,1.71875 C 3.8867185,1.0351557 4.1796879,1.4453128 4.53125,1.71875 4.8632809,1.9921872 5.1757815,2.2070314 5.4492187,2.3632813 5.722656,2.5195311 5.9179689,2.5976563 6.0351562,2.5976563 M 7.5390625,-22.070312 c 0.3124997,0.585936 0.5273438,1.054687 0.625,1.425781 0.097656,0.390624 0.15625,0.898438 0.15625,1.542969 0,1.230467 -0.2539068,2.402344 -0.7617188,3.515624 -0.5078119,1.132812 -1.2304696,2.304689 -2.1679687,3.515625 -0.6445306,-2.031247 -0.9570313,-3.496094 -0.9570313,-4.355468 0,-1.132812 0.2734381,-2.207033 0.8203125,-3.222656 0.5468745,-0.996093 1.3085948,-1.796876 2.2851563,-2.421875"
           style="fill:#000000;fill-opacity:1;stroke:none;font-family:MScore"
           id="path4720"
           inkscape:connector-curvature="0" />
      </g>
    </g>
    <g
       transform="matrix(1.38363,0,0,1.38363,13.931398,115.35477)"
       font-size="20"
       font-weight="400"
       font-style="normal"
       id="g3923"
       style="font-size:20px;font-style:normal;font-weight:400;fill:none;stroke:#000000;stroke-width:1;stroke-linecap:square;stroke-linejoin:bevel;stroke-opacity:1;font-family:MScore">
      <g
         style="fill:#000000;fill-opacity:1;stroke:none;font-family:MScore"
         id="text3925">
        <path
           d="m 11.132813,2.5 c 0,0.2929685 0.09766,0.5273439 0.292968,0.7226563 0.195313,0.1953123 0.449219,0.2929687 0.722657,0.2929687 0.273437,0 0.527343,-0.097656 0.722656,-0.2929687 0.195312,-0.1953124 0.3125,-0.4296878 0.3125,-0.7226563 0,-0.2734372 -0.117188,-0.5273439 -0.3125,-0.7226563 C 12.675781,1.5820314 12.421875,1.484375 12.148438,1.484375 11.875,1.484375 11.621094,1.582031 11.425781,1.7773437 11.230469,1.9726561 11.132813,2.2265628 11.132813,2.5 m 0,-5 c 0,0.2929685 0.09766,0.5273439 0.292968,0.7226563 0.195313,0.1953123 0.449219,0.2929687 0.722657,0.2929687 0.273437,0 0.527343,-0.097656 0.722656,-0.2929687 0.195312,-0.1953124 0.3125,-0.4296878 0.3125,-0.7226563 0,-0.2734372 -0.117188,-0.5273439 -0.3125,-0.7226563 -0.195313,-0.1953123 -0.449219,-0.2929687 -0.722656,-0.2929687 -0.273438,0 -0.527344,0.097656 -0.722657,0.2929687 C 11.230469,-3.0273439 11.132813,-2.7734372 11.132813,-2.5 M 4.6484375,-5.2539062 c -1.2890612,0 -2.4023446,0.4882822 -3.3007813,1.4453124 C 0.44921965,-2.8320322 0,-1.6992174 0,-0.37109375 0,0.21484316 0.2148442,0.72265666 0.6640625,1.1328125 c 0.4492183,0.4101558 0.9765631,0.6054687 1.5820313,0.6054687 0.5468744,0 1.0156253,-0.1953129 1.40625,-0.6054687 0.3906246,-0.41015584 0.5859374,-0.91796934 0.5859374,-1.50390625 0,-0.54687445 -0.1953128,-1.01562535 -0.5859374,-1.40624995 -0.3906247,-0.3906247 -0.8593756,-0.6054688 -1.40625,-0.6054688 -0.2343748,0 -0.449219,0.058594 -0.6835938,0.15625 0.253906,-0.7421868 0.6445318,-1.3476567 1.1914063,-1.8164062 0.5468744,-0.4687496 1.1718757,-0.703125 1.8945312,-0.703125 1.015624,0 1.8554694,0.4687509 2.4804687,1.4062499 0.6249994,0.9374991 0.9375001,2.0507826 0.9375001,3.3007813 0,0.8984366 -0.1757816,1.7578133 -0.5078126,2.578125 C 7.2265628,3.3593742 6.8164058,4.1015631 6.328125,4.7265625 5.8398442,5.3515619 5.214843,5.9960944 4.4335937,6.6601562 3.6523445,7.3242181 2.9296868,7.8710942 2.2460938,8.3203125 1.5625007,8.789062 0.76171781,9.2773443 -0.17578125,9.8242188 -0.23437494,9.8828124 -0.25390625,9.9414063 -0.25390625,10 c 0,0.175781 0.0781252,0.253906 0.25390625,0.253906 0.05859369,0 0.11718756,-0.01953 0.17578125,-0.07813 C 1.3085926,9.7070317 2.3046884,9.2382808 3.203125,8.7890625 4.1015616,8.3398442 5.0195322,7.7734368 5.9765625,7.109375 6.9140616,6.4453132 7.7148444,5.7812493 8.3398438,5.078125 8.9648431,4.3945319 9.4726567,3.5937491 9.8828125,2.6757813 10.292968,1.7578134 10.507813,0.78124898 10.507813,-0.234375 c 0,-1.5820297 -0.5468766,-2.8125009 -1.6210942,-3.6914063 C 7.8125011,-4.8046866 6.4062482,-5.2539062 4.6484375,-5.2539062"
           style="fill:#000000;fill-opacity:1;stroke:none;font-family:MScore"
           id="path4717"
           inkscape:connector-curvature="0" />
      </g>
    </g>
    <g
       transform="matrix(1.38363,0,0,1.38363,39.413192,35.796219)"
       font-size="20"
       font-weight="400"
       font-style="normal"
       id="g3929"
       style="font-size:20px;font-style:normal;font-weight:400;fill:none;stroke:#000000;stroke-width:1;stroke-linecap:square;stroke-linejoin:bevel;stroke-opacity:1;font-family:MScore">
      <g
         style="fill:#000000;fill-opacity:1;stroke:none;font-family:MScore"
         id="text3931">
        <path
           d="m 5.2539062,4.7070312 c 0,-0.1562498 0.058594,-0.2734375 0.1757813,-0.3710937 C 5.5468749,4.2578126 5.6640627,4.1796874 5.8203125,4.1015625 5.9570311,4.0429688 6.0937501,3.8671872 6.2109375,3.5546875 6.3281249,3.261719 6.3867187,2.8320307 6.3867187,2.2851563 6.3867187,1.5234383 6.0546869,0.95703086 5.4296875,0.56640625 4.8046881,0.19531287 3.984374,0 3.0078125,0 2.2460945,0 1.601562,0.19531287 1.0546875,0.56640625 0.50781305,0.93749963 0.234375,1.4257819 0.234375,2.0507813 c 0,0.3320309 0.0976565,0.6054689 0.33203125,0.8398437 0.21484354,0.2343748 0.48828155,0.3320313 0.80078125,0.3320313 0.3124997,0 0.5859377,-0.097657 0.8203125,-0.3320313 0.2343748,-0.2343748 0.3515625,-0.5078128 0.3515625,-0.8398437 0,-0.1367187 -0.136719,-0.292969 -0.3710937,-0.4687501 C 1.933594,1.4257814 1.8164062,1.2695311 1.8164062,1.1132812 c 0,-0.42968702 0.4101571,-0.6445312 1.1914063,-0.6445312 0.8789054,0 1.328125,0.60547 1.328125,1.8164063 l 0,0.15625 0,0.6445312 C 4.296875,3.554687 4.2382811,3.8867189 4.1210937,4.0625 3.9648439,4.2968748 3.6914059,4.4140625 3.3398438,4.4140625 l -1.6015626,0 C 1.5429689,4.4335937 1.4648437,4.5312502 1.4648437,4.7070312 1.4648437,4.9023436 1.5429689,5 1.7382812,5 L 3.3398438,5 C 3.6523434,5 3.8671877,5.0976564 4.0234375,5.2734375 4.1796873,5.4687498 4.2578125,5.6640627 4.296875,5.8789062 4.3164062,6.113281 4.3359375,6.4453129 4.3359375,6.875 l 0,0.3320312 c 0,0.6640619 -0.097656,1.210938 -0.2929688,1.6601563 C 3.8476564,9.3164058 3.5351558,9.53125 3.0859375,9.53125 2.7343754,9.53125 2.4218748,9.4726561 2.1875,9.3554688 1.933594,9.2382814 1.8164062,9.0624997 1.8164062,8.8085938 1.8164062,8.6523439 1.933594,8.4765623 2.2070313,8.28125 2.4804685,8.0859377 2.6171875,7.9101561 2.6171875,7.734375 c 0,-0.3515621 -0.136719,-0.6445315 -0.390625,-0.9179688 -0.253906,-0.2539059 -0.5664066,-0.390625 -0.9179688,-0.390625 -0.3515621,0 -0.6640627,0.1367191 -0.9179687,0.390625 C 0.11718777,7.0703122 0,7.3828129 0,7.734375 0,8.4374993 0.29296938,8.9843754 0.91796875,9.3945313 1.5429681,9.8046871 2.2656258,10 3.0859375,10 4.1210927,10 4.9804694,9.7656245 5.6445312,9.2773438 6.3085931,8.8085942 6.6601562,8.1054679 6.6601562,7.2070312 c 0,-0.4687495 -0.078125,-0.839844 -0.234375,-1.1523437 C 6.2695314,5.7421878 6.1132811,5.5468749 5.9570312,5.4296875 5.7812502,5.3125001 5.6249998,5.1953124 5.46875,5.078125 5.3125002,4.9609376 5.2539062,4.8437499 5.2539062,4.7070312"
           style="fill:#000000;fill-opacity:1;stroke:none;font-family:MScore"
           id="path4711"
           inkscape:connector-curvature="0" />
      </g>
      <g
         style="fill:#000000;fill-opacity:1;stroke:none;font-family:MScore"
         id="text3933">
        <path
           d="m 3.0078075,10.253906 c -0.2148435,0 -0.4296877,-0.01953 -0.6640625,-0.05859 C 2.1093702,10.15625 1.9335886,10.097656 1.79687,10.058594 1.6406201,10.019531 1.562495,10 1.5429637,10 c -0.1953123,0 -0.2734375,0.117188 -0.2734375,0.3125 0,0.742187 -0.097656,1.464844 -0.29296871,2.167969 -0.1953123,0.703124 -0.41015652,1.308594 -0.68359375,1.816406 -0.27343722,0.507812 -0.54687527,0.976563 -0.8203125,1.367188 -0.27343722,0.410155 -0.50781274,0.722656 -0.70312504,0.957031 -0.1953123,0.234375 -0.2929687,0.371094 -0.2929687,0.410156 0,0.117187 0.039063,0.234375 0.15625,0.332031 C -1.2695364,17.460937 -1.113286,17.5 -0.89844251,17.5 l 3.33984371,0 0,0.15625 c 0,0.507812 -0.136719,0.957032 -0.4101562,1.328125 -0.2734372,0.371093 -0.6250004,0.546875 -1.05468751,0.546875 -0.15624984,0 -0.234375,0.07813 -0.234375,0.234375 0,0.15625 0.0781252,0.234375 0.234375,0.234375 0.27343721,0 0.72265681,-0.03906 1.30859371,-0.117188 0.585937,-0.07812 1.0156253,-0.136718 1.3085938,-0.136718 0.2929685,0 0.7226568,0.05859 1.3085937,0.136718 C 5.4687444,19.960937 5.8984328,20 6.2109325,20 c 0.1562498,0 0.2539062,-0.07813 0.2539062,-0.234375 0,-0.15625 -0.097656,-0.234375 -0.2539062,-0.234375 -0.4296871,0 -0.7812503,-0.175782 -1.0351563,-0.546875 C 4.902339,18.613282 4.7851512,18.164062 4.7851512,17.65625 l 0,-0.15625 1.4257813,0 c 0.1953123,0 0.3125,-0.09766 0.3125,-0.292969 -0.019531,-0.195312 -0.1171877,-0.292969 -0.3125,-0.292969 l -1.4257813,0 0,-4.902343 C 4.76562,11.835938 4.6679636,11.738281 4.5117137,11.738281 c -0.078125,0 -0.1367187,0.03906 -0.1757812,0.117188 -0.3124997,0.605468 -0.5468752,1.015625 -0.7421875,1.230469 -0.253906,0.312499 -0.4687502,0.488281 -0.625,0.546875 -0.1562499,0.05859 -0.2929689,0.136718 -0.390625,0.234375 -0.097656,0.117187 -0.1367188,0.253906 -0.1367188,0.429687 l 0,2.617187 -3.33984371,0 L 4.7851512,10.3125 c 0.019531,-0.03906 0.039063,-0.07813 0.039063,-0.117187 -0.019531,-0.03906 -0.039063,-0.09766 -0.078125,-0.136719 -0.058594,-0.03906 -0.1367188,-0.078125 -0.2148437,-0.078125 -0.078125,0 -0.2539065,0.058594 -0.5273438,0.136719 -0.2929684,0.09766 -0.6250003,0.136718 -0.9960937,0.136718"
           style="fill:#000000;fill-opacity:1;stroke:none;font-family:MScore"
           id="path4714"
           inkscape:connector-curvature="0" />
      </g>
    </g>
    <g
       transform="matrix(1.38363,0,0,1.38363,39.413192,108.43673)"
       font-size="20"
       font-weight="400"
       font-style="normal"
       id="g3937"
       style="font-size:20px;font-style:normal;font-weight:400;fill:none;stroke:#000000;stroke-width:1;stroke-linecap:square;stroke-linejoin:bevel;stroke-opacity:1;font-family:MScore">
      <g
         style="fill:#000000;fill-opacity:1;stroke:none;font-family:MScore"
         id="text3939">
        <path
           d="m 5.2539062,4.7070312 c 0,-0.1562498 0.058594,-0.2734375 0.1757813,-0.3710937 C 5.5468749,4.2578126 5.6640627,4.1796874 5.8203125,4.1015625 5.9570311,4.0429688 6.0937501,3.8671872 6.2109375,3.5546875 6.3281249,3.261719 6.3867187,2.8320307 6.3867187,2.2851563 6.3867187,1.5234383 6.0546869,0.95703086 5.4296875,0.56640625 4.8046881,0.19531287 3.984374,0 3.0078125,0 2.2460945,0 1.601562,0.19531287 1.0546875,0.56640625 0.50781305,0.93749963 0.234375,1.4257819 0.234375,2.0507813 c 0,0.3320309 0.0976565,0.6054689 0.33203125,0.8398437 0.21484354,0.2343748 0.48828155,0.3320313 0.80078125,0.3320313 0.3124997,0 0.5859377,-0.097657 0.8203125,-0.3320313 0.2343748,-0.2343748 0.3515625,-0.5078128 0.3515625,-0.8398437 0,-0.1367187 -0.136719,-0.292969 -0.3710937,-0.4687501 C 1.933594,1.4257814 1.8164062,1.2695311 1.8164062,1.1132812 c 0,-0.42968702 0.4101571,-0.6445312 1.1914063,-0.6445312 0.8789054,0 1.328125,0.60547 1.328125,1.8164063 l 0,0.15625 0,0.6445312 C 4.296875,3.554687 4.2382811,3.8867189 4.1210937,4.0625 3.9648439,4.2968748 3.6914059,4.4140625 3.3398438,4.4140625 l -1.6015626,0 C 1.5429689,4.4335937 1.4648437,4.5312502 1.4648437,4.7070312 1.4648437,4.9023436 1.5429689,5 1.7382812,5 L 3.3398438,5 C 3.6523434,5 3.8671877,5.0976564 4.0234375,5.2734375 4.1796873,5.4687498 4.2578125,5.6640627 4.296875,5.8789062 4.3164062,6.113281 4.3359375,6.4453129 4.3359375,6.875 l 0,0.3320312 c 0,0.6640619 -0.097656,1.210938 -0.2929688,1.6601563 C 3.8476564,9.3164058 3.5351558,9.53125 3.0859375,9.53125 2.7343754,9.53125 2.4218748,9.4726561 2.1875,9.3554688 1.933594,9.2382814 1.8164062,9.0624997 1.8164062,8.8085938 1.8164062,8.6523439 1.933594,8.4765623 2.2070313,8.28125 2.4804685,8.0859377 2.6171875,7.9101561 2.6171875,7.734375 c 0,-0.3515621 -0.136719,-0.6445315 -0.390625,-0.9179688 -0.253906,-0.2539059 -0.5664066,-0.390625 -0.9179688,-0.390625 -0.3515621,0 -0.6640627,0.1367191 -0.9179687,0.390625 C 0.11718777,7.0703122 0,7.3828129 0,7.734375 0,8.4374993 0.29296938,8.9843754 0.91796875,9.3945313 1.5429681,9.8046871 2.2656258,10 3.0859375,10 4.1210927,10 4.9804694,9.7656245 5.6445312,9.2773438 6.3085931,8.8085942 6.6601562,8.1054679 6.6601562,7.2070312 c 0,-0.4687495 -0.078125,-0.839844 -0.234375,-1.1523437 C 6.2695314,5.7421878 6.1132811,5.5468749 5.9570312,5.4296875 5.7812502,5.3125001 5.6249998,5.1953124 5.46875,5.078125 5.3125002,4.9609376 5.2539062,4.8437499 5.2539062,4.7070312"
           style="fill:#000000;fill-opacity:1;stroke:none;font-family:MScore"
           id="path4705"
           inkscape:connector-curvature="0" />
      </g>
      <g
         style="fill:#000000;fill-opacity:1;stroke:none;font-family:MScore"
         id="text3941">
        <path
           d="m 3.0078075,10.253906 c -0.2148435,0 -0.4296877,-0.01953 -0.6640625,-0.05859 C 2.1093702,10.15625 1.9335886,10.097656 1.79687,10.058594 1.6406201,10.019531 1.562495,10 1.5429637,10 c -0.1953123,0 -0.2734375,0.117188 -0.2734375,0.3125 0,0.742187 -0.097656,1.464844 -0.29296871,2.167969 -0.1953123,0.703124 -0.41015652,1.308594 -0.68359375,1.816406 -0.27343722,0.507812 -0.54687527,0.976563 -0.8203125,1.367188 -0.27343722,0.410155 -0.50781274,0.722656 -0.70312504,0.957031 -0.1953123,0.234375 -0.2929687,0.371094 -0.2929687,0.410156 0,0.117187 0.039063,0.234375 0.15625,0.332031 C -1.2695364,17.460937 -1.113286,17.5 -0.89844251,17.5 l 3.33984371,0 0,0.15625 c 0,0.507812 -0.136719,0.957032 -0.4101562,1.328125 -0.2734372,0.371093 -0.6250004,0.546875 -1.05468751,0.546875 -0.15624984,0 -0.234375,0.07813 -0.234375,0.234375 0,0.15625 0.0781252,0.234375 0.234375,0.234375 0.27343721,0 0.72265681,-0.03906 1.30859371,-0.117188 0.585937,-0.07812 1.0156253,-0.136718 1.3085938,-0.136718 0.2929685,0 0.7226568,0.05859 1.3085937,0.136718 C 5.4687444,19.960937 5.8984328,20 6.2109325,20 c 0.1562498,0 0.2539062,-0.07813 0.2539062,-0.234375 0,-0.15625 -0.097656,-0.234375 -0.2539062,-0.234375 -0.4296871,0 -0.7812503,-0.175782 -1.0351563,-0.546875 C 4.902339,18.613282 4.7851512,18.164062 4.7851512,17.65625 l 0,-0.15625 1.4257813,0 c 0.1953123,0 0.3125,-0.09766 0.3125,-0.292969 -0.019531,-0.195312 -0.1171877,-0.292969 -0.3125,-0.292969 l -1.4257813,0 0,-4.902343 C 4.76562,11.835938 4.6679636,11.738281 4.5117137,11.738281 c -0.078125,0 -0.1367187,0.03906 -0.1757812,0.117188 -0.3124997,0.605468 -0.5468752,1.015625 -0.7421875,1.230469 -0.253906,0.312499 -0.4687502,0.488281 -0.625,0.546875 -0.1562499,0.05859 -0.2929689,0.136718 -0.390625,0.234375 -0.097656,0.117187 -0.1367188,0.253906 -0.1367188,0.429687 l 0,2.617187 -3.33984371,0 L 4.7851512,10.3125 c 0.019531,-0.03906 0.039063,-0.07813 0.039063,-0.117187 -0.019531,-0.03906 -0.039063,-0.09766 -0.078125,-0.136719 -0.058594,-0.03906 -0.1367188,-0.078125 -0.2148437,-0.078125 -0.078125,0 -0.2539065,0.058594 -0.5273438,0.136719 -0.2929684,0.09766 -0.6250003,0.136718 -0.9960937,0.136718"
           style="fill:#000000;fill-opacity:1;stroke:none;font-family:MScore"
           id="path4708"
           inkscape:connector-curvature="0" />
      </g>
    </g>
    <g
       transform="matrix(1.38363,0,0,1.38363,71.175782,51.792076)"
       font-size="13"
       font-weight="400"
       font-style="normal"
       id="g3945"
       style="font-size:13px;font-style:normal;font-weight:400;fill:none;stroke:#000000;stroke-width:0.64999998;stroke-linecap:round;stroke-linejoin:bevel;stroke-opacity:1;font-family:Lucida Grande">
      <path
         d="M 0,0 0,-15.25"
         id="polyline3947"
         inkscape:connector-curvature="0" />
    </g>
    <g
       transform="matrix(1.38363,0,0,1.38363,62.519687,53.091468)"
       font-size="20"
       font-weight="400"
       font-style="normal"
       id="g3951"
       style="font-size:20px;font-style:normal;font-weight:400;fill:none;stroke:#000000;stroke-width:1;stroke-linecap:square;stroke-linejoin:bevel;stroke-opacity:1;font-family:MScore">
      <g
         style="fill:#000000;fill-opacity:1;stroke:none;font-family:MScore"
         id="text3953">
        <path
           d="m 4.3945312,-2.7539063 c -1.0742176,0 -2.0703134,0.3906258 -3.0078125,1.1718751 C 0.44921969,-0.80078203 0,0.0390634 0,0.9375 0,1.4843745 0.19531291,1.9335941 0.60546875,2.265625 0.99609336,2.5976559 1.5234382,2.7539063 2.1875,2.7539063 c 1.0546864,0 2.0507822,-0.3906258 2.9882812,-1.1718751 0.9374991,-0.78124917 1.40625,-1.6210946 1.40625,-2.5195312 0,-0.5468745 -0.2148441,-0.9765628 -0.6054687,-1.3085938 C 5.5664067,-2.5781247 5.0390619,-2.7539063 4.3945312,-2.7539063"
           style="fill:#000000;fill-opacity:1;stroke:none;font-family:MScore"
           id="path4701"
           inkscape:connector-curvature="0" />
      </g>
    </g>
    <g
       transform="matrix(1.38363,0,0,1.38363,62.969311,116.65416)"
       font-size="13"
       font-weight="400"
       font-style="normal"
       id="g3957"
       style="font-size:13px;font-style:normal;font-weight:400;fill:none;stroke:#000000;stroke-width:0.64999998;stroke-linecap:round;stroke-linejoin:bevel;stroke-opacity:1;font-family:Lucida Grande">
      <path
         d="M 0,0 0,15.875"
         id="polyline3959"
         inkscape:connector-curvature="0" />
    </g>
    <g
       transform="matrix(1.38363,0,0,1.38363,62.519687,115.35477)"
       font-size="20"
       font-weight="400"
       font-style="normal"
       id="g3963"
       style="font-size:20px;font-style:normal;font-weight:400;fill:none;stroke:#000000;stroke-width:1;stroke-linecap:square;stroke-linejoin:bevel;stroke-opacity:1;font-family:MScore">
      <g
         style="fill:#000000;fill-opacity:1;stroke:none;font-family:MScore"
         id="text3965">
        <path
           d="m 4.3945312,-2.7539063 c -1.0742176,0 -2.0703134,0.3906258 -3.0078125,1.1718751 C 0.44921969,-0.80078203 0,0.0390634 0,0.9375 0,1.4843745 0.19531291,1.9335941 0.60546875,2.265625 0.99609336,2.5976559 1.5234382,2.7539063 2.1875,2.7539063 c 1.0546864,0 2.0507822,-0.3906258 2.9882812,-1.1718751 0.9374991,-0.78124917 1.40625,-1.6210946 1.40625,-2.5195312 0,-0.5468745 -0.2148441,-0.9765628 -0.6054687,-1.3085938 C 5.5664067,-2.5781247 5.0390619,-2.7539063 4.3945312,-2.7539063"
           style="fill:#000000;fill-opacity:1;stroke:none;font-family:MScore"
           id="path4697"
           inkscape:connector-curvature="0" />
      </g>
    </g>
    <g
       transform="matrix(1.38363,0,0,1.38363,111.99759,27.058434)"
       font-size="13"
       font-weight="400"
       font-style="normal"
       id="g3977"
       style="font-size:13px;font-style:normal;font-weight:400;fill:none;stroke:#000000;stroke-width:0.64999998;stroke-linecap:round;stroke-linejoin:bevel;stroke-opacity:1;font-family:Lucida Grande">
      <path
         d="M 0,0 0,17.8759"
         id="polyline3979"
         inkscape:connector-curvature="0" />
    </g>
    <g
       transform="matrix(1.38363,0,0,1.38363,103.34182,53.091468)"
       font-size="20"
       font-weight="400"
       font-style="normal"
       id="g3983"
       style="font-size:20px;font-style:normal;font-weight:400;fill:none;stroke:#000000;stroke-width:1;stroke-linecap:square;stroke-linejoin:bevel;stroke-opacity:1;font-family:MScore">
      <g
         style="fill:#000000;fill-opacity:1;stroke:none;font-family:MScore"
         id="text3985">
        <path
           d="m 4.3945312,-2.7539063 c -1.0742176,0 -2.0703134,0.3906258 -3.0078125,1.1718751 C 0.44921969,-0.80078203 0,0.0390634 0,0.9375 0,1.4843745 0.19531291,1.9335941 0.60546875,2.265625 0.99609336,2.5976559 1.5234382,2.7539063 2.1875,2.7539063 c 1.0546864,0 2.0507822,-0.3906258 2.9882812,-1.1718751 0.9374991,-0.78124917 1.40625,-1.6210946 1.40625,-2.5195312 0,-0.5468745 -0.2148441,-0.9765628 -0.6054687,-1.3085938 C 5.5664067,-2.5781247 5.0390619,-2.7539063 4.3945312,-2.7539063"
           style="fill:#000000;fill-opacity:1;stroke:none;font-family:MScore"
           id="path4693"
           inkscape:connector-curvature="0" />
      </g>
    </g>
    <g
       transform="matrix(1.38363,0,0,1.38363,-56.52575,35.796219)"
       font-size="13"
       font-weight="400"
       font-style="normal"
       id="g3989"
       style="font-size:13px;font-style:normal;font-weight:400;fill:#000000;fill-opacity:1;stroke:none;font-family:Lucida Grande">
      <path
         vector-effect="non-scaling-stroke"
         d="m 121.473,-7.5 19.09,-3.818 0,2.50005 -19.09,3.81795 0,-2.5"
         id="path3991"
         inkscape:connector-curvature="0"
         style="fill-rule:evenodd" />
    </g>
    <g
       transform="matrix(1.38363,0,0,1.38363,103.79145,116.65416)"
       font-size="13"
       font-weight="400"
       font-style="normal"
       id="g3995"
       style="font-size:13px;font-style:normal;font-weight:400;fill:none;stroke:#000000;stroke-width:0.64999998;stroke-linecap:round;stroke-linejoin:bevel;stroke-opacity:1;font-family:Lucida Grande">
      <path
         d="M 0,0 0,15.875"
         id="polyline3997"
         inkscape:connector-curvature="0" />
    </g>
    <g
       transform="matrix(1.38363,0,0,1.38363,103.34182,115.35477)"
       font-size="20"
       font-weight="400"
       font-style="normal"
       id="g4001"
       style="font-size:20px;font-style:normal;font-weight:400;fill:none;stroke:#000000;stroke-width:1;stroke-linecap:square;stroke-linejoin:bevel;stroke-opacity:1;font-family:MScore">
      <g
         style="fill:#000000;fill-opacity:1;stroke:none;font-family:MScore"
         id="text4003">
        <path
           d="m 4.3945312,-2.7539063 c -1.0742176,0 -2.0703134,0.3906258 -3.0078125,1.1718751 C 0.44921969,-0.80078203 0,0.0390634 0,0.9375 0,1.4843745 0.19531291,1.9335941 0.60546875,2.265625 0.99609336,2.5976559 1.5234382,2.7539063 2.1875,2.7539063 c 1.0546864,0 2.0507822,-0.3906258 2.9882812,-1.1718751 0.9374991,-0.78124917 1.40625,-1.6210946 1.40625,-2.5195312 0,-0.5468745 -0.2148441,-0.9765628 -0.6054687,-1.3085938 C 5.5664067,-2.5781247 5.0390619,-2.7539063 4.3945312,-2.7539063"
           style="fill:#000000;fill-opacity:1;stroke:none;font-family:MScore"
           id="path4689"
           inkscape:connector-curvature="0" />
      </g>
    </g>
    <g
       transform="matrix(1.38363,0,0,1.38363,137.51159,21.955839)"
       font-size="13"
       font-weight="400"
       font-style="normal"
       id="g4007"
       style="font-size:13px;font-style:normal;font-weight:400;fill:none;stroke:#000000;stroke-width:0.64999998;stroke-linecap:round;stroke-linejoin:bevel;stroke-opacity:1;font-family:Lucida Grande">
      <path
         d="M 0,0 0,16.5639"
         id="polyline4009"
         inkscape:connector-curvature="0" />
    </g>
    <g
       transform="matrix(1.38363,0,0,1.38363,128.8555,46.173432)"
       font-size="20"
       font-weight="400"
       font-style="normal"
       id="g4013"
       style="font-size:20px;font-style:normal;font-weight:400;fill:none;stroke:#000000;stroke-width:1;stroke-linecap:square;stroke-linejoin:bevel;stroke-opacity:1;font-family:MScore">
      <g
         style="fill:#000000;fill-opacity:1;stroke:none;font-family:MScore"
         id="text4015">
        <path
           d="m 4.3945312,-2.7539063 c -1.0742176,0 -2.0703134,0.3906258 -3.0078125,1.1718751 C 0.44921969,-0.80078203 0,0.0390634 0,0.9375 0,1.4843745 0.19531291,1.9335941 0.60546875,2.265625 0.99609336,2.5976559 1.5234382,2.7539063 2.1875,2.7539063 c 1.0546864,0 2.0507822,-0.3906258 2.9882812,-1.1718751 0.9374991,-0.78124917 1.40625,-1.6210946 1.40625,-2.5195312 0,-0.5468745 -0.2148441,-0.9765628 -0.6054687,-1.3085938 C 5.5664067,-2.5781247 5.0390619,-2.7539063 4.3945312,-2.7539063"
           style="fill:#000000;fill-opacity:1;stroke:none;font-family:MScore"
           id="path4685"
           inkscape:connector-curvature="0" />
      </g>
    </g>
    <g
       transform="matrix(1.38363,0,0,1.38363,154.81912,50.931677)"
       font-size="13"
       font-weight="400"
       font-style="normal"
       id="g4019"
       style="font-size:13px;font-style:normal;font-weight:400;fill:none;stroke:#000000;stroke-width:0.64999998;stroke-linecap:round;stroke-linejoin:bevel;stroke-opacity:1;font-family:Lucida Grande">
      <path
         d="M 0,0 0,13.9959"
         id="polyline4021"
         inkscape:connector-curvature="0" />
    </g>
    <g
       transform="matrix(1.38363,0,0,1.38363,154.3695,49.632288)"
       font-size="20"
       font-weight="400"
       font-style="normal"
       id="g4025"
       style="font-size:20px;font-style:normal;font-weight:400;fill:none;stroke:#000000;stroke-width:1;stroke-linecap:square;stroke-linejoin:bevel;stroke-opacity:1;font-family:MScore">
      <g
         style="fill:#000000;fill-opacity:1;stroke:none;font-family:MScore"
         id="text4027">
        <path
           d="m 4.3945312,-2.7539063 c -1.0742176,0 -2.0703134,0.3906258 -3.0078125,1.1718751 C 0.44921969,-0.80078203 0,0.0390634 0,0.9375 0,1.4843745 0.19531291,1.9335941 0.60546875,2.265625 0.99609336,2.5976559 1.5234382,2.7539063 2.1875,2.7539063 c 1.0546864,0 2.0507822,-0.3906258 2.9882812,-1.1718751 0.9374991,-0.78124917 1.40625,-1.6210946 1.40625,-2.5195312 0,-0.5468745 -0.2148441,-0.9765628 -0.6054687,-1.3085938 C 5.5664067,-2.5781247 5.0390619,-2.7539063 4.3945312,-2.7539063"
           style="fill:#000000;fill-opacity:1;stroke:none;font-family:MScore"
           id="path4681"
           inkscape:connector-curvature="0" />
      </g>
    </g>
    <g
       transform="matrix(1.38363,0,0,1.38363,-56.52575,35.796219)"
       font-size="13"
       font-weight="400"
       font-style="normal"
       id="g4031"
       style="font-size:13px;font-style:normal;font-weight:400;fill:#000000;fill-opacity:1;stroke:none;font-family:Lucida Grande">
      <path
         vector-effect="non-scaling-stroke"
         d="m 152.422,23.75 19.09,-3.818 0,2.5 -19.09,3.818 0,-2.5"
         id="path4033"
         inkscape:connector-curvature="0"
         style="fill-rule:evenodd" />
    </g>
    <g
       transform="matrix(1.38363,0,0,1.38363,154.81912,116.65416)"
       font-size="13"
       font-weight="400"
       font-style="normal"
       id="g4037"
       style="font-size:13px;font-style:normal;font-weight:400;fill:none;stroke:#000000;stroke-width:0.64999998;stroke-linecap:round;stroke-linejoin:bevel;stroke-opacity:1;font-family:Lucida Grande">
      <path
         d="M 0,0 0,15.875"
         id="polyline4039"
         inkscape:connector-curvature="0" />
    </g>
    <g
       transform="matrix(1.38363,0,0,1.38363,154.3695,115.35477)"
       font-size="20"
       font-weight="400"
       font-style="normal"
       id="g4043"
       style="font-size:20px;font-style:normal;font-weight:400;fill:none;stroke:#000000;stroke-width:1;stroke-linecap:square;stroke-linejoin:bevel;stroke-opacity:1;font-family:MScore">
      <g
         style="fill:#000000;fill-opacity:1;stroke:none;font-family:MScore"
         id="text4045">
        <path
           d="m 4.3945312,-2.7539063 c -1.0742176,0 -2.0703134,0.3906258 -3.0078125,1.1718751 C 0.44921969,-0.80078203 0,0.0390634 0,0.9375 0,1.4843745 0.19531291,1.9335941 0.60546875,2.265625 0.99609336,2.5976559 1.5234382,2.7539063 2.1875,2.7539063 c 1.0546864,0 2.0507822,-0.3906258 2.9882812,-1.1718751 0.9374991,-0.78124917 1.40625,-1.6210946 1.40625,-2.5195312 0,-0.5468745 -0.2148441,-0.9765628 -0.6054687,-1.3085938 C 5.5664067,-2.5781247 5.0390619,-2.7539063 4.3945312,-2.7539063"
           style="fill:#000000;fill-opacity:1;stroke:none;font-family:MScore"
           id="path4677"
           inkscape:connector-curvature="0" />
      </g>
    </g>
    <g
       transform="matrix(1.38363,0,0,1.38363,180.3328,44.013642)"
       font-size="13"
       font-weight="400"
       font-style="normal"
       id="g4049"
       style="font-size:13px;font-style:normal;font-weight:400;fill:none;stroke:#000000;stroke-width:0.64999998;stroke-linecap:round;stroke-linejoin:bevel;stroke-opacity:1;font-family:Lucida Grande">
      <path
         d="M 0,0 0,15.308"
         id="polyline4051"
         inkscape:connector-curvature="0" />
    </g>
    <g
       transform="matrix(1.38363,0,0,1.38363,179.88317,42.714253)"
       font-size="20"
       font-weight="400"
       font-style="normal"
       id="g4055"
       style="font-size:20px;font-style:normal;font-weight:400;fill:none;stroke:#000000;stroke-width:1;stroke-linecap:square;stroke-linejoin:bevel;stroke-opacity:1;font-family:MScore">
      <g
         style="fill:#000000;fill-opacity:1;stroke:none;font-family:MScore"
         id="text4057">
        <path
           d="m 4.3945312,-2.7539063 c -1.0742176,0 -2.0703134,0.3906258 -3.0078125,1.1718751 C 0.44921969,-0.80078203 0,0.0390634 0,0.9375 0,1.4843745 0.19531291,1.9335941 0.60546875,2.265625 0.99609336,2.5976559 1.5234382,2.7539063 2.1875,2.7539063 c 1.0546864,0 2.0507822,-0.3906258 2.9882812,-1.1718751 0.9374991,-0.78124917 1.40625,-1.6210946 1.40625,-2.5195312 0,-0.5468745 -0.2148441,-0.9765628 -0.6054687,-1.3085938 C 5.5664067,-2.5781247 5.0390619,-2.7539063 4.3945312,-2.7539063"
           style="fill:#000000;fill-opacity:1;stroke:none;font-family:MScore"
           id="path4673"
           inkscape:connector-curvature="0" />
      </g>
    </g>
    <g
       transform="matrix(1.38363,0,0,1.38363,205.39718,35.796219)"
       font-size="13"
       font-weight="400"
       font-style="normal"
       id="g4061"
       style="font-size:13px;font-style:normal;font-weight:400;fill:none;stroke:#000000;stroke-width:0.80000001;stroke-linecap:butt;stroke-linejoin:bevel;stroke-opacity:1;font-family:Lucida Grande">
      <path
         d="m 0.4,0 0,72.5"
         id="polyline4063"
         inkscape:connector-curvature="0" />
    </g>
    <g
       transform="matrix(1.38363,0,0,1.38363,206.50397,35.796219)"
       font-size="13"
       font-weight="400"
       font-style="normal"
       id="g4069"
       style="font-size:13px;font-style:normal;font-weight:400;fill:none;stroke:#000000;stroke-width:0.40000001;stroke-linecap:butt;stroke-linejoin:bevel;stroke-opacity:1;font-family:Lucida Grande">
      <path
         d="M 0,0 124.287,0"
         id="polyline4071"
         inkscape:connector-curvature="0" />
      <path
         d="M 0,5 124.287,5"
         id="polyline4073"
         inkscape:connector-curvature="0" />
      <path
         d="m 0,10 124.287,0"
         id="polyline4075"
         inkscape:connector-curvature="0" />
      <path
         d="m 0,15 124.287,0"
         id="polyline4077"
         inkscape:connector-curvature="0" />
      <path
         d="m 0,20 124.287,0"
         id="polyline4079"
         inkscape:connector-curvature="0" />
    </g>
    <g
       transform="matrix(1.38363,0,0,1.38363,206.50397,108.43673)"
       font-size="13"
       font-weight="400"
       font-style="normal"
       id="g4083"
       style="font-size:13px;font-style:normal;font-weight:400;fill:none;stroke:#000000;stroke-width:0.40000001;stroke-linecap:butt;stroke-linejoin:bevel;stroke-opacity:1;font-family:Lucida Grande">
      <path
         d="M 0,0 124.287,0"
         id="polyline4085"
         inkscape:connector-curvature="0" />
      <path
         d="M 0,5 124.287,5"
         id="polyline4087"
         inkscape:connector-curvature="0" />
      <path
         d="m 0,10 124.287,0"
         id="polyline4089"
         inkscape:connector-curvature="0" />
      <path
         d="m 0,15 124.287,0"
         id="polyline4091"
         inkscape:connector-curvature="0" />
      <path
         d="m 0,20 124.287,0"
         id="polyline4093"
         inkscape:connector-curvature="0" />
    </g>
    <g
       transform="matrix(1.38363,0,0,1.38363,221.06661,47.472499)"
       font-size="13"
       font-weight="400"
       font-style="normal"
       id="g4097"
       style="font-size:13px;font-style:normal;font-weight:400;fill:none;stroke:#000000;stroke-width:0.64999998;stroke-linecap:round;stroke-linejoin:bevel;stroke-opacity:1;font-family:Lucida Grande">
      <path
         d="M 0,0 0,15.2459"
         id="polyline4099"
         inkscape:connector-curvature="0" />
    </g>
    <g
       transform="matrix(1.38363,0,0,1.38363,220.61698,46.173432)"
       font-size="20"
       font-weight="400"
       font-style="normal"
       id="g4103"
       style="font-size:20px;font-style:normal;font-weight:400;fill:none;stroke:#000000;stroke-width:1;stroke-linecap:square;stroke-linejoin:bevel;stroke-opacity:1;font-family:MScore">
      <g
         style="fill:#000000;fill-opacity:1;stroke:none;font-family:MScore"
         id="text4105">
        <path
           d="m 4.3945312,-2.7539063 c -1.0742176,0 -2.0703134,0.3906258 -3.0078125,1.1718751 C 0.44921969,-0.80078203 0,0.0390634 0,0.9375 0,1.4843745 0.19531291,1.9335941 0.60546875,2.265625 0.99609336,2.5976559 1.5234382,2.7539063 2.1875,2.7539063 c 1.0546864,0 2.0507822,-0.3906258 2.9882812,-1.1718751 0.9374991,-0.78124917 1.40625,-1.6210946 1.40625,-2.5195312 0,-0.5468745 -0.2148441,-0.9765628 -0.6054687,-1.3085938 C 5.5664067,-2.5781247 5.0390619,-2.7539063 4.3945312,-2.7539063"
           style="fill:#000000;fill-opacity:1;stroke:none;font-family:MScore"
           id="path4658"
           inkscape:connector-curvature="0" />
      </g>
    </g>
    <g
       transform="matrix(1.38363,0,0,1.38363,-56.52575,35.796219)"
       font-size="13"
       font-weight="400"
       font-style="normal"
       id="g4109"
       style="font-size:13px;font-style:normal;font-weight:400;fill:#000000;fill-opacity:1;stroke:none;font-family:Lucida Grande">
      <path
         vector-effect="non-scaling-stroke"
         d="m 200.301,22.5 20.88,-4.176 0,2.5 -20.88,4.176 0,-2.5"
         id="path4111"
         inkscape:connector-curvature="0"
         style="fill-rule:evenodd" />
    </g>
    <g
       transform="matrix(1.38363,0,0,1.38363,221.06661,120.11301)"
       font-size="13"
       font-weight="400"
       font-style="normal"
       id="g4115"
       style="font-size:13px;font-style:normal;font-weight:400;fill:none;stroke:#000000;stroke-width:0.64999998;stroke-linecap:round;stroke-linejoin:bevel;stroke-opacity:1;font-family:Lucida Grande">
      <path
         d="M 0,0 0,15.25"
         id="polyline4117"
         inkscape:connector-curvature="0" />
    </g>
    <g
       transform="matrix(1.38363,0,0,1.38363,220.61698,118.81395)"
       font-size="20"
       font-weight="400"
       font-style="normal"
       id="g4121"
       style="font-size:20px;font-style:normal;font-weight:400;fill:none;stroke:#000000;stroke-width:1;stroke-linecap:square;stroke-linejoin:bevel;stroke-opacity:1;font-family:MScore">
      <g
         style="fill:#000000;fill-opacity:1;stroke:none;font-family:MScore"
         id="text4123">
        <path
           d="m 4.3945312,-2.7539063 c -1.0742176,0 -2.0703134,0.3906258 -3.0078125,1.1718751 C 0.44921969,-0.80078203 0,0.0390634 0,0.9375 0,1.4843745 0.19531291,1.9335941 0.60546875,2.265625 0.99609336,2.5976559 1.5234382,2.7539063 2.1875,2.7539063 c 1.0546864,0 2.0507822,-0.3906258 2.9882812,-1.1718751 0.9374991,-0.78124917 1.40625,-1.6210946 1.40625,-2.5195312 0,-0.5468745 -0.2148441,-0.9765628 -0.6054687,-1.3085938 C 5.5664067,-2.5781247 5.0390619,-2.7539063 4.3945312,-2.7539063"
           style="fill:#000000;fill-opacity:1;stroke:none;font-family:MScore"
           id="path4654"
           inkscape:connector-curvature="0" />
      </g>
    </g>
    <g
       transform="matrix(1.38363,0,0,1.38363,249.05587,40.554464)"
       font-size="13"
       font-weight="400"
       font-style="normal"
       id="g4127"
       style="font-size:13px;font-style:normal;font-weight:400;fill:none;stroke:#000000;stroke-width:0.64999998;stroke-linecap:round;stroke-linejoin:bevel;stroke-opacity:1;font-family:Lucida Grande">
      <path
         d="M 0,0 0,16.2"
         id="polyline4129"
         inkscape:connector-curvature="0" />
    </g>
    <g
       transform="matrix(1.38363,0,0,1.38363,248.60758,39.255068)"
       font-size="20"
       font-weight="400"
       font-style="normal"
       id="g4133"
       style="font-size:20px;font-style:normal;font-weight:400;fill:none;stroke:#000000;stroke-width:1;stroke-linecap:square;stroke-linejoin:bevel;stroke-opacity:1;font-family:MScore">
      <g
         style="fill:#000000;fill-opacity:1;stroke:none;font-family:MScore"
         id="text4135">
        <path
           d="m 4.3945312,-2.7539063 c -1.0742176,0 -2.0703134,0.3906258 -3.0078125,1.1718751 C 0.44921969,-0.80078203 0,0.0390634 0,0.9375 0,1.4843745 0.19531291,1.9335941 0.60546875,2.265625 0.99609336,2.5976559 1.5234382,2.7539063 2.1875,2.7539063 c 1.0546864,0 2.0507822,-0.3906258 2.9882812,-1.1718751 0.9374991,-0.78124917 1.40625,-1.6210946 1.40625,-2.5195312 0,-0.5468745 -0.2148441,-0.9765628 -0.6054687,-1.3085938 C 5.5664067,-2.5781247 5.0390619,-2.7539063 4.3945312,-2.7539063"
           style="fill:#000000;fill-opacity:1;stroke:none;font-family:MScore"
           id="path4650"
           inkscape:connector-curvature="0" />
      </g>
    </g>
    <g
       transform="matrix(1.38363,0,0,1.38363,285.25492,55.251256)"
       font-size="13"
       font-weight="400"
       font-style="normal"
       id="g4139"
       style="font-size:13px;font-style:normal;font-weight:400;fill:none;stroke:#000000;stroke-width:0.64999998;stroke-linecap:round;stroke-linejoin:bevel;stroke-opacity:1;font-family:Lucida Grande">
      <path
         d="M 0,0 0,-15.875"
         id="polyline4141"
         inkscape:connector-curvature="0" />
    </g>
    <g
       transform="matrix(1.38363,0,0,1.38363,276.59783,56.550654)"
       font-size="20"
       font-weight="400"
       font-style="normal"
       id="g4145"
       style="font-size:20px;font-style:normal;font-weight:400;fill:none;stroke:#000000;stroke-width:1;stroke-linecap:square;stroke-linejoin:bevel;stroke-opacity:1;font-family:MScore">
      <g
         style="fill:#000000;fill-opacity:1;stroke:none;font-family:MScore"
         id="text4147">
        <path
           d="m 4.3945312,-2.7539063 c -1.0742176,0 -2.0703134,0.3906258 -3.0078125,1.1718751 C 0.44921969,-0.80078203 0,0.0390634 0,0.9375 0,1.4843745 0.19531291,1.9335941 0.60546875,2.265625 0.99609336,2.5976559 1.5234382,2.7539063 2.1875,2.7539063 c 1.0546864,0 2.0507822,-0.3906258 2.9882812,-1.1718751 0.9374991,-0.78124917 1.40625,-1.6210946 1.40625,-2.5195312 0,-0.5468745 -0.2148441,-0.9765628 -0.6054687,-1.3085938 C 5.5664067,-2.5781247 5.0390619,-2.7539063 4.3945312,-2.7539063"
           style="fill:#000000;fill-opacity:1;stroke:none;font-family:MScore"
           id="path4646"
           inkscape:connector-curvature="0" />
      </g>
    </g>
    <g
       transform="matrix(1.38363,0,0,1.38363,288.12402,53.091468)"
       font-size="20"
       font-weight="400"
       font-style="normal"
       id="g4151"
       style="font-size:20px;font-style:normal;font-weight:400;fill:none;stroke:#000000;stroke-width:1;stroke-linecap:square;stroke-linejoin:bevel;stroke-opacity:1;font-family:MScore">
      <g
         style="fill:#000000;fill-opacity:1;stroke:none;font-family:MScore"
         id="text4153">
        <path
           d="M 0,0 C 0,0.31249969 0.09765648,0.58593771 0.33203125,0.80078125 0.54687479,1.035156 0.82031281,1.1328125 1.1328125,1.1328125 c 0.3124997,0 0.5664065,-0.097657 0.8007812,-0.33203125 C 2.1484373,0.58593771 2.265625,0.31249969 2.265625,0 c 0,-0.31249969 -0.1171877,-0.56640648 -0.3320313,-0.80078125 C 1.699219,-1.0156248 1.4453122,-1.1328125 1.1328125,-1.1328125 c -0.31249969,0 -0.58593771,0.1171877 -0.80078125,0.33203125 C 0.09765648,-0.56640648 0,-0.31249969 0,0"
           style="fill:#000000;fill-opacity:1;stroke:none;font-family:MScore"
           id="path4643"
           inkscape:connector-curvature="0" />
      </g>
    </g>
    <g
       transform="matrix(1.38363,0,0,1.38363,277.04612,120.11301)"
       font-size="13"
       font-weight="400"
       font-style="normal"
       id="g4157"
       style="font-size:13px;font-style:normal;font-weight:400;fill:none;stroke:#000000;stroke-width:0.64999998;stroke-linecap:round;stroke-linejoin:bevel;stroke-opacity:1;font-family:Lucida Grande">
      <path
         d="M 0,0 0,15.25"
         id="polyline4159"
         inkscape:connector-curvature="0" />
    </g>
    <g
       transform="matrix(1.38363,0,0,1.38363,276.59783,118.81395)"
       font-size="20"
       font-weight="400"
       font-style="normal"
       id="g4163"
       style="font-size:20px;font-style:normal;font-weight:400;fill:none;stroke:#000000;stroke-width:1;stroke-linecap:square;stroke-linejoin:bevel;stroke-opacity:1;font-family:MScore">
      <g
         style="fill:#000000;fill-opacity:1;stroke:none;font-family:MScore"
         id="text4165">
        <path
           d="m 4.3945312,-2.7539063 c -1.0742176,0 -2.0703134,0.3906258 -3.0078125,1.1718751 C 0.44921969,-0.80078203 0,0.0390634 0,0.9375 0,1.4843745 0.19531291,1.9335941 0.60546875,2.265625 0.99609336,2.5976559 1.5234382,2.7539063 2.1875,2.7539063 c 1.0546864,0 2.0507822,-0.3906258 2.9882812,-1.1718751 0.9374991,-0.78124917 1.40625,-1.6210946 1.40625,-2.5195312 0,-0.5468745 -0.2148441,-0.9765628 -0.6054687,-1.3085938 C 5.5664067,-2.5781247 5.0390619,-2.7539063 4.3945312,-2.7539063"
           style="fill:#000000;fill-opacity:1;stroke:none;font-family:MScore"
           id="path4639"
           inkscape:connector-curvature="0" />
      </g>
    </g>
    <g
       transform="matrix(1.38363,0,0,1.38363,321.83252,120.11301)"
       font-size="13"
       font-weight="400"
       font-style="normal"
       id="g4169"
       style="font-size:13px;font-style:normal;font-weight:400;fill:none;stroke:#000000;stroke-width:0.64999998;stroke-linecap:round;stroke-linejoin:bevel;stroke-opacity:1;font-family:Lucida Grande">
      <path
         d="M 0,0 0,15.25"
         id="polyline4171"
         inkscape:connector-curvature="0" />
    </g>
    <g
       transform="matrix(1.38363,0,0,1.38363,321.38424,118.81395)"
       font-size="20"
       font-weight="400"
       font-style="normal"
       id="g4175"
       style="font-size:20px;font-style:normal;font-weight:400;fill:none;stroke:#000000;stroke-width:1;stroke-linecap:square;stroke-linejoin:bevel;stroke-opacity:1;font-family:MScore">
      <g
         style="fill:#000000;fill-opacity:1;stroke:none;font-family:MScore"
         id="text4177">
        <path
           d="m 4.3945312,-2.7539063 c -1.0742176,0 -2.0703134,0.3906258 -3.0078125,1.1718751 C 0.44921969,-0.80078203 0,0.0390634 0,0.9375 0,1.4843745 0.19531291,1.9335941 0.60546875,2.265625 0.99609336,2.5976559 1.5234382,2.7539063 2.1875,2.7539063 c 1.0546864,0 2.0507822,-0.3906258 2.9882812,-1.1718751 0.9374991,-0.78124917 1.40625,-1.6210946 1.40625,-2.5195312 0,-0.5468745 -0.2148441,-0.9765628 -0.6054687,-1.3085938 C 5.5664067,-2.5781247 5.0390619,-2.7539063 4.3945312,-2.7539063"
           style="fill:#000000;fill-opacity:1;stroke:none;font-family:MScore"
           id="path4635"
           inkscape:connector-curvature="0" />
      </g>
    </g>
    <g
       transform="matrix(1.38363,0,0,1.38363,358.47988,33.286091)"
       font-size="20"
       font-weight="400"
       font-style="normal"
       id="g4181"
       style="font-size:20px;font-style:normal;font-weight:400;fill:none;stroke:#000000;stroke-width:1;stroke-linecap:square;stroke-linejoin:bevel;stroke-opacity:1;font-family:MScore">
      <g
         style="fill:#000000;fill-opacity:1;stroke:none;font-family:MScore"
         id="text4183">
        <path
           d="M -0.3125,5 0,5 c 0.62499938,0.6640618 1.1523442,1.2500005 1.5625,1.71875 0.3906246,0.4687495 0.8007816,1.0937508 1.1914063,1.8554688 0.3906246,0.7617179 0.5859375,1.4648442 0.5859375,2.0898442 0,1.249998 -0.2929693,2.519532 -0.8398438,3.828125 -0.039063,0.156249 10e-8,0.292968 0.1171875,0.390625 0.097656,0.117187 0.2148439,0.15625 0.3515625,0.15625 0.1562498,0 0.2734376,-0.07813 0.3710938,-0.234375 0.5468744,-1.42578 0.8398437,-2.812502 0.8398437,-4.140625 C 4.1796875,9.941407 4.0234372,9.199218 3.75,8.4375 3.4570315,7.6953132 3.1054683,6.9726556 2.6953125,6.3085937 L 1.4648437,4.3359375 C 1.0546879,3.6914069 0.70312473,2.9882805 0.4296875,2.2265625 0.13671904,1.4648445 0,0.72265553 0,0 l -0.3125,0 0,5"
           style="fill:#000000;fill-opacity:1;stroke:none;font-family:MScore"
           id="path4632"
           inkscape:connector-curvature="0" />
      </g>
    </g>
    <g
       transform="matrix(1.38363,0,0,1.38363,358.02826,55.251256)"
       font-size="13"
       font-weight="400"
       font-style="normal"
       id="g4187"
       style="font-size:13px;font-style:normal;font-weight:400;fill:none;stroke:#000000;stroke-width:0.64999998;stroke-linecap:round;stroke-linejoin:bevel;stroke-opacity:1;font-family:Lucida Grande">
      <path
         d="M 0,0 0,-15.875"
         id="polyline4189"
         inkscape:connector-curvature="0" />
    </g>
    <g
       transform="matrix(1.38363,0,0,1.38363,349.37449,56.550654)"
       font-size="20"
       font-weight="400"
       font-style="normal"
       id="g4193"
       style="font-size:20px;font-style:normal;font-weight:400;fill:none;stroke:#000000;stroke-width:1;stroke-linecap:square;stroke-linejoin:bevel;stroke-opacity:1;font-family:MScore">
      <g
         style="fill:#000000;fill-opacity:1;stroke:none;font-family:MScore"
         id="text4195">
        <path
           d="m 4.3945312,-2.7539063 c -1.0742176,0 -2.0703134,0.3906258 -3.0078125,1.1718751 C 0.44921969,-0.80078203 0,0.0390634 0,0.9375 0,1.4843745 0.19531291,1.9335941 0.60546875,2.265625 0.99609336,2.5976559 1.5234382,2.7539063 2.1875,2.7539063 c 1.0546864,0 2.0507822,-0.3906258 2.9882812,-1.1718751 0.9374991,-0.78124917 1.40625,-1.6210946 1.40625,-2.5195312 0,-0.5468745 -0.2148441,-0.9765628 -0.6054687,-1.3085938 C 5.5664067,-2.5781247 5.0390619,-2.7539063 4.3945312,-2.7539063"
           style="fill:#000000;fill-opacity:1;stroke:none;font-family:MScore"
           id="path4628"
           inkscape:connector-curvature="0" />
      </g>
    </g>
    <g
       transform="matrix(1.38363,0,0,1.38363,340.24254,56.550654)"
       font-size="20"
       font-weight="400"
       font-style="normal"
       id="g4199"
       style="font-size:20px;font-style:normal;font-weight:400;fill:none;stroke:#000000;stroke-width:1;stroke-linecap:square;stroke-linejoin:bevel;stroke-opacity:1;font-family:MScore">
      <g
         style="fill:#000000;fill-opacity:1;stroke:none;font-family:MScore"
         id="text4201">
        <path
           d="m 4.3164062,6.2304687 0,-3.1445312 L 5.234375,2.734375 C 5.4101561,2.6757813 5.5078125,2.5585936 5.5078125,2.3828125 l 0,-1.2109375 c 0,-0.097656 -0.058594,-0.19531258 -0.1367188,-0.2734375 C 5.2929688,0.82031258 5.1953124,0.78125 5.0976562,0.78125 c -0.078125,0 -0.1171875,0.0195313 -0.1367187,0.0195313 l -0.6445313,0.2148437 0,-3.203125 L 5.234375,-2.5 c 0.1757811,-0.058594 0.2734375,-0.1757814 0.2734375,-0.3710938 l 0,-1.2109374 c 0,-0.097656 -0.058594,-0.1953126 -0.1367188,-0.2734375 -0.078125,-0.078125 -0.1757813,-0.1171875 -0.2734375,-0.1171875 -0.078125,0 -0.1171875,0.019531 -0.1367187,0.019531 l -0.6445313,0.234375 0,-2.9101562 C 4.3164062,-7.363281 4.1796873,-7.5 3.9453125,-7.5 c -0.253906,0 -0.3710937,0.136719 -0.3710937,0.3710938 l 0,3.1640624 -1.6601563,0.625 0,-2.8906249 c 0,-0.2343748 -0.136719,-0.3710938 -0.3710938,-0.3710938 -0.2539059,0 -0.3710937,0.136719 -0.3710937,0.3710938 l 0,3.1445312 -0.91796875,0.3515625 C 0.07812518,-2.6562501 0,-2.5390623 0,-2.3828125 l 0,1.2109375 c 0,0.1171874 0.03906258,0.19531258 0.1171875,0.2734375 0.0781249,0.0781249 0.15625012,0.1171875 0.2734375,0.1171875 0.0781249,0 0.11718754,-2e-8 0.15625,-0.0195313 l 0.625,-0.2148438 0,3.2031251 L 0.25390625,2.5 C 0.07812518,2.5781249 0,2.6953127 0,2.8710938 l 0,1.2109374 c 0,0.1171874 0.03906258,0.1953126 0.1171875,0.2734375 0.0781249,0.078125 0.15625012,0.1171875 0.2734375,0.1171875 0.0781249,0 0.11718754,0 0.15625,-0.019531 l 0.625,-0.234375 0,2.9101562 C 1.171875,7.3828122 1.2890628,7.5 1.5429687,7.5 1.7773435,7.5 1.9140625,7.3828122 1.9140625,7.1289062 l 0,-3.1640624 1.6601563,-0.625 0,2.8906249 c 0,0.253906 0.1171877,0.3710938 0.3710937,0.3710938 0.2343748,0 0.3710937,-0.1171878 0.3710937,-0.3710938 m -0.7421874,-8.1249999 0,3.2031249 -1.6601563,0.5859375 0,-3.2031249 1.6601563,-0.5859375"
           style="fill:#000000;fill-opacity:1;stroke:none;font-family:MScore"
           id="path4625"
           inkscape:connector-curvature="0" />
      </g>
    </g>
    <g
       transform="matrix(1.38363,0,0,1.38363,377.36475,35.796219)"
       font-size="13"
       font-weight="400"
       font-style="normal"
       id="g4205"
       style="font-size:13px;font-style:normal;font-weight:400;fill:none;stroke:#000000;stroke-width:0.80000001;stroke-linecap:butt;stroke-linejoin:bevel;stroke-opacity:1;font-family:Lucida Grande">
      <path
         d="m 0.4,0 0,72.5"
         id="polyline4207"
         inkscape:connector-curvature="0" />
    </g>
    <g
       transform="matrix(1.38363,0,0,1.38363,378.47053,35.796219)"
       font-size="13"
       font-weight="400"
       font-style="normal"
       id="g4213"
       style="font-size:13px;font-style:normal;font-weight:400;fill:none;stroke:#000000;stroke-width:0.40000001;stroke-linecap:butt;stroke-linejoin:bevel;stroke-opacity:1;font-family:Lucida Grande">
      <path
         d="M 0,0 122.094,0"
         id="polyline4215"
         inkscape:connector-curvature="0" />
      <path
         d="M 0,5 122.094,5"
         id="polyline4217"
         inkscape:connector-curvature="0" />
      <path
         d="m 0,10 122.094,0"
         id="polyline4219"
         inkscape:connector-curvature="0" />
      <path
         d="m 0,15 122.094,0"
         id="polyline4221"
         inkscape:connector-curvature="0" />
      <path
         d="m 0,20 122.094,0"
         id="polyline4223"
         inkscape:connector-curvature="0" />
    </g>
    <g
       transform="matrix(1.38363,0,0,1.38363,378.47053,108.43673)"
       font-size="13"
       font-weight="400"
       font-style="normal"
       id="g4227"
       style="font-size:13px;font-style:normal;font-weight:400;fill:none;stroke:#000000;stroke-width:0.40000001;stroke-linecap:butt;stroke-linejoin:bevel;stroke-opacity:1;font-family:Lucida Grande">
      <path
         d="M 0,0 122.094,0"
         id="polyline4229"
         inkscape:connector-curvature="0" />
      <path
         d="M 0,5 122.094,5"
         id="polyline4231"
         inkscape:connector-curvature="0" />
      <path
         d="m 0,10 122.094,0"
         id="polyline4233"
         inkscape:connector-curvature="0" />
      <path
         d="m 0,15 122.094,0"
         id="polyline4235"
         inkscape:connector-curvature="0" />
      <path
         d="m 0,20 122.094,0"
         id="polyline4237"
         inkscape:connector-curvature="0" />
    </g>
    <g
       transform="matrix(1.38363,0,0,1.38363,401.24064,30.697268)"
       font-size="13"
       font-weight="400"
       font-style="normal"
       id="g4241"
       style="font-size:13px;font-style:normal;font-weight:400;fill:none;stroke:#000000;stroke-width:0.64999998;stroke-linecap:round;stroke-linejoin:bevel;stroke-opacity:1;font-family:Lucida Grande">
      <path
         d="M 0,0 0,15.2459"
         id="polyline4243"
         inkscape:connector-curvature="0" />
    </g>
    <g
       transform="matrix(1.38363,0,0,1.38363,392.58356,53.091468)"
       font-size="20"
       font-weight="400"
       font-style="normal"
       id="g4247"
       style="font-size:20px;font-style:normal;font-weight:400;fill:none;stroke:#000000;stroke-width:1;stroke-linecap:square;stroke-linejoin:bevel;stroke-opacity:1;font-family:MScore">
      <g
         style="fill:#000000;fill-opacity:1;stroke:none;font-family:MScore"
         id="text4249">
        <path
           d="m 4.3945312,-2.7539063 c -1.0742176,0 -2.0703134,0.3906258 -3.0078125,1.1718751 C 0.44921969,-0.80078203 0,0.0390634 0,0.9375 0,1.4843745 0.19531291,1.9335941 0.60546875,2.265625 0.99609336,2.5976559 1.5234382,2.7539063 2.1875,2.7539063 c 1.0546864,0 2.0507822,-0.3906258 2.9882812,-1.1718751 0.9374991,-0.78124917 1.40625,-1.6210946 1.40625,-2.5195312 0,-0.5468745 -0.2148441,-0.9765628 -0.6054687,-1.3085938 C 5.5664067,-2.5781247 5.0390619,-2.7539063 4.3945312,-2.7539063"
           style="fill:#000000;fill-opacity:1;stroke:none;font-family:MScore"
           id="path4610"
           inkscape:connector-curvature="0" />
      </g>
    </g>
    <g
       transform="matrix(1.38363,0,0,1.38363,-56.52575,35.796219)"
       font-size="13"
       font-weight="400"
       font-style="normal"
       id="g4253"
       style="font-size:13px;font-style:normal;font-weight:400;fill:#000000;fill-opacity:1;stroke:none;font-family:Lucida Grande">
      <path
         vector-effect="non-scaling-stroke"
         d="m 330.519,-5 19.166,3.83312 0,2.5 -19.166,-3.83312 0,-2.5"
         id="path4255"
         inkscape:connector-curvature="0"
         style="fill-rule:evenodd" />
    </g>
    <g
       transform="matrix(1.38363,0,0,1.38363,393.03518,116.65416)"
       font-size="13"
       font-weight="400"
       font-style="normal"
       id="g4259"
       style="font-size:13px;font-style:normal;font-weight:400;fill:none;stroke:#000000;stroke-width:0.64999998;stroke-linecap:round;stroke-linejoin:bevel;stroke-opacity:1;font-family:Lucida Grande">
      <path
         d="M 0,0 0,15.875"
         id="polyline4261"
         inkscape:connector-curvature="0" />
    </g>
    <g
       transform="matrix(1.38363,0,0,1.38363,392.58356,115.35477)"
       font-size="20"
       font-weight="400"
       font-style="normal"
       id="g4265"
       style="font-size:20px;font-style:normal;font-weight:400;fill:none;stroke:#000000;stroke-width:1;stroke-linecap:square;stroke-linejoin:bevel;stroke-opacity:1;font-family:MScore">
      <g
         style="fill:#000000;fill-opacity:1;stroke:none;font-family:MScore"
         id="text4267">
        <path
           d="m 4.3945312,-2.7539063 c -1.0742176,0 -2.0703134,0.3906258 -3.0078125,1.1718751 C 0.44921969,-0.80078203 0,0.0390634 0,0.9375 0,1.4843745 0.19531291,1.9335941 0.60546875,2.265625 0.99609336,2.5976559 1.5234382,2.7539063 2.1875,2.7539063 c 1.0546864,0 2.0507822,-0.3906258 2.9882812,-1.1718751 0.9374991,-0.78124917 1.40625,-1.6210946 1.40625,-2.5195312 0,-0.5468745 -0.2148441,-0.9765628 -0.6054687,-1.3085938 C 5.5664067,-2.5781247 5.0390619,-2.7539063 4.3945312,-2.7539063"
           style="fill:#000000;fill-opacity:1;stroke:none;font-family:MScore"
           id="path4606"
           inkscape:connector-curvature="0" />
      </g>
    </g>
    <g
       transform="matrix(1.38363,0,0,1.38363,426.85991,35.821121)"
       font-size="13"
       font-weight="400"
       font-style="normal"
       id="g4271"
       style="font-size:13px;font-style:normal;font-weight:400;fill:none;stroke:#000000;stroke-width:0.64999998;stroke-linecap:round;stroke-linejoin:bevel;stroke-opacity:1;font-family:Lucida Grande">
      <path
         d="M 0,0 0,16.5428"
         id="polyline4273"
         inkscape:connector-curvature="0" />
    </g>
    <g
       transform="matrix(1.38363,0,0,1.38363,418.20283,60.009501)"
       font-size="20"
       font-weight="400"
       font-style="normal"
       id="g4277"
       style="font-size:20px;font-style:normal;font-weight:400;fill:none;stroke:#000000;stroke-width:1;stroke-linecap:square;stroke-linejoin:bevel;stroke-opacity:1;font-family:MScore">
      <g
         style="fill:#000000;fill-opacity:1;stroke:none;font-family:MScore"
         id="text4279">
        <path
           d="m 4.3945312,-2.7539063 c -1.0742176,0 -2.0703134,0.3906258 -3.0078125,1.1718751 C 0.44921969,-0.80078203 0,0.0390634 0,0.9375 0,1.4843745 0.19531291,1.9335941 0.60546875,2.265625 0.99609336,2.5976559 1.5234382,2.7539063 2.1875,2.7539063 c 1.0546864,0 2.0507822,-0.3906258 2.9882812,-1.1718751 0.9374991,-0.78124917 1.40625,-1.6210946 1.40625,-2.5195312 0,-0.5468745 -0.2148441,-0.9765628 -0.6054687,-1.3085938 C 5.5664067,-2.5781247 5.0390619,-2.7539063 4.3945312,-2.7539063"
           style="fill:#000000;fill-opacity:1;stroke:none;font-family:MScore"
           id="path4602"
           inkscape:connector-curvature="0" />
      </g>
    </g>
    <g
       transform="matrix(1.38363,0,0,1.38363,452.47587,42.77502)"
       font-size="13"
       font-weight="400"
       font-style="normal"
       id="g4283"
       style="font-size:13px;font-style:normal;font-weight:400;fill:none;stroke:#000000;stroke-width:0.64999998;stroke-linecap:round;stroke-linejoin:bevel;stroke-opacity:1;font-family:Lucida Grande">
      <path
         d="M 0,0 0,14.017"
         id="polyline4285"
         inkscape:connector-curvature="0" />
    </g>
    <g
       transform="matrix(1.38363,0,0,1.38363,443.8221,63.468685)"
       font-size="20"
       font-weight="400"
       font-style="normal"
       id="g4289"
       style="font-size:20px;font-style:normal;font-weight:400;fill:none;stroke:#000000;stroke-width:1;stroke-linecap:square;stroke-linejoin:bevel;stroke-opacity:1;font-family:MScore">
      <g
         style="fill:#000000;fill-opacity:1;stroke:none;font-family:MScore"
         id="text4291">
        <path
           d="m 4.3945312,-2.7539063 c -1.0742176,0 -2.0703134,0.3906258 -3.0078125,1.1718751 C 0.44921969,-0.80078203 0,0.0390634 0,0.9375 0,1.4843745 0.19531291,1.9335941 0.60546875,2.265625 0.99609336,2.5976559 1.5234382,2.7539063 2.1875,2.7539063 c 1.0546864,0 2.0507822,-0.3906258 2.9882812,-1.1718751 0.9374991,-0.78124917 1.40625,-1.6210946 1.40625,-2.5195312 0,-0.5468745 -0.2148441,-0.9765628 -0.6054687,-1.3085938 C 5.5664067,-2.5781247 5.0390619,-2.7539063 4.3945312,-2.7539063"
           style="fill:#000000;fill-opacity:1;stroke:none;font-family:MScore"
           id="path4598"
           inkscape:connector-curvature="0" />
      </g>
    </g>
    <g
       transform="matrix(1.38363,0,0,1.38363,-56.52575,35.796219)"
       font-size="13"
       font-weight="400"
       font-style="normal"
       id="g4295"
       style="font-size:13px;font-style:normal;font-weight:400;fill:#000000;fill-opacity:1;stroke:none;font-family:Lucida Grande">
      <path
         vector-effect="non-scaling-stroke"
         d="m 367.55,3.75 19.166,2.58776 0,2.5 L 367.55,6.25 l 0,-2.5"
         id="path4297"
         inkscape:connector-curvature="0"
         style="fill-rule:evenodd" />
    </g>
    <g
       transform="matrix(1.38363,0,0,1.38363,444.27039,113.19497)"
       font-size="13"
       font-weight="400"
       font-style="normal"
       id="g4301"
       style="font-size:13px;font-style:normal;font-weight:400;fill:none;stroke:#000000;stroke-width:0.64999998;stroke-linecap:round;stroke-linejoin:bevel;stroke-opacity:1;font-family:Lucida Grande">
      <path
         d="M 0,0 0,16.5"
         id="polyline4303"
         inkscape:connector-curvature="0" />
    </g>
    <g
       transform="matrix(1.38363,0,0,1.38363,443.8221,111.89558)"
       font-size="20"
       font-weight="400"
       font-style="normal"
       id="g4307"
       style="font-size:20px;font-style:normal;font-weight:400;fill:none;stroke:#000000;stroke-width:1;stroke-linecap:square;stroke-linejoin:bevel;stroke-opacity:1;font-family:MScore">
      <g
         style="fill:#000000;fill-opacity:1;stroke:none;font-family:MScore"
         id="text4309">
        <path
           d="m 4.3945312,-2.7539063 c -1.0742176,0 -2.0703134,0.3906258 -3.0078125,1.1718751 C 0.44921969,-0.80078203 0,0.0390634 0,0.9375 0,1.4843745 0.19531291,1.9335941 0.60546875,2.265625 0.99609336,2.5976559 1.5234382,2.7539063 2.1875,2.7539063 c 1.0546864,0 2.0507822,-0.3906258 2.9882812,-1.1718751 0.9374991,-0.78124917 1.40625,-1.6210946 1.40625,-2.5195312 0,-0.5468745 -0.2148441,-0.9765628 -0.6054687,-1.3085938 C 5.5664067,-2.5781247 5.0390619,-2.7539063 4.3945312,-2.7539063"
           style="fill:#000000;fill-opacity:1;stroke:none;font-family:MScore"
           id="path4594"
           inkscape:connector-curvature="0" />
      </g>
    </g>
    <g
       transform="matrix(1.38363,0,0,1.38363,478.09515,46.233875)"
       font-size="13"
       font-weight="400"
       font-style="normal"
       id="g4313"
       style="font-size:13px;font-style:normal;font-weight:400;fill:none;stroke:#000000;stroke-width:0.64999998;stroke-linecap:round;stroke-linejoin:bevel;stroke-opacity:1;font-family:Lucida Grande">
      <path
         d="M 0,0 0,14.017"
         id="polyline4315"
         inkscape:connector-curvature="0" />
    </g>
    <g
       transform="matrix(1.38363,0,0,1.38363,469.44137,66.927869)"
       font-size="20"
       font-weight="400"
       font-style="normal"
       id="g4319"
       style="font-size:20px;font-style:normal;font-weight:400;fill:none;stroke:#000000;stroke-width:1;stroke-linecap:square;stroke-linejoin:bevel;stroke-opacity:1;font-family:MScore">
      <g
         style="fill:#000000;fill-opacity:1;stroke:none;font-family:MScore"
         id="text4321">
        <path
           d="m 4.3945312,-2.7539063 c -1.0742176,0 -2.0703134,0.3906258 -3.0078125,1.1718751 C 0.44921969,-0.80078203 0,0.0390634 0,0.9375 0,1.4843745 0.19531291,1.9335941 0.60546875,2.265625 0.99609336,2.5976559 1.5234382,2.7539063 2.1875,2.7539063 c 1.0546864,0 2.0507822,-0.3906258 2.9882812,-1.1718751 0.9374991,-0.78124917 1.40625,-1.6210946 1.40625,-2.5195312 0,-0.5468745 -0.2148441,-0.9765628 -0.6054687,-1.3085938 C 5.5664067,-2.5781247 5.0390619,-2.7539063 4.3945312,-2.7539063"
           style="fill:#000000;fill-opacity:1;stroke:none;font-family:MScore"
           id="path4590"
           inkscape:connector-curvature="0" />
      </g>
    </g>
    <g
       transform="matrix(1.38363,0,0,1.38363,503.71441,49.693054)"
       font-size="13"
       font-weight="400"
       font-style="normal"
       id="g4325"
       style="font-size:13px;font-style:normal;font-weight:400;fill:none;stroke:#000000;stroke-width:0.64999998;stroke-linecap:round;stroke-linejoin:bevel;stroke-opacity:1;font-family:Lucida Grande">
      <path
         d="M 0,0 0,14.017"
         id="polyline4327"
         inkscape:connector-curvature="0" />
    </g>
    <g
       transform="matrix(1.38363,0,0,1.38363,492.98189,70.386724)"
       font-size="13"
       font-weight="400"
       font-style="normal"
       id="g4331"
       style="font-size:13px;font-style:normal;font-weight:400;fill:none;stroke:#000000;stroke-width:0.60000002;stroke-linecap:butt;stroke-linejoin:bevel;stroke-opacity:1;font-family:Lucida Grande">
      <path
         d="M 0,0 9.58089,0"
         id="polyline4333"
         inkscape:connector-curvature="0" />
    </g>
    <g
       transform="matrix(1.38363,0,0,1.38363,495.05732,70.386724)"
       font-size="20"
       font-weight="400"
       font-style="normal"
       id="g4337"
       style="font-size:20px;font-style:normal;font-weight:400;fill:none;stroke:#000000;stroke-width:1;stroke-linecap:square;stroke-linejoin:bevel;stroke-opacity:1;font-family:MScore">
      <g
         style="fill:#000000;fill-opacity:1;stroke:none;font-family:MScore"
         id="text4339">
        <path
           d="m 4.3945312,-2.7539063 c -1.0742176,0 -2.0703134,0.3906258 -3.0078125,1.1718751 C 0.44921969,-0.80078203 0,0.0390634 0,0.9375 0,1.4843745 0.19531291,1.9335941 0.60546875,2.265625 0.99609336,2.5976559 1.5234382,2.7539063 2.1875,2.7539063 c 1.0546864,0 2.0507822,-0.3906258 2.9882812,-1.1718751 0.9374991,-0.78124917 1.40625,-1.6210946 1.40625,-2.5195312 0,-0.5468745 -0.2148441,-0.9765628 -0.6054687,-1.3085938 C 5.5664067,-2.5781247 5.0390619,-2.7539063 4.3945312,-2.7539063"
           style="fill:#000000;fill-opacity:1;stroke:none;font-family:MScore"
           id="path4585"
           inkscape:connector-curvature="0" />
      </g>
    </g>
    <g
       transform="matrix(1.38363,0,0,1.38363,-56.52575,35.796219)"
       font-size="13"
       font-weight="400"
       font-style="normal"
       id="g4343"
       style="font-size:13px;font-style:normal;font-weight:400;fill:#000000;fill-opacity:1;stroke:none;font-family:Lucida Grande">
      <path
         vector-effect="non-scaling-stroke"
         d="m 404.581,8.75 19.166,2.5878 0,2.5 -19.166,-2.5878 0,-2.5"
         id="path4345"
         inkscape:connector-curvature="0"
         style="fill-rule:evenodd" />
    </g>
    <g
       transform="matrix(1.38363,0,0,1.38363,503.71441,134.80981)"
       font-size="13"
       font-weight="400"
       font-style="normal"
       id="g4349"
       style="font-size:13px;font-style:normal;font-weight:400;fill:none;stroke:#000000;stroke-width:0.64999998;stroke-linecap:round;stroke-linejoin:bevel;stroke-opacity:1;font-family:Lucida Grande">
      <path
         d="M 0,0 0,-16.5"
         id="polyline4351"
         inkscape:connector-curvature="0" />
    </g>
    <g
       transform="matrix(1.38363,0,0,1.38363,495.05732,136.1092)"
       font-size="20"
       font-weight="400"
       font-style="normal"
       id="g4355"
       style="font-size:20px;font-style:normal;font-weight:400;fill:none;stroke:#000000;stroke-width:1;stroke-linecap:square;stroke-linejoin:bevel;stroke-opacity:1;font-family:MScore">
      <g
         style="fill:#000000;fill-opacity:1;stroke:none;font-family:MScore"
         id="text4357">
        <path
           d="m 4.3945312,-2.7539063 c -1.0742176,0 -2.0703134,0.3906258 -3.0078125,1.1718751 C 0.44921969,-0.80078203 0,0.0390634 0,0.9375 0,1.4843745 0.19531291,1.9335941 0.60546875,2.265625 0.99609336,2.5976559 1.5234382,2.7539063 2.1875,2.7539063 c 1.0546864,0 2.0507822,-0.3906258 2.9882812,-1.1718751 0.9374991,-0.78124917 1.40625,-1.6210946 1.40625,-2.5195312 0,-0.5468745 -0.2148441,-0.9765628 -0.6054687,-1.3085938 C 5.5664067,-2.5781247 5.0390619,-2.7539063 4.3945312,-2.7539063"
           style="fill:#000000;fill-opacity:1;stroke:none;font-family:MScore"
           id="path4581"
           inkscape:connector-curvature="0" />
      </g>
    </g>
    <g
       transform="matrix(1.38363,0,0,1.38363,529.33368,53.152243)"
       font-size="13"
       font-weight="400"
       font-style="normal"
       id="g4361"
       style="font-size:13px;font-style:normal;font-weight:400;fill:none;stroke:#000000;stroke-width:0.64999998;stroke-linecap:round;stroke-linejoin:bevel;stroke-opacity:1;font-family:Lucida Grande">
      <path
         d="M 0,0 0,14.017"
         id="polyline4363"
         inkscape:connector-curvature="0" />
    </g>
    <g
       transform="matrix(1.38363,0,0,1.38363,518.60115,70.386724)"
       font-size="13"
       font-weight="400"
       font-style="normal"
       id="g4367"
       style="font-size:13px;font-style:normal;font-weight:400;fill:none;stroke:#000000;stroke-width:0.60000002;stroke-linecap:butt;stroke-linejoin:bevel;stroke-opacity:1;font-family:Lucida Grande">
      <path
         d="M 0,0 9.58089,0"
         id="polyline4369"
         inkscape:connector-curvature="0" />
    </g>
    <g
       transform="matrix(1.38363,0,0,1.38363,520.67658,73.845897)"
       font-size="20"
       font-weight="400"
       font-style="normal"
       id="g4373"
       style="font-size:20px;font-style:normal;font-weight:400;fill:none;stroke:#000000;stroke-width:1;stroke-linecap:square;stroke-linejoin:bevel;stroke-opacity:1;font-family:MScore">
      <g
         style="fill:#000000;fill-opacity:1;stroke:none;font-family:MScore"
         id="text4375">
        <path
           d="m 4.3945312,-2.7539063 c -1.0742176,0 -2.0703134,0.3906258 -3.0078125,1.1718751 C 0.44921969,-0.80078203 0,0.0390634 0,0.9375 0,1.4843745 0.19531291,1.9335941 0.60546875,2.265625 0.99609336,2.5976559 1.5234382,2.7539063 2.1875,2.7539063 c 1.0546864,0 2.0507822,-0.3906258 2.9882812,-1.1718751 0.9374991,-0.78124917 1.40625,-1.6210946 1.40625,-2.5195312 0,-0.5468745 -0.2148441,-0.9765628 -0.6054687,-1.3085938 C 5.5664067,-2.5781247 5.0390619,-2.7539063 4.3945312,-2.7539063"
           style="fill:#000000;fill-opacity:1;stroke:none;font-family:MScore"
           id="path4576"
           inkscape:connector-curvature="0" />
      </g>
    </g>
    <g
       transform="matrix(1.38363,0,0,1.38363,546.29585,35.796219)"
       font-size="13"
       font-weight="400"
       font-style="normal"
       id="g4379"
       style="font-size:13px;font-style:normal;font-weight:400;fill:none;stroke:#000000;stroke-width:0.80000001;stroke-linecap:butt;stroke-linejoin:bevel;stroke-opacity:1;font-family:Lucida Grande">
      <path
         d="m 0.4,0 0,72.5"
         id="polyline4381"
         inkscape:connector-curvature="0" />
    </g>
    <g
       transform="matrix(1.38363,0,0,1.38363,547.40166,35.796219)"
       font-size="13"
       font-weight="400"
       font-style="normal"
       id="g4387"
       style="font-size:13px;font-style:normal;font-weight:400;fill:none;stroke:#000000;stroke-width:0.40000001;stroke-linecap:butt;stroke-linejoin:bevel;stroke-opacity:1;font-family:Lucida Grande">
      <path
         d="M 0,0 102.101,0"
         id="polyline4389"
         inkscape:connector-curvature="0" />
      <path
         d="M 0,5 102.101,5"
         id="polyline4391"
         inkscape:connector-curvature="0" />
      <path
         d="m 0,10 102.101,0"
         id="polyline4393"
         inkscape:connector-curvature="0" />
      <path
         d="m 0,15 102.101,0"
         id="polyline4395"
         inkscape:connector-curvature="0" />
      <path
         d="m 0,20 102.101,0"
         id="polyline4397"
         inkscape:connector-curvature="0" />
    </g>
    <g
       transform="matrix(1.38363,0,0,1.38363,547.40166,108.43673)"
       font-size="13"
       font-weight="400"
       font-style="normal"
       id="g4401"
       style="font-size:13px;font-style:normal;font-weight:400;fill:none;stroke:#000000;stroke-width:0.40000001;stroke-linecap:butt;stroke-linejoin:bevel;stroke-opacity:1;font-family:Lucida Grande">
      <path
         d="M 0,0 102.101,0"
         id="polyline4403"
         inkscape:connector-curvature="0" />
      <path
         d="M 0,5 102.101,5"
         id="polyline4405"
         inkscape:connector-curvature="0" />
      <path
         d="m 0,10 102.101,0"
         id="polyline4407"
         inkscape:connector-curvature="0" />
      <path
         d="m 0,15 102.101,0"
         id="polyline4409"
         inkscape:connector-curvature="0" />
      <path
         d="m 0,20 102.101,0"
         id="polyline4411"
         inkscape:connector-curvature="0" />
    </g>
    <g
       transform="matrix(1.38363,0,0,1.38363,570.68315,72.037444)"
       font-size="13"
       font-weight="400"
       font-style="normal"
       id="g4415"
       style="font-size:13px;font-style:normal;font-weight:400;fill:none;stroke:#000000;stroke-width:0.64999998;stroke-linecap:round;stroke-linejoin:bevel;stroke-opacity:1;font-family:Lucida Grande">
      <path
         d="M 0,0 0,-16.5"
         id="polyline4417"
         inkscape:connector-curvature="0" />
    </g>
    <g
       transform="matrix(1.38363,0,0,1.38363,559.43923,70.386724)"
       font-size="13"
       font-weight="400"
       font-style="normal"
       id="g4421"
       style="font-size:13px;font-style:normal;font-weight:400;fill:none;stroke:#000000;stroke-width:0.60000002;stroke-linecap:butt;stroke-linejoin:bevel;stroke-opacity:1;font-family:Lucida Grande">
      <path
         d="M 0,0 9.94992,0"
         id="polyline4423"
         inkscape:connector-curvature="0" />
    </g>
    <g
       transform="matrix(1.38363,0,0,1.38363,561.51467,73.845897)"
       font-size="20"
       font-weight="400"
       font-style="normal"
       id="g4427"
       style="font-size:20px;font-style:normal;font-weight:400;fill:none;stroke:#000000;stroke-width:1;stroke-linecap:square;stroke-linejoin:bevel;stroke-opacity:1;font-family:MScore">
      <g
         style="fill:#000000;fill-opacity:1;stroke:none;font-family:MScore"
         id="text4429">
        <path
           d="m 6.3085937,-1.3085937 c 0,0.2343747 -0.078125,0.41015636 -0.2148437,0.5664062 C 5.8007815,-0.39062535 5.0585925,0.17578203 3.8476563,0.95703125 2.63672,1.7382805 1.8554684,2.1289063 1.484375,2.1289063 c -0.2343748,0 -0.4492189,-0.078125 -0.60546875,-0.2343751 -0.15624984,-0.1562498 -0.234375,-0.3515627 -0.234375,-0.5859375 0,-0.1953123 0.0585939,-0.39062513 0.21484375,-0.5664062 C 1.1523435,0.39062535 1.8945325,-0.17578203 3.1054688,-0.95703125 4.2968738,-1.7382805 5.0781254,-2.1289063 5.46875,-2.1289063 c 0.2148435,0 0.4101564,0.097657 0.5859375,0.2539063 0.1562498,0.1562498 0.2539062,0.3515627 0.2539062,0.5664063 M 5.2734375,-2.7539063 c -1.5039047,0 -2.7539073,0.3515632 -3.7695313,1.0156251 C 1.0351567,-1.4257816 0.68359348,-0.93749937 0.41015625,-0.3125 0.13671902,0.33203061 0,0.87890668 0,1.3085937 c 0,0.9765616 0.54687613,1.4453126 1.6796875,1.4453126 1.4843735,0 2.7539073,-0.332032 3.7695312,-1.0156251 C 5.8984371,1.4257816 6.2695315,0.95703062 6.5429687,0.33203125 6.816406,-0.29296813 6.953125,-0.83984422 6.953125,-1.3085937 c 0,-0.9570303 -0.5664074,-1.4453126 -1.6796875,-1.4453126"
           style="fill:#000000;fill-opacity:1;stroke:none;font-family:MScore"
           id="path4560"
           inkscape:connector-curvature="0" />
      </g>
    </g>
    <g
       transform="matrix(1.38363,0,0,1.38363,570.17177,124.43258)"
       font-size="13"
       font-weight="400"
       font-style="normal"
       id="g4433"
       style="font-size:13px;font-style:normal;font-weight:400;fill:none;stroke:#000000;stroke-width:0.64999998;stroke-linecap:round;stroke-linejoin:bevel;stroke-opacity:1;font-family:Lucida Grande">
      <path
         d="M 0,0 0,-15.25"
         id="polyline4435"
         inkscape:connector-curvature="0" />
    </g>
    <g
       transform="matrix(1.38363,0,0,1.38363,561.51467,125.73199)"
       font-size="20"
       font-weight="400"
       font-style="normal"
       id="g4439"
       style="font-size:20px;font-style:normal;font-weight:400;fill:none;stroke:#000000;stroke-width:1;stroke-linecap:square;stroke-linejoin:bevel;stroke-opacity:1;font-family:MScore">
      <g
         style="fill:#000000;fill-opacity:1;stroke:none;font-family:MScore"
         id="text4441">
        <path
           d="m 4.3945312,-2.7539063 c -1.0742176,0 -2.0703134,0.3906258 -3.0078125,1.1718751 C 0.44921969,-0.80078203 0,0.0390634 0,0.9375 0,1.4843745 0.19531291,1.9335941 0.60546875,2.265625 0.99609336,2.5976559 1.5234382,2.7539063 2.1875,2.7539063 c 1.0546864,0 2.0507822,-0.3906258 2.9882812,-1.1718751 0.9374991,-0.78124917 1.40625,-1.6210946 1.40625,-2.5195312 0,-0.5468745 -0.2148441,-0.9765628 -0.6054687,-1.3085938 C 5.5664067,-2.5781247 5.0390619,-2.7539063 4.3945312,-2.7539063"
           style="fill:#000000;fill-opacity:1;stroke:none;font-family:MScore"
           id="path4556"
           inkscape:connector-curvature="0" />
      </g>
    </g>
    <g
       transform="matrix(1.38363,0,0,1.38363,610.57481,134.80981)"
       font-size="13"
       font-weight="400"
       font-style="normal"
       id="g4445"
       style="font-size:13px;font-style:normal;font-weight:400;fill:none;stroke:#000000;stroke-width:0.64999998;stroke-linecap:round;stroke-linejoin:bevel;stroke-opacity:1;font-family:Lucida Grande">
      <path
         d="M 0,0 0,-16.5"
         id="polyline4447"
         inkscape:connector-curvature="0" />
    </g>
    <g
       transform="matrix(1.38363,0,0,1.38363,601.91777,136.1092)"
       font-size="20"
       font-weight="400"
       font-style="normal"
       id="g4451"
       style="font-size:20px;font-style:normal;font-weight:400;fill:none;stroke:#000000;stroke-width:1;stroke-linecap:square;stroke-linejoin:bevel;stroke-opacity:1;font-family:MScore">
      <g
         style="fill:#000000;fill-opacity:1;stroke:none;font-family:MScore"
         id="text4453">
        <path
           d="m 4.3945312,-2.7539063 c -1.0742176,0 -2.0703134,0.3906258 -3.0078125,1.1718751 C 0.44921969,-0.80078203 0,0.0390634 0,0.9375 0,1.4843745 0.19531291,1.9335941 0.60546875,2.265625 0.99609336,2.5976559 1.5234382,2.7539063 2.1875,2.7539063 c 1.0546864,0 2.0507822,-0.3906258 2.9882812,-1.1718751 0.9374991,-0.78124917 1.40625,-1.6210946 1.40625,-2.5195312 0,-0.5468745 -0.2148441,-0.9765628 -0.6054687,-1.3085938 C 5.5664067,-2.5781247 5.0390619,-2.7539063 4.3945312,-2.7539063"
           style="fill:#000000;fill-opacity:1;stroke:none;font-family:MScore"
           id="path4552"
           inkscape:connector-curvature="0" />
      </g>
    </g>
    <g
       transform="matrix(1.38363,0,0,1.38363,650.97787,69.087323)"
       font-size="13"
       font-weight="400"
       font-style="normal"
       id="g4457"
       style="font-size:13px;font-style:normal;font-weight:400;fill:none;stroke:#000000;stroke-width:0.64999998;stroke-linecap:round;stroke-linejoin:bevel;stroke-opacity:1;font-family:Lucida Grande">
      <path
         d="M 0,0 0,-16.5"
         id="polyline4459"
         inkscape:connector-curvature="0" />
    </g>
    <g
       transform="matrix(1.38363,0,0,1.38363,640.24536,70.386724)"
       font-size="13"
       font-weight="400"
       font-style="normal"
       id="g4463"
       style="font-size:13px;font-style:normal;font-weight:400;fill:none;stroke:#000000;stroke-width:0.60000002;stroke-linecap:butt;stroke-linejoin:bevel;stroke-opacity:1;font-family:Lucida Grande">
      <path
         d="M 0,0 9.58089,0"
         id="polyline4465"
         inkscape:connector-curvature="0" />
    </g>
    <g
       transform="matrix(1.38363,0,0,1.38363,642.32084,70.386724)"
       font-size="20"
       font-weight="400"
       font-style="normal"
       id="g4469"
       style="font-size:20px;font-style:normal;font-weight:400;fill:none;stroke:#000000;stroke-width:1;stroke-linecap:square;stroke-linejoin:bevel;stroke-opacity:1;font-family:MScore">
      <g
         style="fill:#000000;fill-opacity:1;stroke:none;font-family:MScore"
         id="text4471">
        <path
           d="m 4.3945312,-2.7539063 c -1.0742176,0 -2.0703134,0.3906258 -3.0078125,1.1718751 C 0.44921969,-0.80078203 0,0.0390634 0,0.9375 0,1.4843745 0.19531291,1.9335941 0.60546875,2.265625 0.99609336,2.5976559 1.5234382,2.7539063 2.1875,2.7539063 c 1.0546864,0 2.0507822,-0.3906258 2.9882812,-1.1718751 0.9374991,-0.78124917 1.40625,-1.6210946 1.40625,-2.5195312 0,-0.5468745 -0.2148441,-0.9765628 -0.6054687,-1.3085938 C 5.5664067,-2.5781247 5.0390619,-2.7539063 4.3945312,-2.7539063"
           style="fill:#000000;fill-opacity:1;stroke:none;font-family:MScore"
           id="path4547"
           inkscape:connector-curvature="0" />
      </g>
    </g>
    <g
       transform="matrix(1.38363,0,0,1.38363,650.97787,148.64621)"
       font-size="13"
       font-weight="400"
       font-style="normal"
       id="g4475"
       style="font-size:13px;font-style:normal;font-weight:400;fill:none;stroke:#000000;stroke-width:0.64999998;stroke-linecap:round;stroke-linejoin:bevel;stroke-opacity:1;font-family:Lucida Grande">
      <path
         d="M 0,0 0,-19"
         id="polyline4477"
         inkscape:connector-curvature="0" />
    </g>
    <g
       transform="matrix(1.38363,0,0,1.38363,640.24536,149.9456)"
       font-size="13"
       font-weight="400"
       font-style="normal"
       id="g4481"
       style="font-size:13px;font-style:normal;font-weight:400;fill:none;stroke:#000000;stroke-width:0.60000002;stroke-linecap:butt;stroke-linejoin:bevel;stroke-opacity:1;font-family:Lucida Grande">
      <path
         d="M 0,0 9.58089,0"
         id="polyline4483"
         inkscape:connector-curvature="0" />
    </g>
    <g
       transform="matrix(1.38363,0,0,1.38363,640.24536,143.02723)"
       font-size="13"
       font-weight="400"
       font-style="normal"
       id="g4487"
       style="font-size:13px;font-style:normal;font-weight:400;fill:none;stroke:#000000;stroke-width:0.60000002;stroke-linecap:butt;stroke-linejoin:bevel;stroke-opacity:1;font-family:Lucida Grande">
      <path
         d="M 0,0 9.58089,0"
         id="polyline4489"
         inkscape:connector-curvature="0" />
    </g>
    <g
       transform="matrix(1.38363,0,0,1.38363,642.32084,149.9456)"
       font-size="20"
       font-weight="400"
       font-style="normal"
       id="g4493"
       style="font-size:20px;font-style:normal;font-weight:400;fill:none;stroke:#000000;stroke-width:1;stroke-linecap:square;stroke-linejoin:bevel;stroke-opacity:1;font-family:MScore">
      <g
         style="fill:#000000;fill-opacity:1;stroke:none;font-family:MScore"
         id="text4495">
        <path
           d="m 4.3945312,-2.7539063 c -1.0742176,0 -2.0703134,0.3906258 -3.0078125,1.1718751 C 0.44921969,-0.80078203 0,0.0390634 0,0.9375 0,1.4843745 0.19531291,1.9335941 0.60546875,2.265625 0.99609336,2.5976559 1.5234382,2.7539063 2.1875,2.7539063 c 1.0546864,0 2.0507822,-0.3906258 2.9882812,-1.1718751 0.9374991,-0.78124917 1.40625,-1.6210946 1.40625,-2.5195312 0,-0.5468745 -0.2148441,-0.9765628 -0.6054687,-1.3085938 C 5.5664067,-2.5781247 5.0390619,-2.7539063 4.3945312,-2.7539063"
           style="fill:#000000;fill-opacity:1;stroke:none;font-family:MScore"
           id="path4541"
           inkscape:connector-curvature="0" />
      </g>
    </g>
    <g
       transform="matrix(1.38363,0,0,1.38363,682.72391,35.796219)"
       font-size="13"
       font-weight="400"
       font-style="normal"
       id="g4499"
       style="font-size:13px;font-style:normal;font-weight:400;fill:none;stroke:#000000;stroke-width:0.80000001;stroke-linecap:butt;stroke-linejoin:bevel;stroke-opacity:1;font-family:Lucida Grande">
      <path
         d="m 0.4,0 0,72.5"
         id="polyline4501"
         inkscape:connector-curvature="0" />
    </g>
    <g
       transform="matrix(1.38363,0,0,1.38363,682.72391,35.796219)"
       font-size="13"
       font-weight="400"
       font-style="normal"
       id="g4503"
       style="font-size:13px;font-style:normal;font-weight:400;fill:none;stroke:#000000;stroke-width:1.5;stroke-linecap:butt;stroke-linejoin:bevel;stroke-opacity:1;font-family:Lucida Grande">
      <path
         d="m 3.55,0 0,72.5"
         id="polyline4505"
         inkscape:connector-curvature="0" />
    </g>
    <g
       transform="matrix(1.38363,0,0,1.38363,8.9503368,35.796219)"
       font-size="13"
       font-weight="400"
       font-style="normal"
       id="g4509"
       style="font-size:13px;font-style:normal;font-weight:400;fill:none;stroke:#000000;stroke-width:0.80000001;stroke-linecap:butt;stroke-linejoin:bevel;stroke-opacity:1;font-family:Lucida Grande">
      <path
         d="M 0,0 0,72.5"
         id="polyline4511"
         inkscape:connector-curvature="0" />
    </g>
    <g
       transform="matrix(1.38363,0,0,1.38363,-4.4019034,35.796219)"
       font-size="13"
       font-weight="400"
       font-style="normal"
       id="g4515"
       style="font-size:13px;font-style:normal;font-weight:400;fill:#000000;fill-opacity:1;stroke:#000000;stroke-width:1;stroke-linecap:square;stroke-linejoin:bevel;stroke-opacity:1;font-family:Lucida Grande">
      <path
         vector-effect="non-scaling-stroke"
         d="M 0,36.25 C 16,48.4264 -5.6768,54.6976 8,72.5 -9.872,54.4656 13.872,44.9971 0,36.25 16,24.0736 -5.6768,17.8024 8,0 -9.872,18.0344 13.872,27.5029 0,36.25"
         id="path4517"
         inkscape:connector-curvature="0"
         style="fill-rule:evenodd" />
    </g>
  </g>
</svg>
