<?xml version="1.0" encoding="utf-8"?>
<!-- Generator: Adobe Illustrator 10.0, SVG Export Plug-In . SVG Version: 3.0.0 Build 76)  -->
<!DOCTYPE svg PUBLIC "-//W3C//DTD SVG 1.0//EN"    "http://www.w3.org/TR/2001/REC-SVG-20010904/DTD/svg10.dtd" [
	<!ENTITY ns_flows "http://ns.adobe.com/Flows/1.0/">
	<!ENTITY ns_extend "http://ns.adobe.com/Extensibility/1.0/">
	<!ENTITY ns_ai "http://ns.adobe.com/AdobeIllustrator/10.0/">
	<!ENTITY ns_svg "http://www.w3.org/2000/svg">
	<!ENTITY ns_xlink "http://www.w3.org/1999/xlink">
]>
<svg  xmlns:x="&ns_extend;" xmlns:i="&ns_ai;" xmlns:graph="&ns_graphs;"
	 xmlns="&ns_svg;" xmlns:xlink="&ns_xlink;" xmlns:a="http://ns.adobe.com/AdobeSVGViewerExtensions/3.0/" width="425" height="122"
	 viewBox="-0.162 0.392 425 122" overflow="visible" enable-background="new -0.162 0.392 425 122" xml:space="preserve">
	<g id="Layer_1_2_">
		<g>
			<path d="M3.804,18.788C1.416,18.788,0,16.976,0,14.672c0-2.424,1.56-4.236,3.936-4.236c2.484,0,3.84,1.86,3.84,4.092
				c0,2.664-1.596,4.26-3.96,4.26H3.804z M3.888,17.336c1.236,0,1.944-1.164,1.944-2.748c0-1.452-0.684-2.7-1.944-2.7
				c-1.26,0-1.968,1.224-1.968,2.736c0,1.524,0.732,2.712,1.956,2.712H3.888z"/>
			<path d="M8.928,14.72c0-0.864-0.012-1.428-0.048-1.932h1.56l0.072,1.092h0.048c0.3-0.864,1.008-1.224,1.584-1.224
				c0.168,0,0.252,0.012,0.384,0.036v1.716c-0.156-0.024-0.3-0.048-0.504-0.048c-0.672,0-1.128,0.348-1.248,0.924
				c-0.024,0.12-0.036,0.252-0.036,0.408v2.964H8.916L8.928,14.72z"/>
			<path d="M14.352,12.02c-0.612,0-1.008-0.432-1.008-0.972c0-0.552,0.408-0.972,1.032-0.972s1.008,0.42,1.02,0.972
				c0,0.54-0.396,0.972-1.032,0.972H14.352z M13.452,18.656v-5.868h1.824v5.868H13.452z"/>
			<path d="M22.296,17.804c0,1.128-0.228,2.052-0.9,2.64c-0.636,0.552-1.512,0.72-2.376,0.72c-0.78,0-1.584-0.156-2.112-0.444
				l0.36-1.392c0.372,0.216,1.008,0.444,1.704,0.444c0.864,0,1.524-0.456,1.524-1.548v-0.372h-0.024
				c-0.348,0.48-0.912,0.756-1.584,0.756c-1.452,0-2.484-1.176-2.484-2.856c0-1.896,1.212-3.096,2.664-3.096
				c0.804,0,1.308,0.348,1.608,0.828H20.7l0.06-0.696h1.584c-0.024,0.384-0.048,0.876-0.048,1.752V17.804z M20.472,15.176
				c0-0.108-0.012-0.228-0.036-0.336c-0.132-0.48-0.48-0.804-0.984-0.804c-0.672,0-1.2,0.6-1.2,1.668c0,0.876,0.432,1.56,1.188,1.56
				c0.48,0,0.852-0.312,0.972-0.732c0.048-0.144,0.06-0.336,0.06-0.492V15.176z"/>
			<path d="M24.66,12.02c-0.612,0-1.008-0.432-1.008-0.972c0-0.552,0.408-0.972,1.032-0.972s1.008,0.42,1.02,0.972
				c0,0.54-0.396,0.972-1.032,0.972H24.66z M23.76,18.656v-5.868h1.824v5.868H23.76z"/>
			<path d="M27.047,14.66c0-0.732-0.024-1.344-0.048-1.872h1.584l0.084,0.816h0.036c0.24-0.384,0.828-0.948,1.812-0.948
				c1.2,0,2.1,0.804,2.1,2.532v3.468h-1.824v-3.252c0-0.756-0.264-1.272-0.924-1.272c-0.504,0-0.804,0.348-0.936,0.684
				c-0.048,0.12-0.06,0.288-0.06,0.456v3.384h-1.824V14.66z"/>
			<path d="M38.963,17.24c0,0.552,0.024,1.092,0.096,1.416h-1.644l-0.108-0.588h-0.036c-0.384,0.468-0.984,0.72-1.68,0.72
				c-1.188,0-1.896-0.864-1.896-1.8c0-1.524,1.368-2.244,3.444-2.244v-0.072c0-0.312-0.168-0.756-1.068-0.756
				c-0.6,0-1.236,0.204-1.62,0.432l-0.336-1.164c0.408-0.228,1.212-0.528,2.28-0.528c1.956,0,2.568,1.152,2.568,2.532V17.24z
				 M37.2,15.884c-0.96,0-1.704,0.228-1.704,0.924c0,0.468,0.312,0.696,0.72,0.696c0.444,0,0.828-0.3,0.948-0.672
				c0.024-0.096,0.036-0.204,0.036-0.312V15.884z"/>
			<path d="M40.416,10.136h1.824v8.52h-1.824V10.136z"/>
			<path d="M46.188,10.568h1.812v3.576h0.024c0.18-0.312,0.372-0.6,0.564-0.888l1.824-2.688h2.256l-2.676,3.444l2.808,4.644h-2.124
				l-1.992-3.492l-0.684,0.852v2.64h-1.812V10.568z"/>
			<path d="M54.695,16.292c0.06,0.768,0.804,1.128,1.656,1.128c0.624,0,1.128-0.084,1.62-0.252l0.24,1.236
				c-0.6,0.252-1.332,0.372-2.124,0.372c-1.992,0-3.132-1.152-3.132-3c0-1.488,0.936-3.132,2.964-3.132
				c1.896,0,2.616,1.476,2.616,2.928c0,0.312-0.036,0.588-0.06,0.732L54.695,16.292z M56.843,15.044c0-0.432-0.192-1.188-1.02-1.188
				c-0.78,0-1.092,0.708-1.14,1.188H56.843z"/>
			<path d="M60.839,12.788l0.876,2.88c0.096,0.348,0.216,0.78,0.288,1.092h0.036c0.084-0.312,0.18-0.756,0.264-1.092l0.72-2.88
				h1.956l-1.368,3.864c-0.84,2.328-1.404,3.252-2.064,3.84c-0.624,0.552-1.296,0.756-1.764,0.804l-0.384-1.536
				c0.228-0.048,0.516-0.156,0.792-0.312c0.276-0.144,0.588-0.444,0.756-0.732c0.06-0.096,0.096-0.18,0.096-0.264
				c0-0.06-0.012-0.156-0.072-0.3l-2.16-5.364H60.839z"/>
			<path d="M115.128,18.284c-0.564,0.192-1.632,0.456-2.7,0.456c-1.476,0-2.544-0.372-3.288-1.08
				c-0.732-0.708-1.14-1.764-1.14-2.952c0.012-2.688,1.968-4.224,4.62-4.224c1.044,0,1.848,0.204,2.244,0.384l-0.384,1.476
				c-0.444-0.204-0.984-0.348-1.872-0.348c-1.524,0-2.688,0.864-2.688,2.616c0,1.68,1.056,2.652,2.556,2.652
				c0.408,0,0.744-0.048,0.888-0.108v-1.704h-1.248v-1.428h3.012V18.284z"/>
			<path d="M144.372,10.688c0.48-0.096,1.44-0.18,2.364-0.18c1.116,0,1.8,0.108,2.388,0.456c0.564,0.3,0.96,0.852,0.96,1.596
				c0,0.708-0.42,1.368-1.32,1.716V14.3c0.924,0.24,1.608,0.948,1.608,1.992c0,0.744-0.336,1.32-0.84,1.716
				c-0.588,0.468-1.572,0.732-3.18,0.732c-0.9,0-1.572-0.06-1.98-0.12V10.688z M146.184,13.772h0.6c0.972,0,1.476-0.396,1.476-0.996
				c0-0.612-0.468-0.936-1.296-0.936c-0.408,0-0.636,0.024-0.78,0.06V13.772z M146.184,17.36c0.18,0.036,0.396,0.036,0.708,0.036
				c0.828,0,1.56-0.324,1.56-1.176c0-0.816-0.732-1.14-1.644-1.14h-0.624V17.36z"/>
			<path d="M180.372,10.688c0.48-0.096,1.44-0.18,2.364-0.18c1.116,0,1.8,0.108,2.388,0.456c0.564,0.3,0.96,0.852,0.96,1.596
				c0,0.708-0.42,1.368-1.32,1.716V14.3c0.924,0.24,1.608,0.948,1.608,1.992c0,0.744-0.336,1.32-0.84,1.716
				c-0.588,0.468-1.572,0.732-3.18,0.732c-0.9,0-1.572-0.06-1.98-0.12V10.688z M182.184,13.772h0.6c0.972,0,1.476-0.396,1.476-0.996
				c0-0.612-0.468-0.936-1.296-0.936c-0.408,0-0.636,0.024-0.78,0.06V13.772z M182.184,17.36c0.18,0.036,0.396,0.036,0.708,0.036
				c0.828,0,1.56-0.324,1.56-1.176c0-0.816-0.732-1.14-1.644-1.14h-0.624V17.36z"/>
			<path d="M199.584,12.152c-0.204-0.012-0.42,0-0.708,0.024c-1.62,0.12-2.34,0.96-2.544,1.86h0.036
				c0.384-0.384,0.936-0.612,1.656-0.612c1.308,0,2.412,0.924,2.412,2.544c0,1.548-1.188,2.82-2.868,2.82
				c-2.088,0-3.108-1.548-3.108-3.408c0-1.464,0.54-2.688,1.392-3.48c0.768-0.708,1.788-1.08,3-1.14
				c0.336-0.036,0.564-0.024,0.732-0.012V12.152z M197.544,17.444c0.636,0,1.044-0.588,1.044-1.38c0-0.72-0.384-1.344-1.164-1.344
				c-0.492,0-0.9,0.3-1.068,0.684c-0.06,0.108-0.084,0.252-0.084,0.468c0.036,0.828,0.432,1.572,1.26,1.572H197.544z"/>
			<path d="M221.22,10.688c0.48-0.096,1.44-0.18,2.364-0.18c1.116,0,1.8,0.108,2.388,0.456c0.564,0.3,0.96,0.852,0.96,1.596
				c0,0.708-0.42,1.368-1.32,1.716V14.3c0.924,0.24,1.608,0.948,1.608,1.992c0,0.744-0.336,1.32-0.84,1.716
				c-0.588,0.468-1.572,0.732-3.18,0.732c-0.9,0-1.572-0.06-1.98-0.12V10.688z M223.032,13.772h0.6c0.972,0,1.476-0.396,1.476-0.996
				c0-0.612-0.468-0.936-1.296-0.936c-0.408,0-0.636,0.024-0.78,0.06V13.772z M223.032,17.36c0.18,0.036,0.396,0.036,0.708,0.036
				c0.828,0,1.56-0.324,1.56-1.176c0-0.816-0.732-1.14-1.644-1.14h-0.624V17.36z"/>
			<path d="M242.58,15.56c-0.036-0.972-0.072-2.136-0.072-3.324h-0.024c-0.264,1.032-0.6,2.184-0.912,3.132l-0.984,3.156h-1.428
				l-0.864-3.12c-0.264-0.96-0.528-2.1-0.732-3.168h-0.024c-0.036,1.092-0.084,2.34-0.132,3.348l-0.156,3.072h-1.692l0.516-8.088
				h2.436l0.792,2.712c0.264,0.924,0.504,1.932,0.684,2.88h0.048c0.216-0.936,0.492-1.992,0.768-2.904l0.852-2.688h2.4l0.432,8.088
				h-1.776L242.58,15.56z"/>
			<path d="M251.196,10.856v1.14l-3.216,6.66h-1.932l3.216-6.276v-0.024h-3.576v-1.5H251.196z"/>
			<path d="M281.604,15.236h-2.977v1.92h3.324v1.5h-5.148v-8.088h4.98v1.5h-3.156v1.68h2.977V15.236z"/>
			<path d="M297.311,15.56c-0.036-0.972-0.071-2.136-0.071-3.324h-0.024c-0.264,1.032-0.6,2.184-0.912,3.132l-0.984,3.156h-1.428
				l-0.863-3.12c-0.265-0.96-0.528-2.1-0.732-3.168h-0.024c-0.036,1.092-0.084,2.34-0.132,3.348l-0.156,3.072h-1.691l0.516-8.088
				h2.437l0.792,2.712c0.264,0.924,0.504,1.932,0.684,2.88h0.048c0.216-0.936,0.492-1.992,0.769-2.904l0.852-2.688h2.4l0.432,8.088
				h-1.775L297.311,15.56z"/>
			<path d="M305.927,10.856v1.14l-3.216,6.66h-1.933l3.217-6.276v-0.024h-3.576v-1.5H305.927z"/>
			<path d="M326.639,15.236h-2.977v1.92h3.324v1.5h-5.148v-8.088h4.98v1.5h-3.156v1.68h2.977V15.236z"/>
			<path d="M336.454,12.272v2.616h2.508v1.116h-2.508v2.652h-1.176v-2.652h-2.508v-1.116h2.508v-2.616H336.454z"/>
			<path d="M367.092,16.58l-0.563,2.076h-1.896l2.472-8.088h2.389l2.52,8.088h-1.968l-0.624-2.076H367.092z M369.144,15.212
				l-0.504-1.716c-0.132-0.48-0.275-1.092-0.396-1.56h-0.036c-0.108,0.48-0.24,1.092-0.36,1.56l-0.491,1.716H369.144z"/>
			<path d="M378.396,10.856v1.14l-3.216,6.66h-1.932l3.216-6.276v-0.024h-3.576v-1.5H378.396z"/>
			<path d="M406.068,10.688c0.672-0.12,1.548-0.18,2.46-0.18c1.548,0,2.556,0.252,3.323,0.84c0.841,0.624,1.368,1.632,1.368,3.072
				c0,1.548-0.563,2.616-1.332,3.276c-0.852,0.708-2.16,1.044-3.744,1.044c-0.947,0-1.632-0.06-2.075-0.12V10.688z M407.892,17.276
				c0.156,0.036,0.42,0.036,0.637,0.036c1.668,0.012,2.76-0.9,2.76-2.832c0-1.74-0.984-2.568-2.568-2.568
				c-0.396,0-0.672,0.036-0.828,0.072V17.276z"/>
			<path d="M413.82,19.136l2.567-8.7h1.212l-2.567,8.7H413.82z"/>
			<path d="M420.264,16.58l-0.563,2.076h-1.896l2.472-8.088h2.389l2.52,8.088h-1.968l-0.624-2.076H420.264z M422.315,15.212
				l-0.504-1.716c-0.132-0.48-0.275-1.092-0.396-1.56h-0.036c-0.108,0.48-0.24,1.092-0.36,1.56l-0.492,1.716H422.315z"/>
			<path d="M0.096,47.656v-1.104l0.996-0.9c1.716-1.536,2.544-2.412,2.556-3.324c0-0.636-0.372-1.14-1.272-1.14
				c-0.672,0-1.26,0.336-1.668,0.636l-0.516-1.296c0.576-0.444,1.5-0.804,2.544-0.804c1.776,0,2.736,1.032,2.736,2.448
				c0,1.308-0.936,2.352-2.076,3.36l-0.72,0.6v0.024h2.952v1.5H0.096z"/>
			<path d="M11.22,44.272h0.024c0.132-0.252,0.276-0.492,0.42-0.708l1.188-1.776h2.196l-2.1,2.376l2.4,3.492h-2.244l-1.428-2.412
				l-0.456,0.588v1.824H9.396v-8.52h1.824V44.272z"/>
			<path d="M17.16,45.292c0.06,0.768,0.804,1.128,1.656,1.128c0.624,0,1.128-0.084,1.62-0.252l0.24,1.236
				c-0.6,0.252-1.332,0.372-2.124,0.372c-1.992,0-3.132-1.152-3.132-3c0-1.488,0.936-3.132,2.964-3.132
				c1.896,0,2.616,1.476,2.616,2.928c0,0.312-0.036,0.588-0.06,0.732L17.16,45.292z M19.308,44.044c0-0.432-0.192-1.188-1.02-1.188
				c-0.78,0-1.092,0.708-1.14,1.188H19.308z"/>
			<path d="M23.304,41.788l0.876,2.88c0.096,0.348,0.216,0.78,0.288,1.092h0.036c0.084-0.312,0.18-0.756,0.264-1.092l0.72-2.88
				h1.956l-1.368,3.864c-0.84,2.328-1.404,3.252-2.064,3.84c-0.624,0.552-1.296,0.756-1.764,0.804l-0.384-1.536
				c0.228-0.048,0.516-0.156,0.792-0.312c0.276-0.144,0.588-0.444,0.756-0.732c0.06-0.096,0.096-0.18,0.096-0.264
				c0-0.06-0.012-0.156-0.072-0.3l-2.16-5.364H23.304z"/>
			<path d="M28.068,46.072c0.336,0.204,1.032,0.432,1.572,0.432c0.552,0,0.78-0.18,0.78-0.48c0-0.312-0.18-0.456-0.852-0.684
				c-1.224-0.396-1.692-1.068-1.68-1.752c0-1.104,0.936-1.932,2.388-1.932c0.684,0,1.284,0.168,1.644,0.348l-0.312,1.248
				c-0.264-0.132-0.78-0.324-1.272-0.324c-0.444,0-0.696,0.18-0.696,0.468c0,0.288,0.228,0.432,0.948,0.684
				c1.116,0.372,1.572,0.948,1.584,1.8c0,1.104-0.852,1.908-2.532,1.908c-0.768,0-1.452-0.18-1.896-0.42L28.068,46.072z"/>
			<path d="M35.712,39.136h1.824v3.36h0.024c0.192-0.264,0.432-0.468,0.72-0.612c0.276-0.144,0.612-0.228,0.948-0.228
				c1.164,0,2.052,0.804,2.052,2.58v3.42h-1.824v-3.228c0-0.768-0.264-1.296-0.948-1.296c-0.48,0-0.78,0.312-0.912,0.648
				c-0.048,0.108-0.06,0.264-0.06,0.396v3.48h-1.824V39.136z"/>
			<path d="M43.644,41.02c-0.612,0-1.008-0.432-1.008-0.972c0-0.552,0.408-0.972,1.032-0.972s1.008,0.42,1.02,0.972
				c0,0.54-0.396,0.972-1.032,0.972H43.644z M42.744,47.656v-5.868h1.824v5.868H42.744z"/>
			<path d="M51.588,46.804c0,1.128-0.228,2.052-0.9,2.64c-0.636,0.552-1.512,0.72-2.376,0.72c-0.78,0-1.584-0.156-2.112-0.444
				l0.36-1.392c0.372,0.216,1.008,0.444,1.704,0.444c0.864,0,1.524-0.456,1.524-1.548v-0.372h-0.024
				c-0.348,0.48-0.912,0.756-1.584,0.756c-1.452,0-2.484-1.176-2.484-2.856c0-1.896,1.212-3.096,2.664-3.096
				c0.804,0,1.308,0.348,1.608,0.828h0.024l0.06-0.696h1.584c-0.024,0.384-0.048,0.876-0.048,1.752V46.804z M49.764,44.176
				c0-0.108-0.012-0.228-0.036-0.336c-0.132-0.48-0.48-0.804-0.984-0.804c-0.672,0-1.2,0.6-1.2,1.668c0,0.876,0.432,1.56,1.188,1.56
				c0.48,0,0.852-0.312,0.972-0.732c0.048-0.144,0.06-0.336,0.06-0.492V44.176z"/>
			<path d="M53.052,39.136h1.824v3.36H54.9c0.192-0.264,0.432-0.468,0.72-0.612c0.276-0.144,0.612-0.228,0.948-0.228
				c1.164,0,2.052,0.804,2.052,2.58v3.42h-1.824v-3.228c0-0.768-0.264-1.296-0.948-1.296c-0.48,0-0.78,0.312-0.912,0.648
				c-0.048,0.108-0.06,0.264-0.06,0.396v3.48h-1.824V39.136z"/>
			<path d="M61.488,45.292c0.06,0.768,0.804,1.128,1.656,1.128c0.624,0,1.128-0.084,1.62-0.252l0.24,1.236
				c-0.6,0.252-1.332,0.372-2.124,0.372c-1.992,0-3.132-1.152-3.132-3c0-1.488,0.936-3.132,2.964-3.132
				c1.896,0,2.616,1.476,2.616,2.928c0,0.312-0.036,0.588-0.06,0.732L61.488,45.292z M63.636,44.044c0-0.432-0.192-1.188-1.02-1.188
				c-0.78,0-1.092,0.708-1.14,1.188H63.636z"/>
			<path d="M66.432,43.72c0-0.864-0.012-1.428-0.048-1.932h1.56l0.072,1.092h0.048c0.3-0.864,1.008-1.224,1.584-1.224
				c0.168,0,0.252,0.012,0.384,0.036v1.716c-0.156-0.024-0.3-0.048-0.504-0.048c-0.672,0-1.128,0.348-1.248,0.924
				c-0.024,0.12-0.036,0.252-0.036,0.408v2.964H66.42L66.432,43.72z"/>
			<path d="M110.244,45.58l-0.564,2.076h-1.896l2.472-8.088h2.388l2.52,8.088h-1.968l-0.624-2.076H110.244z M112.296,44.212
				l-0.504-1.716c-0.132-0.48-0.276-1.092-0.396-1.56h-0.036c-0.108,0.48-0.24,1.092-0.36,1.56l-0.492,1.716H112.296z"/>
			<path d="M150.3,47.44c-0.324,0.156-1.092,0.348-2.064,0.348c-2.796,0-4.236-1.752-4.236-4.068c0-2.76,1.968-4.284,4.416-4.284
				c0.948,0,1.668,0.192,1.992,0.36l-0.384,1.44c-0.36-0.156-0.876-0.3-1.536-0.3c-1.44,0-2.568,0.876-2.568,2.688
				c0,1.62,0.96,2.64,2.58,2.64c0.564,0,1.164-0.108,1.536-0.264L150.3,47.44z"/>
			<path d="M188.724,47.44c-0.324,0.156-1.092,0.348-2.064,0.348c-2.796,0-4.236-1.752-4.236-4.068c0-2.76,1.968-4.284,4.416-4.284
				c0.948,0,1.668,0.192,1.992,0.36l-0.384,1.44c-0.36-0.156-0.876-0.3-1.536-0.3c-1.44,0-2.568,0.876-2.568,2.688
				c0,1.62,0.96,2.64,2.58,2.64c0.564,0,1.164-0.108,1.536-0.264L188.724,47.44z"/>
			<path d="M194.628,41.152c-0.204-0.012-0.42,0-0.708,0.024c-1.62,0.12-2.34,0.96-2.544,1.86h0.036
				c0.384-0.384,0.936-0.612,1.656-0.612c1.308,0,2.412,0.924,2.412,2.544c0,1.548-1.188,2.82-2.868,2.82
				c-2.088,0-3.108-1.548-3.108-3.408c0-1.464,0.54-2.688,1.392-3.48c0.768-0.708,1.788-1.08,3-1.14
				c0.336-0.036,0.564-0.024,0.732-0.012V41.152z M192.588,46.444c0.636,0,1.044-0.588,1.044-1.38c0-0.72-0.384-1.344-1.164-1.344
				c-0.492,0-0.9,0.3-1.068,0.684c-0.06,0.108-0.084,0.252-0.084,0.468c0.036,0.828,0.432,1.572,1.26,1.572H192.588z"/>
			<path d="M227.148,47.44c-0.324,0.156-1.092,0.348-2.064,0.348c-2.796,0-4.236-1.752-4.236-4.068c0-2.76,1.968-4.284,4.416-4.284
				c0.948,0,1.668,0.192,1.992,0.36l-0.384,1.44c-0.36-0.156-0.876-0.3-1.536-0.3c-1.44,0-2.568,0.876-2.568,2.688
				c0,1.62,0.96,2.64,2.58,2.64c0.564,0,1.164-0.108,1.536-0.264L227.148,47.44z"/>
			<path d="M237.624,44.56c-0.036-0.972-0.072-2.136-0.072-3.324h-0.024c-0.264,1.032-0.6,2.184-0.912,3.132l-0.984,3.156h-1.428
				l-0.864-3.12c-0.264-0.96-0.528-2.1-0.732-3.168h-0.024c-0.036,1.092-0.084,2.34-0.132,3.348l-0.156,3.072h-1.692l0.516-8.088
				h2.436l0.792,2.712c0.264,0.924,0.504,1.932,0.684,2.88h0.048c0.216-0.936,0.492-1.992,0.768-2.904l0.852-2.688h2.4l0.432,8.088
				h-1.776L237.624,44.56z"/>
			<path d="M246.24,39.856v1.14l-3.216,6.66h-1.932l3.216-6.276v-0.024h-3.576v-1.5H246.24z"/>
			<path d="M279.119,39.568h4.932v1.5h-3.107v1.848h2.903v1.488h-2.903v3.252h-1.824V39.568z"/>
			<path d="M294.695,44.56c-0.036-0.972-0.072-2.136-0.072-3.324h-0.024c-0.264,1.032-0.6,2.184-0.912,3.132l-0.983,3.156h-1.429
				l-0.863-3.12c-0.265-0.96-0.528-2.1-0.732-3.168h-0.023c-0.036,1.092-0.085,2.34-0.133,3.348l-0.155,3.072h-1.692l0.516-8.088
				h2.437l0.792,2.712c0.264,0.924,0.504,1.932,0.684,2.88h0.048c0.217-0.936,0.492-1.992,0.769-2.904l0.852-2.688h2.4l0.432,8.088
				h-1.775L294.695,44.56z"/>
			<path d="M303.311,39.856v1.14l-3.216,6.66h-1.932l3.216-6.276v-0.024h-3.576v-1.5H303.311z"/>
			<path d="M324.07,39.568h4.932v1.5h-3.107v1.848h2.903v1.488h-2.903v3.252h-1.824V39.568z"/>
			<path d="M336.178,41.272v2.616h2.509v1.116h-2.509v2.652h-1.176v-2.652h-2.508v-1.116h2.508v-2.616H336.178z"/>
			<path d="M365.22,39.688c0.48-0.096,1.44-0.18,2.364-0.18c1.116,0,1.8,0.108,2.388,0.456c0.564,0.3,0.96,0.852,0.96,1.596
				c0,0.708-0.42,1.368-1.319,1.716V43.3c0.924,0.24,1.607,0.948,1.607,1.992c0,0.744-0.336,1.32-0.84,1.716
				c-0.588,0.468-1.572,0.732-3.18,0.732c-0.9,0-1.572-0.06-1.98-0.12V39.688z M367.032,42.772h0.6c0.972,0,1.477-0.396,1.477-0.996
				c0-0.612-0.469-0.936-1.296-0.936c-0.408,0-0.637,0.024-0.78,0.06V42.772z M367.032,46.36c0.18,0.036,0.396,0.036,0.708,0.036
				c0.828,0,1.56-0.324,1.56-1.176c0-0.816-0.731-1.14-1.644-1.14h-0.624V46.36z"/>
			<path d="M377.771,39.856v1.14l-3.216,6.66h-1.932l3.216-6.276v-0.024h-3.576v-1.5H377.771z"/>
			<path d="M410.88,44.236h-2.976v1.92h3.323v1.5h-5.147v-8.088h4.979v1.5h-3.155v1.68h2.976V44.236z"/>
			<path d="M411.876,48.136l2.567-8.7h1.213l-2.568,8.7H411.876z"/>
			<path d="M416.447,39.688c0.48-0.096,1.44-0.18,2.364-0.18c1.116,0,1.8,0.108,2.389,0.456c0.563,0.3,0.96,0.852,0.96,1.596
				c0,0.708-0.42,1.368-1.32,1.716V43.3c0.924,0.24,1.608,0.948,1.608,1.992c0,0.744-0.337,1.32-0.841,1.716
				c-0.588,0.468-1.571,0.732-3.18,0.732c-0.9,0-1.572-0.06-1.98-0.12V39.688z M418.26,42.772h0.6c0.973,0,1.477-0.396,1.477-0.996
				c0-0.612-0.468-0.936-1.296-0.936c-0.408,0-0.637,0.024-0.78,0.06V42.772z M418.26,46.36c0.18,0.036,0.396,0.036,0.708,0.036
				c0.828,0,1.56-0.324,1.56-1.176c0-0.816-0.731-1.14-1.644-1.14h-0.624V46.36z"/>
			<path d="M5.292,70.356H2.268L2.1,71.544c0.168-0.012,0.312-0.024,0.504-0.024c0.744,0,1.512,0.168,2.052,0.564
				c0.588,0.396,0.948,1.044,0.948,1.968c0,1.452-1.248,2.736-3.348,2.736c-0.948,0-1.74-0.216-2.172-0.444l0.336-1.368
				c0.336,0.168,1.044,0.384,1.752,0.384c0.756,0,1.56-0.36,1.56-1.188c0-0.816-0.636-1.308-2.196-1.308
				c-0.432,0-0.732,0.024-1.044,0.072l0.504-4.08h4.296V70.356z"/>
			<path d="M11.22,73.272h0.024c0.132-0.252,0.276-0.492,0.42-0.708l1.188-1.776h2.196l-2.1,2.376l2.4,3.492h-2.244l-1.428-2.412
				l-0.456,0.588v1.824H9.396v-8.52h1.824V73.272z"/>
			<path d="M17.16,74.292c0.06,0.768,0.804,1.128,1.656,1.128c0.624,0,1.128-0.084,1.62-0.252l0.24,1.236
				c-0.6,0.252-1.332,0.372-2.124,0.372c-1.992,0-3.132-1.152-3.132-3c0-1.488,0.936-3.132,2.964-3.132
				c1.896,0,2.616,1.476,2.616,2.928c0,0.312-0.036,0.588-0.06,0.732L17.16,74.292z M19.308,73.044c0-0.432-0.192-1.188-1.02-1.188
				c-0.78,0-1.092,0.708-1.14,1.188H19.308z"/>
			<path d="M23.304,70.788l0.876,2.88c0.096,0.348,0.216,0.78,0.288,1.092h0.036c0.084-0.312,0.18-0.756,0.264-1.092l0.72-2.88
				h1.956l-1.368,3.864c-0.84,2.328-1.404,3.252-2.064,3.84c-0.624,0.552-1.296,0.756-1.764,0.804l-0.384-1.536
				c0.228-0.048,0.516-0.156,0.792-0.312c0.276-0.144,0.588-0.444,0.756-0.732c0.06-0.096,0.096-0.18,0.096-0.264
				c0-0.06-0.012-0.156-0.072-0.3l-2.16-5.364H23.304z"/>
			<path d="M28.068,75.072c0.336,0.204,1.032,0.432,1.572,0.432c0.552,0,0.78-0.18,0.78-0.48c0-0.312-0.18-0.456-0.852-0.684
				c-1.224-0.396-1.692-1.068-1.68-1.752c0-1.104,0.936-1.932,2.388-1.932c0.684,0,1.284,0.168,1.644,0.348l-0.312,1.248
				c-0.264-0.132-0.78-0.324-1.272-0.324c-0.444,0-0.696,0.18-0.696,0.468c0,0.288,0.228,0.432,0.948,0.684
				c1.116,0.372,1.572,0.948,1.584,1.8c0,1.104-0.852,1.908-2.532,1.908c-0.768,0-1.452-0.18-1.896-0.42L28.068,75.072z"/>
			<path d="M35.712,68.136h1.824v3.36h0.024c0.192-0.264,0.432-0.468,0.72-0.612c0.276-0.144,0.612-0.228,0.948-0.228
				c1.164,0,2.052,0.804,2.052,2.58v3.42h-1.824v-3.228c0-0.768-0.264-1.296-0.948-1.296c-0.48,0-0.78,0.312-0.912,0.648
				c-0.048,0.108-0.06,0.264-0.06,0.396v3.48h-1.824V68.136z"/>
			<path d="M43.644,70.02c-0.612,0-1.008-0.432-1.008-0.972c0-0.552,0.408-0.972,1.032-0.972s1.008,0.42,1.02,0.972
				c0,0.54-0.396,0.972-1.032,0.972H43.644z M42.744,76.656v-5.868h1.824v5.868H42.744z"/>
			<path d="M51.588,75.804c0,1.128-0.228,2.052-0.9,2.64c-0.636,0.552-1.512,0.72-2.376,0.72c-0.78,0-1.584-0.156-2.112-0.444
				l0.36-1.392c0.372,0.216,1.008,0.444,1.704,0.444c0.864,0,1.524-0.456,1.524-1.548v-0.372h-0.024
				c-0.348,0.48-0.912,0.756-1.584,0.756c-1.452,0-2.484-1.176-2.484-2.856c0-1.896,1.212-3.096,2.664-3.096
				c0.804,0,1.308,0.348,1.608,0.828h0.024l0.06-0.696h1.584c-0.024,0.384-0.048,0.876-0.048,1.752V75.804z M49.764,73.176
				c0-0.108-0.012-0.228-0.036-0.336c-0.132-0.48-0.48-0.804-0.984-0.804c-0.672,0-1.2,0.6-1.2,1.668c0,0.876,0.432,1.56,1.188,1.56
				c0.48,0,0.852-0.312,0.972-0.732c0.048-0.144,0.06-0.336,0.06-0.492V73.176z"/>
			<path d="M53.052,68.136h1.824v3.36H54.9c0.192-0.264,0.432-0.468,0.72-0.612c0.276-0.144,0.612-0.228,0.948-0.228
				c1.164,0,2.052,0.804,2.052,2.58v3.42h-1.824v-3.228c0-0.768-0.264-1.296-0.948-1.296c-0.48,0-0.78,0.312-0.912,0.648
				c-0.048,0.108-0.06,0.264-0.06,0.396v3.48h-1.824V68.136z"/>
			<path d="M61.488,74.292c0.06,0.768,0.804,1.128,1.656,1.128c0.624,0,1.128-0.084,1.62-0.252l0.24,1.236
				c-0.6,0.252-1.332,0.372-2.124,0.372c-1.992,0-3.132-1.152-3.132-3c0-1.488,0.936-3.132,2.964-3.132
				c1.896,0,2.616,1.476,2.616,2.928c0,0.312-0.036,0.588-0.06,0.732L61.488,74.292z M63.636,73.044c0-0.432-0.192-1.188-1.02-1.188
				c-0.78,0-1.092,0.708-1.14,1.188H63.636z"/>
			<path d="M66.432,72.72c0-0.864-0.012-1.428-0.048-1.932h1.56l0.072,1.092h0.048c0.3-0.864,1.008-1.224,1.584-1.224
				c0.168,0,0.252,0.012,0.384,0.036v1.716c-0.156-0.024-0.3-0.048-0.504-0.048c-0.672,0-1.128,0.348-1.248,0.924
				c-0.024,0.12-0.036,0.252-0.036,0.408v2.964H66.42L66.432,72.72z"/>
			<path d="M114.3,76.44c-0.324,0.156-1.092,0.348-2.064,0.348c-2.796,0-4.236-1.752-4.236-4.068c0-2.76,1.968-4.284,4.416-4.284
				c0.948,0,1.668,0.192,1.992,0.36l-0.384,1.44c-0.36-0.156-0.876-0.3-1.536-0.3c-1.44,0-2.568,0.876-2.568,2.688
				c0,1.62,0.96,2.64,2.58,2.64c0.564,0,1.164-0.108,1.536-0.264L114.3,76.44z"/>
			<path d="M149.184,73.236h-2.976v1.92h3.324v1.5h-5.148v-8.088h4.98v1.5h-3.156v1.68h2.976V73.236z"/>
			<path d="M185.184,73.236h-2.976v1.92h3.324v1.5h-5.148v-8.088h4.98v1.5h-3.156v1.68h2.976V73.236z"/>
			<path d="M198.744,70.152c-0.204-0.012-0.42,0-0.708,0.024c-1.62,0.12-2.34,0.96-2.544,1.86h0.036
				c0.384-0.384,0.936-0.612,1.656-0.612c1.308,0,2.412,0.924,2.412,2.544c0,1.548-1.188,2.82-2.868,2.82
				c-2.088,0-3.108-1.548-3.108-3.408c0-1.464,0.54-2.688,1.392-3.48c0.768-0.708,1.788-1.08,3-1.14
				c0.336-0.036,0.564-0.024,0.732-0.012V70.152z M196.704,75.444c0.636,0,1.044-0.588,1.044-1.38c0-0.72-0.384-1.344-1.164-1.344
				c-0.492,0-0.9,0.3-1.068,0.684c-0.06,0.108-0.084,0.252-0.084,0.468c0.036,0.828,0.432,1.572,1.26,1.572H196.704z"/>
			<path d="M226.032,73.236h-2.976v1.92h3.324v1.5h-5.148v-8.088h4.98v1.5h-3.156v1.68h2.976V73.236z"/>
			<path d="M241.74,73.56c-0.036-0.972-0.072-2.136-0.072-3.324h-0.024c-0.264,1.032-0.6,2.184-0.912,3.132l-0.984,3.156h-1.428
				l-0.864-3.12c-0.264-0.96-0.528-2.1-0.732-3.168H236.7c-0.036,1.092-0.084,2.34-0.132,3.348l-0.156,3.072h-1.692l0.516-8.088
				h2.436l0.792,2.712c0.264,0.924,0.504,1.932,0.684,2.88h0.048c0.216-0.936,0.492-1.992,0.768-2.904l0.852-2.688h2.4l0.432,8.088
				h-1.776L241.74,73.56z"/>
			<path d="M250.356,68.856v1.14l-3.216,6.66h-1.932l3.216-6.276v-0.024h-3.576v-1.5H250.356z"/>
			<path d="M277.823,74.58l-0.564,2.076h-1.896l2.472-8.088h2.388l2.521,8.088h-1.968l-0.624-2.076H277.823z M279.875,73.212
				l-0.504-1.716c-0.132-0.48-0.276-1.092-0.396-1.56h-0.036c-0.108,0.48-0.24,1.092-0.36,1.56l-0.492,1.716H279.875z"/>
			<path d="M297.935,73.56c-0.036-0.972-0.071-2.136-0.071-3.324h-0.024c-0.264,1.032-0.6,2.184-0.912,3.132l-0.983,3.156h-1.429
				l-0.864-3.12c-0.264-0.96-0.527-2.1-0.731-3.168h-0.024c-0.035,1.092-0.084,2.34-0.132,3.348l-0.156,3.072h-1.691l0.516-8.088
				h2.437l0.792,2.712c0.264,0.924,0.504,1.932,0.684,2.88h0.048c0.216-0.936,0.492-1.992,0.769-2.904l0.852-2.688h2.4l0.432,8.088
				h-1.776L297.935,73.56z"/>
			<path d="M306.551,68.856v1.14l-3.216,6.66h-1.933l3.217-6.276v-0.024h-3.576v-1.5H306.551z"/>
			<path d="M324.322,74.58l-0.563,2.076h-1.896l2.472-8.088h2.389l2.52,8.088h-1.968l-0.624-2.076H324.322z M326.374,73.212
				l-0.504-1.716c-0.132-0.48-0.275-1.092-0.396-1.56h-0.036c-0.108,0.48-0.24,1.092-0.36,1.56l-0.492,1.716H326.374z"/>
			<path d="M338.542,70.272v2.616h2.508v1.116h-2.508v2.652h-1.176v-2.652h-2.508v-1.116h2.508v-2.616H338.542z"/>
			<path d="M365.22,68.688c0.672-0.12,1.548-0.18,2.46-0.18c1.549,0,2.557,0.252,3.324,0.84c0.84,0.624,1.368,1.632,1.368,3.072
				c0,1.548-0.564,2.616-1.332,3.276c-0.852,0.708-2.16,1.044-3.744,1.044c-0.948,0-1.632-0.06-2.076-0.12V68.688z M367.044,75.276
				c0.156,0.036,0.42,0.036,0.636,0.036c1.668,0.012,2.761-0.9,2.761-2.832c0-1.74-0.984-2.568-2.568-2.568
				c-0.396,0-0.672,0.036-0.828,0.072V75.276z"/>
			<path d="M378.876,68.856v1.14l-3.216,6.66h-1.933l3.217-6.276v-0.024h-3.576v-1.5H378.876z"/>
			<path d="M410.4,76.284c-0.564,0.192-1.633,0.456-2.7,0.456c-1.477,0-2.544-0.372-3.288-1.08
				c-0.732-0.708-1.141-1.764-1.141-2.952c0.013-2.688,1.969-4.224,4.62-4.224c1.044,0,1.849,0.204,2.244,0.384l-0.384,1.476
				c-0.444-0.204-0.984-0.348-1.872-0.348c-1.524,0-2.688,0.864-2.688,2.616c0,1.68,1.056,2.652,2.556,2.652
				c0.408,0,0.744-0.048,0.888-0.108v-1.704h-1.248v-1.428h3.013V76.284z"/>
			<path d="M411.228,77.136l2.568-8.7h1.212l-2.568,8.7H411.228z"/>
			<path d="M415.8,68.688c0.672-0.12,1.548-0.18,2.46-0.18c1.548,0,2.556,0.252,3.324,0.84c0.84,0.624,1.368,1.632,1.368,3.072
				c0,1.548-0.564,2.616-1.332,3.276c-0.853,0.708-2.16,1.044-3.744,1.044c-0.948,0-1.632-0.06-2.076-0.12V68.688z M417.624,75.276
				c0.155,0.036,0.42,0.036,0.636,0.036c1.668,0.012,2.76-0.9,2.76-2.832c0-1.74-0.983-2.568-2.567-2.568
				c-0.396,0-0.673,0.036-0.828,0.072V75.276z"/>
			<path d="M5.676,97.856v1.14l-3.216,6.66H0.528l3.216-6.276v-0.024H0.168v-1.5H5.676z"/>
			<path d="M11.22,102.272h0.024c0.132-0.252,0.276-0.492,0.42-0.708l1.188-1.776h2.196l-2.1,2.376l2.4,3.492h-2.244l-1.428-2.412
				l-0.456,0.588v1.824H9.396v-8.52h1.824V102.272z"/>
			<path d="M17.16,103.292c0.06,0.768,0.804,1.128,1.656,1.128c0.624,0,1.128-0.084,1.62-0.252l0.24,1.236
				c-0.6,0.252-1.332,0.372-2.124,0.372c-1.992,0-3.132-1.152-3.132-3c0-1.488,0.936-3.132,2.964-3.132
				c1.896,0,2.616,1.476,2.616,2.928c0,0.312-0.036,0.588-0.06,0.732L17.16,103.292z M19.308,102.044
				c0-0.432-0.192-1.188-1.02-1.188c-0.78,0-1.092,0.708-1.14,1.188H19.308z"/>
			<path d="M23.304,99.788l0.876,2.88c0.096,0.348,0.216,0.78,0.288,1.092h0.036c0.084-0.312,0.18-0.756,0.264-1.092l0.72-2.88
				h1.956l-1.368,3.864c-0.84,2.328-1.404,3.252-2.064,3.84c-0.624,0.552-1.296,0.756-1.764,0.804l-0.384-1.536
				c0.228-0.048,0.516-0.156,0.792-0.312c0.276-0.144,0.588-0.444,0.756-0.732c0.06-0.096,0.096-0.18,0.096-0.264
				c0-0.06-0.012-0.156-0.072-0.3l-2.16-5.364H23.304z"/>
			<path d="M28.068,104.072c0.336,0.204,1.032,0.432,1.572,0.432c0.552,0,0.78-0.18,0.78-0.48c0-0.312-0.18-0.456-0.852-0.684
				c-1.224-0.396-1.692-1.068-1.68-1.752c0-1.104,0.936-1.932,2.388-1.932c0.684,0,1.284,0.168,1.644,0.348l-0.312,1.248
				c-0.264-0.132-0.78-0.324-1.272-0.324c-0.444,0-0.696,0.18-0.696,0.468c0,0.288,0.228,0.432,0.948,0.684
				c1.116,0.372,1.572,0.948,1.584,1.8c0,1.104-0.852,1.908-2.532,1.908c-0.768,0-1.452-0.18-1.896-0.42L28.068,104.072z"/>
			<path d="M35.712,97.136h1.824v3.36h0.024c0.192-0.264,0.432-0.468,0.72-0.612c0.276-0.144,0.612-0.228,0.948-0.228
				c1.164,0,2.052,0.804,2.052,2.58v3.42h-1.824v-3.228c0-0.768-0.264-1.296-0.948-1.296c-0.48,0-0.78,0.312-0.912,0.648
				c-0.048,0.108-0.06,0.264-0.06,0.396v3.48h-1.824V97.136z"/>
			<path d="M43.644,99.02c-0.612,0-1.008-0.432-1.008-0.972c0-0.552,0.408-0.972,1.032-0.972s1.008,0.42,1.02,0.972
				c0,0.54-0.396,0.972-1.032,0.972H43.644z M42.744,105.656v-5.868h1.824v5.868H42.744z"/>
			<path d="M51.588,104.804c0,1.128-0.228,2.052-0.9,2.64c-0.636,0.552-1.512,0.72-2.376,0.72c-0.78,0-1.584-0.156-2.112-0.444
				l0.36-1.392c0.372,0.216,1.008,0.444,1.704,0.444c0.864,0,1.524-0.456,1.524-1.548v-0.372h-0.024
				c-0.348,0.48-0.912,0.756-1.584,0.756c-1.452,0-2.484-1.176-2.484-2.856c0-1.896,1.212-3.096,2.664-3.096
				c0.804,0,1.308,0.348,1.608,0.828h0.024l0.06-0.696h1.584c-0.024,0.384-0.048,0.876-0.048,1.752V104.804z M49.764,102.176
				c0-0.108-0.012-0.228-0.036-0.336c-0.132-0.48-0.48-0.804-0.984-0.804c-0.672,0-1.2,0.6-1.2,1.668c0,0.876,0.432,1.56,1.188,1.56
				c0.48,0,0.852-0.312,0.972-0.732c0.048-0.144,0.06-0.336,0.06-0.492V102.176z"/>
			<path d="M53.052,97.136h1.824v3.36H54.9c0.192-0.264,0.432-0.468,0.72-0.612c0.276-0.144,0.612-0.228,0.948-0.228
				c1.164,0,2.052,0.804,2.052,2.58v3.42h-1.824v-3.228c0-0.768-0.264-1.296-0.948-1.296c-0.48,0-0.78,0.312-0.912,0.648
				c-0.048,0.108-0.06,0.264-0.06,0.396v3.48h-1.824V97.136z"/>
			<path d="M61.488,103.292c0.06,0.768,0.804,1.128,1.656,1.128c0.624,0,1.128-0.084,1.62-0.252l0.24,1.236
				c-0.6,0.252-1.332,0.372-2.124,0.372c-1.992,0-3.132-1.152-3.132-3c0-1.488,0.936-3.132,2.964-3.132
				c1.896,0,2.616,1.476,2.616,2.928c0,0.312-0.036,0.588-0.06,0.732L61.488,103.292z M63.636,102.044
				c0-0.432-0.192-1.188-1.02-1.188c-0.78,0-1.092,0.708-1.14,1.188H63.636z"/>
			<path d="M66.432,101.72c0-0.864-0.012-1.428-0.048-1.932h1.56l0.072,1.092h0.048c0.3-0.864,1.008-1.224,1.584-1.224
				c0.168,0,0.252,0.012,0.384,0.036v1.716c-0.156-0.024-0.3-0.048-0.504-0.048c-0.672,0-1.128,0.348-1.248,0.924
				c-0.024,0.12-0.036,0.252-0.036,0.408v2.964H66.42L66.432,101.72z"/>
			<path d="M108.372,97.688c0.672-0.12,1.548-0.18,2.46-0.18c1.548,0,2.556,0.252,3.324,0.84c0.84,0.624,1.368,1.632,1.368,3.072
				c0,1.548-0.564,2.616-1.332,3.276c-0.852,0.708-2.16,1.044-3.744,1.044c-0.948,0-1.632-0.06-2.076-0.12V97.688z M110.196,104.276
				c0.156,0.036,0.42,0.036,0.636,0.036c1.668,0.012,2.76-0.9,2.76-2.832c0-1.74-0.984-2.568-2.568-2.568
				c-0.396,0-0.672,0.036-0.828,0.072V104.276z"/>
			<path d="M144.384,97.568h4.932v1.5h-3.108v1.848h2.904v1.488h-2.904v3.252h-1.824V97.568z"/>
			<path d="M180.384,97.568h4.932v1.5h-3.108v1.848h2.904v1.488h-2.904v3.252h-1.824V97.568z"/>
			<path d="M193.812,99.152c-0.204-0.012-0.42,0-0.708,0.024c-1.62,0.12-2.34,0.96-2.544,1.86h0.036
				c0.384-0.384,0.936-0.612,1.656-0.612c1.308,0,2.412,0.924,2.412,2.544c0,1.548-1.188,2.82-2.868,2.82
				c-2.088,0-3.108-1.548-3.108-3.408c0-1.464,0.54-2.688,1.392-3.48c0.768-0.708,1.788-1.08,3-1.14
				c0.336-0.036,0.564-0.024,0.732-0.012V99.152z M191.772,104.444c0.636,0,1.044-0.588,1.044-1.38c0-0.72-0.384-1.344-1.164-1.344
				c-0.492,0-0.9,0.3-1.068,0.684c-0.06,0.108-0.084,0.252-0.084,0.468c0.036,0.828,0.432,1.572,1.26,1.572H191.772z"/>
			<path d="M221.232,97.568h4.932v1.5h-3.108v1.848h2.904v1.488h-2.904v3.252h-1.824V97.568z"/>
			<path d="M236.808,102.56c-0.036-0.972-0.072-2.136-0.072-3.324h-0.024c-0.264,1.032-0.6,2.184-0.912,3.132l-0.984,3.156h-1.428
				l-0.864-3.12c-0.264-0.96-0.528-2.1-0.732-3.168h-0.024c-0.036,1.092-0.084,2.34-0.132,3.348l-0.156,3.072h-1.692l0.516-8.088
				h2.436l0.792,2.712c0.264,0.924,0.504,1.932,0.684,2.88h0.048c0.216-0.936,0.492-1.992,0.768-2.904l0.852-2.688h2.4l0.432,8.088
				h-1.776L236.808,102.56z"/>
			<path d="M245.424,97.856v1.14l-3.216,6.66h-1.932l3.216-6.276v-0.024h-3.576v-1.5H245.424z"/>
			<path d="M275.867,97.688c0.479-0.096,1.439-0.18,2.364-0.18c1.115,0,1.8,0.108,2.388,0.456c0.564,0.3,0.96,0.852,0.96,1.596
				c0,0.708-0.42,1.368-1.32,1.716v0.024c0.925,0.24,1.608,0.948,1.608,1.992c0,0.744-0.336,1.32-0.84,1.716
				c-0.588,0.468-1.572,0.732-3.181,0.732c-0.899,0-1.571-0.06-1.979-0.12V97.688z M277.679,100.772h0.601
				c0.972,0,1.476-0.396,1.476-0.996c0-0.612-0.468-0.936-1.296-0.936c-0.408,0-0.636,0.024-0.78,0.06V100.772z M277.679,104.36
				c0.181,0.036,0.396,0.036,0.708,0.036c0.828,0,1.561-0.324,1.561-1.176c0-0.816-0.732-1.14-1.645-1.14h-0.624V104.36z"/>
			<path d="M297.227,102.56c-0.036-0.972-0.071-2.136-0.071-3.324h-0.024c-0.264,1.032-0.6,2.184-0.912,3.132l-0.984,3.156h-1.428
				l-0.864-3.12c-0.264-0.96-0.527-2.1-0.731-3.168h-0.024c-0.036,1.092-0.084,2.34-0.132,3.348l-0.156,3.072h-1.691l0.516-8.088
				h2.437l0.792,2.712c0.264,0.924,0.504,1.932,0.684,2.88h0.048c0.216-0.936,0.492-1.992,0.769-2.904l0.852-2.688h2.4l0.432,8.088
				h-1.776L297.227,102.56z"/>
			<path d="M305.843,97.856v1.14l-3.216,6.66h-1.933l3.217-6.276v-0.024h-3.576v-1.5H305.843z"/>
			<path d="M321.742,97.688c0.48-0.096,1.44-0.18,2.364-0.18c1.116,0,1.8,0.108,2.388,0.456c0.564,0.3,0.96,0.852,0.96,1.596
				c0,0.708-0.42,1.368-1.319,1.716v0.024c0.924,0.24,1.607,0.948,1.607,1.992c0,0.744-0.336,1.32-0.84,1.716
				c-0.588,0.468-1.572,0.732-3.18,0.732c-0.9,0-1.572-0.06-1.98-0.12V97.688z M323.555,100.772h0.6
				c0.972,0,1.476-0.396,1.476-0.996c0-0.612-0.468-0.936-1.296-0.936c-0.407,0-0.636,0.024-0.779,0.06V100.772z M323.555,104.36
				c0.18,0.036,0.396,0.036,0.708,0.036c0.827,0,1.56-0.324,1.56-1.176c0-0.816-0.732-1.14-1.644-1.14h-0.624V104.36z"/>
			<path d="M337.21,99.272v2.616h2.508v1.116h-2.508v2.652h-1.176v-2.652h-2.508v-1.116h2.508v-2.616H337.21z"/>
			<path d="M370.032,102.236h-2.977v1.92h3.324v1.5h-5.147v-8.088h4.979v1.5h-3.156v1.68h2.977V102.236z"/>
			<path d="M376.932,97.856v1.14l-3.216,6.66h-1.932L375,99.38v-0.024h-3.576v-1.5H376.932z"/>
			<path d="M407.939,103.58l-0.563,2.076h-1.896l2.473-8.088h2.388l2.521,8.088h-1.969l-0.624-2.076H407.939z M409.992,102.212
				l-0.504-1.716c-0.133-0.48-0.276-1.092-0.396-1.56h-0.036c-0.107,0.48-0.239,1.092-0.359,1.56l-0.492,1.716H409.992z"/>
			<path d="M413.34,106.136l2.568-8.7h1.212l-2.568,8.7H413.34z"/>
			<path d="M422.724,102.236h-2.976v1.92h3.323v1.5h-5.147v-8.088h4.979v1.5h-3.155v1.68h2.976V102.236z"/>
			<path d="M2.94,111.864c-0.672,1.104-1.212,2.712-1.212,4.86c0,2.112,0.54,3.708,1.212,4.836H1.668
				c-0.636-0.936-1.368-2.52-1.368-4.836c0.012-2.34,0.732-3.924,1.368-4.86H2.94z"/>
			<path d="M6.78,120.288c-1.716,0-3.036-1.128-3.036-3.024s1.248-3.108,3.144-3.108c1.788,0,2.988,1.236,2.988,3.012
				c0,2.136-1.524,3.12-3.084,3.12H6.78z M6.816,118.98c0.72,0,1.164-0.708,1.164-1.764c0-0.864-0.336-1.752-1.164-1.752
				c-0.864,0-1.2,0.888-1.2,1.764c0,0.996,0.42,1.752,1.188,1.752H6.816z"/>
			<path d="M11.016,116.22c0-0.864-0.012-1.428-0.048-1.932h1.56l0.072,1.092h0.048c0.3-0.864,1.008-1.224,1.584-1.224
				c0.168,0,0.252,0.012,0.384,0.036v1.716c-0.156-0.024-0.3-0.048-0.504-0.048c-0.672,0-1.128,0.348-1.248,0.924
				c-0.024,0.12-0.036,0.252-0.036,0.408v2.964h-1.824L11.016,116.22z"/>
			<path d="M22.968,113.856h-3.024l-0.168,1.188c0.168-0.012,0.312-0.024,0.504-0.024c0.744,0,1.512,0.168,2.052,0.564
				c0.588,0.396,0.948,1.044,0.948,1.968c0,1.452-1.248,2.736-3.348,2.736c-0.948,0-1.74-0.216-2.172-0.444l0.336-1.368
				c0.336,0.168,1.044,0.384,1.752,0.384c0.756,0,1.56-0.36,1.56-1.188c0-0.816-0.636-1.308-2.196-1.308
				c-0.432,0-0.732,0.024-1.044,0.072l0.504-4.08h4.296V113.856z"/>
			<path d="M28.896,116.772h0.024c0.132-0.252,0.276-0.492,0.42-0.708l1.188-1.776h2.196l-2.1,2.376l2.4,3.492H30.78l-1.428-2.412
				l-0.456,0.588v1.824h-1.824v-8.52h1.824V116.772z"/>
			<path d="M34.835,117.792c0.06,0.768,0.804,1.128,1.656,1.128c0.624,0,1.128-0.084,1.62-0.252l0.24,1.236
				c-0.6,0.252-1.332,0.372-2.124,0.372c-1.992,0-3.132-1.152-3.132-3c0-1.488,0.936-3.132,2.964-3.132
				c1.896,0,2.616,1.476,2.616,2.928c0,0.312-0.036,0.588-0.06,0.732L34.835,117.792z M36.984,116.544
				c0-0.432-0.192-1.188-1.02-1.188c-0.78,0-1.092,0.708-1.14,1.188H36.984z"/>
			<path d="M40.98,114.288l0.876,2.88c0.096,0.348,0.216,0.78,0.288,1.092h0.036c0.084-0.312,0.18-0.756,0.264-1.092l0.72-2.88
				h1.956l-1.368,3.864c-0.84,2.328-1.404,3.252-2.064,3.84c-0.624,0.552-1.296,0.756-1.764,0.804l-0.384-1.536
				c0.228-0.048,0.516-0.156,0.792-0.312c0.276-0.144,0.588-0.444,0.756-0.732c0.06-0.096,0.096-0.18,0.096-0.264
				c0-0.06-0.012-0.156-0.072-0.3l-2.16-5.364H40.98z"/>
			<path d="M45.744,118.572c0.336,0.204,1.032,0.432,1.572,0.432c0.552,0,0.78-0.18,0.78-0.48c0-0.312-0.18-0.456-0.852-0.684
				c-1.224-0.396-1.692-1.068-1.68-1.752c0-1.104,0.936-1.932,2.388-1.932c0.684,0,1.284,0.168,1.644,0.348l-0.312,1.248
				c-0.264-0.132-0.78-0.324-1.272-0.324c-0.444,0-0.696,0.18-0.696,0.468c0,0.288,0.228,0.432,0.948,0.684
				c1.116,0.372,1.572,0.948,1.584,1.8c0,1.104-0.852,1.908-2.532,1.908c-0.768,0-1.452-0.18-1.896-0.42L45.744,118.572z"/>
			<path d="M53.388,111.636h1.824v8.52h-1.824V111.636z"/>
			<path d="M59.375,120.288c-1.716,0-3.036-1.128-3.036-3.024s1.248-3.108,3.144-3.108c1.788,0,2.988,1.236,2.988,3.012
				c0,2.136-1.524,3.12-3.084,3.12H59.375z M59.412,118.98c0.72,0,1.164-0.708,1.164-1.764c0-0.864-0.336-1.752-1.164-1.752
				c-0.864,0-1.2,0.888-1.2,1.764c0,0.996,0.42,1.752,1.188,1.752H59.412z"/>
			<path d="M64.752,114.288l0.48,2.412c0.108,0.6,0.228,1.248,0.324,1.92h0.036c0.108-0.66,0.288-1.332,0.42-1.908l0.624-2.424h1.44
				l0.588,2.34c0.168,0.672,0.324,1.32,0.432,1.992h0.024c0.084-0.66,0.204-1.332,0.348-2.004l0.492-2.328h1.788l-1.8,5.868h-1.704
				l-0.552-2.052c-0.156-0.576-0.264-1.104-0.384-1.836h-0.024c-0.108,0.732-0.228,1.284-0.372,1.824l-0.588,2.064h-1.716
				l-1.716-5.868H64.752z"/>
			<path d="M73.86,117.792c0.06,0.768,0.804,1.128,1.656,1.128c0.624,0,1.128-0.084,1.62-0.252l0.24,1.236
				c-0.6,0.252-1.332,0.372-2.124,0.372c-1.992,0-3.132-1.152-3.132-3c0-1.488,0.936-3.132,2.964-3.132
				c1.896,0,2.616,1.476,2.616,2.928c0,0.312-0.036,0.588-0.06,0.732L73.86,117.792z M76.008,116.544
				c0-0.432-0.192-1.188-1.02-1.188c-0.78,0-1.092,0.708-1.14,1.188H76.008z"/>
			<path d="M78.804,116.22c0-0.864-0.012-1.428-0.048-1.932h1.56l0.072,1.092h0.048c0.3-0.864,1.008-1.224,1.584-1.224
				c0.168,0,0.252,0.012,0.384,0.036v1.716c-0.156-0.024-0.3-0.048-0.504-0.048c-0.672,0-1.128,0.348-1.248,0.924
				c-0.024,0.12-0.036,0.252-0.036,0.408v2.964h-1.824L78.804,116.22z"/>
			<path d="M83.04,121.56c0.672-1.116,1.212-2.736,1.212-4.86s-0.54-3.72-1.212-4.836h1.272c0.636,0.924,1.368,2.508,1.368,4.848
				c-0.012,2.328-0.732,3.9-1.368,4.848H83.04z"/>
		</g>
		<g>
			<path d="M152.462,8.144c0,0.216,0,1.536,0,1.536c0.912-0.816,1.416-0.984,2.424-1.008c1.2-0.024,1.968,1.176,1.992,2.136
				c0.024,0.504-0.12,1.032-0.312,1.44c-0.216,0.528-0.792,0.936-1.176,1.32c-0.432,0.432-3.552,2.568-3.552,2.616V2h0.624
				C152.462,2,152.486,4.976,152.462,8.144z M152.726,10.52c-0.312,0.6-0.264,1.632-0.264,2.376v2.064
				c0,0.024,0.864-0.72,1.344-1.176c0.432-0.408,0.768-0.864,0.936-1.584c0.192-0.72,0.12-1.488-0.336-1.992
				C154.094,9.848,153.23,9.56,152.726,10.52z"/>
		</g>
		<g>
			<path d="M188.462,8.144c0,0.216,0,1.536,0,1.536c0.912-0.816,1.416-0.984,2.424-1.008c1.2-0.024,1.968,1.176,1.992,2.136
				c0.024,0.504-0.12,1.032-0.312,1.44c-0.216,0.528-0.792,0.936-1.176,1.32c-0.432,0.432-3.552,2.568-3.552,2.616V2h0.624
				C188.462,2,188.486,4.976,188.462,8.144z M188.726,10.52c-0.312,0.6-0.264,1.632-0.264,2.376v2.064
				c0,0.024,0.864-0.72,1.344-1.176c0.432-0.408,0.768-0.864,0.936-1.584c0.192-0.72,0.12-1.488-0.336-1.992
				C190.094,9.848,189.23,9.56,188.726,10.52z"/>
		</g>
		<g>
			<path d="M230.462,8.144c0,0.216,0,1.536,0,1.536c0.912-0.816,1.416-0.984,2.424-1.008c1.2-0.024,1.968,1.176,1.992,2.136
				c0.024,0.504-0.12,1.032-0.312,1.44c-0.216,0.528-0.792,0.936-1.176,1.32c-0.432,0.432-3.552,2.568-3.552,2.616V2h0.624
				C230.462,2,230.486,4.976,230.462,8.144z M230.726,10.52c-0.312,0.6-0.264,1.632-0.264,2.376v2.064
				c0,0.024,0.864-0.72,1.344-1.176c0.432-0.408,0.768-0.864,0.936-1.584c0.192-0.72,0.12-1.488-0.336-1.992
				C232.094,9.848,231.23,9.56,230.726,10.52z"/>
		</g>
		<g>
			<path d="M284.462,7.144c0,0.216,0,1.536,0,1.536c0.912-0.816,1.416-0.984,2.424-1.008c1.2-0.024,1.968,1.176,1.992,2.136
				c0.024,0.504-0.12,1.032-0.312,1.44c-0.217,0.528-0.793,0.936-1.177,1.32c-0.432,0.432-3.552,2.568-3.552,2.616V1h0.624
				C284.462,1,284.486,3.976,284.462,7.144z M284.726,9.52c-0.312,0.6-0.264,1.632-0.264,2.376v2.064
				c0,0.024,0.864-0.72,1.344-1.176c0.433-0.408,0.769-0.864,0.937-1.584c0.191-0.72,0.12-1.488-0.336-1.992
				C286.094,8.848,285.229,8.56,284.726,9.52z"/>
		</g>
		<g>
			<path d="M329.462,6.144c0,0.216,0,1.536,0,1.536c0.912-0.816,1.416-0.984,2.424-1.008c1.2-0.024,1.968,1.176,1.992,2.136
				c0.024,0.504-0.12,1.032-0.312,1.44c-0.217,0.528-0.793,0.936-1.177,1.32c-0.432,0.432-3.552,2.568-3.552,2.616V0h0.624
				C329.462,0,329.486,2.976,329.462,6.144z M329.726,8.52c-0.312,0.6-0.264,1.632-0.264,2.376v2.064
				c0,0.024,0.864-0.72,1.344-1.176c0.433-0.408,0.769-0.864,0.937-1.584c0.191-0.72,0.12-1.488-0.336-1.992
				C331.094,7.848,330.229,7.56,329.726,8.52z"/>
		</g>
		<g>
			<path d="M187.462,66.144c0,0.216,0,1.536,0,1.536c0.912-0.816,1.416-0.984,2.424-1.008c1.2-0.024,1.968,1.176,1.992,2.136
				c0.024,0.504-0.12,1.032-0.312,1.44c-0.216,0.528-0.792,0.936-1.176,1.32c-0.432,0.432-3.552,2.568-3.552,2.616V60h0.624
				C187.462,60,187.486,62.976,187.462,66.144z M187.726,68.52c-0.312,0.6-0.264,1.632-0.264,2.376v2.064
				c0,0.024,0.864-0.72,1.344-1.176c0.432-0.408,0.768-0.864,0.936-1.584c0.192-0.72,0.12-1.488-0.336-1.992
				C189.094,67.848,188.23,67.56,187.726,68.52z"/>
		</g>
		<g>
			<path d="M228.462,65.144c0,0.216,0,1.536,0,1.536c0.912-0.816,1.416-0.984,2.424-1.008c1.2-0.024,1.968,1.176,1.992,2.136
				c0.024,0.504-0.12,1.032-0.312,1.44c-0.216,0.528-0.792,0.936-1.176,1.32c-0.432,0.432-3.552,2.568-3.552,2.616V59h0.624
				C228.462,59,228.486,61.976,228.462,65.144z M228.726,67.52c-0.312,0.6-0.264,1.632-0.264,2.376v2.064
				c0,0.024,0.864-0.72,1.344-1.176c0.432-0.408,0.768-0.864,0.936-1.584c0.192-0.72,0.12-1.488-0.336-1.992
				C230.094,66.848,229.23,66.56,228.726,67.52z"/>
		</g>
		<g>
			<path d="M284.462,66.144c0,0.216,0,1.536,0,1.536c0.912-0.816,1.416-0.984,2.424-1.008c1.2-0.024,1.968,1.176,1.992,2.136
				c0.024,0.504-0.12,1.032-0.312,1.44c-0.217,0.528-0.793,0.936-1.177,1.32c-0.432,0.432-3.552,2.568-3.552,2.616V60h0.624
				C284.462,60,284.486,62.976,284.462,66.144z M284.726,68.52c-0.312,0.6-0.264,1.632-0.264,2.376v2.064
				c0,0.024,0.864-0.72,1.344-1.176c0.433-0.408,0.769-0.864,0.937-1.584c0.191-0.72,0.12-1.488-0.336-1.992
				C286.094,67.848,285.229,67.56,284.726,68.52z"/>
		</g>
		<g>
			<path d="M330.462,65.144c0,0.216,0,1.536,0,1.536c0.912-0.816,1.416-0.984,2.424-1.008c1.2-0.024,1.968,1.176,1.992,2.136
				c0.024,0.504-0.12,1.032-0.312,1.44c-0.217,0.528-0.793,0.936-1.177,1.32c-0.432,0.432-3.552,2.568-3.552,2.616V59h0.624
				C330.462,59,330.486,61.976,330.462,65.144z M330.726,67.52c-0.312,0.6-0.264,1.632-0.264,2.376v2.064
				c0,0.024,0.864-0.72,1.344-1.176c0.433-0.408,0.769-0.864,0.937-1.584c0.191-0.72,0.12-1.488-0.336-1.992
				C332.094,66.848,331.229,66.56,330.726,67.52z"/>
		</g>
		<g>
			<path d="M283.462,94.144c0,0.216,0,1.536,0,1.536c0.912-0.816,1.416-0.984,2.424-1.008c1.2-0.024,1.968,1.176,1.992,2.136
				c0.024,0.504-0.12,1.032-0.312,1.44c-0.217,0.528-0.793,0.936-1.177,1.32c-0.432,0.432-3.552,2.568-3.552,2.616V88h0.624
				C283.462,88,283.486,90.976,283.462,94.144z M283.726,96.52c-0.312,0.6-0.264,1.632-0.264,2.376v2.064
				c0,0.024,0.864-0.72,1.344-1.176c0.433-0.408,0.769-0.864,0.937-1.584c0.191-0.72,0.12-1.488-0.336-1.992
				C285.094,95.848,284.229,95.56,283.726,96.52z"/>
		</g>
		<g>
			<path d="M329.462,95.144c0,0.216,0,1.536,0,1.536c0.912-0.816,1.416-0.984,2.424-1.008c1.2-0.024,1.968,1.176,1.992,2.136
				c0.024,0.504-0.12,1.032-0.312,1.44c-0.217,0.528-0.793,0.936-1.177,1.32c-0.432,0.432-3.552,2.568-3.552,2.616V89h0.624
				C329.462,89,329.486,91.976,329.462,95.144z M329.726,97.52c-0.312,0.6-0.264,1.632-0.264,2.376v2.064
				c0,0.024,0.864-0.72,1.344-1.176c0.433-0.408,0.769-0.864,0.937-1.584c0.191-0.72,0.12-1.488-0.336-1.992
				C331.094,96.848,330.229,96.56,329.726,97.52z"/>
		</g>
		<g>
			<path d="M151.462,65.144c0,0.216,0,1.536,0,1.536c0.912-0.816,1.416-0.984,2.424-1.008c1.2-0.024,1.968,1.176,1.992,2.136
				c0.024,0.504-0.12,1.032-0.312,1.44c-0.216,0.528-0.792,0.936-1.176,1.32c-0.432,0.432-3.552,2.568-3.552,2.616V59h0.624
				C151.462,59,151.486,61.976,151.462,65.144z M151.726,67.52c-0.312,0.6-0.264,1.632-0.264,2.376v2.064
				c0,0.024,0.864-0.72,1.344-1.176c0.432-0.408,0.768-0.864,0.936-1.584c0.192-0.72,0.12-1.488-0.336-1.992
				C153.094,66.848,152.23,66.56,151.726,67.52z"/>
		</g>
	</g>
</svg>
