<?xml version="1.0" encoding="utf-8"?>
<!-- Generator: Adobe Illustrator 10.0, SVG Export Plug-In . SVG Version: 3.0.0 Build 76)  -->
<!DOCTYPE svg PUBLIC "-//W3C//DTD SVG 1.0//EN"    "http://www.w3.org/TR/2001/REC-SVG-20010904/DTD/svg10.dtd" [
	<!ENTITY ns_flows "http://ns.adobe.com/Flows/1.0/">
	<!ENTITY ns_extend "http://ns.adobe.com/Extensibility/1.0/">
	<!ENTITY ns_ai "http://ns.adobe.com/AdobeIllustrator/10.0/">
	<!ENTITY ns_svg "http://www.w3.org/2000/svg">
	<!ENTITY ns_xlink "http://www.w3.org/1999/xlink">
]>
<svg  xmlns:x="&ns_extend;" xmlns:i="&ns_ai;" xmlns:graph="&ns_graphs;"
	 xmlns="&ns_svg;" xmlns:xlink="&ns_xlink;" xmlns:a="http://ns.adobe.com/AdobeSVGViewerExtensions/3.0/" width="475" height="57"
	 viewBox="0.124 0.111 475 57" overflow="visible" enable-background="new 0.124 0.111 475 57" xml:space="preserve">
	<g id="Layer_1_2_">
		<g>
			<path fill="none" stroke="#000000" d="M0.127,26.833h474.999"/>
			<path fill="none" stroke="#000000" d="M0.127,40.945h474.999"/>
			<path fill="none" stroke="#000000" d="M0.363,48.067h474.999"/>
			<path fill="none" stroke="#000000" d="M0,55.451h474.997"/>
			<path fill="none" stroke="#000000" d="M0,34.087h474.997"/>
		</g>
		<path stroke="#000000" stroke-miterlimit="1" d="M436.2,41.31h-8.514v-3.142h8.514V41.31z"/>
		<path fill="none" stroke="#0A0A0A" d="M161.9,25.982v29.746"/>
		<g>
			<path d="M38.768,31.668v3.072c2.448,0.096,4.464,1.32,4.464,3.552c0,0.96-1.2,1.8-1.848,1.8s-2.04-0.36-2.04-1.8
				c0-0.936,0.672-1.632,1.512-1.632c0.552,0,0.504-0.36,0.312-0.576c-0.48-0.504-1.344-0.912-2.4-0.696V45.9
				c0.072,0,0.144,0,0.216,0c1.608,0,3.456-1.488,3.408-3.528h0.672c-0.024,0.624-0.432,1.92-0.84,2.424
				c-0.816,0.984-2.304,1.824-3.456,1.848v3.912h-0.672v-3.96c-2.832-0.336-4.8-3.024-4.8-5.952c0-2.952,1.92-5.664,4.8-5.88v-3.096
				H38.768z M38.096,35.604c-1.536,0.744-1.872,2.856-1.872,5.04c0,2.256,0.336,4.512,1.872,5.112V35.604z"/>
		</g>
		<g>
			<path d="M329.88,23.5c-0.456,1.248-1.487,2.256-2.231,2.64c-0.769,0.384-1.776,0.576-2.88,0.456
				c-0.601-0.048-1.608-0.216-2.16-0.792v19.225h-0.456V24.532c0-0.096,0-0.168,0-0.264c0.048-0.408,0.191-0.792,0.288-1.032
				c0.456-1.224,1.416-2.088,2.16-2.496c0.743-0.432,1.896-0.744,3.264-0.6c0.504,0.048,1.656,0.168,2.136,1.008
				C330.384,21.82,330.072,23.044,329.88,23.5z M327.024,21.508c-0.552,0.288-0.984,0.504-1.464,0.792
				c-0.48,0.288-0.937,0.528-1.464,0.888c-0.696,0.456-1.633,1.248-1.152,2.064c0.479,0.816,1.632,0.408,2.399,0.024
				c0.553-0.264,1.009-0.504,1.488-0.792c0.504-0.288,0.912-0.504,1.44-0.84c0.695-0.456,1.632-1.272,1.151-2.088
				C328.944,20.74,327.769,21.124,327.024,21.508z"/>
		</g>
		<g>
			<path d="M76.632,31.375c-0.713,0-1.217-0.536-1.217-1.25s0.524-1.25,1.259-1.25s1.238,0.516,1.238,1.25
				c0,0.714-0.503,1.25-1.259,1.25H76.632z"/>
		</g>
		<path fill="none" stroke="#000000" stroke-miterlimit="1" d="M237.556,6.168H249.2"/>
		<g>
			<path d="M13.75,45.243c-0.937,1.135-1.526,1.76-2.704,2.667c-1.418,1.107-2.382,1.561-4.042,2.242
				c-1.606,0.625-4.31,1.135-4.31,1.135l-0.188-0.426c0,0,4.523-1.447,6.745-3.944c2.918-3.207,4.443-7.094,4.363-12.06
				c-0.027-2.242-0.696-6.442-4.069-6.47c-1.927,0-4.657,1.76-4.47,3.944c0.053,0.313,0.803-0.34,2.275-0.284
				c1.553,0.057,2.382,2.1,2.008,3.689c-0.268,1.249-1.018,2.043-2.382,2.043c-1.74,0-3.292-1.306-3.319-3.462
				c-0.053-3.264,1.66-4.91,2.704-5.59c1.312-0.852,2.73-1.164,3.935-1.164c2.704-0.057,5.702,2.015,6.719,5.023
				c0.589,1.702,0.589,3.604,0.134,5.817c-0.294,1.504-0.669,2.327-1.338,3.689C15.142,43.398,14.66,44.108,13.75,45.243z
				 M19.96,29.635c0.83,0,1.499,0.625,1.499,1.476c0.027,0.852-0.642,1.589-1.445,1.589c-0.803,0.028-1.499-0.681-1.499-1.532
				C18.488,30.288,19.157,29.664,19.96,29.635z M19.986,36.787c0.803,0,1.472,0.624,1.499,1.476c0,0.879-0.642,1.589-1.445,1.589
				c-0.83,0.028-1.499-0.652-1.526-1.532C18.514,37.468,19.157,36.815,19.986,36.787z"/>
		</g>
		<g>
			<path fill="none" stroke="#000000" d="M295.573,31.453l2.959,2.637"/>
			<path fill="none" stroke="#000000" stroke-width="4" d="M294.86,40.096l4.539-5.852"/>
			<path fill="none" stroke="#000000" d="M294.522,39.421l5.313,3.841"/>
			<path fill="none" stroke="#000000" d="M297.692,48.453l-2.492-3.285"/>
			<g>
				<g>
					<path fill="none" d="M299.64,43.502c-1.48-0.457-3.17-0.309-4.221,1.15"/>
					<path d="M299.983,42.571c-2.035-0.582-4.035-0.217-5.377,1.512c-0.787,1.013,0.842,2.146,1.625,1.139
						c0.762-0.981,1.924-1.115,3.063-0.789C300.521,44.783,301.214,42.923,299.983,42.571z"/>
				</g>
			</g>
		</g>
		<g>
			<path d="M123.168,21c2.04,0.024,3.144,1.416,2.52,3.12c-0.624,1.728-2.784,3.096-4.8,3.072c-0.984-0.024-1.776-0.384-2.232-0.936
				v19.08H118.2c0-24.216,0-20.4,0-20.4c0-0.288,0.072-0.576,0.192-0.888C119.016,22.32,121.152,20.976,123.168,21z"/>
		</g>
		<g>
			<path d="M102.168,23.976c2.04,0.024,3.168,1.44,2.52,3.144c-0.288,0.816-0.936,1.536-1.728,2.088
				c0.816,1.824,1.344,3.744,1.008,6.168c-0.192,1.272-0.6,2.736-1.584,4.368c-1.032,1.728-2.112,3.36-3.048,4.68
				c-0.816,1.128-1.632,2.64-1.632,3.984h-0.456v-0.096H97.2c0-24.216,0-20.4,0-20.4c0-0.264,0.072-0.576,0.192-0.888
				C98.016,25.32,100.152,23.952,102.168,23.976z M99.888,30.168c-0.984,0-1.776-0.36-2.232-0.912v12.768h0.048
				c0,0,1.248-0.12,2.448-0.936c0.816-0.552,2.184-2.064,3-4.512c0.48-1.344,0.6-2.664,0.48-3.528
				c-0.216-1.56-0.408-2.376-1.056-3.648C101.736,29.928,100.872,30.192,99.888,30.168z"/>
		</g>
		<g>
			<path d="M147.168,17c2.04,0.024,3.144,1.416,2.52,3.12c-0.624,1.728-2.784,3.096-4.8,3.072c-0.984-0.024-1.776-0.384-2.232-0.936
				v19.08H142.2c0-24.216,0-20.4,0-20.4c0-0.288,0.072-0.576,0.192-0.888C143.016,18.32,145.152,16.976,147.168,17z"/>
		</g>
		<path fill="none" stroke="#0A0A0A" d="M261.901,25.982v29.746"/>
		<path fill="none" stroke="#0A0A0A" d="M361.901,25.982v29.746"/>
		<path fill="none" stroke="#0A0A0A" d="M474.901,26.982v29.746"/>
		<g>
			<path d="M176.168,13c2.04,0.024,3.144,1.416,2.52,3.12c-0.624,1.728-2.784,3.096-4.8,3.072c-0.984-0.024-1.776-0.384-2.232-0.936
				v19.08H171.2c0-24.216,0-20.4,0-20.4c0-0.288,0.072-0.576,0.192-0.888C172.016,14.32,174.152,12.976,176.168,13z"/>
		</g>
		<g>
			<path d="M198.168,10c2.04,0.024,3.144,1.416,2.52,3.12c-0.624,1.728-2.784,3.096-4.8,3.072c-0.984-0.024-1.776-0.384-2.232-0.936
				v19.08H193.2c0-24.216,0-20.4,0-20.4c0-0.288,0.072-0.576,0.192-0.888C194.016,11.32,196.152,9.976,198.168,10z"/>
		</g>
		<g>
			<path d="M222.168,6c2.04,0.024,3.144,1.416,2.52,3.12c-0.624,1.728-2.784,3.096-4.8,3.072c-0.984-0.024-1.776-0.384-2.232-0.936
				v19.08H217.2c0-24.216,0-20.4,0-20.4c0-0.288,0.072-0.576,0.192-0.888C218.016,7.32,220.152,5.976,222.168,6z"/>
		</g>
		<g>
			<path d="M244.168,3c2.04,0.024,3.144,1.416,2.52,3.12c-0.624,1.728-2.784,3.096-4.8,3.072c-0.984-0.024-1.776-0.384-2.232-0.936
				v19.08H239.2c0-24.216,0-20.4,0-20.4c0-0.288,0.072-0.576,0.192-0.888C240.016,4.32,242.152,2.976,244.168,3z"/>
		</g>
		<g>
			<path d="M274.168,0c2.04,0.024,3.144,1.416,2.52,3.12c-0.624,1.728-2.784,3.096-4.8,3.072c-0.984-0.024-1.776-0.384-2.232-0.936
				v19.08H269.2c0-24.216,0-20.4,0-20.4c0-0.288,0.072-0.576,0.192-0.888C270.016,1.32,272.152-0.024,274.168,0z"/>
		</g>
		<path fill="none" stroke="#000000" stroke-miterlimit="1" d="M267.556,6.168H279.2"/>
		<g>
			<path d="M379.168,17c2.04,0.024,3.145,1.416,2.521,3.12c-0.624,1.728-2.784,3.096-4.8,3.072
				c-0.984-0.024-1.776-0.384-2.232-0.936v19.08H374.2c0-24.216,0-20.4,0-20.4c0-0.288,0.072-0.576,0.192-0.888
				C375.017,18.32,377.152,16.976,379.168,17z"/>
		</g>
		<g>
			<path fill="none" stroke="#000000" d="M400.573,31.453l2.959,2.637"/>
			<path fill="none" stroke="#000000" stroke-width="4" d="M399.86,40.096l4.539-5.852"/>
			<path fill="none" stroke="#000000" d="M399.522,39.421l5.313,3.841"/>
			<path fill="none" stroke="#000000" d="M402.692,48.453l-2.492-3.285"/>
			<g>
				<g>
					<path fill="none" d="M404.64,43.502c-1.48-0.457-3.17-0.309-4.221,1.15"/>
					<path d="M404.983,42.571c-2.035-0.582-4.035-0.217-5.377,1.512c-0.787,1.013,0.842,2.146,1.625,1.139
						c0.762-0.981,1.924-1.115,3.063-0.789C405.521,44.783,406.214,42.923,404.983,42.571z"/>
				</g>
			</g>
		</g>
		<g>
			<path d="M69.168,27c2.04,0.024,3.144,1.416,2.52,3.12c-0.624,1.728-2.784,3.096-4.8,3.072c-0.984-0.024-1.776-0.384-2.232-0.936
				v19.08H64.2c0-24.216,0-20.4,0-20.4c0-0.288,0.072-0.576,0.192-0.888C65.016,28.32,67.152,26.976,69.168,27z"/>
		</g>
		<path fill="none" stroke="#000000" stroke-miterlimit="1" d="M140.48,20.111h11.644"/>
		<g>
			<path fill="none" stroke="#000000" d="M191.124,20.111h12"/>
			<path fill="none" stroke="#000000" d="M190.79,13.111h12"/>
		</g>
		<path fill="none" stroke="#000000" stroke-miterlimit="1" d="M168.48,20.111h11.644"/>
		<g>
			<path fill="none" stroke="#000000" d="M214.124,19.111h12"/>
			<path fill="none" stroke="#000000" d="M213.79,12.111h12"/>
		</g>
		<g>
			<path fill="none" stroke="#000000" d="M237.124,19.111h12"/>
			<path fill="none" stroke="#000000" d="M236.79,12.111h12"/>
		</g>
		<g>
			<path fill="none" stroke="#000000" d="M267.124,19.111h12"/>
			<path fill="none" stroke="#000000" d="M266.79,12.111h12"/>
		</g>
		<path fill="none" stroke="#000000" stroke-miterlimit="1" d="M372.48,20.111h11.644"/>
	</g>
</svg>
